<svg width="38" height="29" viewBox="0 0 38 29" fill="none" xmlns="http://www.w3.org/2000/svg">
<path d="M31.5253 3.00834C29.2216 1.9513 26.7512 1.17252 24.1683 0.72648C24.1212 0.717872 24.0743 0.739385 24.05 0.782412C23.7323 1.34749 23.3804 2.08468 23.1339 2.6641C20.3558 2.24819 17.592 2.24819 14.8708 2.6641C14.6243 2.0718 14.2596 1.34749 13.9405 0.782412C13.9163 0.740821 13.8693 0.719308 13.8222 0.72648C11.2407 1.17109 8.77036 1.94987 6.46522 3.00834C6.44527 3.01694 6.42816 3.0313 6.41681 3.04993C1.73103 10.0504 0.447393 16.8788 1.0771 23.6225C1.07995 23.6555 1.09847 23.6871 1.12411 23.7071C4.21566 25.9775 7.21035 27.3558 10.1494 28.2694C10.1965 28.2838 10.2463 28.2665 10.2762 28.2278C10.9715 27.2784 11.5912 26.2773 12.1226 25.2245C12.154 25.1629 12.124 25.0897 12.0599 25.0653C11.0769 24.6924 10.1409 24.2378 9.24049 23.7215C9.16927 23.6799 9.16356 23.578 9.22908 23.5293C9.41856 23.3873 9.60809 23.2396 9.78901 23.0904C9.82174 23.0632 9.86736 23.0574 9.90584 23.0746C15.8211 25.7753 22.225 25.7753 28.0704 23.0746C28.1089 23.056 28.1545 23.0617 28.1887 23.089C28.3697 23.2381 28.5591 23.3873 28.75 23.5293C28.8156 23.578 28.8113 23.6799 28.7401 23.7215C27.8397 24.2478 26.9036 24.6924 25.9192 25.0639C25.8551 25.0883 25.8266 25.1629 25.8579 25.2245C26.4007 26.2758 27.0205 27.2769 27.7029 28.2264C27.7314 28.2665 27.7826 28.2838 27.8297 28.2694C30.783 27.3558 33.7777 25.9775 36.8692 23.7071C36.8963 23.6871 36.9134 23.6569 36.9163 23.624C37.6699 15.8275 35.654 9.05505 31.5723 3.05135C31.5623 3.0313 31.5453 3.01694 31.5253 3.00834ZM13.0059 19.5163C11.2251 19.5163 9.75765 17.8813 9.75765 15.8734C9.75765 13.8654 11.1966 12.2304 13.0059 12.2304C14.8295 12.2304 16.2827 13.8798 16.2542 15.8734C16.2542 17.8813 14.8152 19.5163 13.0059 19.5163ZM25.0159 19.5163C23.2351 19.5163 21.7677 17.8813 21.7677 15.8734C21.7677 13.8654 23.2066 12.2304 25.0159 12.2304C26.8395 12.2304 28.2927 13.8798 28.2642 15.8734C28.2642 17.8813 26.8395 19.5163 25.0159 19.5163Z" fill="#2C2C2C"/>
</svg>
