<svg width="36" height="34" viewBox="0 0 36 34" fill="none" xmlns="http://www.w3.org/2000/svg">
<path d="M34.9129 0.0590835L0.504895 14.2385C-0.149705 14.5082 -0.17348 15.4714 0.46687 15.7764L8.07352 19.3994C8.27954 19.4977 8.43599 19.6831 8.50379 19.9097L11.7673 30.8109C11.9322 31.3612 12.5662 31.5747 13.0052 31.2276L18.6858 26.7355C18.9571 26.521 19.3281 26.5109 19.6096 26.7102L29.1368 33.4565C29.6121 33.7929 30.2601 33.5075 30.3643 32.9159L33.1752 16.9521L35.9862 0.988232C36.0997 0.343819 35.4941 -0.180387 34.9129 0.0590835ZM14.0626 20.9456L13.0361 27.0703L10.3864 18.3009L28.5522 6.46646L14.0626 20.9456Z" fill="#2C2C2C"/>
</svg>
