<svg width="36" height="26" viewBox="0 0 36 26" fill="none" xmlns="http://www.w3.org/2000/svg">
<g clip-path="url(#clip0_16385_589)">
<path d="M31.1098 25.1333C31.1098 25.1333 21.2784 25.4102 18 25.4102C14.7216 25.4102 4.89151 25.1333 4.89151 25.1333C3.66807 25.1298 2.49572 24.6381 1.63061 23.7655C0.765504 22.8929 0.277964 21.7104 0.274515 20.4763C0.274515 20.4763 0 14.6498 0 12.7037C0 10.7575 0.274515 4.92442 0.274515 4.92442C0.278653 3.69083 0.766496 2.509 1.63153 1.63696C2.49656 0.764929 3.66852 0.273528 4.89151 0.270052C4.89151 0.270052 14.7229 -0.00683594 18 -0.00683594C21.2771 -0.00683594 31.1098 0.270052 31.1098 0.270052C32.3332 0.274579 33.5052 0.767348 34.3696 1.64069C35.2339 2.51404 35.7205 3.69696 35.7229 4.93101C35.7229 4.93101 35.9974 10.7536 35.9974 12.7103C35.9974 14.6669 35.7229 20.4829 35.7229 20.4829C35.7174 21.715 35.2295 22.895 34.3655 23.766C33.5015 24.637 32.3313 25.1285 31.1098 25.1333Z" fill="#2C2C2C"/>
<path fill-rule="evenodd" clip-rule="evenodd" d="M14.5527 18.3847V7.02832L23.6482 12.7059L14.5527 18.3847Z" fill="#F6F2F2"/>
</g>
<defs>
<clipPath id="clip0_16385_589">
<rect width="36" height="25.4118" fill="white"/>
</clipPath>
</defs>
</svg>
