<svg width="36" height="26" viewBox="0 0 36 26" fill="none" xmlns="http://www.w3.org/2000/svg">
<g clip-path="url(#clip0_455_1689)">
<path d="M31.1098 25.1343C31.1098 25.1343 21.2784 25.4112 18 25.4112C14.7216 25.4112 4.89151 25.1343 4.89151 25.1343C3.66807 25.1308 2.49572 24.639 1.63061 23.7664C0.765504 22.8938 0.277964 21.7113 0.274515 20.4773C0.274515 20.4773 0 14.6508 0 12.7046C0 10.7585 0.274515 4.92539 0.274515 4.92539C0.278653 3.69181 0.766496 2.50997 1.63153 1.63794C2.49656 0.765906 3.66852 0.274505 4.89151 0.271029C4.89151 0.271029 14.7229 -0.00585938 18 -0.00585938C21.2771 -0.00585938 31.1098 0.271029 31.1098 0.271029C32.3332 0.275556 33.5052 0.768324 34.3696 1.64167C35.2339 2.51501 35.7205 3.69794 35.7229 4.93198C35.7229 4.93198 35.9974 10.7546 35.9974 12.7112C35.9974 14.6679 35.7229 20.4839 35.7229 20.4839C35.7174 21.716 35.2295 22.896 34.3655 23.767C33.5015 24.638 32.3313 25.1294 31.1098 25.1343Z" fill="white"/>
<path fill-rule="evenodd" clip-rule="evenodd" d="M14.5532 18.3837V7.02734L23.6486 12.7049L14.5532 18.3837Z" fill="#393939"/>
</g>
<defs>
<clipPath id="clip0_455_1689">
<rect width="36" height="25.4118" fill="white"/>
</clipPath>
</defs>
</svg>
