<svg width="119" height="151" viewBox="0 0 119 151" fill="none" xmlns="http://www.w3.org/2000/svg">
<path d="M118.752 137.563C118.752 144.433 92.1691 150.002 59.3759 150.002C26.5827 150.002 0 144.433 0 137.563C0 133.456 9.49645 129.813 24.145 127.537C29.2556 131.843 35.1524 135.103 41.5041 137.132C42.3929 137.407 43.1452 137.626 43.8791 137.815C52.7619 140.184 62.1158 140.088 70.9487 137.537L71.181 137.455L71.7563 137.244L72.7189 136.891C72.7841 136.865 72.8506 136.843 72.918 136.824L73.958 136.453C74.4965 136.256 74.9611 136.081 75.3631 135.94L75.4553 135.907L75.8241 135.762H75.8831L76.1523 135.625H76.2224L76.3035 135.595H76.322L76.4031 135.565C77.0006 135.346 77.764 135.064 77.9889 134.956H78.0221C78.3909 134.797 78.7597 134.629 79.2096 134.403L80.9135 133.519C81.1052 133.419 81.2823 133.322 81.4519 133.233L81.4999 133.207L81.5478 133.185C81.6474 133.137 81.7506 133.074 81.8465 133.018L81.8982 132.988C84.4676 131.541 86.9093 129.875 89.1966 128.009C89.6281 127.667 90.019 127.336 90.4099 126.995C107.408 129.141 118.752 133.074 118.752 137.563Z" fill="#DDCDCD"/>
<path d="M108.77 86.3379C108.77 76.4123 106.122 63.1409 101.504 49.9476L100.287 46.6056C100.011 45.863 99.7305 45.1203 99.4023 44.2848C99.3617 44.1845 99.3211 44.0843 99.2806 43.9766C99.24 43.8689 99.192 43.7501 99.1257 43.5867C98.7569 42.651 98.3881 41.7301 98.0193 40.8649L97.7796 40.3041C97.3075 39.1902 96.8908 38.2358 96.463 37.3335L96.3413 37.0699C95.9135 36.1081 95.5631 35.3543 95.2091 34.6339L94.1027 32.406L94.0842 32.3577L93.9552 32.094C93.9432 32.0637 93.9296 32.0339 93.9146 32.0049L93.8298 31.8378L93.7929 31.7821L92.3583 29.0566C90.3255 25.3258 88.059 21.729 85.5725 18.288L83.3892 15.4102H83.3486L82.9061 14.8755C74.7668 5.00553 66.019 0 56.9061 0C48.7926 0 40.9041 4.06606 33.4249 12.0905C26.8235 19.1718 21.8743 27.9537 18.8908 34.0658C17.7844 36.3792 16.6264 38.9339 15.4942 41.6335L13.9563 45.4879C13.7608 45.9781 13.6908 46.1749 13.6649 46.2566L13.6465 46.3123L13.6244 46.3642C13.4474 46.8024 13.2777 47.2554 13.097 47.7753L12.6913 48.8893C8.59771 60.3597 5.95346 71.9117 5.24537 81.4364L5.10154 83.5084C5.05729 84.6595 5.03516 85.573 5.03516 86.3825C5.0368 88.4699 5.15995 90.5554 5.40395 92.6282C5.40395 92.6282 5.4519 93.0701 5.46296 93.1815C6.05815 97.9571 7.29123 102.63 9.12878 107.073L9.2431 107.348C12.2461 114.476 16.7421 120.867 22.4238 126.085L23.1135 126.701C23.4601 127.006 23.8105 127.31 24.1608 127.604C29.2714 131.91 35.1682 135.169 41.52 137.199C42.4088 137.474 43.1611 137.693 43.895 137.882C52.7778 140.251 62.1317 140.154 70.9645 137.604L71.1969 137.522L71.7722 137.31L72.7347 136.958C72.8 136.932 72.8664 136.91 72.9339 136.891L73.9739 136.519C74.5123 136.323 74.977 136.148 75.379 136.007L75.4712 135.974L75.84 135.829H75.899L76.1682 135.691H76.2383L76.3194 135.662H76.3379L76.419 135.632C77.0164 135.413 77.7798 135.131 78.0048 135.023H78.038C78.4068 134.863 78.7756 134.696 79.2255 134.47L80.9293 133.586C81.1211 133.486 81.2981 133.389 81.4678 133.3L81.5157 133.274L81.5637 133.252C81.6633 133.203 81.7665 133.14 81.8624 133.085L81.914 133.055C84.4835 131.608 86.9252 129.942 89.2125 128.075C89.644 127.734 90.0349 127.403 90.4258 127.062L90.4885 127.01L90.9347 126.638L91.6723 125.963C96.6267 121.382 100.655 115.881 103.536 109.761L103.699 109.42C103.865 109.074 104.016 108.725 104.16 108.391L104.27 108.139L104.399 107.83L104.506 107.585C104.588 107.407 104.665 107.214 104.746 107.028V106.995L104.798 106.884L104.916 106.609L106.07 103.534L106.048 103.493L106.24 102.888C107.93 97.5369 108.784 91.9534 108.77 86.3379V86.3379ZM100.988 98.2427L100.951 98.3839C100.852 98.7737 100.745 99.1636 100.63 99.5498C100.355 100.54 100.046 101.508 99.7047 102.454L98.9671 104.385C98.9118 104.522 98.8528 104.659 98.7901 104.8C98.7274 104.942 98.6831 105.046 98.6241 105.172L98.4913 105.487C98.436 105.617 98.377 105.747 98.3217 105.881C98.2184 106.115 98.1152 106.353 98.0119 106.579L97.8791 106.843C94.2031 114.664 88.4263 121.294 81.2023 125.981C80.3946 126.505 79.5648 127.006 78.7203 127.466L78.2593 127.715L77.8094 127.953L76.4448 128.655L76.2457 128.751C75.9875 128.874 75.7404 128.989 75.4564 129.123L75.4122 129.141C74.859 129.364 71.8127 130.493 69.1906 131.454L69.139 131.473H69.0874C68.5895 131.614 68.0879 131.748 67.579 131.87C67.236 131.956 66.8894 132.034 66.539 132.112L66.4025 132.145C63.2849 132.836 60.102 133.183 56.9098 133.181C48.5391 133.191 40.3348 130.827 33.2369 126.36C30.2908 124.51 27.5627 122.33 25.1049 119.862C16.5648 111.306 11.6309 99.7638 11.3305 87.6376V87.619C11.3305 87.3591 11.3305 87.1029 11.3305 86.8466C11.3305 86.6758 11.3305 86.5013 11.3305 86.3305C11.3305 85.9814 11.3305 85.6287 11.3305 85.2796C11.3305 85.1014 11.3305 84.9083 11.3305 84.7486C11.3305 84.4367 11.3526 84.1322 11.3637 83.8426V83.7609L11.4485 82.3758V82.3275C11.4659 82.1896 11.4758 82.0507 11.478 81.9117V81.8597C11.6476 79.6317 11.9242 77.3035 12.3078 74.8787C12.3078 74.8415 12.3078 74.8044 12.3262 74.7636C13.6829 66.6662 15.7741 58.7112 18.5736 50.9984L18.9719 49.9327C19.1231 49.4983 19.2817 49.0675 19.4735 48.5662C19.5398 48.3806 19.6284 48.1504 19.7169 47.9276L20.5946 45.6996L20.9339 44.8715C21.8891 42.547 22.7963 40.4787 23.7035 38.5589C23.7035 38.5589 24.3489 37.1887 24.5112 36.8508C26.5728 32.625 29.973 26.3756 34.4391 20.6051L34.5276 20.4974C41.8298 11.0916 49.3532 6.32003 56.8803 6.32003C61.055 6.32003 65.2593 7.77936 69.375 10.6535C71.0976 11.8738 72.7195 13.2324 74.2247 14.7158C75.2425 15.711 76.2604 16.8101 77.2783 17.9946C77.9642 18.7918 78.6465 19.6322 79.3251 20.516L80.5163 22.0756C82.822 25.2817 84.9258 28.6302 86.8153 32.1015L88.1946 34.7008C88.2425 34.7862 88.2868 34.879 88.3347 34.9719C88.3827 35.0647 88.4085 35.1315 88.4638 35.2392L89.5296 37.4041C89.8763 38.1022 90.2303 38.8597 90.6102 39.7063L90.7245 39.9625C91.2113 41.006 91.6355 42.0011 91.9858 42.8292L92.2145 43.3639C92.5882 44.2477 92.941 45.103 93.2729 45.9298L93.402 46.2603C93.4536 46.394 93.4979 46.5091 93.5384 46.6019V46.6427C93.8408 47.4114 94.1064 48.1281 94.383 48.8447L95.2791 51.3141C95.8581 52.9554 96.415 54.6041 96.9276 56.2193C97.0014 56.4496 97.0752 56.6835 97.1452 56.9137C98.543 61.3957 99.6899 65.7997 100.56 70.0217C100.59 70.1442 100.605 70.2519 100.619 70.3484C101.836 76.2897 102.463 81.6666 102.463 86.3565C102.468 90.3652 101.972 94.3585 100.988 98.2427V98.2427Z" fill="#DDCDCD"/>
<path d="M78.5547 55.1983C78.5547 70.6085 59.8826 72.3575 59.8826 86.4309V87.8679L51.4003 88.1761V86.3195C51.1975 68.0352 69.1541 67.623 69.1541 55.707C69.1541 49.335 64.2565 44.5077 57.2162 44.5077C50.6849 44.5077 46.2999 48.4141 46.2999 54.1623C46.2783 55.0127 46.4525 55.8566 46.8088 56.628L37.6259 58.065C37.2207 56.6986 37.0144 55.2802 37.0137 53.8541C37.0137 43.3752 45.0755 36.4016 57.2162 36.4016C69.9839 36.4016 78.5547 44.207 78.5547 55.1983ZM61.0074 102.762C60.9979 103.886 60.659 104.982 60.033 105.912C59.4071 106.842 58.5222 107.566 57.4893 107.992C56.4564 108.418 55.3216 108.527 54.2274 108.305C53.1331 108.084 52.1282 107.542 51.3387 106.748C50.5493 105.953 50.0104 104.942 49.7899 103.84C49.5694 102.739 49.677 101.596 50.0993 100.556C50.5215 99.5155 51.2395 98.624 52.1632 97.9932C53.0869 97.3624 54.1751 97.0204 55.2911 97.0101C56.0426 97.0061 56.7874 97.1522 57.4824 97.4398C58.1775 97.7274 58.809 98.1509 59.3406 98.6858C59.8721 99.2206 60.2931 99.8562 60.5792 100.556C60.8653 101.256 61.0109 102.005 61.0074 102.762V102.762Z" fill="#DDCDCD"/>
</svg>
