<svg width="21" height="21" viewBox="0 0 21 21" fill="none" xmlns="http://www.w3.org/2000/svg">
<path d="M17.9551 9.64219V2.84219C17.9551 1.34219 17.428 0.742188 16.1186 0.742188H12.7915C11.4821 0.742188 10.9551 1.34219 10.9551 2.84219V9.64219C10.9551 11.1422 11.4821 11.7422 12.7915 11.7422H16.1186C17.428 11.7422 17.9551 11.1422 17.9551 9.64219Z" fill="#2C2C2C"/>
<path d="M8.95508 10.8422V17.6422C8.95508 19.1422 8.35273 19.7422 6.85626 19.7422H3.0539C1.55743 19.7422 0.955078 19.1422 0.955078 17.6422V10.8422C0.955078 9.34219 1.55743 8.74219 3.0539 8.74219H6.85626C8.35273 8.74219 8.95508 9.34219 8.95508 10.8422Z" fill="#2C2C2C"/>
<path d="M17.9551 17.9422V15.5422C17.9551 14.2565 17.428 13.7422 16.1186 13.7422H12.7915C11.4821 13.7422 10.9551 14.2565 10.9551 15.5422V17.9422C10.9551 19.2279 11.4821 19.7422 12.7915 19.7422H16.1186C17.428 19.7422 17.9551 19.2279 17.9551 17.9422Z" fill="#2C2C2C"/>
<path d="M8.95508 4.94219V2.54219C8.95508 1.25647 8.35273 0.742188 6.85626 0.742188H3.0539C1.55743 0.742188 0.955078 1.25647 0.955078 2.54219V4.94219C0.955078 6.2279 1.55743 6.74219 3.0539 6.74219H6.85626C8.35273 6.74219 8.95508 6.2279 8.95508 4.94219Z" fill="#2C2C2C"/>
</svg>
