<svg width="19" height="22" viewBox="0 0 19 22" fill="none" xmlns="http://www.w3.org/2000/svg">
<path d="M17.7331 11.2456C17.8542 11.0796 17.9727 10.9082 18.0911 10.7367C18.2849 10.4645 18.4921 10.1733 18.6859 9.88486C18.7278 9.83857 18.7578 9.78268 18.7736 9.72202C18.7893 9.66135 18.7901 9.59773 18.7761 9.53665C18.762 9.47557 18.7335 9.41886 18.6929 9.37142C18.6524 9.32398 18.601 9.28724 18.5433 9.26435C18.4298 9.2316 18.3095 9.2316 18.1961 9.26435C17.7008 9.37049 17.2136 9.49296 16.7237 9.61271C16.678 9.61271 16.6322 9.61271 16.5649 9.63448C16.5972 9.56644 16.6215 9.52562 16.6376 9.4848C16.8368 9.1065 17.044 8.72549 17.2432 8.3472C17.2888 8.26319 17.3301 8.1769 17.367 8.08865C17.3902 8.02628 17.3973 7.95895 17.3877 7.89304C17.378 7.82712 17.3518 7.76479 17.3117 7.71194C17.2715 7.65909 17.2187 7.61747 17.1582 7.591C17.0977 7.56453 17.0316 7.55409 16.966 7.56067C16.896 7.56067 16.8341 7.58244 16.7668 7.59333C15.4075 7.91991 14.0483 8.23833 12.6944 8.57036C12.6738 8.57947 12.6516 8.58414 12.6291 8.58408C12.6067 8.58402 12.5845 8.57922 12.564 8.57001C12.5435 8.56079 12.5251 8.54734 12.51 8.53054C12.4949 8.51373 12.4834 8.49392 12.4764 8.47239C12.2565 8.00912 11.9758 7.57795 11.6419 7.19054C11.0288 6.44155 10.2291 5.87143 9.32547 5.53895C8.4218 5.20648 7.4468 5.12368 6.50094 5.29908L5.96262 3.66616C6.23848 3.4721 6.44492 3.19309 6.55114 2.87071C6.65736 2.54834 6.65768 2.19989 6.55205 1.87732C6.44641 1.55475 6.24048 1.27535 5.96497 1.08078C5.68946 0.886216 5.35913 0.786907 5.02324 0.797665C4.71492 0.79855 4.41373 0.891569 4.15754 1.06504C3.90134 1.2385 3.70158 1.48467 3.58336 1.7726C3.46514 2.06052 3.43374 2.37736 3.4931 2.68329C3.55246 2.98921 3.69994 3.27056 3.91699 3.49198C4.17779 3.75851 4.52444 3.92169 4.89405 3.95192L5.43237 5.58484C5.28702 5.64199 5.14437 5.70459 4.99902 5.77263C4.11528 6.1855 3.36775 6.84685 2.84572 7.6777C2.16983 8.75504 1.84071 10.0177 1.90365 11.2919C1.90937 11.3345 1.90214 11.3779 1.88292 11.4163C1.86369 11.4547 1.83337 11.4863 1.79598 11.5069C1.52682 11.6593 1.24151 11.828 0.969655 11.9886C0.675587 12.1291 0.403523 12.3125 0.162167 12.5329C0.0996597 12.5884 0.0525993 12.6594 0.0256696 12.739C-0.00126012 12.8185 -0.00712518 12.9038 0.00866121 12.9864C0.0244476 13.069 0.0613336 13.1459 0.115653 13.2096C0.169973 13.2733 0.239831 13.3215 0.318282 13.3494C0.540613 13.4331 0.769239 13.4986 1.00195 13.5453C1.51336 13.6569 2.03554 13.7549 2.55233 13.8583C2.59451 13.8634 2.63398 13.882 2.66498 13.9113C2.69597 13.9407 2.71686 13.9794 2.7246 14.0216C2.87533 14.5223 3.01798 15.034 3.19294 15.5266C3.53605 16.5078 4.03916 17.424 4.68141 18.2372C5.67937 19.5291 7.06804 20.4553 8.63541 20.8744C9.96573 21.2274 11.3533 21.3024 12.7132 21.0949C13.4915 20.9937 14.2573 20.8113 14.9984 20.5505C15.3295 20.4417 15.4264 20.2784 15.3483 19.9382C15.1599 19.1217 14.9742 18.3325 14.7831 17.5269C14.77 17.481 14.7673 17.4327 14.7753 17.3856C14.7832 17.3385 14.8015 17.2938 14.8288 17.2548C15.9055 15.5711 16.9821 13.8873 18.0588 12.2036C18.1216 12.1165 18.1791 12.0256 18.2311 11.9315C18.2649 11.8701 18.2819 11.8007 18.2802 11.7305C18.2784 11.6603 18.2581 11.5918 18.2212 11.5323C18.1843 11.4728 18.1323 11.4244 18.0706 11.3921C18.0089 11.3599 17.9397 11.345 17.8704 11.349C17.8085 11.349 17.7385 11.349 17.6766 11.349L17.6416 11.3191C17.6747 11.2982 17.7054 11.2735 17.7331 11.2456ZM16.2258 8.54859C16.1047 8.78808 15.9916 8.99492 15.8813 9.20992C15.7709 9.42492 15.6821 9.5991 15.569 9.78961C15.5372 9.84428 15.4863 9.88502 15.4264 9.90391C14.705 10.0808 13.9756 10.2523 13.2542 10.4237C13.1923 10.4401 13.1331 10.4645 13.1116 10.3666C13.0335 10.0509 12.942 9.72701 12.8639 9.41131C12.8597 9.39251 12.8597 9.37296 12.8639 9.35416L16.2258 8.54859ZM4.30458 3.10552C4.16421 2.9619 4.06886 2.77961 4.03049 2.58145C3.99212 2.3833 4.01242 2.1781 4.08886 1.99156C4.1653 1.80502 4.29448 1.64544 4.46021 1.53279C4.62594 1.42014 4.82086 1.35944 5.02055 1.35829C5.28735 1.36043 5.54257 1.46874 5.73098 1.65974C5.91939 1.85075 6.02581 2.1091 6.02722 2.37887C6.02833 2.63644 5.93204 2.88471 5.75806 3.07286L5.73383 3.10007C5.63987 3.19519 5.52825 3.27061 5.40539 3.32199C5.28252 3.37336 5.15082 3.39968 5.01786 3.39944C4.74944 3.39933 4.49199 3.29168 4.30189 3.10007L4.30458 3.10552ZM3.47556 13.7195C3.45419 13.5834 3.39263 13.4571 3.29896 13.357C3.20529 13.257 3.08389 13.1879 2.95069 13.1589C2.52541 13.0554 2.08668 12.9684 1.6614 12.8867C1.52413 12.8595 1.39224 12.835 1.25766 12.8132C1.25766 12.8132 1.25766 12.7887 1.25766 12.7778L1.54835 12.6064C1.83098 12.4322 2.11629 12.2662 2.39622 12.0893C2.48577 12.0386 2.56161 11.9665 2.61701 11.8791C2.6724 11.7918 2.70566 11.692 2.71383 11.5885C2.72796 11.5419 2.73254 11.4928 2.72729 11.4443C2.67342 10.7187 2.75935 9.98948 2.9803 9.29701C3.17129 8.6961 3.47989 8.14019 3.88774 7.66235C4.29559 7.18452 4.79434 6.79453 5.35431 6.5156C6.10202 6.14804 6.9307 5.98121 7.76063 6.03117C8.62376 6.08198 9.4543 6.38237 10.1535 6.89662C10.7819 7.34879 11.3001 7.93981 11.6689 8.62479C11.942 9.12623 12.1441 9.664 12.2691 10.2223C12.5365 11.3726 12.8056 12.5211 13.0766 13.6678L13.012 13.6923C10.2704 15.2178 7.12118 15.8257 4.01658 15.4286C3.78583 14.8737 3.60477 14.299 3.47556 13.7113V13.7195ZM5.21973 17.6276C4.80511 17.0769 4.45467 16.4796 4.17538 15.8477C7.27706 16.1918 10.4086 15.5678 13.1493 14.0597C13.3933 15.083 13.6338 16.1054 13.8706 17.1269C11.4706 18.3876 8.74951 18.8847 6.0649 18.5529C5.75757 18.2695 5.47482 17.9599 5.21973 17.6276ZM14.3497 19.9246C13.601 20.1513 12.8304 20.2964 12.0511 20.3573C10.686 20.5006 9.30689 20.314 8.0271 19.813C7.53822 19.6116 7.07617 19.3492 6.65168 19.0319C9.1788 19.223 11.7095 18.712 13.9702 17.5541C14.1398 18.2753 14.304 18.9966 14.4735 19.7314C14.5085 19.8783 14.5085 19.8783 14.3551 19.9246H14.3497ZM17.3482 10.3992L16.4142 11.7409C16.3717 11.7863 16.3406 11.8413 16.3232 11.9013C16.3059 11.9612 16.3028 12.0245 16.3144 12.0859C16.326 12.1473 16.3518 12.205 16.3897 12.2543C16.4277 12.3037 16.4766 12.3432 16.5326 12.3696C16.6305 12.3984 16.7324 12.4104 16.8341 12.405C16.8765 12.4005 16.9181 12.3904 16.9579 12.3751C16.9641 12.3881 16.9723 12.4 16.9821 12.4104C16.1558 13.6923 15.3349 14.9714 14.5032 16.2805C14.4833 16.2425 14.4679 16.2023 14.4574 16.1607C14.0824 14.5641 13.7091 12.9656 13.3377 11.3654C13.3161 11.2728 13.3377 11.232 13.4292 11.2102C14.7212 10.9054 16.0123 10.5979 17.3024 10.2876C17.3443 10.2799 17.3865 10.2744 17.429 10.2713L17.3482 10.3992Z" fill="#676565"/>
<path d="M16.2259 8.54883C16.1048 8.78832 15.9917 8.99516 15.8813 9.21016C15.771 9.42516 15.6822 9.59934 15.5691 9.78985C15.5372 9.84452 15.4864 9.88526 15.4265 9.90415C14.7051 10.0811 13.9757 10.2525 13.2543 10.424C13.1924 10.4403 13.1332 10.4648 13.1117 10.3668C13.0336 10.0511 12.9421 9.72725 12.864 9.41155C12.8598 9.39275 12.8598 9.37321 12.864 9.3544L16.2259 8.54883Z" fill="#EEEEEE"/>
<path d="M16.4197 11.745C16.3772 11.7904 16.346 11.8454 16.3287 11.9053C16.3113 11.9653 16.3083 12.0286 16.3199 12.09C16.3314 12.1514 16.3572 12.2091 16.3952 12.2584C16.4331 12.3077 16.4821 12.3473 16.5381 12.3737C16.6359 12.4025 16.7378 12.4144 16.8396 12.4091C16.882 12.4046 16.9236 12.3945 16.9634 12.3791C16.9696 12.3921 16.9778 12.4041 16.9876 12.4145C16.1613 13.6964 15.3403 14.9755 14.5086 16.2845C14.4888 16.2466 14.4734 16.2064 14.4629 16.1648C14.0878 14.5682 13.7146 12.9697 13.3431 11.3694C13.3216 11.2769 13.3431 11.2361 13.4347 11.2143C14.7266 10.9095 16.0177 10.602 17.3079 10.2917C17.3498 10.284 17.392 10.2785 17.4344 10.2754L17.3537 10.4033L16.4197 11.745Z" fill="#EEEEEE"/>
<path d="M6.07289 18.5592C5.76253 18.2744 5.47705 17.963 5.21964 17.6285C4.80502 17.0777 4.45458 16.4805 4.17529 15.8486C7.27697 16.1926 10.4085 15.5687 13.1492 14.0605C13.3932 15.0838 13.6337 16.1062 13.8705 17.1277C11.4734 18.3887 8.75539 18.8876 6.07289 18.5592Z" fill="#EEEEEE"/>
<path d="M14.3553 19.9251C13.6065 20.1519 12.8359 20.297 12.0566 20.3579C10.6916 20.5011 9.31245 20.3146 8.03266 19.8136C7.54191 19.6126 7.07802 19.3502 6.65186 19.0325C9.17898 19.2235 11.7097 18.7125 13.9704 17.5547C14.14 18.2759 14.3041 18.9971 14.4737 19.7319C14.5087 19.8789 14.5087 19.8789 14.3553 19.9251Z" fill="#EEEEEE"/>
<path d="M4.00058 15.4108C3.77641 14.8615 3.60077 14.2932 3.47571 13.7126C3.45434 13.5765 3.39278 13.4502 3.29911 13.3501C3.20545 13.2501 3.08404 13.181 2.95085 13.152C2.52557 13.0486 2.08683 12.9615 1.66156 12.8798C1.52428 12.8526 1.39239 12.8281 1.25781 12.8063C1.25781 12.8063 1.25781 12.7818 1.25781 12.771L1.54851 12.5995C1.83113 12.4253 2.11644 12.2593 2.39637 12.0824C2.48593 12.0318 2.56176 11.9596 2.61716 11.8722C2.67256 11.7849 2.70581 11.6851 2.71398 11.5817C2.72811 11.535 2.73269 11.4859 2.72744 11.4374C2.67357 10.7118 2.7595 9.98259 2.98045 9.29012C3.17145 8.68922 3.48005 8.1333 3.88789 7.65547C4.29574 7.17764 4.79449 6.78765 5.35447 6.50872C6.10218 6.14116 6.93085 5.97433 7.76078 6.02428C8.62391 6.0751 9.45445 6.37549 10.1536 6.88973C10.7821 7.34191 11.3003 7.93293 11.669 8.6179C11.9422 9.11934 12.1442 9.65712 12.2693 10.2154C12.5366 11.3657 12.8058 12.5142 13.0767 13.6609L13.0121 13.6854C10.2647 15.2106 7.10934 15.8148 4.00058 15.4108Z" fill="#EEEEEE"/>
<path d="M6.02703 2.37953C6.02815 2.63711 5.93186 2.88538 5.75787 3.07352L5.73365 3.10074C5.63969 3.19586 5.52807 3.27127 5.4052 3.32265C5.28233 3.37403 5.15064 3.40035 5.01767 3.40011C4.8848 3.40047 4.75316 3.37423 4.63036 3.3229C4.50757 3.27156 4.39603 3.19616 4.3022 3.10103C4.20836 3.0059 4.13408 2.89293 4.08365 2.76863C4.0332 2.64433 4.0076 2.51117 4.00832 2.37681C4.00832 2.10589 4.11457 1.84602 4.30379 1.65419C4.493 1.46237 4.74973 1.35424 5.01767 1.35352C5.28587 1.35496 5.54259 1.46369 5.73173 1.65595C5.92087 1.84821 6.02704 2.10836 6.02703 2.37953Z" fill="#EEEEEE"/>
<path d="M4.55805 14.5065C4.72306 14.5065 4.85682 14.3713 4.85682 14.2044C4.85682 14.0376 4.72306 13.9023 4.55805 13.9023C4.39304 13.9023 4.25928 14.0376 4.25928 14.2044C4.25928 14.3713 4.39304 14.5065 4.55805 14.5065Z" fill="#676565"/>
<path d="M7.15522 14.6159C7.32022 14.6159 7.45399 14.4806 7.45399 14.3138C7.45399 14.147 7.32022 14.0117 7.15522 14.0117C6.99021 14.0117 6.85645 14.147 6.85645 14.3138C6.85645 14.4806 6.99021 14.6159 7.15522 14.6159Z" fill="#676565"/>
<path d="M9.60688 14.071C9.77188 14.071 9.90565 13.9357 9.90565 13.7689C9.90565 13.602 9.77188 13.4668 9.60688 13.4668C9.44187 13.4668 9.30811 13.602 9.30811 13.7689C9.30811 13.9357 9.44187 14.071 9.60688 14.071Z" fill="#676565"/>
<path d="M11.6367 13.0319C11.8017 13.0319 11.9354 12.8967 11.9354 12.7298C11.9354 12.563 11.8017 12.4277 11.6367 12.4277C11.4717 12.4277 11.3379 12.563 11.3379 12.7298C11.3379 12.8967 11.4717 13.0319 11.6367 13.0319Z" fill="#676565"/>
<path d="M6.10533 12.1793C7.14591 12.1793 7.98947 11.3264 7.98947 10.2742C7.98947 9.22207 7.14591 8.36914 6.10533 8.36914C5.06475 8.36914 4.22119 9.22207 4.22119 10.2742C4.22119 11.3264 5.06475 12.1793 6.10533 12.1793Z" fill="#EEEEEE"/>
<path d="M6.10489 12.3881C5.82411 12.3982 5.54417 12.3511 5.2818 12.2495C5.01943 12.1479 4.77999 11.9939 4.57779 11.7966C4.37559 11.5994 4.21477 11.363 4.10493 11.1015C3.99509 10.84 3.93848 10.5589 3.93848 10.2748C3.93848 9.99071 3.99509 9.70954 4.10493 9.44806C4.21477 9.18659 4.37559 8.95018 4.57779 8.75294C4.77999 8.5557 5.01943 8.40167 5.2818 8.30006C5.54417 8.19845 5.82411 8.15133 6.10489 8.16152C6.64622 8.18116 7.1589 8.41241 7.53499 8.80658C7.91109 9.20075 8.12126 9.72709 8.12126 10.2748C8.12126 10.8225 7.91109 11.3488 7.53499 11.743C7.1589 12.1372 6.64622 12.3684 6.10489 12.3881ZM6.10489 8.57791C5.66083 8.57863 5.23513 8.75712 4.92089 9.07435C4.60664 9.39158 4.42943 9.82172 4.428 10.2707C4.42765 10.4934 4.47067 10.7139 4.55462 10.9198C4.63856 11.1256 4.76178 11.3127 4.91725 11.4704C5.07271 11.6281 5.25737 11.7533 5.46068 11.8388C5.664 11.9244 5.88198 11.9686 6.10219 11.9689C6.54647 11.9689 6.97258 11.7907 7.28698 11.4733C7.60138 11.1559 7.77836 10.7254 7.77907 10.2762C7.77943 10.0535 7.73641 9.83294 7.65246 9.6271C7.56852 9.42125 7.44529 9.23414 7.28983 9.07644C7.13437 8.91875 6.94971 8.79356 6.74639 8.70802C6.54308 8.62248 6.3251 8.57827 6.10489 8.57791Z" fill="#676565"/>
<path d="M6.10479 10.8462C6.41697 10.8462 6.67003 10.5903 6.67003 10.2746C6.67003 9.959 6.41697 9.70312 6.10479 9.70312C5.79262 9.70312 5.53955 9.959 5.53955 10.2746C5.53955 10.5903 5.79262 10.8462 6.10479 10.8462Z" fill="#676565"/>
</svg>
