<svg width="20" height="20" viewBox="0 0 20 20" fill="none" xmlns="http://www.w3.org/2000/svg">
<circle cx="10" cy="10" r="9.65" stroke="#676565" stroke-width="0.7"/>
<path d="M9.27698 15.9862C8.24126 15.9862 7.57021 15.7404 7.26381 15.2487C6.95634 14.7582 6.80098 13.8142 6.80098 12.4092V8.44147H5.64551V6.39116H6.94015V4.13438L9.28346 3.76562V6.35491H11.4973V8.42634H9.28346V11.8525C9.28346 12.8297 9.35143 13.4528 9.4906 13.722C9.62978 13.9912 10.0376 14.1276 10.7205 14.1276C10.8532 14.1276 11.1283 14.1277 11.5458 14.0908V15.6137C10.8115 15.8732 10.0458 15.9989 9.27698 15.9862Z" fill="#676565"/>
<circle cx="11.3415" cy="7.38739" r="1.03583" fill="#676565"/>
<circle cx="14.2419" cy="7.3913" r="1.03583" fill="#676565"/>
</svg>
