<svg width="147" height="85" viewBox="0 0 147 85" fill="none" xmlns="http://www.w3.org/2000/svg">
<g clip-path="url(#clip0_1781_678)">
<path d="M147.012 49.9888C147.036 50.6634 146.894 50.9448 146.14 51.0295C133.532 52.4635 120.921 53.9206 108.308 55.401C97.4118 56.6695 86.5241 57.9422 75.6444 59.2188C63.6529 60.6104 51.6584 61.994 39.6608 63.3694C34.1433 64.0108 28.6258 64.6915 23.1052 65.3177C22.403 65.3963 22.2668 65.6716 22.2699 66.31C22.2941 72.1759 22.2699 78.0388 22.2699 83.9077V84.9999C21.7947 84.9303 21.6434 84.6368 21.4375 84.4341C15.8161 78.8253 10.1987 73.2186 4.58531 67.6138C4.40753 67.4491 4.26676 67.2484 4.17233 67.0252C4.07789 66.802 4.03193 66.5613 4.03749 66.319C3.71062 50.7633 3.36962 35.2085 3.01449 19.6548C2.99331 18.8924 3.21425 18.6625 3.94367 18.5808C11.6162 17.7126 19.2856 16.808 26.946 15.9156C37.3414 14.7055 47.7389 13.4954 58.1384 12.2853C64.7667 11.5139 71.3919 10.7727 78.0172 9.99825C86.7278 8.98983 95.4375 7.97235 104.146 6.94578C115.708 5.59855 127.27 4.25635 138.834 2.9192C140.859 2.68323 142.89 2.47146 144.906 2.19314C145.647 2.09331 145.926 2.22642 145.941 3.0523C146.211 16.1617 146.502 29.2791 146.812 42.4046C146.879 44.9306 146.912 47.4627 147.012 49.9888Z" fill="#191919"/>
<path d="M143.985 47.832C144.01 48.5066 143.867 48.7879 143.114 48.8726C130.503 50.3066 117.892 51.7638 105.281 53.2441C94.3852 54.5127 83.4984 55.7853 72.6208 57.062C60.6293 58.4536 48.6348 59.8371 36.6372 61.2126C31.1197 61.8539 25.6022 62.5346 20.0816 63.1608C19.3794 63.2395 19.2432 63.5148 19.2463 64.1501C19.2675 70.019 19.2463 75.8819 19.2463 81.7509V82.843C18.7711 82.7734 18.6198 82.48 18.4139 82.2773C12.8026 76.6685 7.18922 71.0577 1.57382 65.4449C1.39625 65.2798 1.25545 65.0792 1.16054 64.8561C1.06564 64.633 1.01878 64.3925 1.02299 64.1501C0.700155 48.5943 0.359154 33.0396 -5.19259e-06 17.4858C-0.0181649 16.7235 0.199739 16.4936 0.932181 16.4119C8.60467 15.5436 16.2711 14.6391 23.9345 13.7467C34.3299 12.5366 44.7274 11.3265 55.1269 10.1164C61.7521 9.34494 68.3805 8.60376 75.0057 7.8293C83.7164 6.82089 92.4259 5.8034 101.135 4.77684C112.696 3.43162 124.259 2.08942 135.823 0.750248C137.847 0.51428 139.875 0.302516 141.894 0.0241942C142.636 -0.0756386 142.914 0.0574706 142.929 0.88336C143.2 13.9927 143.49 27.1101 143.801 40.2356C143.858 42.7738 143.892 45.3029 143.985 47.832Z" fill="#2C2C2C"/>
<path d="M8.32623 28.537L14.7063 27.8019C17.6966 27.454 19.9303 27.6778 21.6192 28.658C22.4066 29.094 23.0779 29.7126 23.5766 30.4617C24.0753 31.2107 24.387 32.0685 24.4854 32.9629C24.5957 34.0342 24.4625 35.1166 24.0956 36.1292C23.7288 37.1418 23.1377 38.0584 22.3667 38.8107C20.7868 40.408 18.4684 41.37 15.3571 41.73L12.3304 42.0779L11.7887 49.9436L6.84015 50.5153L8.32623 28.537ZM15.457 37.8305C17.1398 37.6369 18.0992 37.2255 18.7439 36.5176C19.0579 36.194 19.2946 35.8035 19.4361 35.3754C19.5776 34.9474 19.6203 34.4929 19.5611 34.0459C19.5314 33.6651 19.4046 33.2983 19.1926 32.9805C18.9807 32.6627 18.6907 32.4046 18.3504 32.2308C17.5816 31.8375 16.5011 31.7831 15.1331 31.9283L13.0145 32.1733L12.6028 38.1542L15.457 37.8305Z" fill="white" stroke="white" stroke-miterlimit="10"/>
<path d="M33.7559 25.5874L38.5804 25.0308L46.0501 45.9684L40.9442 46.5583L39.4581 42.1506L30.7112 43.161L28.5925 47.9832L23.3958 48.5883L33.7559 25.5874ZM32.4272 39.201L38.2172 38.5203L37.3576 36.0003C36.834 34.4634 36.3346 32.8661 35.8685 31.293H35.805C35.1482 32.9629 34.3764 34.7387 33.6258 36.451L32.4272 39.201Z" fill="white" stroke="white" stroke-miterlimit="10"/>
<path d="M49.6911 23.7451L54.6396 23.1733L53.4441 40.9405L63.0929 39.8242L62.7903 44.0596L48.1929 45.7476L49.6911 23.7451Z" fill="white" stroke="white" stroke-miterlimit="10"/>
<path d="M87.2847 29.1572C87.6393 32.241 86.8417 35.3471 85.045 37.879C84.0547 39.2537 82.7825 40.4015 81.3134 41.2461C79.8442 42.0906 78.2119 42.6125 76.5251 42.7768C70.6746 43.4545 65.4114 40.2356 64.6971 34.0551C64.343 30.9723 65.1406 27.8673 66.9368 25.3364C67.9271 23.9617 69.1993 22.8138 70.6684 21.9693C72.1376 21.1247 73.7699 20.6029 75.4567 20.4385C81.3072 19.7639 86.5704 22.9767 87.2847 29.1572ZM80.9288 35.6736C82.0398 34.0352 82.5371 32.0577 82.3332 30.089C81.9458 26.731 79.4216 24.2836 75.7473 24.7071C74.8021 24.8016 73.8898 25.1049 73.0763 25.5952C72.2629 26.0854 71.5686 26.7503 71.0439 27.5418C69.9331 29.1791 69.4358 31.1556 69.6395 33.1233C70.0269 36.4813 72.5511 38.9318 76.2255 38.5052C77.1725 38.413 78.0872 38.1111 78.9029 37.6212C79.7185 37.1314 80.4148 36.4661 80.9409 35.6736H80.9288Z" fill="white" stroke="white" stroke-miterlimit="10"/>
<path d="M91.3041 18.938L95.8168 18.4147L101.722 26.9186L108.859 16.9081L113.777 16.3394L112.282 38.3147L107.333 38.8864L107.938 30.086C108.066 28.1741 108.214 26.1986 108.383 24.3744H108.32C107.16 26.0746 105.969 27.7778 104.748 29.484L101.298 34.3244L98.6043 30.3916C97.6207 28.9667 96.5129 27.3179 95.5535 25.8356H95.493C95.4173 27.6507 95.3174 29.4991 95.1903 31.4111L94.585 40.3627L89.809 40.9103L91.3041 18.938Z" fill="white" stroke="white" stroke-miterlimit="10"/>
<path d="M124.763 15.0719L129.588 14.5122L137.058 35.4499L131.952 36.0398L130.466 31.635L121.719 32.6455L119.6 37.4677L114.4 38.0727L124.763 15.0719ZM123.435 28.6854L129.225 28.0138L128.365 25.4938C127.842 23.96 127.342 22.3627 126.876 20.7896H126.812C126.156 22.4625 125.384 24.2383 124.633 25.9506L123.435 28.6854Z" fill="white" stroke="white" stroke-miterlimit="10"/>
</g>
<defs>
<clipPath id="clip0_1781_678">
<rect width="147" height="85" fill="white"/>
</clipPath>
</defs>
</svg>
