<svg width="10" height="10" viewBox="0 0 10 10" fill="none" xmlns="http://www.w3.org/2000/svg">
<path d="M9.21947 0.780932C8.71931 0.280904 8.04102 0 7.33377 0C6.62653 0 5.94824 0.280904 5.44808 0.780932L3.95999 2.26772C4.07863 2.25529 4.19786 2.24933 4.31715 2.24986C4.68731 2.2494 5.05512 2.30855 5.40647 2.42504L6.24972 1.58218C6.39099 1.43511 6.56019 1.3177 6.7474 1.23682C6.93461 1.15594 7.13608 1.11322 7.34001 1.11116C7.54393 1.1091 7.74622 1.14774 7.93503 1.22482C8.12384 1.3019 8.29537 1.41587 8.43959 1.56006C8.58381 1.70425 8.69781 1.87576 8.77492 2.06455C8.85204 2.25334 8.89072 2.45561 8.88869 2.65953C8.88666 2.86345 8.84397 3.06492 8.76312 3.25214C8.68227 3.43936 8.56488 3.60857 8.41783 3.74986L6.76813 5.39968C6.5907 5.5769 6.37253 5.70793 6.13273 5.78131C5.89293 5.85469 5.6388 5.86818 5.39257 5.8206C5.14635 5.77303 4.91554 5.66583 4.72034 5.5084C4.52514 5.35097 4.3715 5.1481 4.27286 4.91754C4.08502 4.92764 3.90758 5.00697 3.77481 5.14022L3.33533 5.58022C3.53247 5.94624 3.81246 6.26111 4.15293 6.49969C4.49341 6.73827 4.88494 6.89396 5.29628 6.95433C5.70763 7.01471 6.12739 6.97809 6.52206 6.8474C6.91673 6.71671 7.27539 6.49558 7.56941 6.20165L9.21947 4.55129C9.71934 4.05121 10.0001 3.37308 10.0001 2.66602C10.0001 1.95896 9.71934 1.28084 9.21947 0.780754V0.780932Z" fill="#20253B"/>
<path d="M5.70145 7.74952C5.32679 7.74982 4.95462 7.68859 4.5998 7.56827L3.75013 8.41649C3.60775 8.55883 3.43872 8.67173 3.2527 8.74876C3.06668 8.82578 2.86731 8.86541 2.66597 8.86538C2.46464 8.86536 2.26528 8.82568 2.07928 8.74861C1.89327 8.67154 1.72427 8.5586 1.58193 8.41622C1.43958 8.27384 1.32667 8.10482 1.24964 7.9188C1.17262 7.73279 1.13299 7.53343 1.13301 7.3321C1.13304 7.13077 1.17272 6.93142 1.24979 6.74542C1.32686 6.55943 1.43981 6.39044 1.58219 6.24809L3.23225 4.59827C3.40982 4.42134 3.628 4.29057 3.86774 4.21736C4.10749 4.14416 4.36151 4.13075 4.60762 4.17831C4.85374 4.22586 5.08448 4.33294 5.27969 4.49019C5.4749 4.64743 5.62865 4.85007 5.72752 5.08041C5.9158 5.07101 6.09385 4.99189 6.227 4.85845L6.66577 4.41898C6.46853 4.053 6.18849 3.73817 5.84799 3.49961C5.50749 3.26104 5.11596 3.10534 4.70461 3.04493C4.29327 2.98451 3.87349 3.02105 3.47877 3.15163C3.08405 3.28221 2.72531 3.50321 2.43115 3.79702L0.781451 5.44738C0.282877 5.9477 0.00319251 6.6254 0.00378512 7.33172C0.00437773 8.03804 0.285199 8.71526 0.784612 9.21475C1.28403 9.71424 1.96122 9.99518 2.66757 9.99591C3.37391 9.99664 4.05168 9.71709 4.55212 9.21863L6.03753 7.73309C5.92681 7.74345 5.81485 7.74898 5.70198 7.74898L5.70145 7.74952Z" fill="#20253B"/>
</svg>
