<svg width="150" height="29" viewBox="0 0 150 29" fill="none" xmlns="http://www.w3.org/2000/svg">
<path d="M132.337 14.5788C131.577 14.0725 130.738 13.7125 129.944 13.2625C129.43 12.97 128.882 12.7113 128.435 12.34C127.674 11.71 127.831 10.4725 128.625 9.93252C129.765 9.16752 131.655 9.59502 131.856 11.1588C131.856 11.1925 131.89 11.215 131.923 11.215H133.646C133.69 11.215 133.724 11.1813 133.713 11.1363C133.623 10.0563 133.209 9.15627 132.449 8.58252C131.722 8.03127 130.895 7.73877 130.011 7.73877C125.46 7.73877 125.046 12.5875 127.495 14.1175C127.775 14.2975 130.179 15.5125 131.029 16.0413C131.879 16.57 132.147 17.5375 131.778 18.3025C131.443 19 130.57 19.4838 129.698 19.4275C128.748 19.3713 128.01 18.8538 127.752 18.0438C127.708 17.8975 127.685 17.6163 127.685 17.4925C127.685 17.4588 127.652 17.425 127.618 17.425H125.751C125.717 17.425 125.684 17.4588 125.684 17.4925C125.684 18.8538 126.019 19.6075 126.936 20.2938C127.797 20.9463 128.736 21.2163 129.709 21.2163C132.259 21.2163 133.578 19.765 133.847 18.2575C134.082 16.7838 133.646 15.4563 132.337 14.5788Z" fill="#2C2C2C"/>
<path d="M51.2529 7.98682H50.4254H49.5196C49.4861 7.98682 49.4637 8.00932 49.4525 8.03182L47.9205 13.1168C47.8981 13.1843 47.8087 13.1843 47.7863 13.1168L46.2543 8.03182C46.2431 7.99807 46.2208 7.98682 46.1872 7.98682H45.2814H44.4539H43.3357C43.3021 7.98682 43.2686 8.02057 43.2686 8.05432V21.0368C43.2686 21.0706 43.3021 21.1043 43.3357 21.1043H45.2031C45.2367 21.1043 45.2702 21.0706 45.2702 21.0368V11.1706C45.2702 11.0918 45.3821 11.0806 45.4044 11.1481L46.9476 16.2668L47.0594 16.6268C47.0706 16.6606 47.093 16.6718 47.1265 16.6718H48.5579C48.5915 16.6718 48.6138 16.6493 48.625 16.6268L48.7368 16.2668L50.28 11.1481C50.3024 11.0693 50.4142 11.0918 50.4142 11.1706V21.0368C50.4142 21.0706 50.4478 21.1043 50.4813 21.1043H52.3488C52.3823 21.1043 52.4159 21.0706 52.4159 21.0368V8.05432C52.4159 8.02057 52.3823 7.98682 52.3488 7.98682H51.2529Z" fill="#2C2C2C"/>
<path d="M103.744 7.98682C103.71 7.98682 103.688 8.00932 103.677 8.03182L102.145 13.1168C102.122 13.1843 102.033 13.1843 102.01 13.1168L100.478 8.03182C100.467 7.99807 100.445 7.98682 100.411 7.98682H97.571C97.5375 7.98682 97.5039 8.02057 97.5039 8.05432V21.0368C97.5039 21.0706 97.5375 21.1043 97.571 21.1043H99.4385C99.472 21.1043 99.5056 21.0706 99.5056 21.0368V11.1706C99.5056 11.0918 99.6174 11.0806 99.6398 11.1481L101.183 16.2668L101.295 16.6268C101.306 16.6606 101.328 16.6718 101.362 16.6718H102.793C102.827 16.6718 102.849 16.6493 102.86 16.6268L102.972 16.2668L104.515 11.1481C104.538 11.0693 104.65 11.0918 104.65 11.1706V21.0368C104.65 21.0706 104.683 21.1043 104.717 21.1043H106.584C106.618 21.1043 106.651 21.0706 106.651 21.0368V8.05432C106.651 8.02057 106.618 7.98682 106.584 7.98682H103.744Z" fill="#2C2C2C"/>
<path d="M79.6567 7.98682H76.179H74.3115H70.8337C70.8001 7.98682 70.7666 8.02057 70.7666 8.05432V9.67432C70.7666 9.70807 70.8001 9.74182 70.8337 9.74182H74.2444V21.0368C74.2444 21.0706 74.2779 21.1043 74.3115 21.1043H76.179C76.2125 21.1043 76.2461 21.0706 76.2461 21.0368V9.74182H79.6567C79.6903 9.74182 79.7238 9.70807 79.7238 9.67432V8.05432C79.7238 8.02057 79.7015 7.98682 79.6567 7.98682Z" fill="#2C2C2C"/>
<path d="M90.6718 21.1039H92.3715C92.4162 21.1039 92.4498 21.0589 92.4386 21.0139L88.9273 7.98641C88.9161 7.95266 88.8937 7.94141 88.8602 7.94141H88.2116H87.071H86.4224C86.3888 7.94141 86.3665 7.96391 86.3553 7.98641L82.844 21.0139C82.8328 21.0589 82.8663 21.1039 82.9111 21.1039H84.6108C84.6444 21.1039 84.6667 21.0814 84.6779 21.0589L85.6955 17.2677C85.7067 17.2339 85.7291 17.2227 85.7626 17.2227H89.52C89.5535 17.2227 89.5759 17.2452 89.587 17.2677L90.6047 21.0589C90.6158 21.0814 90.6494 21.1039 90.6718 21.1039ZM86.2099 15.3664L87.5742 10.2927C87.5966 10.2252 87.686 10.2252 87.7084 10.2927L89.0727 15.3664C89.0838 15.4114 89.0503 15.4564 89.0056 15.4564H86.277C86.2323 15.4564 86.1987 15.4114 86.2099 15.3664Z" fill="#2C2C2C"/>
<path d="M119.657 21.1039H121.357C121.402 21.1039 121.435 21.0589 121.424 21.0139L117.913 7.98641C117.901 7.95266 117.879 7.94141 117.846 7.94141H117.197H116.056H115.408C115.374 7.94141 115.352 7.96391 115.341 7.98641L111.829 21.0139C111.818 21.0589 111.852 21.1039 111.896 21.1039H113.596C113.63 21.1039 113.652 21.0814 113.663 21.0589L114.681 17.2677C114.692 17.2339 114.714 17.2227 114.748 17.2227H118.505C118.539 17.2227 118.561 17.2452 118.572 17.2677L119.59 21.0589C119.601 21.0814 119.624 21.1039 119.657 21.1039ZM115.195 15.3664L116.56 10.2927C116.582 10.2252 116.671 10.2252 116.694 10.2927L118.058 15.3664C118.069 15.4114 118.036 15.4564 117.991 15.4564H115.262C115.218 15.4564 115.184 15.4114 115.195 15.3664Z" fill="#2C2C2C"/>
<path d="M59.9978 19.1801V15.1526C59.9978 15.1188 60.0313 15.0851 60.0649 15.0851H65.0411C65.0747 15.0851 65.1082 15.0513 65.1082 15.0176V13.3976C65.1082 13.3638 65.0747 13.3301 65.0411 13.3301H60.0649C60.0313 13.3301 59.9978 13.2963 59.9978 13.2626V9.82006C59.9978 9.78631 60.0313 9.75256 60.0649 9.75256H65.7232C65.7568 9.75256 65.7903 9.71881 65.7903 9.68506V8.06506C65.7903 8.03131 65.7568 7.99756 65.7232 7.99756H59.9978H58.0632C58.0296 7.99756 57.9961 8.03131 57.9961 8.06506V9.75256V13.3413V15.0963V19.2588V21.0363C57.9961 21.0701 58.0296 21.1038 58.0632 21.1038H59.9978H65.9581C65.9916 21.1038 66.0252 21.0701 66.0252 21.0363V19.3263C66.0252 19.2926 65.9916 19.2588 65.9581 19.2588H60.0537C60.0201 19.2476 59.9978 19.2251 59.9978 19.1801Z" fill="#2C2C2C"/>
<path d="M149.402 20.9913L142.939 14.2751C142.916 14.2526 142.916 14.2076 142.939 14.1851L148.754 8.11006C148.798 8.06506 148.765 7.99756 148.709 7.99756H146.327C146.305 7.99756 146.294 8.00881 146.282 8.02006L141.351 13.1726C141.306 13.2176 141.239 13.1838 141.239 13.1276V8.06506C141.239 8.03131 141.205 7.99756 141.172 7.99756H139.304C139.271 7.99756 139.237 8.03131 139.237 8.06506V21.0476C139.237 21.0813 139.271 21.1151 139.304 21.1151H141.172C141.205 21.1151 141.239 21.0813 141.239 21.0476V15.3326C141.239 15.2763 141.317 15.2426 141.351 15.2876L146.942 21.0926C146.953 21.1038 146.976 21.1151 146.987 21.1151H149.369C149.413 21.1038 149.447 21.0251 149.402 20.9913Z" fill="#2C2C2C"/>
<path d="M28.5097 1L17.2041 9.43752L19.3064 4.46501L28.5097 1Z" fill="#E17726" stroke="#E17726" stroke-width="0.892014" stroke-linecap="round" stroke-linejoin="round"/>
<path d="M2.43164 1L13.6366 9.51627L11.6349 4.46501L2.43164 1Z" fill="#E27625" stroke="#E27625" stroke-width="0.892014" stroke-linecap="round" stroke-linejoin="round"/>
<path d="M24.4388 20.564L21.4307 25.199L27.8718 26.9877L29.7169 20.6652L24.4388 20.564Z" fill="#E27625" stroke="#E27625" stroke-width="0.892014" stroke-linecap="round" stroke-linejoin="round"/>
<path d="M1.23438 20.6652L3.06832 26.9877L9.49829 25.199L6.50136 20.564L1.23438 20.6652Z" fill="#E27625" stroke="#E27625" stroke-width="0.892014" stroke-linecap="round" stroke-linejoin="round"/>
<path d="M9.15151 12.7333L7.3623 15.4559L13.7364 15.7484L13.5239 8.82959L9.15151 12.7333Z" fill="#E27625" stroke="#E27625" stroke-width="0.892014" stroke-linecap="round" stroke-linejoin="round"/>
<path d="M21.788 12.7335L17.3485 8.75098L17.2031 15.7485L23.5772 15.456L21.788 12.7335Z" fill="#E27625" stroke="#E27625" stroke-width="0.892014" stroke-linecap="round" stroke-linejoin="round"/>
<path d="M9.49805 25.1987L13.356 23.32L10.0348 20.71L9.49805 25.1987Z" fill="#E27625" stroke="#E27625" stroke-width="0.892014" stroke-linecap="round" stroke-linejoin="round"/>
<path d="M17.584 23.32L21.4308 25.1987L20.9052 20.71L17.584 23.32Z" fill="#E27625" stroke="#E27625" stroke-width="0.892014" stroke-linecap="round" stroke-linejoin="round"/>
<path d="M21.4308 25.1986L17.584 23.3198L17.8971 25.8398L17.8635 26.9086L21.4308 25.1986Z" fill="#D5BFB2" stroke="#D5BFB2" stroke-width="0.892014" stroke-linecap="round" stroke-linejoin="round"/>
<path d="M9.49902 25.1986L13.0774 26.9086L13.0551 25.8398L13.357 23.3198L9.49902 25.1986Z" fill="#D5BFB2" stroke="#D5BFB2" stroke-width="0.892014" stroke-linecap="round" stroke-linejoin="round"/>
<path d="M13.1445 19.045L9.94629 18.1L12.2052 17.0537L13.1445 19.045Z" fill="#233447" stroke="#233447" stroke-width="0.892014" stroke-linecap="round" stroke-linejoin="round"/>
<path d="M17.7959 19.045L18.7352 17.0537L21.0053 18.1L17.7959 19.045Z" fill="#233447" stroke="#233447" stroke-width="0.892014" stroke-linecap="round" stroke-linejoin="round"/>
<path d="M9.49888 25.199L10.058 20.564L6.50195 20.6652L9.49888 25.199Z" fill="#CC6228" stroke="#CC6228" stroke-width="0.892014" stroke-linecap="round" stroke-linejoin="round"/>
<path d="M20.8828 20.564L21.4308 25.199L24.4389 20.6652L20.8828 20.564Z" fill="#CC6228" stroke="#CC6228" stroke-width="0.892014" stroke-linecap="round" stroke-linejoin="round"/>
<path d="M23.5782 15.4561L17.2041 15.7486L17.7968 19.0448L18.7361 17.0536L21.0062 18.0998L23.5782 15.4561Z" fill="#CC6228" stroke="#CC6228" stroke-width="0.892014" stroke-linecap="round" stroke-linejoin="round"/>
<path d="M9.94645 18.0998L12.2053 17.0536L13.1447 19.0448L13.7373 15.7486L7.36328 15.4561L9.94645 18.0998Z" fill="#CC6228" stroke="#CC6228" stroke-width="0.892014" stroke-linecap="round" stroke-linejoin="round"/>
<path d="M7.36328 15.4561L10.0359 20.7098L9.94645 18.0998L7.36328 15.4561Z" fill="#E27525" stroke="#E27525" stroke-width="0.892014" stroke-linecap="round" stroke-linejoin="round"/>
<path d="M21.0059 18.0998L20.9053 20.7098L23.5779 15.4561L21.0059 18.0998Z" fill="#E27525" stroke="#E27525" stroke-width="0.892014" stroke-linecap="round" stroke-linejoin="round"/>
<path d="M13.7372 15.7485L13.1445 19.0448L13.8938 22.9373L14.0615 17.8073L13.7372 15.7485Z" fill="#E27525" stroke="#E27525" stroke-width="0.892014" stroke-linecap="round" stroke-linejoin="round"/>
<path d="M17.2037 15.7485L16.8906 17.796L17.0472 22.9373L17.7964 19.0448L17.2037 15.7485Z" fill="#E27525" stroke="#E27525" stroke-width="0.892014" stroke-linecap="round" stroke-linejoin="round"/>
<path d="M17.7961 19.0451L17.0469 22.9376L17.5836 23.3201L20.9049 20.7101L21.0055 18.1001L17.7961 19.0451Z" fill="#F5841F" stroke="#F5841F" stroke-width="0.892014" stroke-linecap="round" stroke-linejoin="round"/>
<path d="M9.94629 18.1001L10.0357 20.7101L13.357 23.3201L13.8937 22.9376L13.1445 19.0451L9.94629 18.1001Z" fill="#F5841F" stroke="#F5841F" stroke-width="0.892014" stroke-linecap="round" stroke-linejoin="round"/>
<path d="M17.8636 26.9087L17.8971 25.84L17.6064 25.5925H13.3346L13.0551 25.84L13.0774 26.9087L9.49902 25.1987L10.7515 26.2337L13.2899 28H17.6399L20.1896 26.2337L21.4308 25.1987L17.8636 26.9087Z" fill="#C0AC9D" stroke="#C0AC9D" stroke-width="0.892014" stroke-linecap="round" stroke-linejoin="round"/>
<path d="M17.5836 23.3205L17.0469 22.938H13.8934L13.3566 23.3205L13.0547 25.8405L13.3343 25.593H17.606L17.8967 25.8405L17.5836 23.3205Z" fill="#161616" stroke="#161616" stroke-width="0.892014" stroke-linecap="round" stroke-linejoin="round"/>
<path d="M28.9902 9.98877L29.9407 5.33126L28.5093 1L17.584 9.15627L21.7886 12.7338L27.7266 14.4775L29.0349 12.9363L28.4646 12.52L29.3704 11.6875L28.6771 11.1475L29.5829 10.45L28.9902 9.98877Z" fill="#763E1A" stroke="#763E1A" stroke-width="0.892014" stroke-linecap="round" stroke-linejoin="round"/>
<path d="M1 5.33126L1.9617 9.98877L1.34666 10.45L2.26363 11.1475L1.57031 11.6875L2.4761 12.52L1.90579 12.9363L3.21415 14.4775L9.15209 12.7338L13.3567 9.15627L2.43137 1L1 5.33126Z" fill="#763E1A" stroke="#763E1A" stroke-width="0.892014" stroke-linecap="round" stroke-linejoin="round"/>
<path d="M27.7266 14.4776L21.7887 12.7339L23.5779 15.4564L20.9053 20.7102L24.439 20.6652H29.7171L27.7266 14.4776Z" fill="#F5841F" stroke="#F5841F" stroke-width="0.892014" stroke-linecap="round" stroke-linejoin="round"/>
<path d="M9.15163 12.7339L3.21369 14.4776L1.23438 20.6652H6.50136L10.0351 20.7102L7.36242 15.4564L9.15163 12.7339Z" fill="#F5841F" stroke="#F5841F" stroke-width="0.892014" stroke-linecap="round" stroke-linejoin="round"/>
<path d="M17.2037 15.7486L17.5839 9.1561L19.306 4.46484H11.6348L13.3569 9.1561L13.7371 15.7486L13.8825 17.8186L13.8936 22.9374H17.0471L17.0583 17.8186L17.2037 15.7486Z" fill="#F5841F" stroke="#F5841F" stroke-width="0.892014" stroke-linecap="round" stroke-linejoin="round"/>
</svg>
