<svg width="193" height="33" viewBox="0 0 193 33" fill="none" xmlns="http://www.w3.org/2000/svg">
<path d="M69.6231 17.971L66.9747 27.4942H64.2183L60.5322 13.5499H63.5589L65.7532 23.646H65.8289L68.434 13.5499H70.8986L73.5037 23.646H73.5794L75.7845 13.5499H78.8112L75.1143 27.4942H72.3579L69.7095 17.971H69.6231ZM82.8323 25.6134C84.0538 25.6134 85.0699 24.8134 85.0699 23.6893V22.9326L82.8864 23.0623C81.8379 23.138 81.2325 23.6136 81.2325 24.3486C81.2325 25.1377 81.8703 25.6134 82.8323 25.6134ZM81.9027 27.6564C79.9354 27.6564 78.4329 26.3808 78.4329 24.5216C78.4329 22.6407 79.8813 21.549 82.4648 21.3868L85.0699 21.2355V20.5545C85.0699 19.5924 84.3889 19.0303 83.3296 19.0303C82.2811 19.0303 81.6109 19.5492 81.4703 20.3167H78.8869C78.9949 18.3061 80.7029 16.9225 83.4485 16.9225C86.1076 16.9225 87.8372 18.2953 87.8372 20.3815V27.505H85.1132V25.916H85.0591C84.4754 27.0078 83.1999 27.6564 81.9027 27.6564ZM89.7288 13.5499H92.5501V27.4942H89.7288V13.5499ZM94.5175 13.5499H97.3388V27.4942H94.5175V13.5499ZM103.889 18.9979C102.657 18.9979 101.76 19.9383 101.663 21.2247H106.062C106.008 19.9059 105.143 18.9979 103.889 18.9979ZM106.105 24.327H108.7C108.386 26.3592 106.538 27.7212 103.976 27.7212C100.787 27.7212 98.8737 25.6782 98.8737 22.3705C98.8737 19.0628 100.809 16.9225 103.868 16.9225C106.884 16.9225 108.786 18.9655 108.786 22.1111V22.9758H101.652V23.1488C101.652 24.6297 102.592 25.6458 104.03 25.6458C105.046 25.6242 105.835 25.1161 106.105 24.327ZM110.98 14.7497H113.802V17.1387H115.715V19.2681H113.802V24.2189C113.802 25.008 114.191 25.3864 115.023 25.3864C115.272 25.3864 115.531 25.3647 115.704 25.3431V27.4185C115.412 27.4834 114.926 27.5375 114.364 27.5375C111.932 27.5375 110.98 26.7267 110.98 24.7054V19.2681H109.521V17.1387H110.98V14.7497ZM123.66 27.732C119.606 27.732 117.066 25.0188 117.066 20.5112C117.066 16.0145 119.628 13.3013 123.66 13.3013C127.011 13.3013 129.562 15.4308 129.789 18.5439H126.946C126.676 16.836 125.357 15.7118 123.66 15.7118C121.455 15.7118 120.039 17.5602 120.039 20.4896C120.039 23.4623 121.444 25.2999 123.671 25.2999C125.4 25.2999 126.643 24.2838 126.957 22.6299H129.8C129.465 25.7647 127.087 27.732 123.66 27.732ZM136.102 27.7104C132.967 27.7104 130.967 25.6998 130.967 22.3056C130.967 18.9547 132.999 16.9117 136.102 16.9117C139.204 16.9117 141.236 18.9439 141.236 22.3056C141.236 25.7106 139.237 27.7104 136.102 27.7104ZM136.102 25.5593C137.485 25.5593 138.361 24.3919 138.361 22.3164C138.361 20.2626 137.475 19.0736 136.102 19.0736C134.729 19.0736 133.832 20.2626 133.832 22.3164C133.832 24.3919 134.718 25.5593 136.102 25.5593ZM142.685 27.4942V17.1387H145.409V18.9871H145.463C146.014 17.7008 147.106 16.9441 148.706 16.9441C151.008 16.9441 152.295 18.3926 152.295 20.8139V27.4942H149.473V21.4084C149.473 20.0572 148.835 19.279 147.571 19.279C146.306 19.279 145.506 20.2086 145.506 21.549V27.4942H142.685ZM154.078 27.4942V17.1387H156.802V18.9871H156.856C157.407 17.7008 158.499 16.9441 160.088 16.9441C162.391 16.9441 163.677 18.3926 163.677 20.8139V27.4942H160.856V21.4084C160.856 20.0572 160.218 19.279 158.953 19.279C157.689 19.279 156.889 20.2086 156.889 21.549V27.4942H154.078ZM170.13 18.9979C168.898 18.9979 168.001 19.9383 167.904 21.2247H172.303C172.249 19.9059 171.384 18.9979 170.13 18.9979ZM172.335 24.327H174.93C174.616 26.3592 172.768 27.7212 170.206 27.7212C167.017 27.7212 165.104 25.6782 165.104 22.3705C165.104 19.0628 167.039 16.9225 170.098 16.9225C173.114 16.9225 175.016 18.9655 175.016 22.1111V22.9758H167.882V23.1488C167.882 24.6297 168.822 25.6458 170.26 25.6458C171.287 25.6242 172.076 25.1161 172.335 24.327ZM185.869 20.9869H183.253C183.091 19.8951 182.367 19.1276 181.21 19.1276C179.816 19.1276 178.951 20.3059 178.951 22.3056C178.951 24.3486 179.816 25.5053 181.221 25.5053C182.356 25.5053 183.08 24.8243 183.264 23.7001H185.891C185.75 26.143 183.923 27.7212 181.199 27.7212C178.075 27.7212 176.097 25.689 176.097 22.3164C176.097 18.9979 178.075 16.9225 181.178 16.9225C183.967 16.9117 185.75 18.6412 185.869 20.9869ZM187.999 14.7497H190.82V17.1387H192.733V19.2681H190.82V24.2189C190.82 25.008 191.209 25.3864 192.041 25.3864C192.29 25.3864 192.549 25.3647 192.722 25.3431V27.4185C192.43 27.4834 191.955 27.5375 191.382 27.5375C188.95 27.5375 187.999 26.7267 187.999 24.7054V19.2681H186.539V17.1387H187.999V14.7497Z" fill="#3B99FC"/>
<path d="M10.4988 6.90666C18.8546 -1.27618 32.3989 -1.27618 40.7655 6.90666L41.7708 7.89033C42.1924 8.30109 42.1924 8.96047 41.7708 9.37123L38.3334 12.7438C38.128 12.9492 37.7821 12.9492 37.5767 12.7438L36.1931 11.3926C30.3667 5.68518 20.9084 5.68518 15.082 11.3926L13.6011 12.8411C13.3957 13.0465 13.0498 13.0465 12.8445 12.8411L9.39621 9.46852C8.97463 9.05776 8.97463 8.39837 9.39621 7.98761L10.4988 6.90666ZM47.8782 13.868L50.9373 16.8623C51.3589 17.273 51.3589 17.9324 50.9373 18.3432L37.1335 31.8659C36.712 32.2767 36.0418 32.2767 35.6202 31.8659L25.8159 22.267C25.7078 22.1697 25.5457 22.1697 25.4376 22.267L15.6441 31.8659C15.2226 32.2767 14.5524 32.2767 14.1308 31.8659L0.31618 18.354C-0.105393 17.9432 -0.105393 17.2838 0.31618 16.8731L3.37528 13.8788C3.79686 13.4681 4.46705 13.4681 4.88862 13.8788L14.6929 23.4777C14.801 23.575 14.9631 23.575 15.0712 23.4777L24.8647 13.8788C25.2863 13.4681 25.9564 13.4681 26.378 13.8788L36.1823 23.4777C36.2904 23.575 36.4525 23.575 36.5606 23.4777L46.3649 13.8788C46.7757 13.4572 47.4566 13.4572 47.8782 13.868Z" fill="#3B99FC"/>
</svg>
