<svg width="66" height="66" viewBox="0 0 66 66" fill="none" xmlns="http://www.w3.org/2000/svg">
<path d="M32.8 64.6C50.3626 64.6 64.6 50.3627 64.6 32.8C64.6 15.2373 50.3626 1 32.8 1C15.2373 1 1 15.2373 1 32.8C1 50.3627 15.2373 64.6 32.8 64.6Z" fill="#F6F2F2" stroke="#2C2C2C" stroke-miterlimit="10"/>
<g clip-path="url(#clip0_783_486)">
<path d="M29.0202 18.7698C29.2602 17.7698 29.4203 16.7698 29.6903 15.8298C30.0047 14.5495 30.4925 13.3181 31.1402 12.1698C31.3133 11.8908 31.5217 11.6354 31.7602 11.4098C31.8793 11.2772 32.0251 11.1711 32.1879 11.0984C32.3507 11.0258 32.527 10.9883 32.7052 10.9883C32.8835 10.9883 33.0598 11.0258 33.2226 11.0984C33.3855 11.1711 33.5311 11.2772 33.6502 11.4098C34.3146 12.1301 34.807 12.9918 35.0903 13.9298C35.6496 15.4638 36.0614 17.0477 36.3202 18.6598C36.3331 18.6918 36.3499 18.722 36.3703 18.7498C36.3653 18.8297 36.3653 18.9099 36.3703 18.9898C36.6103 20.2698 36.7902 21.5498 36.9202 22.8498C36.9702 23.3998 37.0402 23.9498 37.1002 24.4998C37.1002 24.6898 37.1903 24.6898 37.3403 24.6198C38.7103 23.9698 40.1102 23.3898 41.5202 22.8298C41.5582 23.1422 41.664 23.4426 41.8302 23.7098L41.5003 23.8698C40.1403 24.4098 38.7903 24.9898 37.5003 25.6198C37.3503 25.6998 37.2003 25.7498 37.2203 25.9798C37.3403 27.1098 37.3502 28.2398 37.4102 29.3798C37.4095 29.4519 37.4287 29.5227 37.4658 29.5845C37.5029 29.6463 37.5563 29.6966 37.6203 29.7298C38.6203 30.3698 39.6203 31.0098 40.6203 31.6698C40.6852 31.731 40.771 31.7651 40.8602 31.7651C40.9495 31.7651 41.0353 31.731 41.1002 31.6698C41.7702 31.1798 42.4502 30.6698 43.1002 30.2098C44.1131 29.4769 45.0877 28.6925 46.0202 27.8598C47.1836 26.9165 48.2551 25.8651 49.2203 24.7198C49.8022 24.112 50.2457 23.3853 50.5202 22.5898C50.6302 22.2098 50.5202 22.0698 50.1702 21.9798C49.5413 21.8748 48.8992 21.8748 48.2702 21.9798C47.0152 22.1586 45.7775 22.4429 44.5702 22.8298C44.5689 22.485 44.4757 22.1467 44.3002 21.8498C45.1802 21.6298 46.0602 21.3398 46.9602 21.1798C47.9412 20.9413 48.9538 20.8602 49.9602 20.9398C50.307 20.9693 50.6457 21.0607 50.9602 21.2098C51.2077 21.3425 51.4027 21.5552 51.5135 21.8132C51.6243 22.0711 51.6443 22.359 51.5702 22.6298C51.3303 23.5225 50.8813 24.3452 50.2602 25.0298C49.2166 26.3034 48.0548 27.4753 46.7902 28.5298C46.6802 28.6198 46.5802 28.7398 46.4802 28.8398C46.4375 28.8537 46.397 28.8739 46.3602 28.8998C44.9402 30.0898 43.4602 31.1998 41.9502 32.2698C41.7102 32.4298 41.8702 32.4798 41.9502 32.5698C43.4502 33.6098 44.9036 34.7165 46.3103 35.8898C47.7203 37.0499 49.0192 38.3388 50.1903 39.7398C50.7953 40.4052 51.243 41.1981 51.5003 42.0598C51.5644 42.2474 51.5855 42.4471 51.562 42.644C51.5384 42.8408 51.4708 43.0299 51.3642 43.1971C51.2575 43.3642 51.1146 43.5052 50.946 43.6096C50.7774 43.7139 50.5874 43.779 50.3902 43.7998C49.3735 43.9669 48.3339 43.9329 47.3302 43.6998C45.73 43.3714 44.1559 42.9269 42.6203 42.3698C40.7903 41.6798 38.9902 40.9298 37.2002 40.0998C37.1403 40.2945 37.1066 40.4963 37.1002 40.6998C37.0202 41.8098 36.8703 42.9098 36.7203 43.9998C36.6203 44.6898 36.5102 45.3698 36.4102 46.0498C36.1902 47.0498 35.9802 48.0498 35.7302 48.9798C35.4297 50.2881 34.9306 51.5426 34.2503 52.6998C34.0844 52.9605 33.8862 53.1991 33.6602 53.4098C33.5431 53.5387 33.4003 53.6417 33.241 53.7122C33.0817 53.7827 32.9094 53.8191 32.7352 53.8191C32.5611 53.8191 32.3888 53.7827 32.2295 53.7122C32.0702 53.6417 31.9274 53.5387 31.8103 53.4098C31.2541 52.8412 30.8277 52.1589 30.5603 51.4098C30.1372 50.3939 29.8026 49.3433 29.5603 48.2698C29.5505 48.16 29.5505 48.0496 29.5603 47.9398C29.8628 47.935 30.1628 47.8844 30.4502 47.7898L30.5202 47.9798C30.7794 49.129 31.1478 50.2507 31.6203 51.3298C31.8227 51.8276 32.118 52.2823 32.4902 52.6698C32.5228 52.7133 32.5651 52.7486 32.6137 52.7729C32.6623 52.7972 32.7159 52.8098 32.7702 52.8098C32.8246 52.8098 32.8782 52.7972 32.9268 52.7729C32.9754 52.7486 33.0176 52.7133 33.0502 52.6698C33.2438 52.479 33.4119 52.2638 33.5502 52.0298C34.1229 51.0226 34.5472 49.9382 34.8103 48.8098C35.0617 47.9856 35.249 47.143 35.3703 46.2898C35.3962 46.2285 35.4163 46.1649 35.4302 46.0998C35.6902 44.7698 35.8702 43.4198 36.0402 42.0998C36.1202 41.3598 36.1803 40.6198 36.2503 39.8698C36.2694 39.8009 36.2614 39.7272 36.2279 39.664C36.1944 39.6008 36.138 39.5528 36.0702 39.5298C35.0702 39.0198 34.0702 38.5298 33.0702 37.9798C33.0064 37.9377 32.9317 37.9152 32.8552 37.9152C32.7788 37.9152 32.704 37.9377 32.6402 37.9798C31.7602 38.4498 30.8702 38.8998 29.9802 39.3498C29.3102 39.6898 29.3002 39.6798 29.3502 40.4098C29.4602 41.9198 29.6702 43.4098 29.8902 44.8998C29.58 44.9353 29.2747 45.0057 28.9802 45.1098C28.8302 44.4598 28.7602 43.7998 28.6702 43.1098C28.5602 42.2198 28.4502 41.3298 28.3902 40.4398C28.3902 40.1898 28.2903 40.1298 28.0303 40.2498C26.9403 40.7598 25.8402 41.2498 24.7302 41.6798C24.0802 41.9498 23.4002 42.1298 22.7302 42.4598C22.0702 42.5898 21.4503 42.8598 20.8103 43.0498C19.4182 43.4839 17.9831 43.7656 16.5303 43.8898C15.9629 43.9295 15.3935 43.8476 14.8602 43.6498C14.5679 43.549 14.3242 43.3417 14.1778 43.0693C14.0314 42.7969 13.993 42.4793 14.0702 42.1798C14.3378 41.2144 14.8314 40.3266 15.5102 39.5898C16.4971 38.4047 17.5881 37.3103 18.7702 36.3198C18.8553 36.2415 18.9354 36.158 19.0102 36.0698C19.0605 36.0458 19.1075 36.0155 19.1502 35.9798C20.6102 34.7498 22.1503 33.5998 23.6903 32.5098C23.9303 32.3498 23.7603 32.2898 23.6903 32.2098C22.9803 31.6898 22.2702 31.2098 21.5702 30.6598C20.9646 30.2421 20.3928 29.7774 19.8602 29.2698L20.4703 28.6198C20.5879 28.6659 20.6938 28.7376 20.7803 28.8298C22.0003 29.8298 23.2602 30.7398 24.5502 31.6398C24.6085 31.6905 24.6831 31.7184 24.7602 31.7184C24.8374 31.7184 24.912 31.6905 24.9703 31.6398C25.9703 30.9998 26.9102 30.3798 27.8902 29.7498C27.9435 29.7229 27.9878 29.6813 28.018 29.6299C28.0481 29.5784 28.0628 29.5194 28.0603 29.4598C28.1103 28.2798 28.1403 27.0998 28.2503 25.9198C28.269 25.8404 28.2566 25.7568 28.2157 25.6861C28.1748 25.6155 28.1085 25.5632 28.0303 25.5398C26.8703 24.9898 25.6903 24.4698 24.5003 23.9998C23.6599 23.6291 22.7944 23.3183 21.9102 23.0698L21.8002 22.9998C20.3221 22.4594 18.7899 22.0806 17.2302 21.8698C16.6382 21.7649 16.0323 21.7649 15.4403 21.8698C15.0603 21.9598 14.9902 22.0798 15.0802 22.4498C15.1554 22.7343 15.2699 23.0069 15.4202 23.2598C16.1131 24.3633 16.9468 25.3718 17.9002 26.2598C18.0002 26.3598 18.1402 26.4298 18.1602 26.5898L17.6502 27.2998C17.1672 26.9236 16.7248 26.498 16.3302 26.0298C15.5059 25.2161 14.8291 24.2653 14.3302 23.2198C14.1181 22.8399 14.0406 22.3994 14.1102 21.9698C14.2165 21.6433 14.4262 21.3603 14.7077 21.1636C14.9892 20.9669 15.3271 20.8673 15.6702 20.8798C17.0964 20.8069 18.5244 20.9828 19.8902 21.3998C20.8902 21.6498 21.8903 21.9798 22.8103 22.2998C23.9203 22.7198 25.0202 23.1298 26.1002 23.6098C26.7402 23.8898 27.3802 24.1698 28.0202 24.4698C28.2902 24.5998 28.3802 24.4698 28.3902 24.2498C28.3902 24.1698 28.3902 24.0898 28.3902 24.0098C28.4902 23.0998 28.5802 22.1898 28.7002 21.2798C28.8202 20.3698 28.8902 19.6298 29.0202 18.7698ZM30.1002 18.4898C30.078 18.5321 30.058 18.5755 30.0402 18.6198C29.6502 20.6198 29.4202 22.7398 29.2102 24.8198C29.1939 24.9135 29.2123 25.0099 29.262 25.0909C29.3118 25.1719 29.3893 25.232 29.4802 25.2598L32.5702 26.8498C32.6257 26.8844 32.6898 26.9027 32.7552 26.9027C32.8206 26.9027 32.8847 26.8844 32.9403 26.8498C33.8903 26.3498 34.8302 25.8498 35.7902 25.3898C35.9321 25.3396 36.0494 25.2371 36.1182 25.1033C36.187 24.9694 36.202 24.8144 36.1602 24.6698C36.0202 23.4998 35.9103 22.3298 35.7503 21.1598C35.6522 20.2579 35.4985 19.3629 35.2902 18.4798C35.2951 18.4233 35.2951 18.3664 35.2902 18.3098C34.9949 16.6126 34.505 14.955 33.8302 13.3698C33.6275 12.9007 33.3393 12.4735 32.9802 12.1098C32.9476 12.0663 32.9054 12.0311 32.8568 12.0068C32.8082 11.9825 32.7546 11.9698 32.7002 11.9698C32.6459 11.9698 32.5923 11.9825 32.5437 12.0068C32.4951 12.0311 32.4528 12.0663 32.4202 12.1098C32.1998 12.3365 32.0114 12.5922 31.8602 12.8698C31.2851 13.9264 30.8578 15.057 30.5903 16.2298C30.372 16.9702 30.2082 17.7255 30.1002 18.4898ZM43.4703 41.6298L43.5802 41.6998C45.1235 42.2669 46.7224 42.6691 48.3502 42.8998C48.9583 42.9935 49.5782 42.9765 50.1802 42.8498C50.5502 42.7598 50.6202 42.6198 50.5102 42.2498C50.3927 41.8445 50.2067 41.4624 49.9602 41.1198C48.8158 39.5661 47.4708 38.1706 45.9602 36.9698L45.8202 36.8198C44.2602 35.5098 42.6202 34.2798 40.9502 33.1098C40.7902 32.9898 40.6903 33.1098 40.5603 33.1098C39.5603 33.7598 38.5603 34.4098 37.5603 35.0498C37.4948 35.0811 37.44 35.131 37.4026 35.1933C37.3653 35.2555 37.3471 35.3273 37.3502 35.3998C37.3502 35.8798 37.3502 36.3998 37.2902 36.8598C37.2302 37.3198 37.2102 38.1198 37.1602 38.7598C37.1471 38.8415 37.1643 38.9252 37.2085 38.9951C37.2527 39.0651 37.3209 39.1165 37.4002 39.1398C38.5903 39.6998 39.8102 40.2398 41.0402 40.7298C41.83 41.0819 42.6417 41.3825 43.4703 41.6298ZM21.9102 41.6898C21.9668 41.6954 22.0237 41.6954 22.0802 41.6898C23.9102 41.0398 25.7003 40.2998 27.4703 39.4898C28.1703 39.1598 28.1602 39.1598 28.1302 38.3898V38.3198C28.0802 37.3198 28.0302 36.3198 27.9902 35.3198C27.9926 35.2526 27.976 35.186 27.9425 35.1276C27.9089 35.0693 27.8596 35.0216 27.8002 34.9898C26.8002 34.3798 25.8903 33.7698 24.9403 33.1398C24.8753 33.0786 24.7895 33.0446 24.7002 33.0446C24.611 33.0446 24.5252 33.0786 24.4602 33.1398C23.5602 33.7698 22.6602 34.4098 21.7902 35.0898C20.9202 35.7266 20.0887 36.4144 19.3002 37.1498L19.1802 37.2198C18.0612 38.1822 17.0273 39.2395 16.0903 40.3798C15.6112 40.9133 15.247 41.5396 15.0202 42.2198C14.9102 42.6298 14.9702 42.7498 15.3902 42.8398C16.0847 42.9648 16.7958 42.9648 17.4902 42.8398C19 42.6136 20.4816 42.2281 21.9102 41.6898ZM36.4502 32.4298C36.4502 31.7598 36.4502 31.0898 36.4502 30.4298C36.4585 30.3524 36.444 30.2743 36.4084 30.205C36.3729 30.1357 36.3179 30.0783 36.2503 30.0398C35.1603 29.4298 34.0803 28.8098 33.0003 28.1798C32.9314 28.1316 32.8493 28.1058 32.7652 28.1058C32.6812 28.1058 32.5991 28.1316 32.5303 28.1798C31.4003 28.8498 30.2603 29.4998 29.1203 30.1798C29.0584 30.2085 29.0069 30.2556 28.9729 30.3147C28.9388 30.3737 28.9239 30.4419 28.9302 30.5098C28.9302 31.7998 28.9302 33.0998 28.9302 34.3898C28.9242 34.4628 28.9413 34.5358 28.979 34.5986C29.0166 34.6614 29.073 34.7108 29.1402 34.7398L32.5303 36.7398C32.5981 36.7858 32.6782 36.8104 32.7602 36.8104C32.8422 36.8104 32.9224 36.7858 32.9902 36.7398L36.2402 34.8698C36.3107 34.8338 36.3685 34.7772 36.406 34.7075C36.4435 34.6379 36.4589 34.5585 36.4502 34.4798C36.4402 33.7498 36.4502 33.0898 36.4502 32.4298ZM37.4502 30.7398V34.0798L39.8302 32.5498C39.9802 32.4498 39.9702 32.3798 39.8302 32.2798L37.4502 30.7398ZM29.0102 29.0898L31.5903 27.6098C31.8403 27.4698 31.5902 27.3998 31.5202 27.3498L29.5202 26.3498C29.2002 26.1898 29.1802 26.1998 29.1602 26.5798C29.0502 27.3698 29.0103 28.1998 28.9703 29.0898H29.0102ZM29.0102 35.7598C29.0102 36.1998 29.0102 36.5798 29.0102 36.9598C29.0102 37.3398 29.0103 37.8898 29.0903 38.3598C29.0903 38.4498 29.0902 38.6998 29.3002 38.5698C30.0602 38.1998 30.8002 37.8198 31.5502 37.4398C31.6802 37.3698 31.6802 37.2898 31.5502 37.2098L29.0102 35.7598ZM28.0102 32.3998C28.0102 31.9798 28.0102 31.5598 28.0102 31.1398C28.0102 30.9298 27.9602 30.8598 27.7602 30.9898C27.1102 31.4298 26.4502 31.8498 25.7602 32.2698C25.6002 32.3798 25.5802 32.4398 25.7602 32.5498C26.4202 32.9698 27.0702 33.3998 27.7602 33.8298C27.9502 33.9498 28.0202 33.9198 28.0202 33.6898C27.9702 33.2598 27.9802 32.8498 27.9802 32.3998H28.0102ZM36.4102 28.9998C36.4102 28.1298 36.3502 27.2998 36.3302 26.4598C36.3302 26.3198 36.2803 26.2298 36.1203 26.3098L33.9902 27.3898C33.8302 27.4698 33.8902 27.5598 33.9902 27.6298C34.0902 27.6998 34.3503 27.8198 34.5303 27.9298L36.4102 28.9998ZM36.4102 35.8298C35.6202 36.2798 34.8603 36.7298 34.0903 37.1498C33.8403 37.2898 33.8503 37.3698 34.0903 37.4898C34.7303 37.8098 35.3702 38.1298 36.0102 38.4898C36.2702 38.6298 36.3303 38.5498 36.3403 38.2798C36.3003 37.4698 36.4102 36.6698 36.3902 35.8498L36.4102 35.8298Z" fill="#2C2C2C"/>
<path d="M28.3001 45.8502C28.4531 45.5773 28.6489 45.3309 28.8801 45.1202C29.1745 45.0161 29.4798 44.9456 29.7901 44.9102C30.1793 44.9492 30.5408 45.1295 30.8061 45.4169C31.0714 45.7044 31.2223 46.079 31.2301 46.4702C31.2108 46.7529 31.12 47.0261 30.966 47.264C30.8121 47.5019 30.6001 47.6968 30.3501 47.8302C30.0627 47.9247 29.7626 47.9753 29.4601 47.9802L29.1501 47.8502C28.7727 47.6969 28.4714 47.4005 28.3121 47.0257C28.1528 46.6508 28.1485 46.2282 28.3001 45.8502Z" fill="#2C2C2C"/>
<path d="M19.7898 29.3102C19.4603 29.3758 19.1257 29.4127 18.7898 29.4202C17.7298 29.0002 17.5398 28.6702 17.5998 27.4202L18.1098 26.7202C18.3653 26.564 18.6565 26.4756 18.9557 26.4634C19.2549 26.4511 19.5523 26.5154 19.8198 26.6502C20.0277 26.7728 20.204 26.9426 20.3343 27.1458C20.4645 27.3491 20.5452 27.5801 20.5698 27.8202C20.5663 28.1229 20.5157 28.4232 20.4198 28.7102L19.7898 29.3102Z" fill="#2C2C2C"/>
<path d="M41.5299 22.8496C41.5168 22.469 41.6254 22.0942 41.8399 21.7796C41.9887 21.593 42.1789 21.4437 42.3954 21.3432C42.6119 21.2428 42.8488 21.194 43.0873 21.2008C43.3259 21.2076 43.5596 21.2697 43.77 21.3823C43.9804 21.4949 44.1618 21.6549 44.2999 21.8496C44.4705 22.1308 44.5669 22.4508 44.5799 22.7796C44.5763 22.9823 44.5315 23.1822 44.448 23.367C44.3645 23.5518 44.2442 23.7176 44.0944 23.8543C43.9446 23.991 43.7685 24.0956 43.5769 24.1619C43.3852 24.2281 43.1821 24.2546 42.9799 24.2396C42.5586 24.1973 42.164 24.0141 41.8599 23.7196C41.688 23.457 41.5754 23.1601 41.5299 22.8496Z" fill="#2C2C2C"/>
<path d="M35.2298 32.4101C35.2325 32.7461 35.168 33.0792 35.0401 33.3899C34.9121 33.7006 34.7233 33.9826 34.4848 34.2193C34.2463 34.4559 33.9628 34.6425 33.6511 34.768C33.3394 34.8935 33.0058 34.9554 32.6698 34.9501C32.1626 34.9501 31.6669 34.7994 31.2455 34.5172C30.8241 34.235 30.496 33.834 30.3028 33.3651C30.1096 32.8961 30.0601 32.3804 30.1605 31.8832C30.2609 31.3861 30.5067 30.93 30.8668 30.5728C31.2268 30.2156 31.6848 29.9734 32.1827 29.8769C32.6806 29.7803 33.196 29.8339 33.6634 30.0307C34.1308 30.2276 34.5292 30.5588 34.8081 30.9824C35.087 31.406 35.2337 31.9029 35.2298 32.4101Z" fill="#2C2C2C"/>
</g>
<defs>
<clipPath id="clip0_783_486">
<rect width="37.53" height="42.83" fill="white" transform="translate(14 11)"/>
</clipPath>
</defs>
</svg>
