<svg width="66" height="66" viewBox="0 0 66 66" fill="none" xmlns="http://www.w3.org/2000/svg">
<path d="M32.8 64.6C50.3626 64.6 64.6 50.3627 64.6 32.8C64.6 15.2373 50.3626 1 32.8 1C15.2373 1 1 15.2373 1 32.8C1 50.3627 15.2373 64.6 32.8 64.6Z" fill="#F6F2F2" stroke="#2C2C2C" stroke-miterlimit="10"/>
<path d="M21.3705 38.9297C21.5567 38.7449 21.8081 38.6408 22.0705 38.6396H46.4705C46.5683 38.641 46.6636 38.6711 46.7446 38.7261C46.8255 38.7812 46.8885 38.8587 46.9258 38.9492C46.963 39.0397 46.9729 39.1392 46.9542 39.2352C46.9355 39.3313 46.889 39.4198 46.8205 39.4897L42.0005 44.2997C41.9079 44.3941 41.7974 44.4693 41.6755 44.5208C41.5537 44.5723 41.4228 44.5991 41.2905 44.5997H16.9005C16.8006 44.6003 16.7027 44.5709 16.6196 44.5154C16.5365 44.4599 16.472 44.3807 16.4343 44.2881C16.3966 44.1956 16.3876 44.0938 16.4083 43.9961C16.429 43.8983 16.4785 43.809 16.5505 43.7397L21.3705 38.9297Z" fill="#2C2C2C"/>
<path d="M21.37 20.9297C21.5563 20.7449 21.8077 20.6408 22.07 20.6396H46.47C46.5679 20.641 46.6632 20.6711 46.7441 20.7261C46.8251 20.7812 46.8881 20.8587 46.9253 20.9492C46.9626 21.0397 46.9725 21.1392 46.9538 21.2352C46.9351 21.3313 46.8886 21.4198 46.82 21.4897L42 26.3096C41.9066 26.4023 41.7958 26.4757 41.6739 26.5254C41.5521 26.5752 41.4216 26.6004 41.29 26.5997H16.9001C16.8 26.6033 16.7011 26.5762 16.6169 26.522C16.5327 26.4678 16.4671 26.3891 16.429 26.2965C16.3909 26.2039 16.382 26.1019 16.4037 26.0041C16.4253 25.9063 16.4764 25.8175 16.55 25.7496L21.37 20.9297Z" fill="#2C2C2C"/>
<path d="M42 29.8704C41.9066 29.7777 41.7958 29.7044 41.6739 29.6546C41.5521 29.6049 41.4216 29.5796 41.29 29.5804H16.9001C16.8 29.5767 16.7011 29.6038 16.6169 29.658C16.5327 29.7122 16.4671 29.7909 16.429 29.8835C16.3909 29.9761 16.382 30.0782 16.4037 30.176C16.4253 30.2737 16.4764 30.3625 16.55 30.4304L21.37 35.2504C21.5563 35.4351 21.8077 35.5393 22.07 35.5404H46.47C46.5679 35.539 46.6632 35.509 46.7441 35.4539C46.8251 35.3989 46.8881 35.3213 46.9253 35.2308C46.9626 35.1403 46.9725 35.0409 46.9538 34.9448C46.9351 34.8488 46.8886 34.7603 46.82 34.6904L42 29.8704Z" fill="#2C2C2C"/>
</svg>
