<svg width="66" height="66" viewBox="0 0 66 66" fill="none" xmlns="http://www.w3.org/2000/svg">
<path d="M32.8 64.6C50.3626 64.6 64.6 50.3627 64.6 32.8C64.6 15.2373 50.3626 1 32.8 1C15.2373 1 1 15.2373 1 32.8C1 50.3627 15.2373 64.6 32.8 64.6Z" fill="#F6F2F2" stroke="#2C2C2C" stroke-miterlimit="10"/>
<g clip-path="url(#clip0_782_443)">
<path d="M32.4002 22.0195C35.6302 22.0195 38.8503 22.0195 42.0703 22.0195C42.6603 22.0195 42.8702 22.1895 42.8402 22.7895C42.8402 23.7895 42.8402 24.7295 42.8402 25.6995C42.8402 26.2395 42.6503 26.3895 42.1303 26.3895C39.9803 26.3895 37.8202 26.3895 35.6602 26.3895C34.9702 26.3895 34.7202 26.5695 34.7202 27.3095C34.7202 32.2095 34.7202 37.1195 34.7202 42.0295C34.7202 42.6495 34.6002 42.9195 33.9002 42.8795C32.8111 42.8195 31.7194 42.8195 30.6303 42.8795C29.9403 42.8795 29.8103 42.6495 29.8203 42.0295C29.8203 37.1195 29.8203 32.2095 29.8203 27.2995C29.8203 26.5595 29.5803 26.3795 28.8903 26.3895C26.8903 26.3895 24.8102 26.3895 22.7702 26.3895C22.1702 26.3895 21.9103 26.2595 21.9503 25.5995C22.0003 24.6769 22.0003 23.7522 21.9503 22.8295C21.9503 22.2095 22.1003 22.0195 22.7403 22.0195C26.0003 22.0295 29.2002 22.0195 32.4002 22.0195Z" fill="#2C2C2C"/>
</g>
<defs>
<clipPath id="clip0_782_443">
<rect width="20.84" height="20.84" fill="white" transform="translate(22 22)"/>
</clipPath>
</defs>
</svg>
