<svg width="501" height="489" viewBox="0 0 501 489" fill="none" xmlns="http://www.w3.org/2000/svg">
<circle cx="74.9017" cy="74.9017" r="74.4017" transform="matrix(-1 0 0 1 153.902 339.065)" stroke="url(#paint0_linear_16668_316)"/>
<circle cx="74.9017" cy="74.9017" r="74.4017" transform="matrix(-1 0 0 1 325.449 339.065)" fill="#E7D0DC" stroke="url(#paint1_linear_16668_316)"/>
<circle cx="74.9017" cy="74.9017" r="74.4017" transform="matrix(-1 0 0 1 65.0645 169.666)" fill="#E7D0DC" stroke="url(#paint2_linear_16668_316)"/>
<path d="M332.938 319.204C291.57 319.204 258.036 285.669 258.036 244.302C258.036 202.935 291.57 169.4 332.938 169.4" stroke="url(#paint3_linear_16668_316)"/>
<circle cx="74.9017" cy="74.9017" r="74.4017" transform="matrix(-1 0 0 1 236.611 169.666)" stroke="#E7D0DC"/>
<g filter="url(#filter0_d_16668_316)">
<path d="M289.946 400.972C289.868 400.681 289.712 400.417 289.496 400.208C289.28 399.998 289.011 399.851 288.717 399.782C288.217 399.671 287.711 399.587 287.202 399.529C286.997 399.502 286.794 399.477 286.591 399.446L284.339 399.118L281.976 398.773L279.649 398.423L277.186 398.056L274.792 397.708L272.615 397.391C271.524 397.232 270.431 397.07 269.338 396.905L267.645 396.655L266.644 396.507C265.915 396.399 265.187 396.293 264.461 396.179C264.208 396.152 263.966 396.058 263.761 395.907C263.555 395.757 263.393 395.554 263.291 395.32C262.752 394.158 262.179 392.982 261.623 391.842L260.928 390.408L255.368 378.879C255.127 378.382 254.887 377.884 254.648 377.383C253.942 375.91 253.211 374.387 252.468 372.902C252.35 372.624 252.149 372.389 251.893 372.228C251.637 372.068 251.338 371.99 251.037 372.004C250.707 371.98 250.378 372.062 250.097 372.237C249.816 372.411 249.598 372.671 249.474 372.977C248.51 374.979 247.544 376.979 246.575 378.979L244.865 382.521L244.337 383.633C242.477 387.486 240.556 391.467 238.676 395.39C238.589 395.595 238.45 395.774 238.273 395.91C238.097 396.046 237.888 396.134 237.667 396.165C236.981 396.271 236.291 396.377 235.602 396.477L233.592 396.769L230.987 397.147L228.279 397.55L226.108 397.875L223.711 398.225L221.537 398.545L218.262 399.032L216.703 399.262L215.696 399.41C214.943 399.515 214.165 399.627 213.408 399.76C213.111 399.796 212.831 399.919 212.602 400.112C212.373 400.305 212.205 400.56 212.119 400.847C211.863 401.584 212.01 402.173 212.599 402.76C213.422 403.577 214.242 404.398 215.057 405.223L216.764 406.933C221.147 411.32 225.533 415.705 229.922 420.088C230.111 420.25 230.255 420.459 230.34 420.693C230.425 420.927 230.449 421.179 230.408 421.425C230.269 422.259 230.131 423.093 230.003 423.902C229.908 424.491 229.815 425.079 229.725 425.665C229.604 426.386 229.482 427.106 229.358 427.825C229.246 428.472 229.138 429.117 229.03 429.771C228.921 430.424 228.824 431.011 228.724 431.631C228.609 432.333 228.494 433.036 228.379 433.741C228.215 434.716 228.045 435.687 227.879 436.671C227.745 437.438 227.614 438.207 227.484 438.978C227.409 439.42 227.331 439.862 227.256 440.307C227.025 441.644 226.789 443.029 226.58 444.388C226.544 444.625 226.5 444.858 226.452 445.081C226.323 445.577 226.274 446.092 226.308 446.604C226.34 447.006 226.517 447.382 226.805 447.664C227.093 447.945 227.474 448.113 227.876 448.136C228.138 448.132 228.396 448.065 228.627 447.941C231.576 446.421 234.545 444.811 237.417 443.254C238.514 442.659 239.613 442.065 240.714 441.472C243.917 439.745 247.118 438.016 250.319 436.287C250.528 436.17 250.763 436.107 251.003 436.104C251.227 436.105 251.447 436.162 251.643 436.271C252.168 436.549 252.696 436.827 253.224 437.121L254.954 438.05L260.706 441.155C264.872 443.405 269.042 445.654 273.216 447.902C273.471 448.044 273.758 448.119 274.05 448.119C274.258 448.119 274.464 448.076 274.655 447.993C274.846 447.91 275.019 447.79 275.162 447.638C275.532 447.228 275.731 446.692 275.718 446.14L275.54 445.047C275.379 444.071 275.204 443.007 275.028 441.942C274.895 441.132 274.76 440.325 274.622 439.52C274.524 438.946 274.432 438.371 274.344 437.797C274.233 437.138 274.125 436.482 274.016 435.823L273.683 433.83C273.453 432.447 273.221 431.065 272.988 429.685L272.729 428.158C272.583 427.298 272.437 426.439 272.293 425.581C272.204 425.047 272.118 424.516 272.031 423.983C271.895 423.163 271.753 422.345 271.623 421.528C271.571 421.268 271.587 420.999 271.668 420.747C271.75 420.495 271.895 420.268 272.09 420.088C275.773 416.421 279.468 412.726 282.276 409.916L284.111 408.084C285.904 406.293 287.761 404.442 289.557 402.596C289.763 402.386 289.908 402.124 289.977 401.838C290.045 401.552 290.035 401.253 289.946 400.972ZM283.324 404.066L283.302 404.086L281.912 405.459L279.563 407.792L276.171 411.186C273.725 413.633 271.195 416.165 268.693 418.642C268.067 419.262 267.884 419.938 268.081 420.902C268.278 421.867 268.429 422.798 268.576 423.724C268.64 424.113 268.701 424.503 268.765 424.889C269.004 426.305 269.241 427.719 269.477 429.131C269.582 429.765 269.687 430.401 269.791 431.038L270.133 433.098C270.286 434.024 270.444 434.95 270.6 435.879L270.978 438.125C271.147 439.126 271.313 440.127 271.478 441.13C271.478 441.147 271.478 441.166 271.478 441.186C271.539 441.379 271.545 441.585 271.496 441.781C271.447 441.977 271.345 442.156 271.2 442.298C271.038 442.447 270.826 442.53 270.605 442.531C270.36 442.518 270.127 442.42 269.946 442.253L269.924 442.237C267.531 440.952 265.104 439.64 262.754 438.369L258.862 436.259C256.464 434.962 254.062 433.665 251.656 432.367C251.45 432.25 251.218 432.187 250.981 432.184C250.739 432.188 250.502 432.253 250.291 432.373C246.288 434.53 242.286 436.691 238.284 438.856L233.25 441.575C232.783 441.828 232.302 442.086 231.818 442.337C231.654 442.432 231.469 442.487 231.279 442.495C231.17 442.495 231.062 442.473 230.963 442.429C230.863 442.386 230.774 442.322 230.7 442.242C230.602 442.117 230.53 441.972 230.488 441.818C230.447 441.663 230.438 441.502 230.461 441.344V441.3L230.62 440.327C230.728 439.673 230.839 438.998 230.951 438.319C231.184 436.922 231.419 435.524 231.654 434.124C231.757 433.518 231.862 432.909 231.965 432.301C232.093 431.558 232.221 430.816 232.343 430.077C232.466 429.337 232.596 428.573 232.719 427.822C232.813 427.251 232.906 426.681 232.997 426.112C233.195 424.928 233.393 423.744 233.592 422.559L233.686 422.003L233.778 421.47C233.839 421.128 233.897 420.802 233.945 420.471C234.001 420.146 233.973 419.812 233.864 419.5C233.755 419.188 233.568 418.909 233.322 418.689C231.839 417.225 230.366 415.757 228.902 414.286L226.747 412.134L218.782 404.194L218.707 404.119L218.635 404.044L218.618 404.03C218.476 403.914 218.37 403.759 218.312 403.584C218.255 403.409 218.25 403.221 218.296 403.043C218.341 402.854 218.448 402.684 218.598 402.561C218.748 402.437 218.935 402.365 219.13 402.357L220.403 402.17L221.927 401.945L226.853 401.208L229.127 400.872L231.287 400.552L236.166 399.821L237.056 399.685C237.795 399.571 238.562 399.451 239.324 399.363C239.695 399.339 240.052 399.213 240.355 398.997C240.657 398.781 240.894 398.485 241.037 398.142C242.749 394.572 244.498 390.95 246.191 387.444L248.329 383.016L249.763 380.03L250.086 379.354C250.133 379.166 250.24 378.998 250.39 378.875C250.54 378.752 250.726 378.68 250.92 378.671H250.973C251.179 378.67 251.379 378.74 251.54 378.869C251.701 378.998 251.813 379.178 251.857 379.38L253.224 382.212C254.759 385.393 256.292 388.574 257.823 391.756C258.229 392.596 258.632 393.436 259.032 394.278C259.666 395.601 260.302 396.923 260.939 398.242C261.089 398.559 261.321 398.83 261.612 399.025C261.902 399.221 262.241 399.335 262.59 399.354C263.664 399.49 264.745 399.66 265.79 399.821C266.294 399.903 266.8 399.981 267.308 400.055C268.15 400.183 268.993 400.308 269.838 400.43L271.876 400.733L274.253 401.089L276.621 401.445L281.233 402.126L282.067 402.245L282.696 402.334H282.724C282.907 402.331 283.087 402.381 283.241 402.48C283.395 402.579 283.516 402.722 283.588 402.89C283.686 403.087 283.713 403.311 283.665 403.525C283.617 403.739 283.496 403.93 283.324 404.066Z" fill="#2C2C2C"/>
</g>
<g filter="url(#filter1_d_16668_316)">
<path d="M283.323 404.066L283.301 404.086L281.911 405.459L279.561 407.791L276.17 411.186C273.723 413.632 271.193 416.165 268.691 418.642C268.066 419.262 267.882 419.938 268.08 420.902C268.277 421.867 268.427 422.798 268.575 423.724C268.639 424.113 268.7 424.502 268.764 424.889C269.003 426.305 269.24 427.719 269.475 429.131C269.581 429.765 269.686 430.401 269.79 431.038L270.131 433.098C270.284 434.024 270.443 434.95 270.599 435.878L270.977 438.125C271.145 439.125 271.312 440.127 271.477 441.13C271.477 441.147 271.477 441.166 271.477 441.186C271.538 441.378 271.544 441.584 271.495 441.781C271.446 441.977 271.344 442.156 271.199 442.298C271.037 442.447 270.825 442.53 270.604 442.531C270.359 442.518 270.126 442.42 269.945 442.253L269.923 442.236C267.529 440.952 265.102 439.64 262.753 438.369L258.861 436.259C256.463 434.962 254.061 433.665 251.655 432.367C251.449 432.25 251.217 432.187 250.98 432.184C250.738 432.188 250.501 432.253 250.29 432.373C246.287 434.53 242.285 436.691 238.283 438.856L233.249 441.575C232.781 441.828 232.301 442.086 231.817 442.336C231.653 442.432 231.467 442.487 231.277 442.495C231.169 442.495 231.061 442.473 230.962 442.429C230.862 442.386 230.773 442.322 230.699 442.242C230.6 442.116 230.528 441.972 230.487 441.818C230.446 441.663 230.437 441.502 230.46 441.344V441.3L230.619 440.326C230.727 439.673 230.838 438.998 230.949 438.319C231.183 436.922 231.417 435.523 231.653 434.124C231.756 433.518 231.861 432.909 231.964 432.3C232.092 431.558 232.22 430.816 232.342 430.076C232.465 429.337 232.595 428.572 232.718 427.822C232.812 427.251 232.905 426.681 232.996 426.112C233.194 424.928 233.392 423.743 233.59 422.559L233.685 422.003L233.777 421.469C233.838 421.127 233.896 420.802 233.944 420.471C233.999 420.146 233.972 419.811 233.863 419.5C233.754 419.188 233.567 418.909 233.321 418.689C231.838 417.225 230.365 415.757 228.901 414.286L226.746 412.134L218.781 404.194L218.706 404.119L218.634 404.044L218.617 404.03C218.475 403.914 218.368 403.759 218.311 403.584C218.254 403.409 218.248 403.221 218.295 403.043C218.34 402.854 218.446 402.684 218.597 402.56C218.747 402.436 218.934 402.365 219.129 402.356L220.402 402.17L221.925 401.945L226.852 401.208L229.126 400.872L231.286 400.552L236.165 399.821L237.054 399.685C237.794 399.571 238.561 399.451 239.323 399.362C239.694 399.339 240.051 399.212 240.354 398.997C240.656 398.781 240.892 398.485 241.035 398.142C242.748 394.572 244.497 390.95 246.19 387.444L248.328 383.016L249.762 380.03L250.085 379.354C250.132 379.166 250.239 378.998 250.389 378.875C250.539 378.752 250.725 378.68 250.919 378.67H250.971C251.178 378.67 251.378 378.739 251.539 378.868C251.7 378.997 251.811 379.178 251.855 379.379L253.223 382.212C254.758 385.393 256.291 388.574 257.821 391.756C258.227 392.596 258.63 393.436 259.031 394.278C259.665 395.601 260.3 396.922 260.938 398.242C261.087 398.559 261.32 398.829 261.611 399.025C261.901 399.221 262.239 399.335 262.589 399.354C263.662 399.49 264.744 399.66 265.789 399.821C266.293 399.903 266.799 399.98 267.307 400.055C268.148 400.182 268.992 400.308 269.837 400.43L271.875 400.733L274.252 401.089L276.62 401.445L281.232 402.126L282.066 402.245L282.695 402.334H282.722C282.905 402.33 283.086 402.381 283.24 402.48C283.394 402.579 283.515 402.722 283.587 402.89C283.685 403.087 283.712 403.311 283.663 403.525C283.615 403.739 283.495 403.93 283.323 404.066Z" fill="#EAE5E5"/>
</g>
<g filter="url(#filter2_d_16668_316)">
<path d="M-57.6842 229.372C-57.0919 224.511 -56.3188 219.575 -55.5835 214.805C-55.2726 212.836 -54.9673 210.861 -54.6676 208.88C-54.4534 207.459 -54.2223 206.038 -53.987 204.598C-53.9534 204.399 -53.9198 204.199 -53.8904 204C-50.4074 205.366 -46.6975 206.783 -42.8406 207.968C-36.6183 209.877 -30.8792 210.807 -25.3039 210.807C-20.7945 210.81 -16.3147 210.168 -12.04 208.906L-11.5023 208.751L-11.6997 210.08C-12.0695 212.568 -12.4518 215.141 -12.8635 217.663C-13.0526 218.833 -12.4896 219.582 -11.183 219.878C-8.17641 220.596 -5.129 221.175 -2.0533 221.613C0.657446 221.996 3.39812 222.192 6.14367 222.2C11.3796 222.214 16.5766 221.409 21.4915 219.822C22.8989 219.364 24.2476 218.844 25.6719 218.29L25.9324 218.187V224.618C25.9324 230.502 25.9324 236.388 25.9324 242.275C25.9711 247.099 25.0979 251.896 23.3485 256.469C20.9915 262.494 17.748 266.617 13.1474 269.445C10.4165 271.121 7.57635 271.974 4.69838 271.974C3.31455 271.966 1.93921 271.783 0.614616 271.431C-3.14145 270.449 -6.37655 268.312 -9.27133 264.893C-12.9854 260.507 -15.2289 255.295 -16.3297 248.473C-16.4263 247.875 -16.5062 247.277 -16.5944 246.627C-16.6364 246.302 -16.6826 245.963 -16.7331 245.601L-17.212 242.127L-19.0942 245.213C-19.3379 245.608 -19.5606 245.985 -19.7791 246.346C-20.1992 247.063 -20.6194 247.735 -21.0395 248.373C-23.9427 252.803 -27.3416 255.919 -31.4674 257.89C-33.7266 259.031 -36.2774 259.652 -38.8829 259.695C-40.8037 259.684 -42.7008 259.322 -44.454 258.632C-48.3403 257.155 -51.3905 254.45 -53.7769 250.392C-57.3818 244.264 -58.659 237.383 -57.6842 229.372ZM-14.5021 230.661C-14.4559 232.064 -14.4685 233.5 -14.4769 234.891C-14.4769 235.526 -14.4769 236.158 -14.4769 236.8C-14.4769 237.62 -14.4769 238.439 -14.4769 239.259C-14.4769 242.537 -14.4979 245.903 -13.8173 249.281C-12.5568 255.443 -10.4225 260.131 -7.07397 264.029C-5.70425 265.693 -3.97368 267.102 -1.98186 268.175C-0.946011 268.721 0.163322 269.151 1.32045 269.456C2.41231 269.737 3.54385 269.881 4.68159 269.884C7.62258 269.884 10.5089 268.876 13.0256 266.975C16.9203 264.022 19.5546 260.179 21.5629 254.479C22.9599 250.436 23.647 246.23 23.6006 242.005C23.6006 239.812 23.6006 237.619 23.6006 235.427C23.6006 231.366 23.6006 227.305 23.6006 223.244C23.6357 222.981 23.6091 222.714 23.5224 222.46C23.4357 222.206 23.2907 221.971 23.0964 221.768C22.9449 221.634 22.7639 221.529 22.5645 221.459C22.365 221.389 22.1514 221.356 21.9368 221.362C21.5979 221.37 21.2629 221.427 20.9453 221.531C15.9557 223.004 10.7265 223.752 5.46304 223.746C3.63877 223.744 1.8158 223.66 0.00119972 223.495C-3.81968 223.16 -7.60165 222.542 -11.3048 221.65C-11.534 221.589 -11.7714 221.555 -12.0106 221.55C-12.351 221.55 -13.4853 221.657 -13.6912 223.027C-13.7794 223.658 -13.8803 224.293 -13.9811 224.924C-14.3337 226.82 -14.5079 228.739 -14.5021 230.661ZM-36.1478 243.212C-32.543 243.212 -29.1188 242.083 -26.7492 240.108C-25.4409 239.046 -24.4903 237.688 -24.0015 236.183C-23.9786 236.111 -23.9491 236.041 -23.9133 235.973V235.944C-23.6276 235.357 -23.8292 235.279 -24.0267 235.205C-24.3279 235.067 -24.6582 234.984 -24.9972 234.962C-25.1572 234.96 -25.3157 234.989 -25.461 235.048C-25.6064 235.107 -25.735 235.193 -25.8375 235.301C-27.0615 236.403 -28.5602 237.24 -30.2154 237.745C-31.8147 238.289 -33.5169 238.562 -35.2319 238.55C-40.6937 238.55 -45.7942 236.051 -47.9202 232.333C-48.2227 231.805 -48.6806 231.728 -49.2982 231.676L-49.5839 231.646H-49.6679C-49.7856 231.646 -49.941 231.709 -49.962 232.016L-49.9999 232.754L-50.0251 233.197C-49.7646 236.652 -47.6807 239.425 -43.8364 241.433C-42.6943 242.026 -41.4661 242.48 -40.1853 242.784C-38.8659 243.077 -37.5084 243.216 -36.1478 243.198V243.212ZM-20.1362 225.301C-19.9193 225.484 -19.6378 225.597 -19.3379 225.622C-19.1876 225.62 -19.0412 225.579 -18.9178 225.504C-18.7245 225.385 -18.5733 225.245 -18.8421 224.81L-18.9136 224.754L-19.0144 224.544C-19.3631 223.819 -19.8884 223.171 -20.5533 222.644C-21.2183 222.117 -22.0067 221.725 -22.8629 221.495C-23.9116 221.186 -25.0089 221.024 -26.1148 221.015C-28.4197 221.028 -30.6301 221.821 -32.2867 223.23C-32.9564 223.762 -33.4922 224.411 -33.8597 225.136C-34.2273 225.86 -34.4184 226.645 -34.421 227.438L-34.3706 227.501L-34.4084 227.907C-34.4084 228.088 -34.4504 228.317 -34.0303 228.39C-33.9757 228.394 -33.9209 228.394 -33.8664 228.39C-33.5009 228.39 -33.274 228.213 -32.9589 227.693C-32.1943 226.496 -31.0775 225.502 -29.7256 224.815C-28.3736 224.128 -26.8363 223.773 -25.2745 223.787C-23.4176 223.774 -21.609 224.307 -20.1362 225.301ZM-52.0375 221.587C-51.9599 221.67 -51.8624 221.737 -51.7521 221.784C-51.6418 221.83 -51.5213 221.855 -51.3989 221.856C-51.2324 221.854 -51.0687 221.819 -50.92 221.753C-49.9282 221.342 -48.8442 221.133 -47.7479 221.14C-44.1305 221.14 -39.8871 223.403 -39.051 227.191C-39.0398 227.375 -38.9555 227.549 -38.8126 227.684C-38.6698 227.819 -38.4776 227.906 -38.2695 227.929H-38.2023C-38.0846 227.929 -37.925 227.929 -37.8073 227.56V227.475L-37.7233 227.283C-37.5169 226.756 -37.4229 226.201 -37.446 225.644C-37.446 222.392 -40.6391 219.368 -44.7145 218.759C-45.278 218.674 -45.8485 218.629 -46.4202 218.626C-47.4457 218.601 -48.4634 218.789 -49.3911 219.174C-50.3188 219.558 -51.1304 220.13 -51.7603 220.841C-51.806 220.892 -51.8566 220.939 -51.9115 220.981C-52.2644 221.288 -52.1762 221.435 -52.0208 221.587H-52.0375Z" fill="#2C2C2C"/>
<path d="M-13.96 224.902C-13.8592 224.271 -13.7583 223.636 -13.6701 223.004C-13.481 221.627 -12.3467 221.528 -11.9895 221.528C-11.7503 221.533 -11.5129 221.567 -11.2837 221.627C-7.58056 222.52 -3.79858 223.137 0.022295 223.473C1.83689 223.638 3.65986 223.722 5.48414 223.724C10.7475 223.73 15.9768 222.982 20.9664 221.509C21.284 221.405 21.619 221.348 21.9579 221.339C22.1725 221.334 22.3861 221.367 22.5856 221.437C22.785 221.507 22.966 221.612 23.1175 221.746C23.3118 221.948 23.4568 222.184 23.5435 222.438C23.6302 222.692 23.6568 222.959 23.6217 223.222C23.6217 227.283 23.6217 231.344 23.6217 235.404C23.6217 237.597 23.6217 239.79 23.6217 241.983C23.6681 246.208 22.981 250.414 21.584 254.457C19.5757 260.157 16.9624 264.011 13.0467 266.953C10.5258 268.854 7.64367 269.858 4.70268 269.862C3.56495 269.859 2.4334 269.715 1.34155 269.434C0.184418 269.129 -0.924917 268.699 -1.96076 268.153C-3.95259 267.079 -5.68316 265.67 -7.05288 264.007C-10.4308 260.138 -12.5735 255.443 -13.834 249.281C-14.5146 245.922 -14.5062 242.537 -14.4936 239.259C-14.4936 238.439 -14.4936 237.619 -14.4936 236.8C-14.4936 236.158 -14.4936 235.526 -14.4936 234.891C-14.4936 233.5 -14.4936 232.064 -14.5188 230.661C-14.5135 228.731 -14.3266 226.805 -13.96 224.902ZM21.0084 237.376C21.1512 237.162 21.4789 236.892 21.126 236.66C20.998 236.552 20.8329 236.484 20.6566 236.467C20.4802 236.451 20.3025 236.486 20.1513 236.567C19.8907 236.72 19.6183 236.857 19.3362 236.977C14.9499 238.823 9.25282 236.826 7.52184 232.839C7.33698 232.403 7.12689 231.982 6.5639 232.03C6.00092 232.078 6.14376 232.639 6.03873 232.983C5.98013 233.242 5.94641 233.505 5.9379 233.769C6.253 236.634 8.09323 238.568 11.0636 239.676C14.1349 240.82 17.1095 240.672 19.79 238.723C20.2822 238.34 20.6945 237.884 21.0084 237.376ZM-8.43096 255.295C-7.85116 255.343 -7.17053 255.52 -6.72098 254.926C-4.99419 252.648 -2.47754 251.352 0.421434 250.525C3.09824 249.783 5.96332 249.741 8.66654 250.406C11.3698 251.071 13.794 252.413 15.6432 254.269C15.7938 254.434 15.9858 254.568 16.2044 254.658C16.4229 254.748 16.6621 254.793 16.9036 254.789C17.7019 254.833 17.8237 254.56 17.7439 253.936C17.3825 251.459 15.9625 249.506 13.8156 247.963C8.21086 243.928 -0.775972 244.412 -5.75045 249.012C-7.46404 250.498 -8.49199 252.489 -8.63682 254.601C-8.59061 254.841 -8.8553 255.262 -8.43096 255.295ZM-12.0274 237.575C-10.2418 239.871 -7.69991 240.591 -4.65389 240.292C-0.87261 239.923 2.40031 237.258 2.82045 234.175C2.84986 233.965 2.85827 233.751 2.87928 233.533C2.82886 233.23 2.81204 232.92 2.72801 232.625C2.64398 232.329 2.72801 231.993 2.30787 232.012C2.11576 232.006 1.92687 232.056 1.77041 232.154C1.61394 232.252 1.49863 232.393 1.44238 232.555C0.127333 235.792 -2.70863 237.247 -6.41428 237.631C-8.03061 237.778 -9.65687 237.448 -11.0358 236.693C-11.4854 236.464 -11.9223 236.35 -12.2963 236.645C-12.6702 236.94 -12.2332 237.32 -12.0274 237.586V237.575Z" fill="#EAE5E5"/>
<path d="M-8.43206 255.295C-7.85227 255.343 -7.17163 255.52 -6.72208 254.926C-4.9953 252.648 -2.47865 251.352 0.420326 250.525C3.09713 249.783 5.96221 249.741 8.66543 250.406C11.3686 251.071 13.7929 252.413 15.6421 254.269C15.7927 254.434 15.9847 254.568 16.2033 254.658C16.4218 254.748 16.661 254.793 16.9025 254.789C17.7007 254.833 17.8226 254.56 17.7428 253.936C17.3814 251.459 15.9614 249.506 13.8144 247.963C8.20976 243.928 -0.777079 244.412 -5.75156 249.012C-7.46514 250.498 -8.4931 252.489 -8.63793 254.601C-8.59171 254.841 -8.85641 255.262 -8.43206 255.295Z" fill="#2C2C2C"/>
<path d="M-12.0277 237.586C-10.2421 239.882 -7.70028 240.602 -4.65426 240.303C-0.872982 239.934 2.39994 237.268 2.82008 234.186C2.84949 233.976 2.8579 233.761 2.87891 233.544C2.82849 233.241 2.81166 232.931 2.72764 232.635C2.64361 232.34 2.72764 232.004 2.30749 232.023C2.11539 232.017 1.9265 232.067 1.77003 232.165C1.61357 232.263 1.49826 232.404 1.442 232.565C0.12696 235.803 -2.709 237.257 -6.41465 237.641C-8.03098 237.789 -9.65724 237.459 -11.0362 236.704C-11.4858 236.475 -11.9227 236.36 -12.2966 236.656C-12.6706 236.951 -12.2336 237.32 -12.0277 237.586Z" fill="#2C2C2C"/>
<path d="M5.93889 233.769C6.25399 236.634 8.09422 238.568 11.0646 239.676C14.1359 240.82 17.1105 240.673 19.791 238.723C20.2852 238.334 20.6976 237.872 21.0094 237.357C21.1522 237.143 21.4799 236.874 21.127 236.641C20.999 236.533 20.8339 236.466 20.6575 236.449C20.4812 236.432 20.3035 236.468 20.1523 236.549C19.8917 236.702 19.6193 236.839 19.3372 236.959C14.9509 238.805 9.25381 236.807 7.52283 232.821C7.33797 232.385 7.12788 231.964 6.56489 232.012C6.0019 232.06 6.14475 232.621 6.03972 232.964C5.97994 233.23 5.94621 233.499 5.93889 233.769Z" fill="#2C2C2C"/>
</g>
<circle cx="74.9017" cy="74.9017" r="74.4017" transform="matrix(1 -8.74228e-08 -8.74228e-08 -1 7.42383 149.803)" stroke="url(#paint4_linear_16668_316)"/>
<circle cx="74.9017" cy="74.9017" r="74.4017" transform="matrix(1 -8.74228e-08 -8.74228e-08 -1 178.973 149.803)" fill="url(#paint5_linear_16668_316)" stroke="url(#paint6_linear_16668_316)"/>
<g clip-path="url(#clip0_16668_316)">
<path d="M289.751 90.1144C287.498 90.3338 275.902 91.4723 268.761 92.166L253.249 93.6484V110.604C253.249 111.146 252.932 111.647 252.444 111.873C252.259 111.959 252.062 112 251.866 112C251.54 112 251.219 111.885 250.964 111.665L231.554 94.8817C231.257 94.6238 231.081 94.2502 231.069 93.8559C231.025 92.1393 229.932 49.8058 229.92 49.3759C229.9 48.6466 230.449 48.018 231.172 47.9469L288.285 42.3168C288.667 42.2783 289.049 42.4058 289.337 42.6607C289.625 42.9157 289.795 43.2863 289.804 43.6717C289.857 45.8093 290.726 78.4897 290.994 88.4571L291 88.6854C291.02 89.4177 290.471 90.0462 289.751 90.1144Z" fill="#2C2C2C"/>
<path d="M286.08 84.3778L286.074 84.1495C285.81 74.185 284.94 41.5017 284.884 39.3641C284.875 38.9787 284.705 38.6081 284.417 38.3531C284.129 38.0982 283.747 37.9707 283.365 38.0092L226.252 43.6393C225.529 43.7075 224.98 44.336 225.001 45.0653C225.012 45.4922 226.105 87.8288 226.149 89.5454C226.158 89.9397 226.334 90.3132 226.634 90.5712L246.044 107.355C246.299 107.577 246.623 107.69 246.946 107.69C247.143 107.69 247.339 107.648 247.524 107.562C248.015 107.334 248.329 106.836 248.329 106.293V89.3378L263.841 87.8554C270.983 87.1617 282.578 86.0262 284.831 85.8038C285.551 85.7357 286.1 85.1071 286.08 84.3778ZM263.615 85.457L247.184 87.0283C246.455 87.0965 245.903 87.7309 245.929 88.4721C245.938 88.7538 245.941 88.9139 245.941 88.9702V88.985V104.096L228.526 89.0325C228.411 84.5794 227.568 51.9435 227.412 45.9458L282.525 40.5115C282.684 46.5417 283.403 73.6603 283.668 83.4973C280.093 83.8471 270.045 84.8314 263.615 85.457Z" fill="#2C2C2C"/>
<path d="M283.668 83.4971C280.092 83.8469 270.045 84.8312 263.614 85.4567L247.183 87.0281C246.455 87.0962 245.902 87.7307 245.929 88.4719C245.938 88.7535 245.941 88.9136 245.941 88.97V88.9848V104.096L228.526 89.0322C228.411 84.5792 227.568 51.9433 227.412 45.9456L282.525 40.5112C282.683 46.5415 283.406 73.66 283.668 83.4971Z" fill="#EAE5E5"/>
</g>
<defs>
<filter id="filter0_d_16668_316" x="211.998" y="372" width="82.0234" height="80.1357" filterUnits="userSpaceOnUse" color-interpolation-filters="sRGB">
<feFlood flood-opacity="0" result="BackgroundImageFix"/>
<feColorMatrix in="SourceAlpha" type="matrix" values="0 0 0 0 0 0 0 0 0 0 0 0 0 0 0 0 0 0 127 0" result="hardAlpha"/>
<feOffset dx="4" dy="4"/>
<feComposite in2="hardAlpha" operator="out"/>
<feColorMatrix type="matrix" values="0 0 0 0 0.172549 0 0 0 0 0.172549 0 0 0 0 0.172549 0 0 0 1 0"/>
<feBlend mode="normal" in2="BackgroundImageFix" result="effect1_dropShadow_16668_316"/>
<feBlend mode="normal" in="SourceGraphic" in2="effect1_dropShadow_16668_316" result="shape"/>
</filter>
<filter id="filter1_d_16668_316" x="218.264" y="378.67" width="69.4238" height="67.8608" filterUnits="userSpaceOnUse" color-interpolation-filters="sRGB">
<feFlood flood-opacity="0" result="BackgroundImageFix"/>
<feColorMatrix in="SourceAlpha" type="matrix" values="0 0 0 0 0 0 0 0 0 0 0 0 0 0 0 0 0 0 127 0" result="hardAlpha"/>
<feOffset dx="4" dy="4"/>
<feComposite in2="hardAlpha" operator="out"/>
<feColorMatrix type="matrix" values="0 0 0 0 0.172549 0 0 0 0 0.172549 0 0 0 0 0.172549 0 0 0 1 0"/>
<feBlend mode="normal" in2="BackgroundImageFix" result="effect1_dropShadow_16668_316"/>
<feBlend mode="normal" in="SourceGraphic" in2="effect1_dropShadow_16668_316" result="shape"/>
</filter>
<filter id="filter2_d_16668_316" x="-58" y="204" width="87.9336" height="71.9736" filterUnits="userSpaceOnUse" color-interpolation-filters="sRGB">
<feFlood flood-opacity="0" result="BackgroundImageFix"/>
<feColorMatrix in="SourceAlpha" type="matrix" values="0 0 0 0 0 0 0 0 0 0 0 0 0 0 0 0 0 0 127 0" result="hardAlpha"/>
<feOffset dx="4" dy="4"/>
<feComposite in2="hardAlpha" operator="out"/>
<feColorMatrix type="matrix" values="0 0 0 0 0.172549 0 0 0 0 0.172549 0 0 0 0 0.172549 0 0 0 1 0"/>
<feBlend mode="normal" in2="BackgroundImageFix" result="effect1_dropShadow_16668_316"/>
<feBlend mode="normal" in="SourceGraphic" in2="effect1_dropShadow_16668_316" result="shape"/>
</filter>
<linearGradient id="paint0_linear_16668_316" x1="3.07813" y1="70.9346" x2="128.578" y2="74.9346" gradientUnits="userSpaceOnUse">
<stop stop-color="#E4CDD9"/>
<stop offset="1" stop-color="#E4CDD9" stop-opacity="0"/>
</linearGradient>
<linearGradient id="paint1_linear_16668_316" x1="129.625" y1="21.4346" x2="11.125" y2="97.4346" gradientUnits="userSpaceOnUse">
<stop stop-color="#E4CDD9"/>
<stop offset="1" stop-color="#E4CDD9" stop-opacity="0"/>
</linearGradient>
<linearGradient id="paint2_linear_16668_316" x1="0" y1="74.9017" x2="149.803" y2="74.9017" gradientUnits="userSpaceOnUse">
<stop stop-color="#E4CDD9"/>
<stop offset="0.19922" stop-color="#E4CDD9" stop-opacity="0"/>
</linearGradient>
<linearGradient id="paint3_linear_16668_316" x1="258.324" y1="230.5" x2="307.324" y2="231.5" gradientUnits="userSpaceOnUse">
<stop stop-color="#E4CDD9"/>
<stop offset="1" stop-color="#E4CDD9" stop-opacity="0"/>
</linearGradient>
<linearGradient id="paint4_linear_16668_316" x1="139.902" y1="34.8037" x2="56.9023" y2="74.8037" gradientUnits="userSpaceOnUse">
<stop stop-color="#E4CDD9"/>
<stop offset="1" stop-color="#E4CDD9" stop-opacity="0"/>
</linearGradient>
<linearGradient id="paint5_linear_16668_316" x1="74.9017" y1="149.803" x2="74.9017" y2="0" gradientUnits="userSpaceOnUse">
<stop offset="0.115" stop-color="#E4CDD9" stop-opacity="0"/>
<stop offset="1" stop-color="#E4CDD9"/>
</linearGradient>
<linearGradient id="paint6_linear_16668_316" x1="74.9017" y1="0" x2="74.9017" y2="149.803" gradientUnits="userSpaceOnUse">
<stop stop-color="#E4CDD9"/>
<stop offset="1" stop-color="#F1D1E5"/>
</linearGradient>
<clipPath id="clip0_16668_316">
<rect width="66" height="74" fill="white" transform="translate(225 38)"/>
</clipPath>
</defs>
</svg>
