<svg width="665" height="490" viewBox="0 0 665 490" fill="none" xmlns="http://www.w3.org/2000/svg">
<g clip-path="url(#clip0_16679_521)">
<path d="M84.9996 489.4C126.09 489.4 159.4 456.09 159.4 415C159.4 373.91 126.09 340.6 84.9996 340.6C43.9096 340.6 10.5996 373.91 10.5996 415C10.5996 456.09 43.9096 489.4 84.9996 489.4Z" stroke="url(#paint0_linear_16679_521)"/>
<path d="M256.5 489.4C297.59 489.4 330.9 456.09 330.9 415C330.9 373.91 297.59 340.6 256.5 340.6C215.41 340.6 182.1 373.91 182.1 415C182.1 456.09 215.41 489.4 256.5 489.4Z" fill="#E7D0DC" stroke="url(#paint1_linear_16679_521)"/>
<path d="M-3.79922 320C37.2908 320 70.6008 286.69 70.6008 245.6C70.6008 204.51 37.2908 171.2 -3.79922 171.2C-44.8892 171.2 -78.1992 204.51 -78.1992 245.6C-78.1992 286.69 -44.8892 320 -3.79922 320Z" fill="#E7D0DC" stroke="url(#paint2_linear_16679_521)"/>
<path d="M338.9 320.2C297.5 320.2 264 286.7 264 245.3C264 203.9 297.5 170.4 338.9 170.4" stroke="url(#paint3_linear_16679_521)"/>
<path d="M167.701 320C208.791 320 242.101 286.69 242.101 245.6C242.101 204.51 208.791 171.2 167.701 171.2C126.611 171.2 93.3008 204.51 93.3008 245.6C93.3008 286.69 126.611 320 167.701 320Z" stroke="#E7D0DC"/>
<path d="M88.3004 150.3C129.39 150.3 162.7 116.99 162.7 75.9C162.7 34.81 129.39 1.5 88.3004 1.5C47.2104 1.5 13.9004 34.81 13.9004 75.9C13.9004 116.99 47.2104 150.3 88.3004 150.3Z" stroke="url(#paint4_linear_16679_521)"/>
<path d="M259.9 150.3C300.99 150.3 334.3 116.99 334.3 75.9C334.3 34.81 300.99 1.5 259.9 1.5C218.81 1.5 185.5 34.81 185.5 75.9C185.5 116.99 218.81 150.3 259.9 150.3Z" fill="url(#paint5_linear_16679_521)" stroke="url(#paint6_linear_16679_521)"/>
<mask id="mask0_16679_521" style="mask-type:luminance" maskUnits="userSpaceOnUse" x="231" y="39" width="66" height="74">
<path d="M297 39H231V113H297V39Z" fill="white"/>
</mask>
<g mask="url(#mask0_16679_521)">
<path d="M295.8 91.1C293.5 91.3 282 92.5 274.8 93.2L259.3 94.7V111.7C259.3 112.2 259 112.7 258.5 113C258.3 113.1 258.1 113.1 257.9 113.1C257.6 113.1 257.3 113 257 112.8L237.6 96C237.3 95.7 237.1 95.4 237.1 95C237.1 93.3 236 50.9 236 50.5C236 49.8 236.5 49.1 237.3 49.1L294.4 43.5C294.8 43.5 295.2 43.6 295.5 43.8C295.8 44.1 296 44.4 296 44.8C296.1 46.9 296.9 79.6 297.2 89.6V89.8C297 90.4 296.5 91 295.8 91.1Z" fill="#2C2C2C"/>
<path d="M292.1 85.3998V85.1998C291.8 75.1998 291 42.5998 290.9 40.3998C290.9 39.9998 290.7 39.5998 290.4 39.3998C290.1 39.1998 289.7 38.9998 289.3 39.0998L232.2 44.6998C231.5 44.7998 230.9 45.3998 230.9 46.0998C230.9 46.4998 232 88.8998 232 90.5998C232 90.9998 232.2 91.3998 232.5 91.5998L251.9 108.4C252.2 108.6 252.5 108.7 252.8 108.7C253 108.7 253.2 108.7 253.4 108.6C253.9 108.4 254.2 107.9 254.2 107.3V90.2998L269.7 88.7998C276.8 88.0998 288.4 86.9998 290.7 86.6998C291.6 86.6998 292.1 86.0998 292.1 85.3998ZM269.6 86.4998L253.2 87.9998C252.5 88.0998 251.9 88.6998 251.9 89.3998C251.9 89.6998 251.9 89.7998 251.9 89.8998V105L234.5 89.9998C234.4 85.4998 233.5 52.8998 233.4 46.8998L288.5 41.4998C288.7 47.4998 289.4 74.5998 289.6 84.4998C286.1 84.7998 276 85.7998 269.6 86.4998Z" fill="#2C2C2C"/>
<path d="M289.7 84.5C286.1 84.8 276.1 85.8 269.6 86.5L253.2 88C252.5 88.1 251.9 88.7 251.9 89.4C251.9 89.7 251.9 89.8 251.9 89.9V105L234.5 90C234.4 85.5 233.5 52.9 233.4 46.9L288.5 41.5C288.7 47.5 289.4 74.7 289.7 84.5Z" fill="#EAE5E5"/>
</g>
<path d="M251.4 402.1C251.4 402.2 251.3 402.3 251.3 402.3C251.3 402.2 251.4 402.2 251.4 402.1ZM243.1 431.8C243.2 431.2 243.3 430.7 243.4 430.1C243.6 428.9 243.8 427.7 244 426.6C243.8 427.8 243.6 429 243.4 430.1C243.3 430.6 243.2 431.2 243.1 431.8Z" fill="#2C2C2C"/>
<path d="M300.3 404.9C300.2 404.6 300.1 404.3 299.8 404.1C299.6 403.9 299.3 403.7 299 403.7C298.5 403.6 298 403.5 297.5 403.5C297.3 403.5 297.1 403.4 296.9 403.4L292.3 402.7L290 402.3L287.5 401.9L282.9 401.2C281.8 401 280.7 400.9 279.6 400.7L276.9 400.3C276.2 400.2 275.4 400.1 274.7 400C274.5 400 274.2 399.9 274 399.7C273.8 399.5 273.6 399.3 273.5 399.1C273 397.9 272.4 396.8 271.8 395.6L271.1 394.2L265.5 382.7L264.8 381.2C264.1 379.7 263.4 378.2 262.6 376.7C262.5 376.4 262.3 376.2 262 376C261.8 375.8 261.4 375.8 261.1 375.8C260.8 375.8 260.5 375.9 260.2 376C259.9 376.2 259.7 376.4 259.6 376.7C258.6 378.7 257.7 380.7 256.7 382.7L255 386.2L254.5 387.3C252.6 391.1 250.7 395.1 248.8 399.1C248.7 399.3 248.6 399.5 248.4 399.6C248.2 399.7 248 399.8 247.8 399.8C247.1 399.9 246.4 400 245.7 400.1L241.1 400.8L236.2 401.5L231.6 402.2L226.8 402.9L225.8 403.1C225 403.2 224.3 403.3 223.5 403.4C223.2 403.4 222.9 403.6 222.7 403.7C222.5 403.9 222.3 404.2 222.2 404.4C221.9 405.1 222.1 405.7 222.7 406.3C223.5 407.1 224.3 407.9 225.2 408.8L226.9 410.5C231.3 414.9 235.7 419.3 240.1 423.7C240.3 423.9 240.4 424.1 240.5 424.3C240.6 424.5 240.6 424.8 240.6 425C240.5 425.8 240.3 426.7 240.2 427.5C240.1 428.1 240 428.7 239.9 429.3C239.8 430 239.7 430.7 239.5 431.5C239.4 432.2 239.3 432.8 239.2 433.5C239.1 434.1 239 434.7 238.9 435.4C238.8 436.1 238.7 436.8 238.6 437.5C238.4 438.5 238.3 439.4 238.1 440.4C238 441.2 237.8 441.9 237.7 442.7C237.6 443.1 237.6 443.6 237.5 444C237.3 445.3 237 446.7 236.8 448.1C236.8 448.3 236.7 448.6 236.7 448.8C236.6 449.3 236.5 449.8 236.6 450.3C236.6 450.7 236.8 451.1 237.1 451.4C237.4 451.7 237.8 451.8 238.2 451.9C238.5 451.9 238.7 451.8 239 451.7C242 450.2 244.9 448.6 247.8 447C248.9 446.4 250 445.8 251.1 445.2C254.3 443.5 257.5 441.7 260.7 440C260.9 439.9 261.1 439.8 261.4 439.8C261.6 439.8 261.9 439.9 262 440C262.5 440.3 263 440.5 263.6 440.8L265.3 441.7L271.1 444.8C275.3 447 279.4 449.3 283.6 451.6C283.9 451.7 284.1 451.8 284.4 451.8C284.6 451.8 284.8 451.8 285 451.7C285.2 451.6 285.4 451.5 285.5 451.3C285.9 450.9 286.1 450.4 286.1 449.8L285.9 448.7C285.7 447.7 285.6 446.7 285.4 445.6C285.3 444.8 285.1 444 285 443.2C284.9 442.6 284.8 442 284.7 441.5C284.6 440.8 284.5 440.2 284.4 439.5L284.1 437.5C283.9 436.1 283.6 434.7 283.4 433.3L283.1 431.8C283 430.9 282.8 430.1 282.7 429.2C282.6 428.7 282.5 428.1 282.4 427.6C282.3 426.8 282.1 426 282 425.1C282 424.8 282 424.6 282 424.3C282.1 424.1 282.2 423.8 282.4 423.6C286.1 419.9 289.8 416.2 292.6 413.4L294.4 411.6C296.2 409.8 298.1 408 299.9 406.1C300.1 405.9 300.2 405.6 300.3 405.3C300.4 405.5 300.4 405.2 300.3 404.9ZM251.4 402.1C251.4 402.2 251.3 402.3 251.3 402.3C251.3 402.2 251.4 402.2 251.4 402.1ZM243.1 431.8C243.2 431.2 243.3 430.7 243.4 430.1C243.6 428.9 243.8 427.7 244 426.6C243.8 427.8 243.6 429 243.4 430.1C243.3 430.6 243.2 431.2 243.1 431.8Z" fill="#2C2C2C"/>
<path d="M243.4 430C243.6 428.8 243.8 427.6 244 426.5C243.8 427.7 243.6 428.9 243.4 430C243.3 430.6 243.2 431.1 243.1 431.7C243.2 431.2 243.3 430.6 243.4 430Z" fill="#2C2C2C"/>
<path d="M251.401 402.1C251.401 402.2 251.301 402.3 251.301 402.3C251.301 402.2 251.401 402.1 251.401 402.1Z" fill="#2C2C2C"/>
<path d="M295.9 402C295.8 401.7 295.7 401.4 295.4 401.2C295.2 401 294.9 400.8 294.6 400.8C294.1 400.7 293.6 400.6 293.1 400.5C292.9 400.5 292.7 400.4 292.5 400.4L287.9 399.7L285.6 399.3L283.1 398.9L278.5 398.2C277.4 398 276.3 397.9 275.2 397.7L272.5 397.3C271.8 397.2 271 397.1 270.3 397C270 397 269.8 396.9 269.6 396.7C269.4 396.5 269.2 396.3 269.1 396.1C268.6 394.9 268 393.8 267.4 392.6L266.7 391.2L261.1 379.7C260.9 379.2 260.6 378.7 260.4 378.2C259.7 376.7 259 375.2 258.2 373.7C258.1 373.4 257.9 373.2 257.6 373C257.3 372.8 257 372.8 256.7 372.8C256.4 372.8 256 372.9 255.8 373C255.6 373.1 255.3 373.4 255.2 373.7C254.2 375.7 253.3 377.7 252.3 379.7L250.6 383.2L250.1 384.3C248.2 388.2 246.3 392.1 244.4 396.1C244.3 396.3 244.2 396.5 244 396.6C243.8 396.7 243.6 396.8 243.4 396.9C242.7 397 242 397.1 241.3 397.2L236.7 397.9L231.8 398.6L227.2 399.3L222.4 400L221.4 400.1C220.6 400.2 219.9 400.3 219.1 400.5C218.8 400.5 218.5 400.7 218.3 400.9C218.1 401.1 217.9 401.3 217.8 401.6C217.5 402.3 217.7 402.9 218.3 403.5C219.1 404.3 219.9 405.1 220.8 406L222.5 407.7C226.9 412.1 231.3 416.5 235.7 420.9C235.9 421.1 236 421.3 236.1 421.5C236.2 421.7 236.2 422 236.2 422.2C236.1 423 235.9 423.9 235.8 424.7C235.7 425.3 235.6 425.9 235.5 426.5C235.4 427.2 235.3 427.9 235.1 428.7C235 429.3 234.9 430 234.8 430.6C234.7 431.3 234.6 431.8 234.5 432.5C234.4 433.2 234.3 433.9 234.2 434.6C234 435.6 233.9 436.5 233.7 437.5C233.6 438.3 233.4 439 233.3 439.8C233.2 440.2 233.1 440.7 233.1 441.1C232.9 442.4 232.6 443.8 232.4 445.2C232.4 445.4 232.3 445.7 232.3 445.9C232.2 446.4 232.1 446.9 232.2 447.4C232.2 447.8 232.4 448.2 232.7 448.5C233 448.8 233.4 448.9 233.8 449C234.1 449 234.3 448.9 234.6 448.8C237.6 447.3 240.5 445.7 243.4 444.1C244.5 443.5 245.6 442.9 246.7 442.3C249.9 440.6 253.1 438.8 256.3 437.1C256.5 437 256.7 436.9 257 436.9C257.2 436.9 257.4 437 257.6 437.1C258.1 437.4 258.7 437.7 259.2 438L260.9 438.9L266.7 442C270.9 444.2 275 446.5 279.2 448.7C279.5 448.8 279.7 448.9 280 448.9C280.2 448.9 280.4 448.9 280.6 448.8C280.8 448.7 281 448.6 281.1 448.4C281.5 448 281.7 447.5 281.7 446.9L281.5 445.8C281.3 444.8 281.2 443.8 281 442.7C280.9 441.9 280.7 441.1 280.6 440.3C280.5 439.7 280.4 439.2 280.3 438.6C280.2 437.9 280.1 437.3 280 436.6L279.7 434.6C279.5 433.2 279.2 431.8 279 430.5L278.7 429C278.6 428.1 278.4 427.3 278.3 426.4C278.2 425.9 278.1 425.3 278 424.8C277.9 424 277.7 423.2 277.6 422.3C277.5 422 277.6 421.8 277.6 421.5C277.7 421.2 277.8 421 278 420.8C281.7 417.1 285.4 413.4 288.2 410.6L290 408.8C291.8 407 293.6 405.2 295.4 403.3C295.6 403.1 295.8 402.8 295.8 402.5C296 402.6 296 402.3 295.9 402ZM289.3 405.1L287.9 406.5L285.6 408.8L282.2 412.2C279.8 414.6 277.2 417.2 274.7 419.7C274.1 420.3 273.9 421 274.1 422C274.3 423 274.4 423.9 274.6 424.8C274.7 425.2 274.7 425.6 274.8 426C275 427.4 275.3 428.8 275.5 430.2C275.6 430.8 275.7 431.5 275.8 432.1L276.1 434.2C276.3 435.1 276.4 436.1 276.6 437L277 439.2C277.2 440.2 277.3 441.2 277.5 442.2C277.5 442.2 277.5 442.2 277.5 442.3C277.6 442.5 277.6 442.7 277.5 442.9C277.5 443.1 277.3 443.3 277.2 443.4C277 443.5 276.8 443.6 276.6 443.6C276.4 443.6 276.1 443.5 275.9 443.3C273.5 442 271.1 440.7 268.7 439.4L264.8 437.3C262.4 436 260 434.7 257.6 433.4C257.4 433.3 257.2 433.2 256.9 433.2C256.7 433.2 256.4 433.3 256.2 433.4C252.2 435.6 248.2 437.7 244.2 439.9L239.2 442.6C238.7 442.9 238.3 443.1 237.8 443.4C237.6 443.5 237.5 443.5 237.3 443.6C237.2 443.6 237.1 443.6 237 443.5C236.9 443.5 236.8 443.4 236.7 443.3C236.6 443.2 236.5 443 236.5 442.9C236.5 442.7 236.5 442.6 236.5 442.4L236.7 441.4C236.8 440.7 236.9 440.1 237 439.4C237.2 438 237.5 436.6 237.7 435.2C237.8 434.6 237.9 434 238 433.4C238.1 432.7 238.3 431.9 238.4 431.2C238.5 430.5 238.7 429.7 238.8 428.9C238.9 428.3 239 427.8 239.1 427.2C239.3 426 239.5 424.8 239.7 423.6L239.8 423L239.9 422.5C240 422.2 240 421.8 240.1 421.5C240.2 421.2 240.1 420.8 240 420.5C239.9 420.2 239.7 419.9 239.5 419.7C238 418.2 236.5 416.8 235.1 415.3L225 405.2L224.9 405.1L224.8 405C224.7 404.9 224.6 404.7 224.5 404.6C224.4 404.4 224.4 404.2 224.5 404.1C224.5 403.9 224.7 403.7 224.8 403.6C224.9 403.5 225.1 403.4 225.3 403.4L226.6 403.2L228.1 403L233 402.3L237.4 401.6L242.3 400.9L243.2 400.8C243.9 400.7 244.7 400.6 245.5 400.5C245.9 400.5 246.2 400.4 246.5 400.1C246.8 399.9 247 399.6 247.2 399.2C248.9 395.6 250.7 392 252.4 388.5L254.5 384.1L255.9 381.1L256.2 380.4C256.2 380.2 256.4 380 256.5 379.9C256.6 379.8 256.8 379.7 257 379.7H257.1C257.3 379.7 257.5 379.8 257.7 379.9C257.9 380 258 380.2 258 380.4L259.4 383.2C260.9 386.4 262.5 389.6 264 392.7C264.4 393.5 264.8 394.4 265.2 395.2C265.8 396.5 266.5 397.8 267.1 399.2C267.2 399.5 267.5 399.8 267.8 400C268.1 400.2 268.4 400.3 268.8 400.3C269.9 400.4 271 400.6 272 400.8C272.5 400.9 273 401 273.5 401C274.3 401.1 275.2 401.3 276 401.4L282.8 402.4L287.4 403.1L288.2 403.2L288.8 403.3C289 403.3 289.2 403.3 289.3 403.4C289.5 403.5 289.6 403.6 289.6 403.8C289.7 404 289.7 404.2 289.7 404.4C289.7 404.6 289.5 404.9 289.3 405.1Z" fill="#2C2C2C"/>
<path d="M289.299 405.1L287.899 406.5L285.499 408.8L282.099 412.2C279.699 414.6 277.099 417.2 274.599 419.7C273.999 420.3 273.799 421 273.999 422C274.199 423 274.299 423.9 274.499 424.8C274.599 425.2 274.599 425.6 274.699 426C274.899 427.4 275.199 428.8 275.399 430.2C275.499 430.8 275.599 431.5 275.699 432.1L275.999 434.2C276.199 435.1 276.299 436.1 276.499 437L276.899 439.2C277.099 440.2 277.199 441.2 277.399 442.2C277.399 442.2 277.399 442.2 277.399 442.3C277.499 442.5 277.499 442.7 277.399 442.9C277.399 443.1 277.199 443.3 277.099 443.4C276.899 443.5 276.699 443.6 276.499 443.6C276.299 443.6 275.999 443.5 275.799 443.3C273.399 442 270.999 440.7 268.599 439.4L264.699 437.3C262.299 436 259.899 434.7 257.499 433.4C257.299 433.3 257.099 433.2 256.799 433.2C256.599 433.2 256.299 433.3 256.099 433.4C252.099 435.6 248.099 437.7 244.099 439.9L239.099 442.6C238.599 442.9 238.199 443.1 237.699 443.4C237.499 443.5 237.299 443.5 237.199 443.6C237.099 443.6 236.999 443.6 236.899 443.5C236.799 443.5 236.699 443.4 236.599 443.3C236.499 443.2 236.399 443 236.399 442.9C236.399 442.7 236.299 442.6 236.399 442.4L236.599 441.4C236.699 440.7 236.799 440.1 236.899 439.4C237.099 438 237.399 436.6 237.599 435.2C237.699 434.6 237.799 434 237.899 433.4C237.999 432.7 238.199 431.9 238.299 431.2C238.399 430.5 238.599 429.7 238.699 428.9C238.799 428.3 238.899 427.8 238.999 427.2C239.199 426 239.399 424.8 239.599 423.6L239.699 423L239.799 422.5C239.899 422.2 239.899 421.8 239.999 421.5C240.099 421.2 239.999 420.8 239.899 420.5C239.799 420.2 239.599 419.9 239.399 419.7C237.899 418.2 236.399 416.8 234.999 415.3L224.899 405.2L224.799 405.1L224.699 405C224.599 404.9 224.499 404.7 224.399 404.6C224.299 404.4 224.299 404.2 224.399 404.1C224.399 403.9 224.599 403.7 224.699 403.6C224.799 403.5 224.999 403.4 225.199 403.4L226.499 403.2L227.999 403L232.899 402.3L237.299 401.6L242.199 400.9L243.099 400.8C243.799 400.7 244.599 400.6 245.399 400.5C245.799 400.5 246.099 400.4 246.399 400.1C246.699 399.9 246.899 399.6 247.099 399.2C248.799 395.6 250.599 392 252.299 388.5L254.399 384.1L255.799 381.1L256.099 380.4C256.099 380.2 256.299 380 256.399 379.9C256.499 379.8 256.699 379.7 256.899 379.7H256.999C257.199 379.7 257.399 379.8 257.599 379.9C257.799 380 257.899 380.2 257.899 380.4L259.299 383.2C260.799 386.4 262.399 389.6 263.899 392.7C264.299 393.5 264.699 394.4 265.099 395.2C265.699 396.5 266.399 397.8 266.999 399.2C267.099 399.5 267.399 399.8 267.699 400C267.999 400.2 268.299 400.3 268.699 400.3C269.799 400.4 270.899 400.6 271.899 400.8C272.399 400.9 272.899 401 273.399 401C274.199 401.1 275.099 401.3 275.899 401.4L282.699 402.4L287.299 403.1L288.099 403.2L288.699 403.3C288.899 403.3 289.099 403.3 289.199 403.4C289.399 403.5 289.499 403.6 289.499 403.8C289.599 404 289.599 404.2 289.599 404.4C289.599 404.7 289.499 404.9 289.299 405.1Z" fill="#EAE5E5"/>
<path d="M35.2992 229.3C33.8992 229.9 32.4992 230.4 31.0992 230.8C26.1992 232.4 20.9992 233.2 15.7992 233.2C13.0992 233.2 10.2992 233 7.59921 232.6C4.49921 232.2 1.49922 231.6 -1.50078 230.9C-2.80078 230.6 -3.40078 229.9 -3.20078 228.7C-2.80078 226.2 -2.40078 223.6 -2.00078 221.1L-1.80078 219.8L-2.30078 220C-6.60078 221.3 -11.1008 221.9 -15.6008 221.9C-21.2008 221.9 -26.9008 221 -33.1008 219.1C-37.0008 217.9 -40.7008 216.5 -44.1008 215.1C-44.1008 215.3 -44.2008 215.5 -44.2008 215.7C-44.4008 217.1 -44.7008 218.6 -44.9008 220C-45.2008 222 -45.5008 224 -45.8008 225.9C-46.5008 230.7 -47.3008 235.6 -47.9008 240.5C-48.9008 248.5 -47.6008 255.4 -44.0008 261.5C-41.6008 265.6 -38.6008 268.3 -34.7008 269.7C-32.9008 270.4 -31.0008 270.8 -29.1008 270.8C-26.5008 270.7 -23.9008 270.1 -21.7008 269C-17.6008 267 -14.2008 263.9 -11.3008 259.5C-10.9008 258.9 -10.5008 258.2 -10.0008 257.5C-9.80078 257.1 -9.60078 256.8 -9.30078 256.4L-7.40079 253.3L-6.90079 256.8C-6.90079 257.2 -6.80078 257.5 -6.80078 257.8C-6.70078 258.4 -6.60078 259 -6.50078 259.6C-5.40078 266.4 -3.20079 271.6 0.599213 276C3.49921 279.4 6.69922 281.6 10.4992 282.5C11.7992 282.9 13.1992 283 14.5992 283C17.4992 283 20.2992 282.1 23.0992 280.5C27.6992 277.7 30.8992 273.5 33.2992 267.5C35.0992 262.9 35.8992 258.1 35.8992 253.3V229.2L35.2992 229.3ZM-101.301 228.7L-101.201 228.8C-101.201 228.8 -101.201 228.8 -101.301 228.7Z" fill="#2C2C2C"/>
<path d="M-51.6992 237.4C-51.0992 232.5 -50.2992 227.6 -49.5992 222.8C-49.2992 220.8 -48.9992 218.9 -48.6992 216.9C-48.4992 215.5 -48.2992 214.1 -47.9992 212.6C-47.9992 212.4 -47.8992 212.2 -47.8992 212C-44.3992 213.4 -40.6992 214.8 -36.8992 216C-30.6992 217.9 -24.8992 218.8 -19.3992 218.8C-14.8992 218.8 -10.3992 218.2 -6.09917 216.9L-5.59917 216.7L-5.79918 218C-6.19918 220.5 -6.59918 223.1 -6.99918 225.6C-7.19918 226.8 -6.59918 227.5 -5.29918 227.8C-2.29918 228.5 0.800827 229.1 3.80083 229.5C6.50083 229.9 9.30082 230.1 12.0008 230.1C17.2008 230.1 22.4008 229.3 27.3008 227.7C28.7008 227.2 30.1008 226.7 31.5008 226.2L31.8008 226.1V232.5C31.8008 238.4 31.8008 244.3 31.8008 250.2C31.8008 255 31.0008 259.8 29.2008 264.4C26.8008 270.4 23.6008 274.5 19.0008 277.4C16.3008 279.1 13.4008 279.9 10.6008 279.9C9.20083 279.9 7.80082 279.7 6.50082 279.4C2.70082 278.4 -0.499177 276.3 -3.39918 272.9C-7.09918 268.5 -9.39918 263.3 -10.4992 256.5C-10.5992 255.9 -10.6992 255.3 -10.7992 254.7C-10.7992 254.4 -10.8992 254 -10.8992 253.7L-11.3992 250.2L-13.2992 253.3C-13.4992 253.7 -13.7992 254.1 -13.9992 254.4C-14.3992 255.1 -14.7992 255.8 -15.2992 256.4C-18.1992 260.8 -21.5992 263.9 -25.6992 265.9C-27.9992 267 -30.4992 267.7 -33.0992 267.7C-34.9992 267.7 -36.8992 267.3 -38.6992 266.6C-42.5992 265.1 -45.5992 262.4 -47.9992 258.4C-51.3992 252.3 -52.6992 245.4 -51.6992 237.4ZM-8.49918 238.7C-8.49918 240.1 -8.49918 241.5 -8.49918 242.9C-8.49918 243.5 -8.49918 244.2 -8.49918 244.8C-8.49918 245.6 -8.49918 246.4 -8.49918 247.3C-8.49918 250.6 -8.49918 253.9 -7.79918 257.3C-6.49918 263.5 -4.39917 268.2 -1.09917 272C0.300825 273.7 2.00082 275.1 4.00082 276.1C5.00082 276.6 6.10083 277.1 7.30083 277.4C8.40083 277.7 9.50082 277.8 10.7008 277.8C13.6008 277.8 16.5008 276.8 19.0008 274.9C22.9008 271.9 25.5008 268.1 27.5008 262.4C28.9008 258.4 29.6008 254.2 29.5008 249.9C29.5008 247.7 29.5008 245.5 29.5008 243.3C29.5008 239.2 29.5008 235.2 29.5008 231.1C29.5008 230.8 29.5008 230.6 29.4008 230.3C29.3008 230 29.2008 229.8 29.0008 229.6C28.8008 229.5 28.7008 229.4 28.5008 229.3C28.3008 229.2 28.1008 229.2 27.9008 229.2C27.6008 229.2 27.2008 229.3 26.9008 229.4C21.9008 230.9 16.7008 231.6 11.4008 231.6C9.60082 231.6 7.80083 231.5 5.90083 231.3C2.10083 231 -1.69918 230.3 -5.39918 229.5C-5.59918 229.4 -5.89917 229.4 -6.09917 229.4C-6.39917 229.4 -7.59918 229.5 -7.79918 230.9C-7.89918 231.5 -7.99917 232.2 -8.09917 232.8C-8.29917 234.8 -8.49918 236.7 -8.49918 238.7ZM-30.0992 251.2C-26.4992 251.2 -23.0992 250.1 -20.6992 248.1C-19.3992 247 -18.3992 245.7 -17.9992 244.2C-17.9992 244.1 -17.8992 244.1 -17.8992 244C-17.5992 243.4 -17.7992 243.3 -17.9992 243.3C-18.2992 243.2 -18.5992 243.1 -18.9992 243.1C-19.1992 243.1 -19.2992 243.1 -19.4992 243.2C-19.5992 243.3 -19.7992 243.3 -19.8992 243.5C-21.0992 244.6 -22.5992 245.4 -24.2992 245.9C-25.8992 246.4 -27.5992 246.7 -29.2992 246.7C-34.7992 246.7 -39.8992 244.2 -41.9992 240.5C-42.2992 240 -42.7992 239.9 -43.3992 239.8H-43.6992H-43.7992C-43.8992 239.8 -44.0992 239.9 -44.0992 240.2V240.9V241.3C-43.7992 244.8 -41.7992 247.5 -37.8992 249.5C-36.7992 250.1 -35.4992 250.5 -34.1992 250.9C-32.8992 251.1 -31.4992 251.2 -30.0992 251.2ZM-14.0992 233.3C-13.8992 233.5 -13.5992 233.6 -13.2992 233.6C-13.1992 233.6 -12.9992 233.6 -12.8992 233.5C-12.6992 233.4 -12.5992 233.2 -12.7992 232.8L-12.8992 232.7L-12.9992 232.5C-13.2992 231.8 -13.8992 231.1 -14.4992 230.6C-15.1992 230.1 -15.9992 229.7 -16.7992 229.5C-17.7992 229.2 -18.8992 229 -20.0992 229C-22.3992 229 -24.5992 229.8 -26.2992 231.2C-26.9992 231.7 -27.4992 232.4 -27.8992 233.1C-28.2992 233.8 -28.4992 234.6 -28.4992 235.4L-28.3992 235.5V235.9C-28.3992 236.1 -28.3992 236.3 -27.9992 236.4C-27.8992 236.4 -27.8992 236.4 -27.7992 236.4C-27.3992 236.4 -27.1992 236.2 -26.8992 235.7C-26.0992 234.5 -24.9992 233.5 -23.6992 232.8C-22.2992 232.1 -20.7992 231.8 -19.1992 231.8C-17.3992 231.8 -15.5992 232.3 -14.0992 233.3ZM-45.9992 229.6C-45.8992 229.7 -45.7992 229.7 -45.6992 229.8C-45.5992 229.8 -45.4992 229.9 -45.2992 229.9C-45.0992 229.9 -44.9992 229.9 -44.7992 229.8C-43.7992 229.4 -42.6992 229.2 -41.5992 229.2C-37.9992 229.2 -33.6992 231.5 -32.8992 235.3C-32.8992 235.5 -32.7992 235.7 -32.6992 235.8C-32.5992 235.9 -32.3992 236 -32.1992 236H-32.0992C-31.9992 236 -31.7992 236 -31.6992 235.6V235.5L-31.5992 235.3C-31.3992 234.8 -31.2992 234.2 -31.2992 233.7C-31.2992 230.4 -34.4992 227.4 -38.5992 226.8C-39.1992 226.7 -39.6992 226.7 -40.2992 226.7C-41.2992 226.7 -42.2992 226.9 -43.2992 227.2C-44.1992 227.6 -44.9992 228.2 -45.6992 228.9C-45.6992 229 -45.7992 229 -45.8992 229C-46.2992 229.3 -46.1992 229.4 -45.9992 229.6Z" fill="#2C2C2C"/>
<path d="M-8 232.9C-7.9 232.3 -7.8 231.6 -7.7 231C-7.5 229.6 -6.4 229.5 -6 229.5C-5.8 229.5 -5.5 229.5 -5.3 229.6C-1.6 230.5 2.2 231.1 6 231.4C7.8 231.6 9.6 231.6 11.5 231.7C16.8 231.7 22 231 27 229.5C27.3 229.4 27.7 229.3 28 229.3C28.2 229.3 28.4 229.3 28.6 229.4C28.8 229.5 29 229.6 29.1 229.7C29.3 229.9 29.4 230.1 29.5 230.4C29.6 230.7 29.6 230.9 29.6 231.2C29.6 235.3 29.6 239.3 29.6 243.4C29.6 245.6 29.6 247.8 29.6 250C29.6 254.2 29 258.4 27.6 262.5C25.6 268.2 23 272.1 19.1 275C16.6 276.9 13.7 277.9 10.8 277.9C9.7 277.9 8.5 277.8 7.4 277.5C6.2 277.2 5.1 276.8 4.1 276.2C2.1 275.1 0.4 273.7 -1 272.1C-4.4 268.2 -6.5 263.5 -7.8 257.4C-8.5 254 -8.5 250.7 -8.5 247.4C-8.5 246.6 -8.5 245.8 -8.5 244.9C-8.5 244.3 -8.5 243.6 -8.5 243C-8.5 241.6 -8.5 240.2 -8.5 238.8C-8.5 236.7 -8.3 234.8 -8 232.9ZM27 245.4C27.1 245.2 27.5 244.9 27.1 244.7C27 244.6 26.8 244.5 26.6 244.5C26.4 244.5 26.2 244.5 26.1 244.6C25.8 244.8 25.6 244.9 25.3 245C20.9 246.8 15.2 244.8 13.5 240.9C13.3 240.5 13.1 240 12.5 240.1C11.9 240.1 12.1 240.7 12 241.1C11.9 241.4 11.9 241.6 11.9 241.9C12.2 244.8 14.1 246.7 17 247.8C20.1 248.9 23 248.8 25.7 246.8C26.3 246.3 26.7 245.9 27 245.4ZM-2.4 263.3C-1.8 263.3 -1.1 263.5 -0.699997 262.9C1 260.6 3.5 259.3 6.4 258.5C9.1 257.8 11.9 257.7 14.6 258.4C17.3 259.1 19.7 260.4 21.6 262.3C21.8 262.5 21.9 262.6 22.2 262.7C22.4 262.8 22.7 262.8 22.9 262.8C23.7 262.8 23.8 262.6 23.7 261.9C23.3 259.4 21.9 257.5 19.8 255.9C14.2 251.9 5.2 252.3 0.199997 256.9C-1.5 258.4 -2.5 260.4 -2.7 262.5C-2.6 262.8 -2.9 263.3 -2.4 263.3ZM-6 245.6C-4.2 247.9 -1.7 248.6 1.4 248.3C5.2 247.9 8.5 245.3 8.9 242.2C8.9 242 8.9 241.8 9 241.6C9 241.3 8.9 241 8.8 240.7C8.7 240.4 8.8 240.1 8.4 240.1C8.2 240.1 8 240.1 7.9 240.2C7.7 240.3 7.6 240.4 7.6 240.6C6.3 243.8 3.4 245.3 -0.300003 245.7C-1.9 245.8 -3.5 245.5 -4.9 244.8C-5.3 244.6 -5.8 244.5 -6.2 244.8C-6.6 245.1 -6.2 245.3 -6 245.6Z" fill="#EAE5E5"/>
<path d="M-2.39922 263.3C-1.79922 263.3 -1.09922 263.5 -0.699216 262.9C1.00078 260.6 3.50078 259.3 6.40078 258.5C9.10078 257.8 11.9008 257.7 14.6008 258.4C17.3008 259.1 19.7008 260.4 21.6008 262.3C21.8008 262.5 21.9008 262.6 22.2008 262.7C22.4008 262.8 22.7008 262.8 22.9008 262.8C23.7008 262.8 23.8008 262.6 23.7008 261.9C23.3008 259.4 21.9008 257.5 19.8008 255.9C14.2008 251.9 5.20078 252.3 0.200778 256.9C-1.49922 258.4 -2.49922 260.4 -2.69922 262.5C-2.59922 262.8 -2.89922 263.3 -2.39922 263.3Z" fill="#2C2C2C"/>
<path d="M-5.99861 245.6C-4.19861 247.9 -1.6986 248.6 1.4014 248.3C5.2014 247.9 8.5014 245.3 8.9014 242.2C8.9014 242 8.90139 241.8 9.00139 241.6C9.00139 241.3 8.9014 241 8.8014 240.7C8.7014 240.4 8.8014 240.1 8.4014 240.1C8.2014 240.1 8.0014 240.1 7.9014 240.2C7.7014 240.3 7.60139 240.4 7.60139 240.6C6.30139 243.8 3.40139 245.3 -0.298609 245.7C-1.89861 245.8 -3.49861 245.5 -4.89861 244.8C-5.29861 244.6 -5.7986 244.5 -6.1986 244.8C-6.6986 245 -6.19861 245.3 -5.99861 245.6Z" fill="#2C2C2C"/>
<path d="M11.9004 241.8C12.2004 244.7 14.1004 246.6 17.0004 247.7C20.1004 248.8 23.0004 248.7 25.7004 246.7C26.2004 246.3 26.6004 245.8 26.9004 245.3C27.0004 245.1 27.4004 244.8 27.0004 244.6C26.9004 244.5 26.7004 244.4 26.5004 244.4C26.3004 244.4 26.1004 244.4 26.0004 244.5C25.7004 244.7 25.5004 244.8 25.2004 244.9C20.8004 246.7 15.1004 244.7 13.4004 240.8C13.2004 240.4 13.0004 239.9 12.4004 240C11.8004 240 12.0004 240.6 11.9004 241C12.0004 241.2 11.9004 241.5 11.9004 241.8Z" fill="#2C2C2C"/>
</g>
<defs>
<linearGradient id="paint0_linear_16679_521" x1="156.879" y1="412.677" x2="31.379" y2="416.677" gradientUnits="userSpaceOnUse">
<stop stop-color="#E4CDD9"/>
<stop offset="1" stop-color="#E4CDD9" stop-opacity="0"/>
</linearGradient>
<linearGradient id="paint1_linear_16679_521" x1="193.492" y1="374.526" x2="311.992" y2="450.526" gradientUnits="userSpaceOnUse">
<stop stop-color="#E4CDD9"/>
<stop offset="1" stop-color="#E4CDD9" stop-opacity="0"/>
</linearGradient>
<linearGradient id="paint2_linear_16679_521" x1="71.0668" y1="245.569" x2="-78.7366" y2="245.569" gradientUnits="userSpaceOnUse">
<stop stop-color="#E4CDD9"/>
<stop offset="0.1992" stop-color="#E4CDD9" stop-opacity="0"/>
</linearGradient>
<linearGradient id="paint3_linear_16679_521" x1="264.075" y1="243.783" x2="313.075" y2="244.783" gradientUnits="userSpaceOnUse">
<stop stop-color="#E4CDD9"/>
<stop offset="1" stop-color="#E4CDD9" stop-opacity="0"/>
</linearGradient>
<linearGradient id="paint4_linear_16679_521" x1="156.759" y1="108.881" x2="73.7596" y2="68.8813" gradientUnits="userSpaceOnUse">
<stop stop-color="#E4CDD9"/>
<stop offset="1" stop-color="#E4CDD9" stop-opacity="0"/>
</linearGradient>
<linearGradient id="paint5_linear_16679_521" x1="259.877" y1="1.001" x2="259.877" y2="150.804" gradientUnits="userSpaceOnUse">
<stop offset="0.115" stop-color="#E4CDD9" stop-opacity="0"/>
<stop offset="1" stop-color="#E4CDD9"/>
</linearGradient>
<linearGradient id="paint6_linear_16679_521" x1="259.877" y1="150.804" x2="259.877" y2="1.0006" gradientUnits="userSpaceOnUse">
<stop stop-color="#E4CDD9"/>
<stop offset="1" stop-color="#F1D1E5"/>
</linearGradient>
<clipPath id="clip0_16679_521">
<rect width="665" height="490" fill="white"/>
</clipPath>
</defs>
</svg>
