<?xml version="1.0" encoding="utf-8"?>
<!-- Generator: Adobe Illustrator 26.0.3, SVG Export Plug-In . SVG Version: 6.00 Build 0)  -->
<svg version="1.1" id="Capa_1" xmlns="http://www.w3.org/2000/svg" xmlns:xlink="http://www.w3.org/1999/xlink" x="0px" y="0px"
	 viewBox="0 0 665 491" style="enable-background:new 0 0 665 491;" xml:space="preserve">
<style type="text/css">
	.st0{fill:#E7D0DC;stroke:url(#SVGID_1_);}
	.st1{fill:none;stroke:url(#SVGID_00000150101499054253766100000012204663090905275012_);}
	.st2{fill:none;stroke:#E7D0DC;}
	.st3{fill:none;stroke:url(#SVGID_00000057855729016460171660000009019121047185686190_);}
	.st4{fill:none;stroke:url(#SVGID_00000062151680040095553440000008846862867704620440_);}
	.st5{fill:none;stroke:url(#SVGID_00000154425329814106716930000017356954914060383110_);}
	.st6{fill:#E7D0DC;stroke:url(#SVGID_00000120522423295260389620000002910790018981636780_);}
	.st7{fill:none;stroke:url(#SVGID_00000035518082961356474400000008718033232296239794_);}
	
		.st8{fill:url(#SVGID_00000063634536224408869920000003067782926505978766_);stroke:url(#SVGID_00000044856702823512983520000001137376775303872950_);}
	.st9{fill:none;stroke:url(#SVGID_00000119119222499526732330000005933323176914913926_);}
	.st10{clip-path:url(#SVGID_00000165220093898905204780000007242395288612411270_);}
	.st11{fill:#2C2C2C;}
	.st12{fill:#EAE5E5;}
	.st13{fill-rule:evenodd;clip-rule:evenodd;fill:#EAE5E5;}
	.st14{fill:none;stroke:#2C2C2C;stroke-width:2;}
</style>
<linearGradient id="SVGID_1_" gradientUnits="userSpaceOnUse" x1="435.2593" y1="247.432" x2="585.0627" y2="247.432" gradientTransform="matrix(1 0 0 -1 0 492)">
	<stop  offset="0" style="stop-color:#E4CDD9"/>
	<stop  offset="0.1992" style="stop-color:#E4CDD9;stop-opacity:0"/>
</linearGradient>
<circle class="st0" cx="510.2" cy="244.6" r="74.4"/>
<linearGradient id="SVGID_00000052102570747469463300000010526403454020698497_" gradientUnits="userSpaceOnUse" x1="242.2507" y1="249.2178" x2="193.2507" y2="248.2178" gradientTransform="matrix(1 0 0 -1 0 492)">
	<stop  offset="0" style="stop-color:#E4CDD9"/>
	<stop  offset="1" style="stop-color:#E4CDD9;stop-opacity:0"/>
</linearGradient>
<path style="fill:none;stroke:url(#SVGID_00000052102570747469463300000010526403454020698497_);" d="M167.4,319.2
	c41.4,0,74.9-33.5,74.9-74.9s-33.5-74.9-74.9-74.9"/>
<circle class="st2" cx="338.6" cy="244.6" r="74.4"/>
<linearGradient id="SVGID_00000127023728887845143720000008274663145090767496_" gradientUnits="userSpaceOnUse" x1="346.5716" y1="79.1229" x2="472.0716" y2="75.1229" gradientTransform="matrix(1 0 0 -1 0 492)">
	<stop  offset="0" style="stop-color:#E4CDD9"/>
	<stop  offset="1" style="stop-color:#E4CDD9;stop-opacity:0"/>
</linearGradient>
<circle style="fill:none;stroke:url(#SVGID_00000127023728887845143720000008274663145090767496_);" cx="418.4" cy="415.2" r="74.4"/>
<linearGradient id="SVGID_00000085210976031390503970000010628367570701383868_" gradientUnits="userSpaceOnUse" x1="589.999" y1="151.7337" x2="589.999" y2="1.9303" gradientTransform="matrix(1 0 0 -1 0 492)">
	<stop  offset="0" style="stop-color:#C3C3C3"/>
	<stop  offset="1" style="stop-color:#C3C3C3;stop-opacity:0"/>
</linearGradient>
<circle style="fill:none;stroke:url(#SVGID_00000085210976031390503970000010628367570701383868_);" cx="590" cy="415.2" r="74.4"/>
<linearGradient id="SVGID_00000127745045651869449780000009263661115025358981_" gradientUnits="userSpaceOnUse" x1="590.029" y1="152.9997" x2="590.029" y2="3.1963" gradientTransform="matrix(1 0 0 -1 0 492)">
	<stop  offset="0" style="stop-color:#C3C3C3"/>
	<stop  offset="1" style="stop-color:#C3C3C3;stop-opacity:0"/>
</linearGradient>
<circle style="fill:none;stroke:url(#SVGID_00000127745045651869449780000009263661115025358981_);" cx="590" cy="413.9" r="74.4"/>
<linearGradient id="SVGID_00000067930887049611219480000000532182647529946555_" gradientUnits="userSpaceOnUse" x1="309.9586" y1="117.2733" x2="191.4586" y2="41.2733" gradientTransform="matrix(1 0 0 -1 0 492)">
	<stop  offset="0" style="stop-color:#E4CDD9"/>
	<stop  offset="1" style="stop-color:#E4CDD9;stop-opacity:0"/>
</linearGradient>
<circle style="fill:#E7D0DC;stroke:url(#SVGID_00000067930887049611219480000000532182647529946555_);" cx="246.9" cy="415.2" r="74.4"/>
<linearGradient id="SVGID_00000035519735211012138300000005411373578647918483_" gradientUnits="userSpaceOnUse" x1="864.432" y1="518.0768" x2="781.432" y2="478.0768" gradientTransform="matrix(-1 0 0 1 1214.002 -410.196)">
	<stop  offset="0" style="stop-color:#E4CDD9"/>
	<stop  offset="1" style="stop-color:#E4CDD9;stop-opacity:0"/>
</linearGradient>
<circle style="fill:none;stroke:url(#SVGID_00000035519735211012138300000005411373578647918483_);" cx="418" cy="74.9" r="74.4"/>
<linearGradient id="SVGID_00000045607374414454177060000018093005212992499628_" gradientUnits="userSpaceOnUse" x1="624.452" y1="410.196" x2="624.452" y2="559.9998" gradientTransform="matrix(-1 0 0 1 870.904 -410.196)">
	<stop  offset="0.115" style="stop-color:#E4CDD9;stop-opacity:0"/>
	<stop  offset="1" style="stop-color:#E4CDD9"/>
</linearGradient>
<linearGradient id="SVGID_00000042718094059808315030000016861328096818768319_" gradientUnits="userSpaceOnUse" x1="624.452" y1="559.9997" x2="624.452" y2="410.1963" gradientTransform="matrix(-1 0 0 1 870.904 -410.196)">
	<stop  offset="0" style="stop-color:#E4CDD9"/>
	<stop  offset="1" style="stop-color:#F1D1E5"/>
</linearGradient>
<circle style="fill:url(#SVGID_00000045607374414454177060000018093005212992499628_);stroke:url(#SVGID_00000042718094059808315030000016861328096818768319_);" cx="246.5" cy="74.9" r="74.4"/>
<linearGradient id="SVGID_00000029755872366735579570000000524979671117176705_" gradientUnits="userSpaceOnUse" x1="967.549" y1="559.9997" x2="967.549" y2="410.1963" gradientTransform="matrix(-1 0 0 1 1557.098 -410.196)">
	<stop  offset="0" style="stop-color:#C3C3C3"/>
	<stop  offset="1" style="stop-color:#C3C3C3;stop-opacity:0"/>
</linearGradient>
<circle style="fill:none;stroke:url(#SVGID_00000029755872366735579570000000524979671117176705_);" cx="589.5" cy="74.9" r="74.4"/>
<g>
	<defs>
		<rect id="SVGID_00000168110494925163579870000009155441997617980550_" x="477" y="208" width="66" height="74"/>
	</defs>
	<clipPath id="SVGID_00000015344672537697167700000017889708388922810026_">
		<use xlink:href="#SVGID_00000168110494925163579870000009155441997617980550_"  style="overflow:visible;"/>
	</clipPath>
	<g style="clip-path:url(#SVGID_00000015344672537697167700000017889708388922810026_);">
		<path class="st11" d="M541.8,260.1c-2.3,0.2-13.8,1.4-21,2.1l-15.5,1.5v17c0,0.5-0.3,1-0.8,1.3c-0.2,0.1-0.4,0.1-0.6,0.1
			c-0.3,0-0.6-0.1-0.9-0.3l-19.4-16.8c-0.3-0.3-0.5-0.6-0.5-1c0-1.7-1.1-44-1.1-44.5c0-0.7,0.5-1.4,1.3-1.4l57.1-5.6
			c0.4,0,0.8,0.1,1.1,0.3c0.3,0.3,0.5,0.6,0.5,1c0.1,2.1,0.9,34.8,1.2,44.8l0,0.2C543,259.4,542.5,260,541.8,260.1z"/>
		<path class="st11" d="M538.1,254.4l0-0.2c-0.3-10-1.1-42.6-1.2-44.8c0-0.4-0.2-0.8-0.5-1c-0.3-0.3-0.7-0.4-1.1-0.3l-57.1,5.6
			c-0.7,0.1-1.3,0.7-1.3,1.4c0,0.4,1.1,42.8,1.1,44.5c0,0.4,0.2,0.8,0.5,1l19.4,16.8c0.3,0.2,0.6,0.3,0.9,0.3c0.2,0,0.4,0,0.6-0.1
			c0.5-0.2,0.8-0.7,0.8-1.3v-17l15.5-1.5c7.1-0.7,18.7-1.8,21-2.1C537.6,255.7,538.1,255.1,538.1,254.4z M515.6,255.5l-16.4,1.6
			c-0.7,0.1-1.3,0.7-1.3,1.4c0,0.3,0,0.4,0,0.5v0v15.1L480.5,259c-0.1-4.5-1-37.1-1.1-43.1l55.1-5.4c0.2,6,0.9,33.1,1.1,43
			C532.1,253.8,522,254.8,515.6,255.5z"/>
		<path class="st12" d="M535.7,253.5c-3.6,0.4-13.6,1.3-20.1,2l-16.4,1.6c-0.7,0.1-1.3,0.7-1.3,1.4c0,0.3,0,0.4,0,0.5v0v15.1
			L480.5,259c-0.1-4.5-1-37.1-1.1-43.1l55.1-5.4C534.7,216.5,535.4,243.7,535.7,253.5z"/>
	</g>
</g>
<path class="st11" d="M275.6,378.4c-0.2-0.3-0.7-0.4-1-0.4h-7.3c-0.8,0-1.1,0.3-1.3,1.1c-0.4,2-0.9,4-1.3,6l-0.4,1.7v0
	c0,0.1,0,0.2-0.1,0.3c-0.1,0.1-0.1,0.2-0.2,0.2c-0.1,0.1-0.3,0.1-0.4,0.1c-0.2,0-0.6-0.1-0.6-0.6v0c-0.2-0.6-0.4-1.2-0.6-1.9
	c-0.6-1.9-1.3-3.9-1.9-5.8c-0.2-0.7-0.6-1-1.3-1c-2.6,0-5.4,0-9.1,0h-27.7c-0.1,0-0.2,0-0.3,0c-0.1,0-0.3,0.1-0.4,0.1
	c-0.1,0.1-0.2,0.2-0.3,0.3c-0.1,0.1-0.1,0.2-0.2,0.3c0,0.1,0,0.2,0,0.4c0.2,1.2,0.5,2.4,0.7,3.6l0.1,0.5c0.2,1,0.4,1.9,0.6,2.9
	c0.3,1.4,0.6,2.8,0.8,4.1c0.2,1.3,0.5,2.5,0.7,3.8c0.3,1.3,0.5,2.7,0.8,4c0.4,2.1,0.8,4.2,1.3,6.2c0.2,1.1,0.4,2.1,0.6,3.2
	c0.1,0.6,0.2,1-0.1,1.3c-0.3,0.3-0.6,0.3-1.3,0.4c-0.1,0-0.2,0-0.4,0c-0.2,0-0.5,0.1-0.6,0.3c-0.2,0.2-0.2,0.4-0.3,0.6
	c0,2.1,0,4.2,0,6.3c0,0.7,0.6,1,0.9,1c0.2,0,0.4,0,0.6,0c0.2,0,0.4,0,0.5,0h0.1c0.1,0,0.3,0,0.4,0.1c0.1,0,0.2,0.1,0.3,0.2
	c0.1,0.1,0.2,0.2,0.2,0.4c0,0.1,0.1,0.3,0,0.4c0,1.5,0,2.7,0.4,3.9c0.8,2.3,3.4,4.2,5.7,4.3c1.3,0,2.6,0,4.3,0c0.9,0,1.8,0,2.7,0
	h1.1c0.1,0,0.3,0,0.4,0.1c0.1,0.1,0.3,0.1,0.4,0.2c0.1,0.1,0.1,0.2,0.2,0.4c0,0.1,0,0.3,0,0.4c-0.2,1.1-0.4,2.2-0.5,3.2
	c-0.1,0.6-0.2,1.3-0.3,1.9c-0.1,0.9-0.3,1.8-0.4,2.7c-0.2,0.9-0.3,1.8-0.5,2.7c-0.1,0.7-0.2,1.4-0.3,2.1c-0.2,1.2-0.4,2.4-0.6,3.6
	c-0.4,2.1-0.1,3.9,0.7,5.6c1.4,2.9,3.7,4.6,6.8,5c0.5,0.1,1,0.1,1.5,0.1c2.3,0,4.3-0.8,6-2.5c2.3-2.2,3.2-5.1,2.6-8.4
	c-0.2-1-0.4-2.1-0.5-3.1c-0.1-0.4-0.1-0.8-0.2-1.1c-0.1-0.7-0.2-1.4-0.4-2.1c-0.2-1.1-0.4-2.2-0.5-3.3c-0.4-2.2-0.7-4.3-1.1-6.3
	c0-0.2-0.1-0.6,0.2-0.9c0.1-0.1,0.2-0.2,0.4-0.2s0.3-0.1,0.4-0.1h0c1,0,1.9,0,2.7,0h2.4c0.8,0,1.5,0,2.3,0h0.1
	c1.4,0,2.6-0.3,3.6-0.9c1.8-1.1,2.9-2.7,3.2-4.8c0.1-0.7,0.1-1.4,0.1-2.1c0-0.2,0-0.4,0-0.5c0-0.9,0.6-1,0.9-1h0.1
	c0.1,0,0.3,0,0.4,0c0.2,0,0.3,0,0.5,0c0.7,0,1.1-0.4,1.1-1c0-2,0-4.1,0-6.2c0-0.6-0.3-1-1-1.1c-0.2,0-0.3,0-0.5,0
	c-0.1,0-0.2,0-0.4,0h-0.1c-0.1,0-0.2,0-0.4-0.1c-0.1,0-0.2-0.1-0.3-0.2c-0.1-0.1-0.1-0.2-0.2-0.4c0-0.1,0-0.3,0-0.4
	c0.2-0.8,0.3-1.6,0.5-2.3c0.1-0.6,0.2-1.2,0.4-1.8c0.2-1,0.4-2,0.6-3c0.3-1.6,0.6-3.1,1-4.7c0.3-1.6,0.6-3.3,1-4.9
	c0.2-1.2,0.5-2.4,0.7-3.7c0.2-1.2,0.5-2.4,0.7-3.5c0.3-1.6,0.6-3.1,0.9-4.7C275.9,379.1,275.9,378.7,275.6,378.4z M267.6,418.6
	c0,0.2,0,0.4,0,0.5c0,0.6,0,1.3-0.1,1.9c-0.4,1.8-2.1,3.4-4,3.6c-0.5,0-0.9,0.1-1.6,0.1h-8.6c-0.6,0-1,0.2-1.2,0.7
	c-0.1,0.2-0.1,0.5,0,0.7c0.2,1.4,0.5,2.7,0.7,4.1c0.2,1.4,0.5,2.8,0.7,4.2c0.3,1.6,0.5,3.3,0.8,4.9c0.1,0.8,0.3,1.6,0.4,2.4l0.2,1
	c0.1,0.7,0.2,1.4,0.3,2.1c0.2,1.5-0.1,3-0.8,4.3c-0.7,1.3-1.9,2.4-3.3,2.9c-0.9,0.4-1.8,0.6-2.7,0.6c-1.5,0-3-0.5-4.1-1.4
	c-1.2-0.9-2.1-2.2-2.5-3.6c-0.3-1.1-0.3-2.2-0.1-3.6c0.2-1.1,0.4-2.3,0.6-3.4c0.1-0.7,0.2-1.4,0.4-2.2c0.1-0.8,0.3-1.6,0.4-2.4
	c0.2-1,0.3-2,0.5-3c0.2-1.1,0.4-2.3,0.6-3.4l0.3-2c0-0.1,0-0.3,0.1-0.4c0.1-0.4,0.1-0.7,0.2-1.1c0.1-0.4,0.1-0.9-0.1-1.2
	c-0.3-0.3-0.8-0.4-1.1-0.4h-5.9h-3.3c-0.7,0-1.7-0.1-2.7-0.7c-1.4-0.9-2.2-2.2-2.3-3.9c0-0.3,0-0.6,0-0.9c0-0.3,0-0.5,0-0.8
	c0-0.1,0-0.3,0-0.4c0-0.1,0.1-0.2,0.2-0.4c0.1-0.1,0.2-0.2,0.3-0.2c0.1,0,0.3-0.1,0.4-0.1h0.1c0.2,0,0.4,0,0.7,0h0.5h34.9
	c0.4,0,0.7,0,0.9,0.2C267.6,417.9,267.6,418.2,267.6,418.6z M270.7,412.4c0,0.2,0,0.4,0,0.6c0,0.5,0,1,0,1.4c0,0.1,0,0.3,0,0.4
	c0,0.1-0.1,0.2-0.2,0.3c-0.1,0.1-0.2,0.1-0.3,0.2c-0.1,0-0.2,0.1-0.3,0.1h-0.1h-42.4c-1,0-1.2-0.2-1.2-1.2c0-0.2,0-0.4,0-0.6
	c0-0.5,0-1,0-1.5c0-0.1,0-0.3,0-0.4c0-0.1,0.1-0.2,0.2-0.3c0.1-0.1,0.2-0.1,0.3-0.2c0.1,0,0.2-0.1,0.3-0.1h0.1h42.5
	C270.5,411.2,270.7,411.4,270.7,412.4z M273.4,381c-0.2,0.8-0.3,1.5-0.5,2.3l-0.3,1.6c-0.2,0.9-0.3,1.7-0.5,2.6
	c-0.1,0.6-0.3,1.3-0.4,1.9c-0.2,1.2-0.5,2.5-0.7,3.7l-0.5,2.5c-0.2,1-0.4,1.9-0.6,2.9c-0.2,0.9-0.3,1.7-0.5,2.6L269,403l-0.9,4.5
	c0,0.1,0,0.2-0.1,0.3c0,0.1-0.1,0.2-0.1,0.3c0,0.1,0,0.3-0.1,0.4c0,0.1-0.1,0.3-0.2,0.4c-0.1,0.1-0.3,0.2-0.5,0.3
	c-0.2,0-0.3,0.1-0.5,0.1c-3.7,0-7.4,0-11.1,0h-14.2c-3.8,0-7.6,0-11.4,0c-0.5,0-1-0.1-1.2-1c-0.5-2.8-1.1-5.6-1.6-8.4l-0.3-1.5
	c-0.3-1.5-0.6-2.9-0.9-4.4c-0.3-1.4-0.6-2.8-0.8-4.2c-0.4-2.1-0.8-4.2-1.2-6.3l-0.4-2c0-0.1,0-0.1,0-0.2c0,0,0,0,0,0
	c-0.1-0.1-0.1-0.3-0.1-0.4c0-0.1,0.1-0.3,0.1-0.4c0.2-0.3,0.7-0.3,0.8-0.3c6,0,12,0,18,0h15.4c0.4,0,0.8,0.1,1.1,0.7
	c0.9,2.8,1.8,5.6,2.7,8.3l0.5,1.5c0.4,1.1,0.7,2,1,2.8c0.1,0.2,0.2,0.4,0.4,0.5c0.2,0.1,0.4,0.2,0.6,0.2h0.1c0.2,0,0.4-0.1,0.6-0.2
	c0.2-0.1,0.3-0.3,0.3-0.5c0.3-1.5,0.7-3,1-4.5l0.7-3l0.4-1.8c0.2-1.1,0.5-2.2,0.7-3.3c0-0.2,0.1-0.4,0.3-0.5
	c0.2-0.1,0.4-0.2,0.6-0.2h2h2.1c0.1,0,0.2,0,0.3,0.1c0.1,0,0.2,0.1,0.3,0.2c0.1,0.1,0.1,0.2,0.2,0.3
	C273.4,380.8,273.4,380.9,273.4,381z"/>
<path class="st11" d="M267.4,417.7c-0.2-0.2-0.5-0.2-0.9-0.2h-34.9H231c-0.3,0-0.5,0-0.7,0h-0.1c-0.1,0-0.3,0-0.4,0.1
	c-0.1,0-0.2,0.1-0.3,0.2c-0.1,0.1-0.2,0.2-0.2,0.4c0,0.1-0.1,0.3,0,0.4c0,0.3,0,0.5,0,0.8c0,0.3,0,0.6,0,0.9c0.1,1.7,0.9,3,2.3,3.9
	c1,0.6,2,0.7,2.7,0.7h3.3h5.9c0.4,0,0.9,0.1,1.1,0.4c0.3,0.3,0.2,0.8,0.1,1.2c-0.1,0.4-0.1,0.7-0.2,1.1c0,0.1,0,0.3-0.1,0.4l-0.3,2
	c-0.2,1.1-0.4,2.3-0.6,3.4c-0.2,1-0.3,2-0.5,3c-0.1,0.8-0.3,1.6-0.4,2.4c-0.1,0.7-0.2,1.4-0.4,2.2c-0.2,1.1-0.4,2.3-0.6,3.4
	c-0.2,1.4-0.2,2.5,0.1,3.6c0.4,1.4,1.3,2.7,2.5,3.6c1.2,0.9,2.6,1.4,4.1,1.4c0.9,0,1.9-0.2,2.7-0.6c1.4-0.6,2.5-1.6,3.3-2.9
	c0.7-1.3,1-2.8,0.8-4.3c-0.1-0.7-0.2-1.4-0.3-2.1l-0.2-1c-0.1-0.8-0.3-1.6-0.4-2.5c-0.3-1.6-0.5-3.3-0.8-4.9
	c-0.2-1.4-0.5-2.8-0.7-4.2c-0.2-1.4-0.5-2.7-0.7-4.1c-0.1-0.2-0.1-0.5,0-0.7c0.2-0.5,0.6-0.7,1.2-0.7h8.6c0.6,0,1.1,0,1.6-0.1
	c1.8-0.2,3.6-1.8,4-3.6c0.1-0.6,0.1-1.3,0.1-1.9c0-0.2,0-0.4,0-0.5C267.6,418.2,267.6,417.9,267.4,417.7z M250,447.5
	c0,0.4-0.1,0.7-0.4,1s-0.6,0.5-0.9,0.5c-0.3,0.1-0.7,0-1-0.1c-0.3-0.1-0.5-0.4-0.7-0.7c-0.1-0.3-0.2-0.6-0.2-0.9c0-0.5,0-0.9,0-1.4
	h0c0-0.6,0-1.1,0-1.7c0.1-0.7,0.6-1.2,1.4-1.4c0.6-0.1,1.3,0.3,1.6,0.9c0.1,0.2,0.1,0.4,0.1,0.7C250,445.5,250,446.5,250,447.5
	L250,447.5z"/>
<path class="st11" d="M270.5,415.1c-0.1,0.1-0.2,0.1-0.3,0.2c-0.1,0-0.2,0.1-0.3,0.1h-0.1h-42.4c-1,0-1.2-0.2-1.2-1.2
	c0-0.2,0-0.4,0-0.6c0-0.5,0-1,0-1.5c0-0.1,0-0.3,0-0.4c0-0.1,0.1-0.2,0.2-0.3c0.1-0.1,0.2-0.1,0.3-0.2c0.1,0,0.2-0.1,0.3-0.1h0.1
	h42.5c0.9,0,1.2,0.2,1.2,1.2c0,0.2,0,0.4,0,0.6c0,0.5,0,1,0,1.4c0,0.1,0,0.3,0,0.4C270.6,414.9,270.6,415,270.5,415.1z"/>
<path class="st11" d="M273.4,381c-0.2,0.8-0.3,1.5-0.5,2.3l-0.3,1.6c-0.2,0.9-0.3,1.7-0.5,2.6c-0.1,0.6-0.3,1.3-0.4,1.9
	c-0.2,1.2-0.5,2.5-0.7,3.7l-0.5,2.5c-0.2,1-0.4,1.9-0.6,2.9c-0.2,0.9-0.3,1.7-0.5,2.6L269,403l-0.9,4.5c0,0.1,0,0.2-0.1,0.3
	c0,0.1-0.1,0.2-0.1,0.3c0,0.2,0,0.3-0.1,0.4c0,0.1-0.1,0.3-0.2,0.4c-0.1,0.1-0.3,0.2-0.5,0.3c-0.2,0-0.3,0.1-0.5,0.1
	c-3.7,0-7.4,0-11.1,0h-14.2c-3.8,0-7.6,0-11.4,0c-0.5,0-1-0.1-1.2-1c-0.5-2.8-1.1-5.6-1.7-8.4l-0.3-1.5c-0.3-1.5-0.6-2.9-0.9-4.4
	c-0.3-1.4-0.6-2.8-0.9-4.2c-0.4-2.1-0.8-4.2-1.2-6.3l-0.4-2c0-0.1,0-0.1,0-0.2c0,0,0,0,0,0c-0.1-0.1-0.1-0.3-0.1-0.4
	s0.1-0.3,0.1-0.4c0.2-0.3,0.7-0.3,0.8-0.3c6,0,12,0,18,0h15.4c0.4,0,0.8,0.1,1.1,0.7c0.9,2.8,1.8,5.6,2.7,8.3l0.5,1.5
	c0.4,1.1,0.7,2,1,2.8c0.1,0.2,0.2,0.4,0.4,0.5c0.2,0.1,0.4,0.2,0.6,0.2h0.1c0.2,0,0.4-0.1,0.6-0.2c0.2-0.1,0.3-0.3,0.3-0.5
	c0.3-1.5,0.7-3,1-4.5l0.7-3l0.4-1.8c0.2-1.1,0.5-2.2,0.7-3.3c0-0.2,0.1-0.4,0.3-0.5c0.2-0.1,0.4-0.2,0.6-0.2h2h2.1
	c0.1,0,0.2,0,0.3,0.1c0.1,0,0.2,0.1,0.3,0.2c0.1,0.1,0.1,0.2,0.2,0.3C273.4,380.8,273.4,380.9,273.4,381z"/>
<path class="st11" d="M250,447.5c0,0.4-0.1,0.7-0.4,1c-0.2,0.3-0.6,0.5-0.9,0.5c-0.3,0.1-0.7,0-1-0.1c-0.3-0.1-0.5-0.4-0.7-0.7
	c-0.1-0.3-0.2-0.6-0.2-0.9c0-0.5,0-0.9,0-1.4h0c0-0.6,0-1.1,0-1.7c0.1-0.7,0.6-1.2,1.4-1.4c0.6-0.1,1.3,0.3,1.6,0.9
	c0.1,0.2,0.1,0.4,0.1,0.7C250,445.5,250,446.5,250,447.5z"/>
<path class="st11" d="M248.4,448.5c-0.2,0-0.4-0.1-0.5-0.2c-0.2-0.1-0.3-0.2-0.4-0.4c-0.1-0.2-0.1-0.4-0.1-0.7c0-0.3,0-0.6,0-0.9h0
	v-0.5c0-0.2,0-0.4,0-0.5c0-0.4,0-0.7,0-1.1c0.1-0.7,0.6-0.8,0.9-0.9c0,0,0.1,0,0.1,0c0.2,0,0.4,0.1,0.5,0.2c0.2,0.1,0.3,0.3,0.4,0.4
	c0.1,0.1,0.1,0.3,0.1,0.5v0.2c0,0.9,0,1.9,0,2.8c0,0.2-0.1,0.5-0.2,0.7c-0.2,0.2-0.4,0.3-0.6,0.4
	C248.6,448.5,248.5,448.5,248.4,448.5z"/>
<path class="st11" d="M273.6,376.4c-0.2-0.3-0.7-0.4-1-0.4h-7.3c-0.8,0-1.1,0.3-1.3,1.1c-0.4,2-0.9,4-1.3,6l-0.4,1.7v0
	c0,0.1,0,0.2-0.1,0.3c-0.1,0.1-0.1,0.2-0.2,0.2c-0.1,0.1-0.3,0.1-0.4,0.1c-0.2,0-0.6-0.1-0.6-0.6v0c-0.2-0.6-0.4-1.2-0.6-1.9
	c-0.6-1.9-1.3-3.9-1.9-5.8c-0.2-0.7-0.6-1-1.3-1c-2.6,0-5.4,0-9.1,0h-27.7c-0.1,0-0.2,0-0.3,0c-0.1,0-0.3,0.1-0.4,0.1
	c-0.1,0.1-0.2,0.2-0.3,0.3c-0.1,0.1-0.1,0.2-0.2,0.3c0,0.1,0,0.2,0,0.4c0.2,1.2,0.5,2.4,0.7,3.6l0.1,0.5c0.2,1,0.4,1.9,0.6,2.9
	c0.3,1.4,0.6,2.8,0.8,4.1c0.2,1.3,0.5,2.5,0.7,3.8c0.3,1.3,0.5,2.7,0.8,4c0.4,2.1,0.8,4.2,1.3,6.2c0.2,1.1,0.4,2.1,0.6,3.2
	c0.1,0.6,0.2,1-0.1,1.3c-0.3,0.3-0.6,0.3-1.3,0.4c-0.1,0-0.2,0-0.4,0c-0.2,0-0.5,0.1-0.6,0.3c-0.2,0.2-0.2,0.4-0.3,0.6
	c0,2.1,0,4.2,0,6.3c0,0.7,0.6,1,0.9,1c0.2,0,0.4,0.1,0.6,0c0.2,0,0.4,0,0.5,0h0.1c0.1,0,0.3,0,0.4,0.1c0.1,0,0.2,0.1,0.3,0.2
	c0.1,0.1,0.2,0.2,0.2,0.4c0,0.1,0.1,0.3,0,0.4c0,1.5,0,2.7,0.4,3.9c0.8,2.3,3.4,4.2,5.7,4.3c1.3,0,2.6,0,4.3,0c0.9,0,1.8,0,2.7,0
	h1.1c0.1,0,0.3,0,0.4,0.1c0.1,0.1,0.3,0.1,0.4,0.2c0.1,0.1,0.1,0.2,0.2,0.4c0,0.1,0,0.3,0,0.4c-0.2,1.1-0.4,2.2-0.5,3.2
	c-0.1,0.6-0.2,1.3-0.3,1.9c-0.1,0.9-0.3,1.8-0.5,2.7c-0.2,0.9-0.3,1.8-0.5,2.7c-0.1,0.7-0.2,1.4-0.3,2.1c-0.2,1.2-0.4,2.4-0.6,3.6
	c-0.4,2.1-0.1,3.9,0.7,5.6c1.4,2.9,3.7,4.6,6.8,5c0.5,0.1,1,0.1,1.5,0.1c2.3,0,4.3-0.8,6-2.5c2.3-2.2,3.2-5.1,2.6-8.4
	c-0.2-1-0.4-2.1-0.5-3.1c-0.1-0.4-0.1-0.8-0.2-1.1c-0.1-0.7-0.2-1.4-0.4-2.1c-0.2-1.1-0.4-2.2-0.5-3.3c-0.4-2.2-0.7-4.3-1.1-6.3
	c0-0.2-0.1-0.6,0.2-0.9c0.1-0.1,0.2-0.2,0.4-0.2c0.1-0.1,0.3-0.1,0.4-0.1h0c1,0,1.9,0,2.7,0h2.4c0.8,0,1.5,0,2.3,0h0.1
	c1.4,0,2.6-0.3,3.6-0.9c1.8-1.1,2.9-2.7,3.2-4.8c0.1-0.7,0.1-1.4,0.1-2.1c0-0.2,0-0.4,0-0.5c0-0.9,0.6-1,0.9-1h0.1
	c0.1,0,0.3,0,0.4,0c0.2,0,0.3,0,0.5,0c0.7,0,1.1-0.4,1.1-1c0-2,0-4.1,0-6.2c0-0.6-0.3-1-1-1.1c-0.2,0-0.3,0-0.5,0
	c-0.1,0-0.2,0-0.4,0h-0.1c-0.1,0-0.2,0-0.4-0.1c-0.1,0-0.2-0.1-0.3-0.2c-0.1-0.1-0.1-0.2-0.2-0.4c0-0.1,0-0.3,0-0.4
	c0.2-0.8,0.3-1.6,0.5-2.3c0.1-0.6,0.2-1.2,0.4-1.8c0.2-1,0.4-2,0.6-3c0.3-1.6,0.6-3.1,1-4.7c0.3-1.6,0.6-3.3,1-4.9
	c0.2-1.2,0.5-2.4,0.7-3.7c0.2-1.2,0.5-2.4,0.7-3.5c0.3-1.5,0.6-3.1,0.9-4.7C273.9,377.1,273.9,376.7,273.6,376.4z M265.6,416.6
	c0,0.2,0,0.4,0,0.5c0,0.6,0,1.3-0.1,1.9c-0.4,1.8-2.1,3.4-4,3.6c-0.5,0-0.9,0.1-1.6,0.1h-8.6c-0.6,0-1,0.2-1.2,0.7
	c-0.1,0.2-0.1,0.5,0,0.7c0.2,1.4,0.5,2.7,0.7,4.1c0.2,1.4,0.5,2.8,0.7,4.2c0.3,1.6,0.5,3.3,0.8,4.9c0.1,0.8,0.3,1.6,0.4,2.4l0.2,1
	c0.1,0.7,0.2,1.4,0.3,2.1c0.2,1.5-0.1,3-0.8,4.3c-0.7,1.3-1.9,2.4-3.3,2.9c-0.9,0.4-1.8,0.6-2.7,0.6c-1.5,0-3-0.5-4.1-1.4
	c-1.2-0.9-2.1-2.2-2.5-3.6c-0.3-1.1-0.3-2.2-0.1-3.6c0.2-1.1,0.4-2.3,0.6-3.4c0.1-0.7,0.2-1.4,0.4-2.2c0.1-0.8,0.3-1.6,0.4-2.4
	c0.2-1,0.3-2,0.5-3c0.2-1.1,0.4-2.3,0.6-3.4l0.3-2c0-0.1,0-0.3,0.1-0.4c0.1-0.4,0.1-0.7,0.2-1.1c0.1-0.4,0.1-0.9-0.1-1.2
	c-0.3-0.3-0.8-0.4-1.1-0.4h-5.9h-3.3c-0.7,0-1.7-0.1-2.7-0.7c-1.4-0.9-2.2-2.2-2.3-3.9c0-0.3,0-0.6,0-0.9c0-0.3,0-0.5,0-0.8
	c0-0.1,0-0.3,0-0.4c0-0.1,0.1-0.2,0.2-0.4c0.1-0.1,0.2-0.2,0.3-0.2c0.1,0,0.3-0.1,0.4-0.1h0.1c0.2,0,0.4,0,0.7,0h0.5h34.9
	c0.4,0,0.7,0,0.9,0.2C265.6,415.9,265.6,416.2,265.6,416.6z M268.7,410.4c0,0.2,0,0.4,0,0.6c0,0.5,0,1,0,1.4c0,0.1,0,0.3,0,0.4
	c0,0.1-0.1,0.2-0.2,0.3c-0.1,0.1-0.2,0.1-0.3,0.2c-0.1,0-0.2,0.1-0.3,0.1h-0.1h-42.4c-1,0-1.2-0.2-1.2-1.2c0-0.2,0-0.4,0-0.6
	c0-0.5,0-1,0-1.5c0-0.1,0-0.3,0-0.4c0-0.1,0.1-0.2,0.2-0.3c0.1-0.1,0.2-0.1,0.3-0.2c0.1,0,0.2-0.1,0.3-0.1h0.1h42.5
	C268.5,409.2,268.7,409.4,268.7,410.4z M271.4,379c-0.2,0.8-0.3,1.5-0.5,2.3l-0.3,1.6c-0.2,0.9-0.3,1.7-0.5,2.6
	c-0.1,0.6-0.3,1.3-0.4,1.9c-0.2,1.2-0.5,2.5-0.7,3.7l-0.5,2.5c-0.2,1-0.4,1.9-0.6,2.9c-0.2,0.9-0.3,1.7-0.5,2.6L267,401l-0.9,4.5
	c0,0.1,0,0.2-0.1,0.3c0,0.1-0.1,0.2-0.1,0.3c0,0.1,0,0.3-0.1,0.4c-0.1,0.1-0.1,0.3-0.2,0.4c-0.1,0.1-0.3,0.2-0.5,0.3
	c-0.2,0-0.3,0.1-0.5,0.1c-3.7,0-7.4,0-11.1,0h-14.2c-3.8,0-7.6,0-11.4,0c-0.5,0-1-0.1-1.2-1c-0.5-2.8-1.1-5.6-1.7-8.4l-0.3-1.5
	c-0.3-1.5-0.6-2.9-0.9-4.4c-0.3-1.4-0.6-2.8-0.8-4.2c-0.4-2.1-0.8-4.2-1.2-6.3l-0.4-2c0-0.1,0-0.1,0-0.2c0,0,0,0,0,0
	c-0.1-0.1-0.1-0.3-0.1-0.4c0-0.1,0.1-0.3,0.1-0.4c0.2-0.3,0.7-0.3,0.8-0.3c6,0,12,0,18,0h15.4c0.4,0,0.8,0.1,1.1,0.7
	c0.9,2.8,1.8,5.6,2.7,8.3l0.5,1.5c0.4,1.1,0.7,2,1,2.8c0.1,0.2,0.2,0.4,0.4,0.5c0.2,0.1,0.4,0.2,0.6,0.2h0.1c0.2,0,0.4-0.1,0.6-0.2
	c0.2-0.1,0.3-0.3,0.3-0.5c0.3-1.5,0.7-3,1-4.5l0.7-3l0.4-1.8c0.2-1.1,0.5-2.2,0.7-3.3c0-0.2,0.1-0.4,0.3-0.5
	c0.2-0.1,0.4-0.2,0.6-0.2h2h2.1c0.1,0,0.2,0,0.3,0.1c0.1,0,0.2,0.1,0.3,0.2c0.1,0.1,0.1,0.2,0.2,0.3
	C271.4,378.8,271.4,378.9,271.4,379z"/>
<path class="st12" d="M265.4,415.7c-0.2-0.2-0.5-0.2-0.9-0.2h-34.9H229c-0.3,0-0.5,0-0.7,0h-0.1c-0.1,0-0.3,0-0.4,0.1
	c-0.1,0-0.2,0.1-0.3,0.2c-0.1,0.1-0.2,0.2-0.2,0.4c0,0.1-0.1,0.3,0,0.4c0,0.3,0,0.5,0,0.8c0,0.3,0,0.6,0,0.9c0.1,1.7,0.9,3,2.3,3.9
	c1,0.6,2,0.7,2.7,0.7h3.3h5.9c0.4,0,0.9,0.1,1.1,0.4c0.3,0.3,0.2,0.8,0.1,1.2c-0.1,0.4-0.1,0.7-0.2,1.1c0,0.1,0,0.3-0.1,0.4l-0.3,2
	c-0.2,1.1-0.4,2.3-0.6,3.4c-0.2,1-0.3,2-0.5,3c-0.1,0.8-0.3,1.6-0.4,2.4c-0.1,0.7-0.2,1.4-0.4,2.2c-0.2,1.1-0.4,2.3-0.6,3.4
	c-0.2,1.4-0.2,2.5,0.1,3.6c0.4,1.4,1.3,2.7,2.5,3.6c1.2,0.9,2.6,1.4,4.1,1.4c0.9,0,1.9-0.2,2.7-0.6c1.4-0.6,2.5-1.6,3.3-2.9
	c0.7-1.3,1-2.8,0.8-4.3c-0.1-0.7-0.2-1.4-0.3-2.1l-0.2-1c-0.1-0.8-0.3-1.6-0.4-2.4c-0.3-1.6-0.5-3.3-0.8-4.9
	c-0.2-1.4-0.5-2.8-0.7-4.2c-0.2-1.4-0.5-2.7-0.7-4.1c-0.1-0.2-0.1-0.5,0-0.7c0.2-0.5,0.6-0.7,1.2-0.7h8.6c0.6,0,1.1,0,1.6-0.1
	c1.8-0.2,3.6-1.8,4-3.6c0.1-0.6,0.1-1.3,0.1-1.9c0-0.2,0-0.4,0-0.5C265.6,416.2,265.6,415.9,265.4,415.7z M248,445.5
	c0,0.4-0.1,0.7-0.4,1c-0.2,0.3-0.6,0.5-0.9,0.5c-0.3,0.1-0.7,0-1-0.1c-0.3-0.1-0.5-0.4-0.7-0.7c-0.1-0.3-0.2-0.6-0.2-0.9
	c0-0.5,0-0.9,0-1.4h0c0-0.6,0-1.1,0-1.7c0.1-0.7,0.6-1.2,1.4-1.4c0.6-0.1,1.3,0.3,1.6,0.9c0.1,0.2,0.1,0.4,0.1,0.7
	C248,443.5,248,444.5,248,445.5L248,445.5z"/>
<path class="st12" d="M268.5,413.1c-0.1,0.1-0.2,0.1-0.3,0.2c-0.1,0-0.2,0.1-0.3,0.1h-0.1h-42.4c-1,0-1.2-0.2-1.2-1.2
	c0-0.2,0-0.4,0-0.6c0-0.5,0-1,0-1.5c0-0.1,0-0.3,0-0.4c0-0.1,0.1-0.2,0.2-0.3c0.1-0.1,0.2-0.1,0.3-0.2c0.1,0,0.2-0.1,0.3-0.1h0.1
	h42.5c0.9,0,1.2,0.2,1.2,1.2c0,0.2,0,0.4,0,0.6c0,0.5,0,1,0,1.4c0,0.1,0,0.3,0,0.4C268.6,412.9,268.6,413,268.5,413.1z"/>
<path class="st12" d="M271.4,379c-0.2,0.8-0.3,1.5-0.5,2.3l-0.3,1.6c-0.2,0.9-0.3,1.7-0.5,2.6c-0.1,0.6-0.3,1.3-0.4,1.9
	c-0.2,1.2-0.5,2.5-0.7,3.7l-0.5,2.5c-0.2,1-0.4,1.9-0.6,2.9c-0.2,0.9-0.3,1.7-0.5,2.6L267,401l-0.9,4.5c0,0.1,0,0.2-0.1,0.3
	c0,0.1-0.1,0.2-0.1,0.3c0,0.1,0,0.3-0.1,0.4c0,0.1-0.1,0.3-0.2,0.4c-0.1,0.1-0.3,0.2-0.5,0.3c-0.2,0-0.3,0.1-0.5,0.1
	c-3.7,0-7.4,0-11.1,0h-14.2c-3.8,0-7.6,0-11.4,0c-0.5,0-1-0.1-1.2-1c-0.5-2.8-1.1-5.6-1.6-8.4l-0.3-1.5c-0.3-1.5-0.6-2.9-0.9-4.4
	c-0.3-1.4-0.6-2.8-0.9-4.2c-0.4-2.1-0.8-4.2-1.2-6.3l-0.4-2c0-0.1,0-0.1,0-0.2c0,0,0,0,0,0c-0.1-0.1-0.1-0.3-0.1-0.4
	s0.1-0.3,0.1-0.4c0.2-0.3,0.7-0.3,0.8-0.3c6,0,12,0,18,0h15.4c0.4,0,0.8,0.1,1.1,0.7c0.9,2.8,1.8,5.6,2.7,8.3l0.5,1.5
	c0.4,1.1,0.7,2,1,2.8c0.1,0.2,0.2,0.4,0.4,0.5c0.2,0.1,0.4,0.2,0.6,0.2h0.1c0.2,0,0.4-0.1,0.6-0.2c0.2-0.1,0.3-0.3,0.3-0.5
	c0.3-1.5,0.7-3,1-4.5l0.7-3l0.4-1.8c0.2-1.1,0.5-2.2,0.7-3.3c0-0.2,0.1-0.4,0.3-0.5c0.2-0.1,0.4-0.2,0.6-0.2h2h2.1
	c0.1,0,0.2,0,0.3,0.1c0.1,0,0.2,0.1,0.3,0.2c0.1,0.1,0.1,0.2,0.2,0.3C271.4,378.8,271.4,378.9,271.4,379z"/>
<path class="st11" d="M248,445.5c0,0.4-0.1,0.7-0.4,1c-0.2,0.3-0.6,0.5-0.9,0.5c-0.3,0.1-0.7,0-1-0.1c-0.3-0.2-0.5-0.4-0.7-0.7
	c-0.1-0.3-0.2-0.6-0.2-0.9c0-0.5,0-0.9,0-1.4h0c0-0.6,0-1.1,0-1.7c0.1-0.7,0.6-1.2,1.4-1.4c0.6-0.1,1.3,0.3,1.6,0.9
	c0.1,0.2,0.1,0.4,0.1,0.7C248,443.5,248,444.5,248,445.5z"/>
<path class="st11" d="M246.4,446.5c-0.2,0-0.4-0.1-0.5-0.2c-0.2-0.1-0.3-0.2-0.4-0.4c-0.1-0.2-0.1-0.4-0.1-0.7c0-0.3,0-0.6,0-0.9h0
	v-0.5c0-0.2,0-0.4,0-0.5c0-0.4,0-0.7,0-1.1c0.1-0.7,0.6-0.8,0.9-0.9c0,0,0.1,0,0.1,0c0.2,0,0.4,0.1,0.5,0.2c0.2,0.1,0.3,0.3,0.4,0.4
	c0.1,0.1,0.1,0.3,0.1,0.5v0.2c0,0.9,0,1.9,0,2.8c0,0.2-0.1,0.5-0.2,0.7c-0.2,0.2-0.4,0.3-0.6,0.4
	C246.6,446.5,246.5,446.5,246.4,446.5z"/>
<g>
	<path class="st11" d="M273.5,88c0-0.3-0.1-0.6-0.2-0.9c0,0,0-0.1,0-0.1c-0.1-0.3-0.1-0.5-0.2-0.8v0l-9.4-41.3l-0.2-1l-1,0.2
		l-0.7,0.1h0l0,0l-2,0.5h0l-28.2,6.4l-2.2,0.5l-0.1,0l-0.4,0.1l-0.9,0.3l0.2,0.9l8.3,36.7c-1.7-0.2-3.5,0-5.4,0.7
		c-2.5,0.8-5.1,2.4-7.4,4.5c-2.9,2.7-4.9,5.9-5.8,8.9c-0.8,3-0.6,6,1.3,8.1c1.9,2.1,4.9,2.6,7.9,1.9c3.1-0.6,6.4-2.4,9.3-5.1
		c2.3-2.1,4-4.5,5-6.8c1-2.3,1.5-4.8,1.1-6.8l0,0v0c0-0.2-0.1-0.4-0.2-0.6c-0.1-0.4-0.2-0.8-0.2-1.1v0l0,0l-6.6-28.9l26.2-5.9
		l5.6,24.3c-1.7-0.2-3.6,0.1-5.5,0.7c-2.5,0.9-5.1,2.4-7.4,4.5l0,0c-2.9,2.7-4.9,5.9-5.7,8.9c-0.8,3-0.6,6,1.3,8
		c1.9,2.1,4.9,2.5,7.9,1.9c3.1-0.6,6.4-2.4,9.3-5.1C271.8,97.6,274.3,92.2,273.5,88z M266.7,101c-5.5,5.2-12.7,6.6-15.8,3.2
		c-3.1-3.4-1.2-10.3,4.3-15.6c4.5-4.1,9.9-5.9,13.5-4.7l-6.1-26.8l-28.1,6.3l6.8,29.9c0.1,0.6,0.3,1.2,0.4,1.8
		c0.7,3.6-1.5,8.7-5.8,12.7c-5.6,5.2-12.7,6.7-15.8,3.2c-3.1-3.4-1.2-10.4,4.4-15.6c4.4-4.2,9.8-5.9,13.4-4.6l-8.6-38.3l0.4-0.1
		l2.2-0.5l28.2-6.4l2-0.5l0.7-0.1l9.4,41.3c0.1,0.6,0.3,1.2,0.4,1.8C273.2,91.9,271,97,266.7,101z"/>
	<path class="st11" d="M266.7,101c-5.5,5.2-12.7,6.6-15.8,3.2c-3.1-3.4-1.2-10.3,4.3-15.6c4.5-4.1,9.9-5.9,13.5-4.7l-6.1-26.8
		l-28.1,6.3l6.8,29.9c0.1,0.6,0.3,1.2,0.4,1.8c0.7,3.6-1.5,8.7-5.8,12.7c-5.6,5.2-12.7,6.7-15.8,3.2c-3.1-3.4-1.2-10.4,4.4-15.6
		c4.4-4.2,9.8-5.9,13.4-4.6l-8.6-38.3l0.4-0.1l2.2-0.5l28.2-6.4l2-0.5l0.7-0.1l9.4,41.3c0.1,0.6,0.3,1.2,0.4,1.8
		C273.2,91.9,271,97,266.7,101z"/>
</g>
<g>
	<path class="st13" d="M229.6,53.4l28.2-6.4l0.7,3.1l-28.2,6.4L229.6,53.4L229.6,53.4z M259.1,53.1l6.1,26.8
		c-3.7-1.2-9.1,0.6-13.5,4.7c-5.5,5.2-7.4,12.1-4.4,15.5c3.1,3.4,10.2,2,15.8-3.2c4.3-4,6.5-9.1,5.8-12.8c-0.1-0.5-0.2-1.1-0.4-1.8
		L259.1,41l-0.7,0.1l-2,0.5L228.3,48l-2.2,0.5l-0.4,0.1l8.6,38.3c-3.6-1.2-9,0.5-13.4,4.6c-5.6,5.2-7.6,12.1-4.4,15.6
		c3.1,3.4,10.2,2,15.8-3.2c4.4-4,6.5-9.1,5.8-12.7c-0.1-0.6-0.3-1.2-0.4-1.8l-6.8-29.9L259.1,53.1z"/>
	<path class="st14" d="M231,55.3l26.2-6l-0.3-1.1l-26.2,6L231,55.3z M232.1,60.2l6.6,28.9l0,0l0,0c0.1,0.4,0.1,0.7,0.2,1.1
		c0,0.2,0.1,0.4,0.2,0.6l0,0l0,0c0.4,2.1,0,4.5-1.1,6.8c-1.1,2.4-2.8,4.7-5,6.8c-2.9,2.7-6.2,4.5-9.3,5.1c-3.1,0.6-6,0.1-7.9-1.9
		c-1.9-2.1-2.1-5.1-1.3-8.1c0.9-3,2.9-6.2,5.8-8.9c2.3-2.2,4.9-3.7,7.4-4.6c1.9-0.6,3.7-0.9,5.4-0.7l-8.3-36.7l-0.2-0.9l0.9-0.3
		l0.4-0.1l0,0l0,0l2.2-0.5l28.2-6.4l0,0l2-0.5l0,0l0,0l0.7-0.1l1-0.2l0.2,1l9.4,41.3l0,0l0,0c0.1,0.3,0.1,0.5,0.2,0.8
		c0,0,0,0.1,0,0.1c0.1,0.3,0.1,0.6,0.2,0.9c0.8,4.2-1.6,9.6-6.1,13.7c-2.9,2.7-6.2,4.5-9.3,5.1c-3.1,0.6-6,0.1-7.9-1.9
		c-1.9-2.1-2.1-5-1.3-8c0.8-3,2.8-6.2,5.7-8.9v0l0,0c2.3-2.1,4.9-3.7,7.4-4.5c1.9-0.6,3.8-0.9,5.5-0.7l-5.6-24.3L232.1,60.2z"/>
</g>
</svg>
