<svg width="665" height="491" viewBox="0 0 665 491" fill="none" xmlns="http://www.w3.org/2000/svg">
<g clip-path="url(#clip0_16679_483)">
<path d="M658.8 318.5C699.89 318.5 733.2 285.19 733.2 244.1C733.2 203.01 699.89 169.7 658.8 169.7C617.71 169.7 584.4 203.01 584.4 244.1C584.4 285.19 617.71 318.5 658.8 318.5Z" fill="#E7D0DC" stroke="url(#paint0_linear_16679_483)"/>
<path d="M316 318.7C357.4 318.7 390.9 285.2 390.9 243.8C390.9 202.4 357.4 168.9 316 168.9" stroke="url(#paint1_linear_16679_483)"/>
<path d="M487.199 318.5C528.289 318.5 561.599 285.19 561.599 244.1C561.599 203.01 528.289 169.7 487.199 169.7C446.109 169.7 412.799 203.01 412.799 244.1C412.799 285.19 446.109 318.5 487.199 318.5Z" stroke="#E7D0DC"/>
<path d="M567 489.1C608.09 489.1 641.4 455.79 641.4 414.7C641.4 373.61 608.09 340.3 567 340.3C525.91 340.3 492.6 373.61 492.6 414.7C492.6 455.79 525.91 489.1 567 489.1Z" stroke="url(#paint2_linear_16679_483)"/>
<path d="M395.5 489.1C436.59 489.1 469.9 455.79 469.9 414.7C469.9 373.61 436.59 340.3 395.5 340.3C354.41 340.3 321.1 373.61 321.1 414.7C321.1 455.79 354.41 489.1 395.5 489.1Z" fill="#E7D0DC" stroke="url(#paint3_linear_16679_483)"/>
<path d="M566.599 148.8C607.689 148.8 640.999 115.49 640.999 74.4C640.999 33.31 607.689 0 566.599 0C525.509 0 492.199 33.31 492.199 74.4C492.199 115.49 525.509 148.8 566.599 148.8Z" stroke="url(#paint4_linear_16679_483)"/>
<path d="M395.099 148.8C436.189 148.8 469.499 115.49 469.499 74.4C469.499 33.31 436.189 0 395.099 0C354.009 0 320.699 33.31 320.699 74.4C320.699 115.49 354.009 148.8 395.099 148.8Z" fill="url(#paint5_linear_16679_483)" stroke="url(#paint6_linear_16679_483)"/>
<path d="M738.099 148.8C779.189 148.8 812.499 115.49 812.499 74.4C812.499 33.31 779.189 0 738.099 0C697.009 0 663.699 33.31 663.699 74.4C663.699 115.49 697.009 148.8 738.099 148.8Z" stroke="url(#paint7_linear_16679_483)"/>
<mask id="mask0_16679_483" style="mask-type:luminance" maskUnits="userSpaceOnUse" x="625" y="207" width="67" height="75">
<path d="M691.6 207.5H625.6V281.5H691.6V207.5Z" fill="white"/>
</mask>
<g mask="url(#mask0_16679_483)">
<path d="M690.4 259.6C688.1 259.8 676.6 261 669.4 261.7L653.9 263.2V280.2C653.9 280.7 653.6 281.2 653.1 281.5C652.9 281.6 652.7 281.6 652.5 281.6C652.2 281.6 651.9 281.5 651.6 281.3L632.2 264.5C631.9 264.2 631.7 263.9 631.7 263.5C631.7 261.8 630.6 219.5 630.6 219C630.6 218.3 631.1 217.6 631.9 217.6L689 212C689.4 212 689.8 212.1 690.1 212.3C690.4 212.6 690.6 212.9 690.6 213.3C690.7 215.4 691.5 248.1 691.8 258.1V258.3C691.6 258.9 691.1 259.5 690.4 259.6Z" fill="#2C2C2C"/>
<path d="M686.7 253.9V253.7C686.4 243.7 685.6 211.1 685.5 208.9C685.5 208.5 685.3 208.1 685 207.9C684.7 207.6 684.3 207.5 683.9 207.6L626.8 213.2C626.1 213.3 625.5 213.9 625.5 214.6C625.5 215 626.6 257.4 626.6 259.1C626.6 259.5 626.8 259.9 627.1 260.1L646.5 276.9C646.8 277.1 647.1 277.2 647.4 277.2C647.6 277.2 647.8 277.2 648 277.1C648.5 276.9 648.8 276.4 648.8 275.8V258.8L664.3 257.3C671.4 256.6 683 255.5 685.3 255.2C686.2 255.2 686.7 254.6 686.7 253.9ZM664.2 255L647.8 256.6C647.1 256.7 646.5 257.3 646.5 258C646.5 258.3 646.5 258.4 646.5 258.5V273.6L629.1 258.5C629 254 628.1 221.4 628 215.4L683.1 210C683.3 216 684 243.1 684.2 253C680.7 253.3 670.6 254.3 664.2 255Z" fill="#2C2C2C"/>
<path d="M684.3 253C680.7 253.4 670.7 254.3 664.2 255L647.8 256.6C647.1 256.7 646.5 257.3 646.5 258C646.5 258.3 646.5 258.4 646.5 258.5V273.6L629.1 258.5C629 254 628.1 221.4 628 215.4L683.1 210C683.3 216 684 243.2 684.3 253Z" fill="#EAE5E5"/>
</g>
<path d="M424.199 377.9C423.999 377.6 423.499 377.5 423.199 377.5H415.899C415.099 377.5 414.799 377.8 414.599 378.6C414.199 380.6 413.699 382.6 413.299 384.6L412.899 386.3C412.899 386.4 412.899 386.5 412.799 386.6C412.699 386.7 412.699 386.8 412.599 386.8C412.499 386.9 412.299 386.9 412.199 386.9C411.999 386.9 411.599 386.8 411.599 386.3C411.399 385.7 411.199 385.1 410.999 384.4C410.399 382.5 409.699 380.5 409.099 378.6C408.899 377.9 408.499 377.6 407.799 377.6C405.199 377.6 402.399 377.6 398.699 377.6H370.999C370.899 377.6 370.799 377.6 370.699 377.6C370.599 377.6 370.399 377.7 370.299 377.7C370.199 377.8 370.099 377.9 369.999 378C369.899 378.1 369.899 378.2 369.799 378.3C369.799 378.4 369.799 378.5 369.799 378.7C369.999 379.9 370.299 381.1 370.499 382.3L370.599 382.8C370.799 383.8 370.999 384.7 371.199 385.7C371.499 387.1 371.799 388.5 371.999 389.8C372.199 391.1 372.499 392.3 372.699 393.6C372.999 394.9 373.199 396.3 373.499 397.6C373.899 399.7 374.299 401.8 374.799 403.8C374.999 404.9 375.199 405.9 375.399 407C375.499 407.6 375.599 408 375.299 408.3C374.999 408.6 374.699 408.6 373.999 408.7C373.899 408.7 373.799 408.7 373.599 408.7C373.399 408.7 373.099 408.8 372.999 409C372.799 409.2 372.799 409.4 372.699 409.6C372.699 411.7 372.699 413.8 372.699 415.9C372.699 416.6 373.299 416.9 373.599 416.9C373.799 416.9 373.999 416.9 374.199 416.9C374.399 416.9 374.599 416.9 374.699 416.9H374.799C374.899 416.9 375.099 416.9 375.199 417C375.299 417 375.399 417.1 375.499 417.2C375.599 417.3 375.699 417.4 375.699 417.6C375.699 417.7 375.799 417.9 375.699 418C375.699 419.5 375.699 420.7 376.099 421.9C376.899 424.2 379.499 426.1 381.799 426.2C383.099 426.2 384.399 426.2 386.099 426.2C386.999 426.2 387.899 426.2 388.799 426.2H389.899C389.999 426.2 390.199 426.2 390.299 426.3C390.399 426.4 390.599 426.4 390.699 426.5C390.799 426.6 390.799 426.7 390.899 426.9C390.899 427 390.899 427.2 390.899 427.3C390.699 428.4 390.499 429.5 390.399 430.5C390.299 431.1 390.199 431.8 390.099 432.4C389.999 433.3 389.799 434.2 389.699 435.1C389.499 436 389.399 436.9 389.199 437.8C389.099 438.5 388.999 439.2 388.899 439.9C388.699 441.1 388.499 442.3 388.299 443.5C387.899 445.6 388.199 447.4 388.999 449.1C390.399 452 392.699 453.7 395.799 454.1C396.299 454.2 396.799 454.2 397.299 454.2C399.599 454.2 401.599 453.4 403.299 451.7C405.599 449.5 406.499 446.6 405.899 443.3C405.699 442.3 405.499 441.2 405.399 440.2C405.299 439.8 405.299 439.4 405.199 439.1C405.099 438.4 404.999 437.7 404.799 437C404.599 435.9 404.399 434.8 404.299 433.7C403.899 431.5 403.599 429.4 403.199 427.4C403.199 427.2 403.099 426.8 403.399 426.5C403.499 426.4 403.599 426.3 403.799 426.3C403.999 426.3 404.099 426.2 404.199 426.2C405.199 426.2 406.099 426.2 406.899 426.2H409.299C410.099 426.2 410.799 426.2 411.599 426.2H411.699C413.099 426.2 414.299 425.9 415.299 425.3C417.099 424.2 418.199 422.6 418.499 420.5C418.599 419.8 418.599 419.1 418.599 418.4C418.599 418.2 418.599 418 418.599 417.9C418.599 417 419.199 416.9 419.499 416.9H419.599C419.699 416.9 419.899 416.9 419.999 416.9C420.199 416.9 420.299 416.9 420.499 416.9C421.199 416.9 421.599 416.5 421.599 415.9C421.599 413.9 421.599 411.8 421.599 409.7C421.599 409.1 421.299 408.7 420.599 408.6C420.399 408.6 420.299 408.6 420.099 408.6C419.999 408.6 419.899 408.6 419.699 408.6H419.599C419.499 408.6 419.399 408.6 419.199 408.5C419.099 408.5 418.999 408.4 418.899 408.3C418.799 408.2 418.799 408.1 418.699 407.9C418.699 407.8 418.699 407.6 418.699 407.5C418.899 406.7 418.999 405.9 419.199 405.2C419.299 404.6 419.399 404 419.599 403.4C419.799 402.4 419.999 401.4 420.199 400.4C420.499 398.8 420.799 397.3 421.199 395.7C421.499 394.1 421.799 392.4 422.199 390.8C422.399 389.6 422.699 388.4 422.899 387.1C423.099 385.9 423.399 384.7 423.599 383.6C423.899 382 424.199 380.5 424.499 378.9C424.499 378.6 424.499 378.2 424.199 377.9ZM416.199 418.1C416.199 418.3 416.199 418.5 416.199 418.6C416.199 419.2 416.199 419.9 416.099 420.5C415.699 422.3 413.999 423.9 412.099 424.1C411.599 424.1 411.199 424.2 410.499 424.2H401.899C401.299 424.2 400.899 424.4 400.699 424.9C400.599 425.1 400.599 425.4 400.699 425.6C400.899 427 401.199 428.3 401.399 429.7C401.599 431.1 401.899 432.5 402.099 433.9C402.399 435.5 402.599 437.2 402.899 438.8C402.999 439.6 403.199 440.4 403.299 441.2L403.499 442.2C403.599 442.9 403.699 443.6 403.799 444.3C403.999 445.8 403.699 447.3 402.999 448.6C402.299 449.9 401.099 451 399.699 451.5C398.799 451.9 397.899 452.1 396.999 452.1C395.499 452.1 393.999 451.6 392.899 450.7C391.699 449.8 390.799 448.5 390.399 447.1C390.099 446 390.099 444.9 390.299 443.5C390.499 442.4 390.699 441.2 390.899 440.1C390.999 439.4 391.099 438.7 391.299 437.9C391.399 437.1 391.599 436.3 391.699 435.5C391.899 434.5 391.999 433.5 392.199 432.5C392.399 431.4 392.599 430.2 392.799 429.1L393.099 427.1C393.099 427 393.099 426.8 393.199 426.7C393.299 426.3 393.299 426 393.399 425.6C393.499 425.2 393.499 424.7 393.299 424.4C392.999 424.1 392.499 424 392.199 424H386.299H382.999C382.299 424 381.299 423.9 380.299 423.3C378.899 422.4 378.099 421.1 377.999 419.4C377.999 419.1 377.999 418.8 377.999 418.5C377.999 418.2 377.999 418 377.999 417.7C377.999 417.6 377.999 417.4 377.999 417.3C377.999 417.2 378.099 417.1 378.199 416.9C378.299 416.8 378.399 416.7 378.499 416.7C378.599 416.7 378.799 416.6 378.899 416.6H378.999C379.199 416.6 379.399 416.6 379.699 416.6H380.199H415.099C415.499 416.6 415.799 416.6 415.999 416.8C416.199 417.4 416.199 417.7 416.199 418.1ZM419.299 411.9C419.299 412.1 419.299 412.3 419.299 412.5C419.299 413 419.299 413.5 419.299 413.9C419.299 414 419.299 414.2 419.299 414.3C419.299 414.4 419.199 414.5 419.099 414.6C418.999 414.7 418.899 414.7 418.799 414.8C418.699 414.8 418.599 414.9 418.499 414.9H418.399H375.999C374.999 414.9 374.799 414.7 374.799 413.7C374.799 413.5 374.799 413.3 374.799 413.1C374.799 412.6 374.799 412.1 374.799 411.6C374.799 411.5 374.799 411.3 374.799 411.2C374.799 411.1 374.899 411 374.999 410.9C375.099 410.8 375.199 410.8 375.299 410.7C375.399 410.7 375.499 410.6 375.599 410.6H375.699H418.199C419.099 410.7 419.299 410.9 419.299 411.9ZM421.999 380.5C421.799 381.3 421.699 382 421.499 382.8L421.199 384.4C420.999 385.3 420.899 386.1 420.699 387C420.599 387.6 420.399 388.3 420.299 388.9C420.099 390.1 419.799 391.4 419.599 392.6L419.099 395.1C418.899 396.1 418.699 397 418.499 398C418.299 398.9 418.199 399.7 417.999 400.6L417.599 402.5L416.699 407C416.699 407.1 416.699 407.2 416.599 407.3C416.599 407.4 416.499 407.5 416.499 407.6C416.499 407.7 416.499 407.9 416.399 408C416.399 408.1 416.299 408.3 416.199 408.4C416.099 408.5 415.899 408.6 415.699 408.7C415.499 408.7 415.399 408.8 415.199 408.8C411.499 408.8 407.799 408.8 404.099 408.8H389.899C386.099 408.8 382.299 408.8 378.499 408.8C377.999 408.8 377.499 408.7 377.299 407.8C376.799 405 376.199 402.2 375.699 399.4L375.399 397.9C375.099 396.4 374.799 395 374.499 393.5C374.199 392.1 373.899 390.7 373.699 389.3C373.299 387.2 372.899 385.1 372.499 383L372.099 381C372.099 380.9 372.099 380.9 372.099 380.8C371.999 380.7 371.999 380.5 371.999 380.4C371.999 380.3 372.099 380.1 372.099 380C372.299 379.7 372.799 379.7 372.899 379.7C378.899 379.7 384.899 379.7 390.899 379.7H406.299C406.699 379.7 407.099 379.8 407.399 380.4C408.299 383.2 409.199 386 410.099 388.7L410.599 390.2C410.999 391.3 411.299 392.2 411.599 393C411.699 393.2 411.799 393.4 411.999 393.5C412.199 393.6 412.399 393.7 412.599 393.7H412.699C412.899 393.7 413.099 393.6 413.299 393.5C413.499 393.4 413.599 393.2 413.599 393C413.899 391.5 414.299 390 414.599 388.5L415.299 385.5L415.699 383.7C415.899 382.6 416.199 381.5 416.399 380.4C416.399 380.2 416.499 380 416.699 379.9C416.899 379.8 417.099 379.7 417.299 379.7H419.299H421.399C421.499 379.7 421.599 379.7 421.699 379.8C421.799 379.8 421.899 379.9 421.999 380C422.099 380.1 422.099 380.2 422.199 380.3C421.999 380.3 421.999 380.4 421.999 380.5Z" fill="#2C2C2C"/>
<path d="M416 417.2C415.8 417 415.5 417 415.1 417H380.2H379.6C379.3 417 379.1 417 378.9 417H378.8C378.7 417 378.5 417 378.4 417.1C378.3 417.1 378.2 417.2 378.1 417.3C378 417.4 377.9 417.5 377.9 417.7C377.9 417.8 377.8 418 377.9 418.1C377.9 418.4 377.9 418.6 377.9 418.9C377.9 419.2 377.9 419.5 377.9 419.8C378 421.5 378.8 422.8 380.2 423.7C381.2 424.3 382.2 424.4 382.9 424.4H386.2H392.1C392.5 424.4 393 424.5 393.2 424.8C393.5 425.1 393.4 425.6 393.3 426C393.2 426.4 393.2 426.7 393.1 427.1C393.1 427.2 393.1 427.4 393 427.5L392.7 429.5C392.5 430.6 392.3 431.8 392.1 432.9C391.9 433.9 391.8 434.9 391.6 435.9C391.5 436.7 391.3 437.5 391.2 438.3C391.1 439 391 439.7 390.8 440.5C390.6 441.6 390.4 442.8 390.2 443.9C390 445.3 390 446.4 390.3 447.5C390.7 448.9 391.6 450.2 392.8 451.1C394 452 395.4 452.5 396.9 452.5C397.8 452.5 398.8 452.3 399.6 451.9C401 451.3 402.1 450.3 402.9 449C403.6 447.7 403.9 446.2 403.7 444.7C403.6 444 403.5 443.3 403.4 442.6L403.2 441.6C403.1 440.8 402.9 440 402.8 439.1C402.5 437.5 402.3 435.8 402 434.2C401.8 432.8 401.5 431.4 401.3 430C401.1 428.6 400.8 427.3 400.6 425.9C400.5 425.7 400.5 425.4 400.6 425.2C400.8 424.7 401.2 424.5 401.8 424.5H410.4C411 424.5 411.5 424.5 412 424.4C413.8 424.2 415.6 422.6 416 420.8C416.1 420.2 416.1 419.5 416.1 418.9C416.1 418.7 416.1 418.5 416.1 418.4C416.2 417.7 416.2 417.4 416 417.2ZM398.6 447C398.6 447.4 398.5 447.7 398.2 448C397.9 448.3 397.6 448.5 397.3 448.5C397 448.6 396.6 448.5 396.3 448.4C396 448.3 395.8 448 395.6 447.7C395.5 447.4 395.4 447.1 395.4 446.8C395.4 446.3 395.4 445.9 395.4 445.4C395.4 444.8 395.4 444.3 395.4 443.7C395.5 443 396 442.5 396.8 442.3C397.4 442.2 398.1 442.6 398.4 443.2C398.5 443.4 398.5 443.6 398.5 443.9C398.6 445 398.6 446 398.6 447Z" fill="#2C2C2C"/>
<path d="M419.099 414.6C418.999 414.7 418.899 414.7 418.799 414.8C418.699 414.8 418.599 414.9 418.499 414.9H418.399H375.999C374.999 414.9 374.799 414.7 374.799 413.7C374.799 413.5 374.799 413.3 374.799 413.1C374.799 412.6 374.799 412.1 374.799 411.6C374.799 411.5 374.799 411.3 374.799 411.2C374.799 411.1 374.899 411 374.999 410.9C375.099 410.8 375.199 410.8 375.299 410.7C375.399 410.7 375.499 410.6 375.599 410.6H375.699H418.199C419.099 410.6 419.399 410.8 419.399 411.8C419.399 412 419.399 412.2 419.399 412.4C419.399 412.9 419.399 413.4 419.399 413.8C419.399 413.9 419.399 414.1 419.399 414.2C419.199 414.4 419.199 414.5 419.099 414.6Z" fill="#2C2C2C"/>
<path d="M421.999 380.5C421.799 381.3 421.699 382 421.499 382.8L421.199 384.4C420.999 385.3 420.899 386.1 420.699 387C420.599 387.6 420.399 388.3 420.299 388.9C420.099 390.1 419.799 391.4 419.599 392.6L419.099 395.1C418.899 396.1 418.699 397 418.499 398C418.299 398.9 418.199 399.7 417.999 400.6L417.599 402.5L416.699 407C416.699 407.1 416.699 407.2 416.599 407.3C416.599 407.4 416.499 407.5 416.499 407.6C416.499 407.8 416.499 407.9 416.399 408C416.399 408.1 416.299 408.3 416.199 408.4C416.099 408.5 415.899 408.6 415.699 408.7C415.499 408.7 415.399 408.8 415.199 408.8C411.499 408.8 407.799 408.8 404.099 408.8H389.899C386.099 408.8 382.299 408.8 378.499 408.8C377.999 408.8 377.499 408.7 377.299 407.8C376.799 405 376.199 402.2 375.599 399.4L375.299 397.9C374.999 396.4 374.699 395 374.399 393.5C374.099 392.1 373.799 390.7 373.499 389.3C373.099 387.2 372.699 385.1 372.299 383L371.899 381C371.899 380.9 371.899 380.9 371.899 380.8C371.799 380.7 371.799 380.5 371.799 380.4C371.799 380.3 371.899 380.1 371.899 380C372.099 379.7 372.599 379.7 372.699 379.7C378.699 379.7 384.699 379.7 390.699 379.7H406.099C406.499 379.7 406.899 379.8 407.199 380.4C408.099 383.2 408.999 386 409.899 388.7L410.399 390.2C410.799 391.3 411.099 392.2 411.399 393C411.499 393.2 411.599 393.4 411.799 393.5C411.999 393.6 412.199 393.7 412.399 393.7H412.499C412.699 393.7 412.899 393.6 413.099 393.5C413.299 393.4 413.399 393.2 413.399 393C413.699 391.5 414.099 390 414.399 388.5L415.099 385.5L415.499 383.7C415.699 382.6 415.999 381.5 416.199 380.4C416.199 380.2 416.299 380 416.499 379.9C416.699 379.8 416.899 379.7 417.099 379.7H419.099H421.199C421.299 379.7 421.399 379.7 421.499 379.8C421.599 379.8 421.699 379.9 421.799 380C421.899 380.1 421.899 380.2 421.999 380.3C421.999 380.3 421.999 380.4 421.999 380.5Z" fill="#2C2C2C"/>
<path d="M398.6 447C398.6 447.4 398.5 447.7 398.2 448C398 448.3 397.6 448.5 397.3 448.5C397 448.6 396.6 448.5 396.3 448.4C396 448.3 395.8 448 395.6 447.7C395.5 447.4 395.4 447.1 395.4 446.8C395.4 446.3 395.4 445.9 395.4 445.4C395.4 444.8 395.4 444.3 395.4 443.7C395.5 443 396 442.5 396.8 442.3C397.4 442.2 398.1 442.6 398.4 443.2C398.5 443.4 398.5 443.6 398.5 443.9C398.6 445 398.6 446 398.6 447Z" fill="#2C2C2C"/>
<path d="M397 448C396.8 448 396.6 447.9 396.5 447.8C396.3 447.7 396.2 447.6 396.1 447.4C396 447.2 396 447 396 446.7C396 446.4 396 446.1 396 445.8V445.3C396 445.1 396 444.9 396 444.8C396 444.4 396 444.1 396 443.7C396.1 443 396.6 442.9 396.9 442.8H397C397.2 442.8 397.4 442.9 397.5 443C397.7 443.1 397.8 443.3 397.9 443.4C398 443.5 398 443.7 398 443.9V444.1C398 445 398 446 398 446.9C398 447.1 397.9 447.4 397.8 447.6C397.6 447.8 397.4 447.9 397.2 448C397.2 448 397.1 448 397 448Z" fill="#2C2C2C"/>
<path d="M422.199 375.9C421.999 375.6 421.499 375.5 421.199 375.5H413.899C413.099 375.5 412.799 375.8 412.599 376.6C412.199 378.6 411.699 380.6 411.299 382.6L410.899 384.3C410.899 384.4 410.899 384.5 410.799 384.6C410.699 384.7 410.699 384.8 410.599 384.8C410.499 384.9 410.299 384.9 410.199 384.9C409.999 384.9 409.599 384.8 409.599 384.3C409.399 383.7 409.199 383.1 408.999 382.4C408.399 380.5 407.699 378.5 407.099 376.6C406.899 375.9 406.499 375.6 405.799 375.6C403.199 375.6 400.399 375.6 396.699 375.6H368.999C368.899 375.6 368.799 375.6 368.699 375.6C368.599 375.6 368.399 375.7 368.299 375.7C368.199 375.8 368.099 375.9 367.999 376C367.899 376.1 367.899 376.2 367.799 376.3C367.799 376.4 367.799 376.5 367.799 376.7C367.999 377.9 368.299 379.1 368.499 380.3L368.599 380.8C368.799 381.8 368.999 382.7 369.199 383.7C369.499 385.1 369.799 386.5 369.999 387.8C370.199 389.1 370.499 390.3 370.699 391.6C370.999 392.9 371.199 394.3 371.499 395.6C371.899 397.7 372.299 399.8 372.799 401.8C372.999 402.9 373.199 403.9 373.399 405C373.499 405.6 373.599 406 373.299 406.3C372.999 406.6 372.699 406.6 371.999 406.7C371.899 406.7 371.799 406.7 371.599 406.7C371.399 406.7 371.099 406.8 370.999 407C370.799 407.2 370.799 407.4 370.699 407.6C370.699 409.7 370.699 411.8 370.699 413.9C370.699 414.6 371.299 414.9 371.599 414.9C371.799 414.9 371.999 415 372.199 414.9C372.399 414.9 372.599 414.9 372.699 414.9H372.799C372.899 414.9 373.099 414.9 373.199 415C373.299 415 373.399 415.1 373.499 415.2C373.599 415.3 373.699 415.4 373.699 415.6C373.699 415.7 373.799 415.9 373.699 416C373.699 417.5 373.699 418.7 374.099 419.9C374.899 422.2 377.499 424.1 379.799 424.2C381.099 424.2 382.399 424.2 384.099 424.2C384.999 424.2 385.899 424.2 386.799 424.2H387.899C387.999 424.2 388.199 424.2 388.299 424.3C388.399 424.4 388.599 424.4 388.699 424.5C388.799 424.6 388.799 424.7 388.899 424.9C388.899 425 388.899 425.2 388.899 425.3C388.699 426.4 388.499 427.5 388.399 428.5C388.299 429.1 388.199 429.8 388.099 430.4C387.999 431.3 387.799 432.2 387.599 433.1C387.399 434 387.299 434.9 387.099 435.8C386.999 436.5 386.899 437.2 386.799 437.9C386.599 439.1 386.399 440.3 386.199 441.5C385.799 443.6 386.099 445.4 386.899 447.1C388.299 450 390.599 451.7 393.699 452.1C394.199 452.2 394.699 452.2 395.199 452.2C397.499 452.2 399.499 451.4 401.199 449.7C403.499 447.5 404.399 444.6 403.799 441.3C403.599 440.3 403.399 439.2 403.299 438.2C403.199 437.8 403.199 437.4 403.099 437.1C402.999 436.4 402.899 435.7 402.699 435C402.499 433.9 402.299 432.8 402.199 431.7C401.799 429.5 401.499 427.4 401.099 425.4C401.099 425.2 400.999 424.8 401.299 424.5C401.399 424.4 401.499 424.3 401.699 424.3C401.799 424.2 401.999 424.2 402.099 424.2C403.099 424.2 403.999 424.2 404.799 424.2H407.199C407.999 424.2 408.699 424.2 409.499 424.2H409.599C410.999 424.2 412.199 423.9 413.199 423.3C414.999 422.2 416.099 420.6 416.399 418.5C416.499 417.8 416.499 417.1 416.499 416.4C416.499 416.2 416.499 416 416.499 415.9C416.499 415 417.099 414.9 417.399 414.9H417.499C417.599 414.9 417.799 414.9 417.899 414.9C418.099 414.9 418.199 414.9 418.399 414.9C419.099 414.9 419.499 414.5 419.499 413.9C419.499 411.9 419.499 409.8 419.499 407.7C419.499 407.1 419.199 406.7 418.499 406.6C418.299 406.6 418.199 406.6 417.999 406.6C417.899 406.6 417.799 406.6 417.599 406.6H417.499C417.399 406.6 417.299 406.6 417.099 406.5C416.999 406.5 416.899 406.4 416.799 406.3C416.699 406.2 416.699 406.1 416.599 405.9C416.599 405.8 416.599 405.6 416.599 405.5C416.799 404.7 416.899 403.9 417.099 403.2C417.199 402.6 417.299 402 417.499 401.4C417.699 400.4 417.899 399.4 418.099 398.4C418.399 396.8 418.699 395.3 419.099 393.7C419.399 392.1 419.699 390.4 420.099 388.8C420.299 387.6 420.599 386.4 420.799 385.1C420.999 383.9 421.299 382.7 421.499 381.6C421.799 380.1 422.099 378.5 422.399 376.9C422.499 376.6 422.499 376.2 422.199 375.9ZM414.199 416.1C414.199 416.3 414.199 416.5 414.199 416.6C414.199 417.2 414.199 417.9 414.099 418.5C413.699 420.3 411.999 421.9 410.099 422.1C409.599 422.1 409.199 422.2 408.499 422.2H399.899C399.299 422.2 398.899 422.4 398.699 422.9C398.599 423.1 398.599 423.4 398.699 423.6C398.899 425 399.199 426.3 399.399 427.7C399.599 429.1 399.899 430.5 400.099 431.9C400.399 433.5 400.599 435.2 400.899 436.8C400.999 437.6 401.199 438.4 401.299 439.2L401.499 440.2C401.599 440.9 401.699 441.6 401.799 442.3C401.999 443.8 401.699 445.3 400.999 446.6C400.299 447.9 399.099 449 397.699 449.5C396.799 449.9 395.899 450.1 394.999 450.1C393.499 450.1 391.999 449.6 390.899 448.7C389.699 447.8 388.799 446.5 388.399 445.1C388.099 444 388.099 442.9 388.299 441.5C388.499 440.4 388.699 439.2 388.899 438.1C388.999 437.4 389.099 436.7 389.299 435.9C389.399 435.1 389.599 434.3 389.699 433.5C389.899 432.5 389.999 431.5 390.199 430.5C390.399 429.4 390.599 428.2 390.799 427.1L391.099 425.1C391.099 425 391.099 424.8 391.199 424.7C391.299 424.3 391.299 424 391.399 423.6C391.499 423.2 391.499 422.7 391.299 422.4C390.999 422.1 390.499 422 390.199 422H384.299H380.999C380.299 422 379.299 421.9 378.299 421.3C376.899 420.4 376.099 419.1 375.999 417.4C375.999 417.1 375.999 416.8 375.999 416.5C375.999 416.2 375.999 416 375.999 415.7C375.999 415.6 375.999 415.4 375.999 415.3C375.999 415.2 376.099 415.1 376.199 414.9C376.299 414.8 376.399 414.7 376.499 414.7C376.599 414.7 376.799 414.6 376.899 414.6H376.999C377.199 414.6 377.399 414.6 377.699 414.6H378.199H413.099C413.499 414.6 413.799 414.6 413.999 414.8C414.199 415.4 414.199 415.7 414.199 416.1ZM417.299 409.9C417.299 410.1 417.299 410.3 417.299 410.5C417.299 411 417.299 411.5 417.299 411.9C417.299 412 417.299 412.2 417.299 412.3C417.299 412.4 417.199 412.5 417.099 412.6C416.999 412.7 416.899 412.7 416.799 412.8C416.699 412.8 416.599 412.9 416.499 412.9H416.399H373.999C372.999 412.9 372.799 412.7 372.799 411.7C372.799 411.5 372.799 411.3 372.799 411.1C372.799 410.6 372.799 410.1 372.799 409.6C372.799 409.5 372.799 409.3 372.799 409.2C372.799 409.1 372.899 409 372.999 408.9C373.099 408.8 373.199 408.8 373.299 408.7C373.399 408.7 373.499 408.6 373.599 408.6H373.699H416.199C417.099 408.7 417.299 408.9 417.299 409.9ZM419.999 378.5C419.799 379.3 419.699 380 419.499 380.8L419.199 382.4C418.999 383.3 418.899 384.1 418.699 385C418.599 385.6 418.399 386.3 418.299 386.9C418.099 388.1 417.799 389.4 417.599 390.6L417.099 393.1C416.899 394.1 416.699 395 416.499 396C416.299 396.9 416.199 397.7 415.999 398.6L415.599 400.5L414.699 405C414.699 405.1 414.699 405.2 414.599 405.3C414.599 405.4 414.499 405.5 414.499 405.6C414.499 405.7 414.499 405.9 414.399 406C414.299 406.1 414.299 406.3 414.199 406.4C414.099 406.5 413.899 406.6 413.699 406.7C413.499 406.7 413.399 406.8 413.199 406.8C409.499 406.8 405.799 406.8 402.099 406.8H387.899C384.099 406.8 380.299 406.8 376.499 406.8C375.999 406.8 375.499 406.7 375.299 405.8C374.799 403 374.199 400.2 373.599 397.4L373.299 395.9C372.999 394.4 372.699 393 372.399 391.5C372.099 390.1 371.799 388.7 371.599 387.3C371.199 385.2 370.799 383.1 370.399 381L369.999 379C369.999 378.9 369.999 378.9 369.999 378.8C369.899 378.7 369.899 378.5 369.899 378.4C369.899 378.3 369.999 378.1 369.999 378C370.199 377.7 370.699 377.7 370.799 377.7C376.799 377.7 382.799 377.7 388.799 377.7H404.199C404.599 377.7 404.999 377.8 405.299 378.4C406.199 381.2 407.099 384 407.999 386.7L408.499 388.2C408.899 389.3 409.199 390.2 409.499 391C409.599 391.2 409.699 391.4 409.899 391.5C410.099 391.6 410.299 391.7 410.499 391.7H410.599C410.799 391.7 410.999 391.6 411.199 391.5C411.399 391.4 411.499 391.2 411.499 391C411.799 389.5 412.199 388 412.499 386.5L413.199 383.5L413.599 381.7C413.799 380.6 414.099 379.5 414.299 378.4C414.299 378.2 414.399 378 414.599 377.9C414.799 377.8 414.999 377.7 415.199 377.7H417.199H419.299C419.399 377.7 419.499 377.7 419.599 377.8C419.699 377.8 419.799 377.9 419.899 378C419.999 378.1 419.999 378.2 420.099 378.3C419.999 378.3 419.999 378.4 419.999 378.5Z" fill="#2C2C2C"/>
<path d="M414 415.2C413.8 415 413.5 415 413.1 415H378.2H377.6C377.3 415 377.1 415 376.9 415H376.8C376.7 415 376.5 415 376.4 415.1C376.3 415.1 376.2 415.2 376.1 415.3C376 415.4 375.9 415.5 375.9 415.7C375.9 415.8 375.8 416 375.9 416.1C375.9 416.4 375.9 416.6 375.9 416.9C375.9 417.2 375.9 417.5 375.9 417.8C376 419.5 376.8 420.8 378.2 421.7C379.2 422.3 380.2 422.4 380.9 422.4H384.2H390.1C390.5 422.4 391 422.5 391.2 422.8C391.5 423.1 391.4 423.6 391.3 424C391.2 424.4 391.2 424.7 391.1 425.1C391.1 425.2 391.1 425.4 391 425.5L390.7 427.5C390.5 428.6 390.3 429.8 390.1 430.9C389.9 431.9 389.8 432.9 389.6 433.9C389.5 434.7 389.3 435.5 389.2 436.3C389.1 437 389 437.7 388.8 438.5C388.6 439.6 388.4 440.8 388.2 441.9C388 443.3 388 444.4 388.3 445.5C388.7 446.9 389.6 448.2 390.8 449.1C392 450 393.4 450.5 394.9 450.5C395.8 450.5 396.8 450.3 397.6 449.9C399 449.3 400.1 448.3 400.9 447C401.6 445.7 401.9 444.2 401.7 442.7C401.6 442 401.5 441.3 401.4 440.6L401.2 439.6C401.1 438.8 400.9 438 400.8 437.2C400.5 435.6 400.3 433.9 400 432.3C399.8 430.9 399.5 429.5 399.3 428.1C399.1 426.7 398.8 425.4 398.6 424C398.5 423.8 398.5 423.5 398.6 423.3C398.8 422.8 399.2 422.6 399.8 422.6H408.4C409 422.6 409.5 422.6 410 422.5C411.8 422.3 413.6 420.7 414 418.9C414.1 418.3 414.1 417.6 414.1 417C414.1 416.8 414.1 416.6 414.1 416.5C414.2 415.7 414.2 415.4 414 415.2ZM396.6 445C396.6 445.4 396.5 445.7 396.2 446C396 446.3 395.6 446.5 395.3 446.5C395 446.6 394.6 446.5 394.3 446.4C394 446.3 393.8 446 393.6 445.7C393.5 445.4 393.4 445.1 393.4 444.8C393.4 444.3 393.4 443.9 393.4 443.4C393.4 442.8 393.4 442.3 393.4 441.7C393.5 441 394 440.5 394.8 440.3C395.4 440.2 396.1 440.6 396.4 441.2C396.5 441.4 396.5 441.6 396.5 441.9C396.6 443 396.6 444 396.6 445Z" fill="#EAE5E5"/>
<path d="M417.099 412.6C416.999 412.7 416.899 412.7 416.799 412.8C416.699 412.8 416.599 412.9 416.499 412.9H416.399H373.999C372.999 412.9 372.799 412.7 372.799 411.7C372.799 411.5 372.799 411.3 372.799 411.1C372.799 410.6 372.799 410.1 372.799 409.6C372.799 409.5 372.799 409.3 372.799 409.2C372.799 409.1 372.899 409 372.999 408.9C373.099 408.8 373.199 408.8 373.299 408.7C373.399 408.7 373.499 408.6 373.599 408.6H373.699H416.199C417.099 408.6 417.399 408.8 417.399 409.8C417.399 410 417.399 410.2 417.399 410.4C417.399 410.9 417.399 411.4 417.399 411.8C417.399 411.9 417.399 412.1 417.399 412.2C417.199 412.4 417.199 412.5 417.099 412.6Z" fill="#EAE5E5"/>
<path d="M420 378.5C419.8 379.3 419.7 380 419.5 380.8L419.2 382.4C419 383.3 418.9 384.1 418.7 385C418.6 385.6 418.4 386.3 418.3 386.9C418.1 388.1 417.8 389.4 417.6 390.6L417.1 393.1C416.9 394.1 416.7 395 416.5 396C416.3 396.9 416.2 397.7 416 398.6L415.6 400.5L414.7 405C414.7 405.1 414.7 405.2 414.6 405.3C414.6 405.4 414.5 405.5 414.5 405.6C414.5 405.7 414.5 405.9 414.4 406C414.4 406.1 414.3 406.3 414.2 406.4C414.1 406.5 413.9 406.6 413.7 406.7C413.5 406.7 413.4 406.8 413.2 406.8C409.5 406.8 405.8 406.8 402.1 406.8H387.9C384.1 406.8 380.3 406.8 376.5 406.8C376 406.8 375.5 406.7 375.3 405.8C374.8 403 374.2 400.2 373.7 397.4L373.4 395.9C373.1 394.4 372.8 393 372.5 391.5C372.2 390.1 371.9 388.7 371.6 387.3C371.2 385.2 370.8 383.1 370.4 381L370 379C370 378.9 370 378.9 370 378.8C369.9 378.7 369.9 378.5 369.9 378.4C369.9 378.3 370 378.1 370 378C370.2 377.7 370.7 377.7 370.8 377.7C376.8 377.7 382.8 377.7 388.8 377.7H404.2C404.6 377.7 405 377.8 405.3 378.4C406.2 381.2 407.1 384 408 386.7L408.5 388.2C408.9 389.3 409.2 390.2 409.5 391C409.6 391.2 409.7 391.4 409.9 391.5C410.1 391.6 410.3 391.7 410.5 391.7H410.6C410.8 391.7 411 391.6 411.2 391.5C411.4 391.4 411.5 391.2 411.5 391C411.8 389.5 412.2 388 412.5 386.5L413.2 383.5L413.6 381.7C413.8 380.6 414.1 379.5 414.3 378.4C414.3 378.2 414.4 378 414.6 377.9C414.8 377.8 415 377.7 415.2 377.7H417.2H419.3C419.4 377.7 419.5 377.7 419.6 377.8C419.7 377.8 419.8 377.9 419.9 378C420 378.1 420 378.2 420.1 378.3C420 378.3 420 378.4 420 378.5Z" fill="#EAE5E5"/>
<path d="M396.6 445C396.6 445.4 396.5 445.7 396.2 446C396 446.3 395.6 446.5 395.3 446.5C395 446.6 394.6 446.5 394.3 446.4C394 446.2 393.8 446 393.6 445.7C393.5 445.4 393.4 445.1 393.4 444.8C393.4 444.3 393.4 443.9 393.4 443.4C393.4 442.8 393.4 442.3 393.4 441.7C393.5 441 394 440.5 394.8 440.3C395.4 440.2 396.1 440.6 396.4 441.2C396.5 441.4 396.5 441.6 396.5 441.9C396.6 443 396.6 444 396.6 445Z" fill="#2C2C2C"/>
<path d="M395 446C394.8 446 394.6 445.9 394.5 445.8C394.3 445.7 394.2 445.6 394.1 445.4C394 445.2 394 445 394 444.7C394 444.4 394 444.1 394 443.8V443.3C394 443.1 394 442.9 394 442.8C394 442.4 394 442.1 394 441.7C394.1 441 394.6 440.9 394.9 440.8H395C395.2 440.8 395.4 440.9 395.5 441C395.7 441.1 395.8 441.3 395.9 441.4C396 441.5 396 441.7 396 441.9V442.1C396 443 396 444 396 444.9C396 445.1 395.9 445.4 395.8 445.6C395.6 445.8 395.4 445.9 395.2 446C395.2 446 395.1 446 395 446Z" fill="#2C2C2C"/>
<path d="M422.099 87.4999C422.099 87.1999 421.999 86.8999 421.899 86.5999V86.4999C421.799 86.1999 421.799 85.9999 421.699 85.6999L412.299 44.3999L412.099 43.3999L411.099 43.5999L410.399 43.6999L408.399 44.1999L380.199 50.5999L377.999 51.0999H377.899L377.499 51.1999L376.599 51.4999L376.799 52.3999L385.099 89.0999C383.399 88.8999 381.599 89.0999 379.699 89.7999C377.199 90.5999 374.599 92.1999 372.299 94.2999C369.399 96.9999 367.399 100.2 366.499 103.2C365.699 106.2 365.899 109.2 367.799 111.3C369.699 113.4 372.699 113.9 375.699 113.2C378.799 112.6 382.099 110.8 384.999 108.1C387.299 106 388.999 103.6 389.999 101.3C390.999 98.9999 391.499 96.4999 391.099 94.4999C391.099 94.2999 390.999 94.0999 390.899 93.8999C390.799 93.4999 390.699 93.0999 390.699 92.7999L384.099 63.8999L410.299 57.9999L415.899 82.2999C414.199 82.0999 412.299 82.3999 410.399 82.9999C407.899 83.8999 405.299 85.3999 402.999 87.4999C400.099 90.1999 398.099 93.3999 397.299 96.3999C396.499 99.3999 396.699 102.4 398.599 104.4C400.499 106.5 403.499 106.9 406.499 106.3C409.599 105.7 412.899 103.9 415.799 101.2C420.399 97.0999 422.899 91.6999 422.099 87.4999ZM415.299 100.5C409.799 105.7 402.599 107.1 399.499 103.7C396.399 100.3 398.299 93.3999 403.799 88.0999C408.299 83.9999 413.699 82.1999 417.299 83.3999L411.199 56.5999L383.099 62.8999L389.899 92.7999C389.999 93.3999 390.199 93.9999 390.299 94.5999C390.999 98.1999 388.799 103.3 384.499 107.3C378.899 112.5 371.799 114 368.699 110.5C365.599 107.1 367.499 100.1 373.099 94.8999C377.499 90.6999 382.899 88.9999 386.499 90.2999L377.899 51.9999L378.299 51.8999L380.499 51.3999L408.699 44.9999L410.699 44.4999L411.399 44.3999L420.799 85.6999C420.899 86.2999 421.099 86.8999 421.199 87.4999C421.799 91.3999 419.599 96.4999 415.299 100.5Z" fill="#2C2C2C"/>
<path d="M415.3 100.5C409.8 105.7 402.6 107.1 399.5 103.7C396.4 100.3 398.3 93.3999 403.8 88.0999C408.3 83.9999 413.7 82.1999 417.3 83.3999L411.2 56.5999L383.1 62.8999L389.9 92.7999C390 93.3999 390.2 93.9999 390.3 94.5999C391 98.1999 388.8 103.3 384.5 107.3C378.9 112.5 371.8 114 368.7 110.5C365.6 107.1 367.5 100.1 373.1 94.8999C377.5 90.6999 382.9 88.9999 386.5 90.2999L377.9 51.9999L378.3 51.8999L380.5 51.3999L408.7 44.9999L410.7 44.4999L411.4 44.3999L420.8 85.6999C420.9 86.2999 421.1 86.8999 421.2 87.4999C421.8 91.3999 419.6 96.4999 415.3 100.5Z" fill="#2C2C2C"/>
<path fill-rule="evenodd" clip-rule="evenodd" d="M378.199 52.9L406.399 46.5L407.099 49.6L378.899 56L378.199 52.9ZM407.699 52.6L413.799 79.4C410.099 78.2 404.699 80 400.299 84.1C394.799 89.3 392.899 96.2 395.899 99.6C398.999 103 406.099 101.6 411.699 96.4C415.999 92.4 418.199 87.3 417.499 83.6C417.399 83.1 417.299 82.5 417.099 81.8L407.699 40.5L406.999 40.6L404.999 41.1L376.899 47.5L374.699 48L374.299 48.1L382.899 86.4C379.299 85.2 373.899 86.9 369.499 91C363.899 96.2 361.899 103.1 365.099 106.6C368.199 110 375.299 108.6 380.899 103.4C385.299 99.4 387.399 94.3 386.699 90.7C386.599 90.1 386.399 89.5 386.299 88.9L379.499 59L407.699 52.6Z" fill="#EAE5E5"/>
<path d="M379.599 54.8001L405.799 48.8001L405.499 47.7001L379.299 53.7001L379.599 54.8001ZM380.699 59.7001L387.299 88.6001C387.399 89.0001 387.399 89.3001 387.499 89.7001C387.499 89.9001 387.599 90.1001 387.699 90.3001C388.099 92.4001 387.699 94.8001 386.599 97.1001C385.499 99.5001 383.799 101.8 381.599 103.9C378.699 106.6 375.399 108.4 372.299 109C369.199 109.6 366.299 109.1 364.399 107.1C362.499 105 362.299 102 363.099 99.0001C363.999 96.0001 365.999 92.8001 368.899 90.1001C371.199 87.9001 373.799 86.4001 376.299 85.5001C378.199 84.9001 379.999 84.6001 381.699 84.8001L373.399 48.1001L373.199 47.2001L374.099 46.9001L374.499 46.8001L376.699 46.3001L404.899 39.9001L406.899 39.4001L407.599 39.3001L408.599 39.1001L408.799 40.1001L418.199 81.4001C418.299 81.7001 418.299 81.9001 418.399 82.2001V82.3001C418.499 82.6001 418.499 82.9001 418.599 83.2001C419.399 87.4001 416.999 92.8001 412.499 96.9001C409.599 99.6001 406.299 101.4 403.199 102C400.099 102.6 397.199 102.1 395.299 100.1C393.399 98.0001 393.199 95.1001 393.999 92.1001C394.799 89.1001 396.799 85.9001 399.699 83.2001C401.999 81.1001 404.599 79.5001 407.099 78.7001C408.999 78.1001 410.899 77.8001 412.599 78.0001L406.999 53.7001L380.699 59.7001Z" stroke="#2C2C2C" stroke-width="2"/>
</g>
<defs>
<linearGradient id="paint0_linear_16679_483" x1="583.86" y1="244.068" x2="733.663" y2="244.068" gradientUnits="userSpaceOnUse">
<stop stop-color="#E4CDD9"/>
<stop offset="0.1992" stop-color="#E4CDD9" stop-opacity="0"/>
</linearGradient>
<linearGradient id="paint1_linear_16679_483" x1="390.851" y1="242.282" x2="341.851" y2="243.282" gradientUnits="userSpaceOnUse">
<stop stop-color="#E4CDD9"/>
<stop offset="1" stop-color="#E4CDD9" stop-opacity="0"/>
</linearGradient>
<linearGradient id="paint2_linear_16679_483" x1="495.171" y1="412.377" x2="620.671" y2="416.377" gradientUnits="userSpaceOnUse">
<stop stop-color="#E4CDD9"/>
<stop offset="1" stop-color="#E4CDD9" stop-opacity="0"/>
</linearGradient>
<linearGradient id="paint3_linear_16679_483" x1="458.558" y1="374.227" x2="340.058" y2="450.226" gradientUnits="userSpaceOnUse">
<stop stop-color="#E4CDD9"/>
<stop offset="1" stop-color="#E4CDD9" stop-opacity="0"/>
</linearGradient>
<linearGradient id="paint4_linear_16679_483" x1="498.169" y1="107.381" x2="581.169" y2="67.3808" gradientUnits="userSpaceOnUse">
<stop stop-color="#E4CDD9"/>
<stop offset="1" stop-color="#E4CDD9" stop-opacity="0"/>
</linearGradient>
<linearGradient id="paint5_linear_16679_483" x1="395.051" y1="-0.5" x2="395.051" y2="149.304" gradientUnits="userSpaceOnUse">
<stop offset="0.115" stop-color="#E4CDD9" stop-opacity="0"/>
<stop offset="1" stop-color="#E4CDD9"/>
</linearGradient>
<linearGradient id="paint6_linear_16679_483" x1="395.051" y1="149.304" x2="395.051" y2="-0.499701" gradientUnits="userSpaceOnUse">
<stop stop-color="#E4CDD9"/>
<stop offset="1" stop-color="#F1D1E5"/>
</linearGradient>
<linearGradient id="paint7_linear_16679_483" x1="738.148" y1="149.304" x2="738.148" y2="-0.499701" gradientUnits="userSpaceOnUse">
<stop stop-color="#C3C3C3"/>
<stop offset="1" stop-color="#C3C3C3" stop-opacity="0"/>
</linearGradient>
<clipPath id="clip0_16679_483">
<rect width="665" height="491" fill="white"/>
</clipPath>
</defs>
</svg>
