<svg width="212" height="149" viewBox="0 0 212 149" fill="none" xmlns="http://www.w3.org/2000/svg">
<g clip-path="url(#clip0_16453_210)">
<path d="M121.809 127.588C119.658 127.797 108.59 128.88 101.773 129.54L86.9662 130.951V147.084C86.9662 147.6 86.6634 148.077 86.1979 148.291C86.0212 148.373 85.8333 148.412 85.6455 148.412C85.3342 148.412 85.0285 148.302 84.7846 148.094L66.257 132.124C65.9737 131.879 65.8055 131.523 65.7943 131.148C65.7522 129.515 64.709 89.2338 64.6978 88.8248C64.6782 88.1308 65.2026 87.5328 65.8924 87.4651L120.41 82.108C120.774 82.0713 121.139 82.1926 121.414 82.4352C121.688 82.6778 121.851 83.0305 121.859 83.3972C121.91 85.4311 122.74 116.527 122.995 126.011L123.001 126.228C123.02 126.925 122.496 127.523 121.809 127.588Z" fill="#2C2C2C"/>
<path d="M118.303 122.13L118.298 121.912C118.045 112.431 117.215 81.3325 117.162 79.2986C117.154 78.9318 116.991 78.5792 116.716 78.3366C116.441 78.094 116.077 77.9727 115.712 78.0094L61.1951 83.3664C60.5053 83.4313 59.9809 84.0294 60.0005 84.7233C60.0118 85.1295 61.0549 125.413 61.097 127.047C61.1054 127.422 61.2737 127.777 61.5597 128.023L80.0873 143.992C80.3313 144.204 80.6397 144.311 80.9482 144.311C81.1361 144.311 81.324 144.271 81.5006 144.19C81.9689 143.972 82.269 143.499 82.269 142.982V126.849L97.0754 125.439C103.892 124.778 114.961 123.698 117.112 123.486C117.799 123.422 118.323 122.824 118.303 122.13ZM96.8594 123.156L81.1753 124.652C80.4799 124.716 79.9527 125.32 79.9779 126.025C79.9863 126.293 79.9891 126.446 79.9891 126.499V126.513V140.892L63.3656 126.559C63.2563 122.321 62.4514 91.268 62.3028 85.5611L114.91 80.3903C115.062 86.1282 115.749 111.932 116.001 121.292C112.588 121.625 102.998 122.561 96.8594 123.156Z" fill="#2C2C2C"/>
<path d="M116.001 121.292C112.588 121.625 102.998 122.562 96.8594 123.157L81.1753 124.652C80.4798 124.717 79.9526 125.32 79.9778 126.026C79.9863 126.294 79.9891 126.446 79.9891 126.5V126.514V140.892L63.3655 126.559C63.2562 122.322 62.4514 91.2683 62.3027 85.5615L114.91 80.3906C115.062 86.1285 115.751 111.932 116.001 121.292Z" fill="white"/>
</g>
<g clip-path="url(#clip1_16453_210)">
<path d="M197.997 112.551C196.188 112.726 186.877 113.633 181.142 114.187L168.685 115.368V128.887C168.685 129.319 168.431 129.719 168.039 129.899C167.89 129.967 167.732 130 167.574 130C167.312 130 167.055 129.908 166.85 129.733L151.263 116.352C151.025 116.146 150.883 115.848 150.874 115.534C150.839 114.165 149.961 80.4128 149.952 80.0701C149.935 79.4886 150.376 78.9875 150.957 78.9307L196.82 74.4419C197.127 74.4112 197.434 74.5128 197.665 74.7161C197.896 74.9194 198.033 75.2149 198.04 75.5222C198.082 77.2265 198.781 103.282 198.995 111.229L199 111.411C199.017 111.995 198.575 112.496 197.997 112.551Z" fill="#2C2C2C"/>
<path d="M195.049 107.977L195.044 107.795C194.832 99.8502 194.134 73.7919 194.089 72.0876C194.082 71.7803 193.945 71.4848 193.714 71.2816C193.482 71.0783 193.176 70.9766 192.869 71.0074L147.005 75.4962C146.425 75.5505 145.984 76.0517 146 76.6332C146.01 76.9735 146.887 110.728 146.923 112.097C146.93 112.411 147.071 112.709 147.312 112.915L162.899 126.296C163.104 126.474 163.364 126.563 163.623 126.563C163.781 126.563 163.939 126.53 164.088 126.462C164.482 126.28 164.734 125.883 164.734 125.45V111.932L177.19 110.75C182.925 110.196 192.237 109.291 194.046 109.114C194.624 109.06 195.065 108.558 195.049 107.977ZM177.009 108.837L163.814 110.09C163.229 110.144 162.786 110.65 162.807 111.241C162.814 111.466 162.816 111.593 162.816 111.638V111.65V123.698L148.831 111.688C148.739 108.138 148.062 82.1171 147.937 77.3352L192.194 73.0024C192.322 77.8103 192.9 99.4318 193.112 107.275C190.241 107.554 182.173 108.339 177.009 108.837Z" fill="#2C2C2C"/>
<path d="M193.112 107.274C190.241 107.553 182.173 108.338 177.009 108.837L163.814 110.09C163.229 110.144 162.786 110.65 162.807 111.241C162.814 111.465 162.816 111.593 162.816 111.638V111.65V123.698L148.832 111.688C148.74 108.137 148.063 82.1167 147.938 77.3348L192.195 73.002C192.322 77.8099 192.902 99.4314 193.112 107.274Z" fill="white"/>
</g>
<g clip-path="url(#clip2_16453_210)">
<path d="M155.809 49.5879C153.658 49.7967 142.59 50.8799 135.773 51.54L120.966 52.9505V69.0837C120.966 69.6 120.663 70.0767 120.198 70.2911C120.021 70.3729 119.833 70.4124 119.645 70.4124C119.334 70.4124 119.029 70.3024 118.785 70.0936L100.257 54.1241C99.9737 53.8786 99.8055 53.5232 99.7943 53.148C99.7522 51.5146 98.709 11.2338 98.6978 10.8248C98.6782 10.1308 99.2026 9.53276 99.8924 9.46505L154.41 4.10801C154.774 4.07133 155.139 4.19264 155.414 4.43524C155.688 4.67784 155.851 5.03047 155.859 5.3972C155.91 7.43113 156.74 38.5268 156.995 48.011L157.001 48.2282C157.02 48.925 156.496 49.523 155.809 49.5879Z" fill="#2C2C2C"/>
<path d="M152.303 44.1296L152.298 43.9124C152.045 34.431 151.215 3.33249 151.162 1.29856C151.154 0.931835 150.991 0.579212 150.716 0.336607C150.441 0.0940027 150.077 -0.0272996 149.712 0.00937322L95.1951 5.36642C94.5053 5.43131 93.9809 6.02935 94.0005 6.72332C94.0118 7.12954 95.0549 47.4132 95.097 49.0465C95.1054 49.4217 95.2737 49.7772 95.5597 50.0226L114.087 65.9922C114.331 66.2038 114.64 66.311 114.948 66.311C115.136 66.311 115.324 66.2715 115.501 66.1897C115.969 65.9725 116.269 65.4985 116.269 64.9823V48.8491L131.075 47.4386C137.892 46.7785 148.961 45.698 151.112 45.4865C151.799 45.4216 152.323 44.8235 152.303 44.1296ZM130.859 45.1564L115.175 46.6515C114.48 46.7164 113.953 47.3201 113.978 48.0254C113.986 48.2933 113.989 48.4457 113.989 48.4993V48.5134V62.8919L97.3656 48.5585C97.2563 44.3214 96.4514 13.268 96.3028 7.56115L148.91 2.39028C149.062 8.12817 149.749 33.9317 150.001 43.2917C146.588 43.6246 136.998 44.5612 130.859 45.1564Z" fill="#2C2C2C"/>
<path d="M150.001 43.2921C146.588 43.625 136.998 44.5615 130.859 45.1567L115.175 46.6519C114.48 46.7168 113.953 47.3204 113.978 48.0257C113.986 48.2937 113.989 48.446 113.989 48.4996V48.5137V62.8923L97.3655 48.5589C97.2562 44.3217 96.4514 13.2683 96.3027 7.56149L148.91 2.39062C149.062 8.12851 149.751 33.9321 150.001 43.2921Z" fill="white"/>
</g>
<g clip-path="url(#clip3_16453_210)">
<path d="M74.2438 56.4847C72.8782 56.6173 65.8506 57.305 61.5223 57.7242L52.1215 58.6197V68.863C52.1215 69.1908 51.9292 69.4935 51.6336 69.6296C51.5214 69.6815 51.4022 69.7066 51.2829 69.7066C51.0852 69.7066 50.8912 69.6368 50.7363 69.5042L38.9727 59.3648C38.7929 59.209 38.686 58.9833 38.6789 58.7451C38.6522 57.708 37.9899 32.1329 37.9828 31.8732C37.9703 31.4326 38.3032 31.0529 38.7412 31.0099L73.3553 27.6086C73.5868 27.5853 73.8182 27.6623 73.9927 27.8164C74.1672 27.9704 74.2705 28.1943 74.2758 28.4271C74.3079 29.7185 74.8349 49.4618 74.9969 55.4835L75.0005 55.6214C75.0129 56.0638 74.68 56.4435 74.2438 56.4847Z" fill="#2C2C2C"/>
<path d="M72.0181 53.0179L72.0145 52.88C71.8542 46.8601 71.3272 27.115 71.2934 25.8236C71.2881 25.5908 71.1848 25.3669 71.0103 25.2128C70.8358 25.0588 70.6044 24.9818 70.3729 25.0051L35.7588 28.4064C35.3208 28.4476 34.9879 28.8273 35.0003 29.2679C35.0075 29.5258 35.6698 55.1027 35.6965 56.1398C35.7018 56.378 35.8087 56.6037 35.9903 56.7595L47.7538 66.8989C47.9087 67.0333 48.1046 67.1013 48.3004 67.1013C48.4197 67.1013 48.539 67.0762 48.6512 67.0243C48.9485 66.8864 49.139 66.5855 49.139 66.2577V56.0144L58.5399 55.1189C62.8682 54.6997 69.8957 54.0137 71.2614 53.8794C71.6976 53.8382 72.0305 53.4585 72.0181 53.0179ZM58.4028 53.6698L48.4447 54.6191C48.0031 54.6603 47.6684 55.0436 47.6844 55.4914C47.6897 55.6616 47.6915 55.7583 47.6915 55.7923V55.8013V64.9305L37.1369 55.8299C37.0675 53.1397 36.5565 33.4232 36.4621 29.7998L69.8637 26.5168C69.9598 30.1599 70.396 46.5431 70.5563 52.4859C68.3895 52.6973 62.3003 53.2919 58.4028 53.6698Z" fill="#2C2C2C"/>
<path d="M70.5571 52.4858C68.3902 52.6971 62.301 53.2918 58.4036 53.6697L48.4454 54.619C48.0039 54.6602 47.6692 55.0435 47.6852 55.4912C47.6905 55.6614 47.6923 55.7581 47.6923 55.7922V55.8011V64.9303L37.1377 55.8298C37.0682 53.1395 36.5573 33.4231 36.4629 29.7997L69.8645 26.5166C69.9606 30.1597 70.3986 46.5429 70.5571 52.4858Z" fill="white"/>
</g>
<g clip-path="url(#clip4_16453_210)">
<path d="M211.244 42.4847C209.878 42.6173 202.851 43.305 198.522 43.7242L189.121 44.6197V54.863C189.121 55.1908 188.929 55.4935 188.634 55.6296C188.521 55.6815 188.402 55.7066 188.283 55.7066C188.085 55.7066 187.891 55.6368 187.736 55.5042L175.973 45.3648C175.793 45.209 175.686 44.9833 175.679 44.7451C175.652 43.708 174.99 18.1329 174.983 17.8732C174.97 17.4326 175.303 17.0529 175.741 17.0099L210.355 13.6086C210.587 13.5853 210.818 13.6623 210.993 13.8164C211.167 13.9704 211.27 14.1943 211.276 14.4271C211.308 15.7185 211.835 35.4618 211.997 41.4835L212 41.6214C212.013 42.0638 211.68 42.4435 211.244 42.4847Z" fill="#2C2C2C"/>
<path d="M209.018 39.0179L209.014 38.88C208.854 32.8601 208.327 13.115 208.293 11.8236C208.288 11.5908 208.185 11.3669 208.01 11.2128C207.836 11.0588 207.604 10.9818 207.373 11.0051L172.759 14.4064C172.321 14.4476 171.988 14.8273 172 15.2679C172.007 15.5258 172.67 41.1027 172.697 42.1398C172.702 42.378 172.809 42.6037 172.99 42.7595L184.754 52.8989C184.909 53.0333 185.105 53.1013 185.3 53.1013C185.42 53.1013 185.539 53.0762 185.651 53.0243C185.949 52.8864 186.139 52.5855 186.139 52.2577V42.0144L195.54 41.1189C199.868 40.6997 206.896 40.0137 208.261 39.8794C208.698 39.8382 209.031 39.4585 209.018 39.0179ZM195.403 39.6698L185.445 40.6191C185.003 40.6603 184.668 41.0436 184.684 41.4914C184.69 41.6616 184.692 41.7583 184.692 41.7923V41.8013V50.9305L174.137 41.8299C174.067 39.1397 173.556 19.4232 173.462 15.7998L206.864 12.5168C206.96 16.1599 207.396 32.5431 207.556 38.4859C205.389 38.6973 199.3 39.2919 195.403 39.6698Z" fill="#2C2C2C"/>
<path d="M207.557 38.4858C205.39 38.6971 199.301 39.2918 195.404 39.6697L185.445 40.619C185.004 40.6602 184.669 41.0435 184.685 41.4912C184.691 41.6614 184.692 41.7581 184.692 41.7922V41.8011V50.9303L174.138 41.8298C174.068 39.1395 173.557 19.4231 173.463 15.7997L206.864 12.5166C206.961 16.1597 207.399 32.5429 207.557 38.4858Z" fill="white"/>
</g>
<path d="M11.9995 99.0026L43.0463 96.1902" stroke="#2C2C2C" stroke-width="3" stroke-linecap="round"/>
<path d="M11.9995 125.003L43.0463 122.19" stroke="#2C2C2C" stroke-width="3" stroke-linecap="round"/>
<path d="M20.9995 112.003L52.0463 109.19" stroke="#2C2C2C" stroke-width="3" stroke-linecap="round"/>
<path d="M1.99962 41.9398L21.1641 40.2038" stroke="#2C2C2C" stroke-width="2.2" stroke-linecap="round"/>
<path d="M1.99962 57.9887L21.1641 56.2526" stroke="#2C2C2C" stroke-width="2.2" stroke-linecap="round"/>
<path d="M7.55626 49.9643L26.7207 48.2282" stroke="#2C2C2C" stroke-width="2.2" stroke-linecap="round"/>
<defs>
<clipPath id="clip0_16453_210">
<rect width="63" height="70.4118" fill="white" transform="translate(60 78)"/>
</clipPath>
<clipPath id="clip1_16453_210">
<rect width="53" height="59" fill="white" transform="translate(146 71)"/>
</clipPath>
<clipPath id="clip2_16453_210">
<rect width="63" height="70.4118" fill="white" transform="translate(94)"/>
</clipPath>
<clipPath id="clip3_16453_210">
<rect width="40" height="44.7059" fill="white" transform="translate(35 25)"/>
</clipPath>
<clipPath id="clip4_16453_210">
<rect width="40" height="44.7059" fill="white" transform="translate(172 11)"/>
</clipPath>
</defs>
</svg>
