<svg width="66" height="74" viewBox="0 0 66 74" fill="none" xmlns="http://www.w3.org/2000/svg">
<g clip-path="url(#clip0_16432_2575)">
<path d="M64.7512 52.1144C62.4979 52.3338 50.9025 53.4723 43.7608 54.166L28.2493 55.6484V72.6038C28.2493 73.1463 27.9321 73.6474 27.4444 73.8727C27.2593 73.9586 27.0625 74.0002 26.8656 74.0002C26.5395 74.0002 26.2193 73.8845 25.9637 73.6651L6.55388 56.8817C6.25717 56.6238 6.0809 56.2502 6.06915 55.8559C6.02508 54.1393 4.93223 11.8058 4.92048 11.3759C4.89992 10.6466 5.44928 10.018 6.17197 9.94688L63.2852 4.31683C63.6671 4.27829 64.049 4.40577 64.3369 4.66074C64.6248 4.91571 64.7952 5.2863 64.804 5.67172C64.8569 7.8093 65.7265 40.4897 65.9938 50.4571L65.9997 50.6854C66.0203 51.4177 65.4709 52.0462 64.7512 52.1144Z" fill="#2C2C2C"/>
<path d="M61.0798 46.3778L61.0739 46.1495C60.8095 36.185 59.9399 3.50168 59.8841 1.3641C59.8753 0.978684 59.7049 0.608092 59.417 0.353124C59.1291 0.0981556 58.7472 -0.0293284 58.3653 0.00921331L1.25205 5.63926C0.529358 5.70745 -0.0200055 6.33598 0.000558862 7.0653C0.01231 7.49223 1.10516 49.8288 1.14923 51.5454C1.15804 51.9397 1.33431 52.3132 1.63396 52.5712L21.0438 69.3546C21.2994 69.5769 21.6226 69.6896 21.9457 69.6896C22.1426 69.6896 22.3394 69.6481 22.5245 69.5621C23.0151 69.3338 23.3294 68.8357 23.3294 68.2932V51.3378L38.8408 49.8554C45.9826 49.1617 57.578 48.0262 59.8312 47.8038C60.551 47.7357 61.1004 47.1071 61.0798 46.3778ZM38.6146 47.457L22.1837 49.0283C21.4551 49.0965 20.9028 49.7309 20.9293 50.4721C20.9381 50.7538 20.941 50.9139 20.941 50.9702V50.985V66.0963L3.52589 51.0325C3.41131 46.5794 2.56817 13.9435 2.41247 7.94583L57.5251 2.51146C57.6837 8.54175 58.4035 35.6603 58.6679 45.4973C55.0926 45.8471 45.0454 46.8314 38.6146 47.457Z" fill="#2C2C2C"/>
<path d="M58.6675 45.4971C55.0922 45.8469 45.0451 46.8312 38.6143 47.4567L22.1833 49.0281C21.4548 49.0962 20.9025 49.7307 20.9289 50.4719C20.9377 50.7535 20.9406 50.9136 20.9406 50.97V50.9848V66.0961L3.52553 51.0322C3.41095 46.5792 2.56781 13.9433 2.41211 7.94561L57.5247 2.51123C57.6834 8.54152 58.4061 35.66 58.6675 45.4971Z" fill="#EAE5E5"/>
</g>
<defs>
<clipPath id="clip0_16432_2575">
<rect width="66" height="74" fill="white"/>
</clipPath>
</defs>
</svg>
