<svg width="114" height="122" viewBox="0 0 114 122" fill="none" xmlns="http://www.w3.org/2000/svg">
<path d="M111.56 89.4668C108.2 89.7929 90.9084 91.4852 80.2585 92.5165L57.1274 94.72V119.924C57.1274 120.73 56.6542 121.475 55.927 121.81C55.651 121.938 55.3575 122 55.064 122C54.5777 122 54.1002 121.828 53.719 121.502L24.7745 96.5533C24.332 96.1699 24.0692 95.6146 24.0517 95.0285C23.9859 92.4768 22.3562 29.5485 22.3387 28.9095C22.3081 27.8254 23.1273 26.8911 24.205 26.7853L109.374 18.4163C109.943 18.359 110.513 18.5485 110.942 18.9275C111.372 19.3065 111.626 19.8574 111.639 20.4303C111.718 23.6078 113.014 72.1867 113.413 87.0033L113.422 87.3426C113.452 88.4311 112.633 89.3654 111.56 89.4668Z" fill="#2C2C2C"/>
<path d="M106.084 80.9393L106.075 80.5999C105.681 65.7878 104.384 17.2045 104.301 14.027C104.288 13.4541 104.034 12.9032 103.604 12.5242C103.175 12.1452 102.605 11.9557 102.036 12.013L16.8671 20.382C15.7894 20.4833 14.9702 21.4176 15.0008 22.5018C15.0184 23.1364 16.648 86.0691 16.7138 88.6208C16.7269 89.2069 16.9898 89.7622 17.4366 90.1456L46.3811 115.094C46.7623 115.424 47.2442 115.592 47.7261 115.592C48.0196 115.592 48.3131 115.53 48.5891 115.402C49.3207 115.063 49.7895 114.323 49.7895 113.516V88.3123L72.9206 86.1088C83.5705 85.0775 100.862 83.3896 104.222 83.0591C105.295 82.9577 106.115 82.0234 106.084 80.9393ZM72.5832 82.5434L48.0809 84.8792C46.9945 84.9806 46.1709 85.9237 46.2103 87.0254C46.2234 87.4441 46.2278 87.6821 46.2278 87.7658V87.7878V110.251L20.2579 87.8584C20.087 81.239 18.8297 32.7261 18.5975 23.8107L100.783 15.7325C101.02 24.6965 102.093 65.0078 102.487 79.6304C97.1556 80.1504 82.173 81.6136 72.5832 82.5434Z" fill="#2C2C2C"/>
<path d="M102.485 79.6303C97.1538 80.1503 82.1712 81.6134 72.5814 82.5433L48.0791 84.8791C46.9926 84.9804 46.169 85.9235 46.2084 87.0253C46.2216 87.444 46.226 87.6819 46.226 87.7657V87.7877V110.25L20.2561 87.8582C20.0852 81.2388 18.8279 32.726 18.5957 23.8105L100.781 15.7324C101.018 24.6964 102.095 65.0077 102.485 79.6303Z" fill="white"/>
<circle cx="28" cy="28" r="28" fill="#2C2C2C"/>
<g clip-path="url(#clip0_16641_10954)">
<path d="M44.0007 20.9887C43.9536 21.6463 43.6651 22.261 43.1934 22.7087C38.1891 27.8629 33.1761 33.014 28.1544 38.1622C27.0415 39.2955 25.9723 39.2552 24.8289 38.104C21.8001 35.0133 18.7859 31.9077 15.7863 28.7871C14.7738 27.7345 14.752 26.5475 15.6466 25.6516C16.5413 24.7557 17.6673 24.8185 18.7016 25.88C21.067 28.2809 23.428 30.6953 25.741 33.1499C26.3345 33.777 26.6662 33.7681 27.2641 33.1499C31.4886 28.7647 35.7524 24.4198 39.9988 20.057C40.7232 19.3179 41.4651 18.7535 42.5824 19.1611C43.5207 19.4433 43.8218 20.1914 44.0007 20.9887Z" fill="#EDEDEF"/>
</g>
<defs>
<clipPath id="clip0_16641_10954">
<rect width="29" height="20" fill="white" transform="translate(15 19)"/>
</clipPath>
</defs>
</svg>
