<svg width="154" height="110" viewBox="0 0 154 110" fill="none" xmlns="http://www.w3.org/2000/svg">
<g clip-path="url(#clip0_16453_167)">
<path d="M151.56 77.4668C148.2 77.7929 130.908 79.4852 120.258 80.5165L97.1274 82.72V107.924C97.1274 108.73 96.6542 109.475 95.927 109.81C95.651 109.938 95.3575 110 95.064 110C94.5777 110 94.1002 109.828 93.719 109.502L64.7745 84.5533C64.332 84.1699 64.0692 83.6146 64.0517 83.0285C63.9859 80.4768 62.3562 17.5485 62.3387 16.9095C62.3081 15.8254 63.1273 14.8911 64.205 14.7853L149.374 6.41632C149.943 6.35902 150.513 6.54853 150.942 6.92753C151.372 7.30654 151.626 7.85742 151.639 8.43034C151.718 11.6078 153.014 60.1867 153.413 75.0033L153.422 75.3426C153.452 76.4311 152.633 77.3654 151.56 77.4668Z" fill="#2C2C2C"/>
<path d="M146.082 68.9393L146.073 68.5999C145.679 53.7878 144.382 5.2045 144.299 2.02702C144.286 1.4541 144.032 0.90322 143.602 0.524214C143.173 0.145208 142.604 -0.0442956 142.034 0.012996L56.8651 8.38199C55.7874 8.48335 54.9682 9.41764 54.9989 10.5018C55.0164 11.1364 56.6461 74.0691 56.7118 76.6208C56.725 77.2069 56.9878 77.7622 57.4347 78.1456L86.3792 103.094C86.7603 103.424 87.2422 103.592 87.7241 103.592C88.0176 103.592 88.3112 103.53 88.5872 103.402C89.3188 103.063 89.7875 102.323 89.7875 101.516V76.3123L112.919 74.1088C123.569 73.0775 140.86 71.3896 144.22 71.0591C145.293 70.9577 146.113 70.0234 146.082 68.9393ZM112.581 70.5434L88.079 72.8792C86.9925 72.9806 86.1689 73.9237 86.2083 75.0254C86.2215 75.4441 86.2259 75.6821 86.2259 75.7658V75.7878V98.2506L60.2559 75.8584C60.0851 69.239 58.8278 20.7261 58.5956 11.8107L140.781 3.73255C141.018 12.6965 142.091 53.0078 142.485 67.6304C137.154 68.1504 122.171 69.6136 112.581 70.5434Z" fill="#2C2C2C"/>
<path d="M142.485 67.6303C137.154 68.1503 122.171 69.6134 112.581 70.5433L88.0791 72.8791C86.9926 72.9804 86.169 73.9235 86.2084 75.0253C86.2216 75.444 86.226 75.6819 86.226 75.7657V75.7877V98.2505L60.2561 75.8582C60.0852 69.2388 58.8279 20.726 58.5957 11.8105L140.781 3.73242C141.018 12.6964 142.095 53.0077 142.485 67.6303Z" fill="white"/>
</g>
<path d="M11.1812 29.0026L42.228 26.1902" stroke="#2C2C2C" stroke-width="4" stroke-linecap="round"/>
<path d="M2.99952 42.0026L34.0463 39.1902" stroke="#2C2C2C" stroke-width="4" stroke-linecap="round"/>
<path d="M5.33741 66.0026L36.3842 63.1902" stroke="#2C2C2C" stroke-width="4" stroke-linecap="round"/>
<path d="M13.519 53.0026L44.5659 50.1902" stroke="#2C2C2C" stroke-width="4" stroke-linecap="round"/>
<defs>
<clipPath id="clip0_16453_167">
<rect width="98.4211" height="110" fill="white" transform="translate(55)"/>
</clipPath>
</defs>
</svg>
