<svg width="54" height="71" viewBox="0 0 54 71" fill="none" xmlns="http://www.w3.org/2000/svg">
<path d="M46.604 31.2827V67.1739L16.1348 54.9774" fill="#2C2C2C"/>
<path d="M8.04492 50.8203L15.441 70.0336L22.7039 56.9273" fill="#2C2C2C"/>
<path d="M37.7724 15.3413L46.4708 16.3322L47.4214 24.2642L46.7417 30.8734L34.3928 49.6024L15.0709 52.9518L7.73192 46.3426L6.10156 43.038L37.7724 15.3413Z" fill="#EAE5E5"/>
<path d="M7.27023 46.3833L4 44.6436C4 44.6436 8.79125 44.6436 9.35689 37.2004C9.92252 29.7572 9.63733 -0.284577 29.9289 1.04264C29.9289 1.04264 46.3371 1.6704 47.2687 13.1087" fill="#EAE5E5"/>
<path d="M7.27023 46.3833L4 44.6436C4 44.6436 8.79125 44.6436 9.35689 37.2004C9.92252 29.7572 9.63733 -0.284577 29.9289 1.04264C29.9289 1.04264 46.3371 1.6704 47.2687 13.1087" stroke="#2C2C2C" stroke-width="1.83685" stroke-miterlimit="10"/>
<path d="M46.9134 28.542L46.5949 62.3547L20.8086 51.6338" fill="#EAE5E5"/>
<path d="M46.9134 28.542L46.5949 62.3547L20.8086 51.6338" stroke="#2C2C2C" stroke-width="1.83685" stroke-miterlimit="10"/>
<path d="M28.7366 20.5876C31.8972 20.5876 34.4595 18.1706 34.4595 15.1891C34.4595 12.2075 31.8972 9.79053 28.7366 9.79053C25.5759 9.79053 23.0137 12.2075 23.0137 15.1891C23.0137 18.1706 25.5759 20.5876 28.7366 20.5876Z" stroke="#2C2C2C" stroke-width="1.37763" stroke-miterlimit="10"/>
<path d="M28.7735 17.8387C30.3354 17.8387 31.6017 16.6443 31.6017 15.1708C31.6017 13.6974 30.3354 12.5029 28.7735 12.5029C27.2115 12.5029 25.9453 13.6974 25.9453 15.1708C25.9453 16.6443 27.2115 17.8387 28.7735 17.8387Z" fill="#2C2C2C"/>
<path d="M42.1101 24.1481C42.1101 24.1481 44.6816 18.0904 49.9767 18.4671C49.9767 18.4671 52.0634 14.3061 48.1325 13.6245C48.1325 13.6245 39.5434 14.9114 39.1441 21.1932C39.1441 21.2022 38.9777 24.2198 42.1101 24.1481Z" fill="#EAE5E5" stroke="#2C2C2C" stroke-width="1.83685" stroke-miterlimit="10"/>
<path d="M51.4467 32.057C51.4467 32.057 53.9421 23.0893 49.9779 18.4665C49.9779 18.4665 44.6876 18.0764 42.1113 24.1475L51.4467 32.057Z" fill="#EAE5E5" stroke="#2C2C2C" stroke-width="1.83685" stroke-miterlimit="10"/>
<path d="M9.50977 32.7926C9.50977 32.7926 15.4988 35.0345 16.7299 31.0483" stroke="#2C2C2C" stroke-width="1.83685" stroke-miterlimit="10"/>
<path d="M22.9849 31.7437C22.9849 31.7437 19.862 37.0256 15.8027 32.6404" stroke="#2C2C2C" stroke-width="1.83685" stroke-miterlimit="10"/>
<path d="M24.9941 40.0694C24.9941 40.0694 29.6048 45.3469 31.3872 39.2578" stroke="#2C2C2C" stroke-width="1.83685" stroke-miterlimit="10"/>
<path d="M34.3453 43.4326C34.3453 43.4326 31.674 46.374 29.459 42.0874" stroke="#2C2C2C" stroke-width="1.83685" stroke-miterlimit="10"/>
<path d="M6.83789 45.9077L14.1959 64.9685L21.4208 51.9654" fill="#EAE5E5"/>
<path d="M6.83789 45.9077L14.1959 64.9685L21.4208 51.9654" stroke="#2C2C2C" stroke-width="1.83685" stroke-miterlimit="10"/>
</svg>
