<svg width="579" height="406" viewBox="0 0 579 406" fill="none" xmlns="http://www.w3.org/2000/svg">
<g filter="url(#filter0_d_16641_10647)">
<path d="M373.3 203.767C373.3 249.901 335.9 287.301 289.766 287.301C243.632 287.301 206.232 249.901 206.232 203.767C206.232 157.633 243.632 120.233 289.766 120.233C335.9 120.233 373.3 157.633 373.3 203.767Z" fill="url(#paint0_linear_16641_10647)" shape-rendering="crispEdges"/>
<path d="M372.861 203.767C372.861 249.659 335.658 286.861 289.766 286.861C243.874 286.861 206.672 249.659 206.672 203.767C206.672 157.875 243.874 120.673 289.766 120.673C335.658 120.673 372.861 157.875 372.861 203.767Z" stroke="#C3C3C3" stroke-width="0.87846" shape-rendering="crispEdges"/>
</g>
<circle cx="289.77" cy="203.77" r="136.642" stroke="url(#paint1_linear_16641_10647)" stroke-width="0.87846"/>
<circle cx="289.342" cy="203.342" r="191.902" stroke="url(#paint2_linear_16641_10647)" stroke-width="0.87846"/>
<g style="mix-blend-mode:overlay">
<path fill-rule="evenodd" clip-rule="evenodd" d="M316.116 226.674C314.798 221.054 310.847 215.262 307.718 210.501C306.645 208.864 306.295 208.187 306.17 207.962C308.637 201.644 310.468 197.006 310.26 189.894C309.687 170.769 299.304 175.222 296.604 190.225C294.536 201.74 297.45 207.297 301.797 213.83L297.845 224.036C294.325 222.862 290.689 223.216 287.001 225.778C282.7 228.797 281.099 235.214 281.366 238.556C281.669 241.812 282.828 245.829 287.9 249.4L285.973 254.372C285.105 256.54 284.791 258.891 285.058 261.212C285.266 262.896 285.9 264.498 286.899 265.867C287.916 267.208 289.284 268.238 290.851 268.843C298.626 271.778 302.429 265.206 299.979 261.083C298.148 258.042 293.874 257.387 291.4 260.092C290.629 260.936 290.116 261.987 289.925 263.117C289.727 264.274 289.898 265.465 290.416 266.518C289.651 266.048 288.981 265.438 288.44 264.72C287.638 263.614 287.129 262.322 286.961 260.964C286.743 258.963 287.012 256.937 287.745 255.063L289.573 250.415C294.974 253.261 301.543 251.863 303.463 251.076C312.862 247.155 318.398 236.463 316.116 226.674ZM298.945 191.078C299.436 185.891 303.025 182.912 305.387 187.421C308.502 193.389 307.033 200.464 304.728 206.375C301.395 202.709 298.527 196.182 298.945 191.078ZM288.44 248.001C286.22 246.378 284.781 243.882 284.784 240.424C284.729 233.587 289.948 229.279 295.122 229.954C295.24 229.965 295.356 229.986 295.471 230.016L288.44 248.001ZM311.127 241.528C308.377 249.592 296.966 252.464 290.09 249.023L297.305 230.555C300.832 232.136 302.205 235.997 301.939 238.08C301.609 240.566 300.806 242.669 298.431 243.813C296.057 244.956 295.724 244.933 295.724 244.933L295.83 245.571C295.83 245.571 300.99 246.186 304.461 240.206C307.932 234.225 303.562 226.651 299.594 224.723L303.114 215.728C304.728 218.141 306.47 220.71 308.215 223.811C311.42 229.547 313.326 235.071 311.127 241.541V241.528Z" fill="white"/>
<path fill-rule="evenodd" clip-rule="evenodd" d="M273.272 146.576L253.345 142.05L252.838 144.232L272.804 148.771L273.268 146.576H273.272ZM252.38 146.324L248.04 165.271C250.635 164.425 254.481 165.694 257.629 168.577C261.555 172.267 262.898 177.173 260.708 179.583C258.518 181.993 253.463 181.008 249.535 177.328C246.469 174.482 244.924 170.891 245.454 168.28C245.52 167.903 245.629 167.476 245.718 167.02L252.34 137.788L252.801 137.881L254.198 138.211L274.161 142.764L275.729 143.094L275.989 143.17L269.883 170.25C272.416 169.377 276.222 170.581 279.374 173.53C283.355 177.203 284.732 182.125 282.516 184.555C280.299 186.985 275.271 185.954 271.319 182.268C268.237 179.441 266.708 175.824 267.199 173.262C267.295 172.845 267.423 172.399 267.489 171.976L272.297 150.817L252.38 146.324Z" fill="white"/>
<path fill-rule="evenodd" clip-rule="evenodd" d="M218.83 225.187C219.858 227.509 221.278 229.634 223.029 231.469C223.221 231.635 223.424 231.788 223.638 231.925L224.626 231.674C222.613 229.802 221.072 227.477 220.131 224.89C217.364 216.932 231.298 206.399 231.383 206.73L231.742 208.27L237.644 237.314C237.733 237.691 237.828 238.101 237.937 238.557C238.661 241.109 241.559 243.638 245.56 244.838C250.767 246.386 255.687 245.067 256.645 241.965C257.564 238.765 254.11 234.99 248.946 233.442C244.852 232.223 240.901 232.781 238.964 234.662L231.614 199.503L230.81 196.048L228.834 196.6C229.905 202.081 223.937 207.533 221.323 211.441C218.708 215.349 216.702 220.41 218.83 225.187Z" fill="white"/>
<path fill-rule="evenodd" clip-rule="evenodd" d="M331.278 156.923L331.259 156.709L331.084 155.321C331.058 155.079 318.43 162.72 320.064 169.55C320.294 170.555 320.655 171.525 321.137 172.436C322.669 168.164 326.78 165.18 329.578 161.717C330.725 160.39 331.334 158.679 331.284 156.924L331.278 156.923ZM320.758 173.657C320.027 172.414 319.425 171.099 318.962 169.732C317.599 165.572 319.7 161.569 322.236 158.442C324.774 155.43 330.255 151.378 329.891 146.709L331.519 146.428L331.904 149.385L333.132 158.852L336.983 188.654C338.762 187.216 342.157 187.125 345.483 188.477C349.682 190.253 352.209 193.71 351.183 196.257C350.086 198.806 345.85 199.465 341.66 197.793C338.396 196.404 336.19 194.001 335.796 191.823C335.716 191.468 335.729 191.072 335.672 190.702C335.078 186.265 333.568 174.346 333.507 174.171C333.48 173.854 320.854 181.486 322.506 188.353C323.063 190.63 324.153 192.74 325.686 194.509L324.836 194.61C324.836 194.61 324.606 194.379 324.358 194.117C323.046 192.445 322.036 190.553 321.375 188.53C320.282 185.197 321.803 181.582 321.803 181.582C321.632 181.332 321.501 181.057 321.417 180.767C321.35 180.445 320.31 177.515 320.48 175.291C320.517 174.739 320.61 174.193 320.757 173.66L320.758 173.657ZM324.68 177.283C323.865 178.26 323.131 179.303 322.487 180.401C322.293 179.514 322.145 178.616 322.045 177.713C321.264 172.043 328.157 167.107 332.079 164.455C333.488 169.531 327.381 173.998 324.68 177.283Z" fill="white"/>
<path fill-rule="evenodd" clip-rule="evenodd" d="M267.609 219.426C264.131 221.866 262.435 225.467 263.835 227.487C265.234 229.507 269.183 229.093 272.667 226.657C275.891 224.342 277.584 221.119 276.754 219.053L269.292 198.618L267.846 199.131L274.488 217.367C272.614 217.01 270.013 217.73 267.609 219.436V219.426ZM275.987 218.891C276.78 219.962 274.729 222.656 271.544 224.898C268.251 227.212 265.05 228.204 264.299 227.136C263.548 226.068 265.59 223.394 268.84 221.126C272.091 218.858 275.275 217.856 275.987 218.891Z" fill="white"/>
</g>
<defs>
<filter id="filter0_d_16641_10647" x="175.047" y="91.6835" width="231.194" height="231.195" filterUnits="userSpaceOnUse" color-interpolation-filters="sRGB">
<feFlood flood-opacity="0" result="BackgroundImageFix"/>
<feColorMatrix in="SourceAlpha" type="matrix" values="0 0 0 0 0 0 0 0 0 0 0 0 0 0 0 0 0 0 127 0" result="hardAlpha"/>
<feOffset dx="0.87846" dy="3.51384"/>
<feGaussianBlur stdDeviation="16.0319"/>
<feComposite in2="hardAlpha" operator="out"/>
<feColorMatrix type="matrix" values="0 0 0 0 0.881511 0 0 0 0 0.454095 0 0 0 0 0.881511 0 0 0 0.5 0"/>
<feBlend mode="normal" in2="BackgroundImageFix" result="effect1_dropShadow_16641_10647"/>
<feBlend mode="normal" in="SourceGraphic" in2="effect1_dropShadow_16641_10647" result="shape"/>
</filter>
<linearGradient id="paint0_linear_16641_10647" x1="289.766" y1="120.233" x2="289.766" y2="287.301" gradientUnits="userSpaceOnUse">
<stop stop-color="#9747FF" stop-opacity="0.5"/>
<stop offset="1" stop-color="#FF62C4" stop-opacity="0.5"/>
</linearGradient>
<linearGradient id="paint1_linear_16641_10647" x1="289.77" y1="66.689" x2="289.77" y2="340.851" gradientUnits="userSpaceOnUse">
<stop stop-color="#C3C3C3" stop-opacity="0.1"/>
<stop offset="0.505029" stop-color="#C3C3C3"/>
<stop offset="1" stop-color="#C3C3C3" stop-opacity="0.1"/>
</linearGradient>
<linearGradient id="paint2_linear_16641_10647" x1="289.342" y1="11" x2="289.342" y2="395.683" gradientUnits="userSpaceOnUse">
<stop stop-color="#C3C3C3" stop-opacity="0.1"/>
<stop offset="0.505029" stop-color="#C3C3C3"/>
<stop offset="1" stop-color="#C3C3C3" stop-opacity="0.1"/>
</linearGradient>
</defs>
</svg>
