<svg width="1276" height="216" viewBox="0 0 1276 216" fill="none" xmlns="http://www.w3.org/2000/svg">
<path opacity="0.87" d="M1276 216H-22V74.1161C-3.68771 47.834 21.8874 27.1048 51.7856 14.3114C81.6838 1.51793 114.691 -2.82047 147.014 1.79486C179.337 6.4102 209.664 19.7919 234.507 40.4018C259.351 61.0117 277.704 88.0133 287.456 118.303C287.671 118.955 287.874 119.631 288.089 120.308C291.373 131.057 293.549 142.096 294.585 153.263C301.958 148.801 310.747 147.09 319.32 148.447C327.893 149.805 335.667 154.139 341.199 160.644C351.814 144.639 365.686 130.913 381.963 120.308C405.426 105.054 433.022 96.9115 461.255 96.9115C489.487 96.9115 517.084 105.054 540.547 120.308C558.525 132.041 573.538 147.571 584.464 165.737C586.106 165.535 587.76 165.432 589.415 165.429C598.675 165.438 607.672 168.423 615.002 173.919C622.332 179.416 627.584 187.114 629.938 195.814C631.204 195.814 632.471 195.814 633.8 195.74C654.512 195.708 674.981 200.075 693.774 208.533C701.401 198.546 711.122 190.244 722.296 184.175C733.469 178.106 745.841 174.409 758.593 173.326C771.346 172.244 784.19 173.801 796.278 177.896C808.365 181.991 819.421 188.53 828.716 197.081C830.797 193.036 833.869 189.549 837.661 186.927C841.454 184.304 845.851 182.626 850.466 182.039C855.082 181.452 859.776 181.975 864.135 183.562C868.495 185.149 872.386 187.751 875.469 191.139C881.671 168.053 895.628 147.639 915.127 133.132C934.627 118.625 958.553 110.855 983.113 111.054C1007.67 111.253 1031.46 119.41 1050.71 134.231C1069.96 149.053 1083.56 169.69 1089.37 192.874C1092.6 190.596 1096.3 189.006 1100.21 188.209C1104.12 187.413 1108.16 187.426 1112.07 188.249C1115.98 189.072 1119.66 190.686 1122.88 192.986C1126.1 195.286 1128.79 198.219 1130.76 201.595C1140.3 191.365 1152.19 183.456 1165.45 178.509C1178.72 173.562 1193 171.715 1207.13 173.117C1221.27 174.52 1234.87 179.131 1246.83 186.581C1258.79 194.03 1268.79 204.108 1276 216Z" fill="#EAE5E5"/>
</svg>
