<svg width="384" height="253" viewBox="0 0 384 253" fill="none" xmlns="http://www.w3.org/2000/svg">
<path d="M219.646 221.071C214.691 221.071 209.275 219.866 203.366 217.463C203.251 217.417 203.15 217.341 203.074 217.244L192.116 203.336C192.054 203.259 192.01 203.17 191.986 203.074C191.962 202.979 191.958 202.88 191.976 202.783C191.994 202.686 192.032 202.595 192.089 202.513C192.145 202.432 192.219 202.364 192.304 202.313C216.253 187.664 227.785 168.064 233.438 132.391C233.462 132.236 233.539 132.092 233.657 131.985C233.774 131.878 233.926 131.813 234.086 131.8C234.248 131.79 234.408 131.834 234.542 131.925C234.675 132.015 234.774 132.147 234.822 132.299C238.866 145.543 239.923 155.011 238.358 164.488L249.779 158.25C249.887 158.19 250.008 158.159 250.131 158.159C250.255 158.16 250.376 158.191 250.483 158.251C250.59 158.311 250.679 158.397 250.742 158.501C250.805 158.605 250.84 158.723 250.843 158.844C251.089 167.295 249.815 178.6 242.866 186.812L255.455 181.111C255.587 181.05 255.736 181.032 255.88 181.056C256.024 181.081 256.157 181.149 256.26 181.25C256.364 181.351 256.434 181.481 256.46 181.622C256.486 181.763 256.468 181.908 256.408 182.039C255.617 183.755 254.813 185.617 253.961 187.585C250.214 196.274 245.534 207.09 237.894 213.964C232.627 218.709 226.586 221.071 219.646 221.071ZM204.089 216.237C234.737 228.581 245.089 204.582 252.654 187.048C253.235 185.703 253.792 184.41 254.343 183.173L240.082 189.638C239.927 189.707 239.751 189.72 239.587 189.674C239.424 189.628 239.282 189.526 239.188 189.387C239.093 189.247 239.053 189.079 239.074 188.913C239.095 188.747 239.175 188.594 239.301 188.481C247.789 180.891 249.556 169.056 249.455 160.052L237.761 166.437C237.642 166.501 237.507 166.531 237.371 166.523C237.235 166.515 237.104 166.47 236.993 166.392C236.883 166.314 236.799 166.207 236.749 166.083C236.699 165.959 236.686 165.824 236.711 165.693C238.452 156.683 237.777 147.825 234.352 135.7C228.517 169.551 216.937 188.675 193.74 203.079L204.089 216.237Z" fill="#FF62C4"/>
<path d="M89.1186 212.654C80.7694 212.654 73.5027 209.816 67.163 204.121C57.9387 195.857 52.3088 182.792 47.7874 172.31C46.76 169.929 45.7876 167.679 44.8315 165.604C44.7716 165.473 44.7537 165.328 44.78 165.188C44.8063 165.047 44.8757 164.918 44.9789 164.817C45.082 164.716 45.2141 164.649 45.3574 164.624C45.5008 164.598 45.6486 164.616 45.7812 164.676L61.6012 171.842C52.8501 161.914 51.262 148.006 51.5537 137.645C51.5581 137.524 51.5937 137.407 51.6572 137.305C51.7207 137.202 51.8099 137.117 51.9164 137.057C52.0228 136.997 52.1431 136.966 52.2657 136.964C52.3882 136.963 52.5091 136.993 52.6168 137.05L66.6963 144.723C64.7354 133.198 65.9898 121.722 70.9098 105.605C70.9574 105.453 71.0554 105.322 71.1882 105.231C71.321 105.141 71.4809 105.097 71.6423 105.106C71.8025 105.118 71.9537 105.183 72.0713 105.291C72.189 105.398 72.2662 105.541 72.2906 105.697C79.1423 148.854 93.0955 172.548 122.068 190.27C122.153 190.321 122.226 190.39 122.282 190.471C122.338 190.552 122.375 190.644 122.392 190.74C122.409 190.837 122.405 190.936 122.381 191.031C122.357 191.126 122.313 191.215 122.253 191.293L109.019 208.09C108.943 208.188 108.841 208.264 108.724 208.31C101.6 211.205 95.0823 212.654 89.1186 212.654ZM46.9091 166.732C47.6221 168.321 48.3482 170.012 49.1034 171.763C58.2693 193.003 70.8191 222.081 108.002 207.086L120.642 191.045C92.4149 173.565 78.4293 150.326 71.3992 109.005C67.0982 124 66.2296 134.867 68.3688 145.933C68.3936 146.064 68.3801 146.199 68.3296 146.323C68.2792 146.447 68.194 146.554 68.084 146.632C67.9739 146.709 67.8436 146.755 67.7081 146.763C67.5726 146.771 67.4375 146.741 67.3186 146.677L52.97 138.843C52.8112 149.782 54.9147 164.269 65.2864 173.546C65.415 173.658 65.4981 173.812 65.5203 173.979C65.5425 174.146 65.5023 174.315 65.4072 174.456C65.3121 174.596 65.1685 174.698 65.0028 174.743C64.837 174.788 64.6604 174.773 64.5053 174.7L46.9091 166.732Z" fill="#FF62C4"/>
<path d="M210.678 189.585C210.545 189.039 210.406 188.492 210.257 187.952C207.568 178.194 202.469 169.236 195.411 161.869C188.354 154.502 179.554 148.953 169.791 145.713C169.762 145.7 169.731 145.691 169.7 145.684C163.678 143.704 157.385 142.632 151.034 142.506C150.584 142.506 150.13 142.506 149.676 142.506C139.373 142.493 129.224 144.972 120.131 149.723C111.037 154.474 103.279 161.35 97.5424 169.743C97.2636 170.155 96.9881 170.568 96.7159 170.983C90.3288 180.796 86.9412 192.198 86.9535 203.84C86.9538 206.292 87.102 208.743 87.3976 211.178C87.4559 211.661 87.5207 212.132 87.5953 212.628C89.0067 222.27 92.7581 231.44 98.5342 239.366C98.7502 239.663 98.9663 239.955 99.1824 240.243H144.163V240.399L157.517 240.517V240.243H200.147C200.364 239.953 200.58 239.661 200.796 239.366C201.37 238.578 201.925 237.777 202.458 236.963C205.117 232.92 207.277 228.582 208.895 224.041C209.395 222.642 209.842 221.223 210.237 219.782C210.364 219.327 210.484 218.866 210.597 218.409C211.598 214.381 212.18 210.264 212.334 206.122C212.363 205.365 212.376 204.602 212.376 203.84C212.38 199.039 211.81 194.255 210.678 189.585Z" fill="#FF62C4"/>
<path d="M211.637 188.562C211.508 188.007 211.368 187.453 211.219 186.9C207.782 174.164 200.143 162.902 189.493 154.87C178.843 146.838 165.782 142.489 152.347 142.5C151.906 142.5 151.465 142.5 151.025 142.5C140.59 142.712 130.387 145.552 121.396 150.748C112.405 155.944 104.928 163.321 99.6847 172.169C99.4286 172.601 99.1791 173.033 98.936 173.472C94.0399 182.216 91.481 192.034 91.4975 202.009C91.4963 205.049 91.7314 208.085 92.2008 211.09C92.2754 211.563 92.3564 212.043 92.4407 212.504C94.2353 222.351 98.5451 231.592 104.968 239.363C105.208 239.659 105.454 239.951 105.703 240.241H144.163V240.396L157.517 240.514V240.241H199.003C199.253 239.951 199.496 239.659 199.739 239.363C203.561 234.735 206.651 229.568 208.905 224.038C209.467 222.659 209.977 221.255 210.435 219.827C210.577 219.379 210.717 218.924 210.85 218.47C213.695 208.728 213.968 198.436 211.644 188.562H211.637Z" fill="white"/>
<path d="M212.215 187.929C212.079 187.37 211.934 186.814 211.78 186.264C204.682 160.666 180.727 141.787 152.347 141.787C141.6 141.777 131.038 144.528 121.712 149.766C112.386 155.004 104.622 162.545 99.1925 171.64C98.9375 172.064 98.6858 172.496 98.4373 172.937C91.8773 184.571 89.4336 198.009 91.4882 211.149C91.5628 211.623 91.6406 212.103 91.7281 212.57C93.5108 222.37 97.7573 231.58 104.083 239.366C104.32 239.661 104.56 239.954 104.806 240.243H106.673C106.42 239.954 106.167 239.661 105.921 239.366C99.3778 231.617 94.9818 222.346 93.1574 212.446C93.0699 211.979 92.9921 211.492 92.9176 211.035C90.9078 198.333 93.2057 185.335 99.4582 174.037C99.6981 173.601 99.9444 173.166 100.197 172.737C106.977 161.208 117.529 152.263 130.143 147.352C142.757 142.44 156.692 141.85 169.691 145.677C169.722 145.684 169.752 145.694 169.782 145.706C179.678 148.656 188.634 154.054 195.788 161.381C202.942 168.707 208.053 177.715 210.63 187.538C210.776 188.088 210.908 188.638 211.035 189.194C211.994 193.401 212.477 197.7 212.474 202.012C212.474 203.391 212.425 204.759 212.328 206.115C212.039 210.235 211.303 214.314 210.134 218.281C210 218.735 209.861 219.186 209.716 219.635C207.395 226.84 203.678 233.537 198.767 239.359C198.521 239.655 198.268 239.947 198.012 240.236H199.882C200.125 239.947 200.368 239.655 200.605 239.359C201.253 238.573 201.869 237.772 202.452 236.957C206.237 231.788 209.157 226.061 211.103 219.991C211.249 219.54 211.388 219.088 211.521 218.634C214.45 208.628 214.686 198.048 212.205 187.926L212.215 187.929Z" fill="#FF62C4"/>
<path d="M203.415 202.015C203.417 205.924 202.952 209.82 202.027 213.622C201.888 214.2 201.739 214.772 201.574 215.341C201.566 215.383 201.555 215.425 201.541 215.465C200.103 220.513 197.857 225.305 194.887 229.663C192.449 233.246 189.55 236.506 186.262 239.363C185.922 239.658 185.575 239.951 185.225 240.24H157.517V240.513L144.186 240.389V240.233H119.472C119.122 239.944 118.775 239.652 118.435 239.356C109.817 231.882 104.041 221.762 102.051 210.65C101.967 210.186 101.892 209.719 101.824 209.252C100.367 199.463 101.903 189.469 106.238 180.536C106.452 180.095 106.676 179.659 106.903 179.224C107.298 178.469 107.714 177.728 108.151 176.999C108.945 175.655 109.807 174.348 110.724 173.083C115.906 165.958 122.9 160.286 131.011 156.633C139.121 152.979 148.065 151.47 156.954 152.257C165.844 153.043 174.368 156.097 181.681 161.115C188.993 166.133 194.839 172.941 198.637 180.861C200.76 185.289 202.198 190.002 202.906 194.845C202.99 195.392 203.061 195.945 203.123 196.494C203.323 198.328 203.421 200.171 203.415 202.015Z" fill="white"/>
<path d="M195.28 229.776C195.143 229.776 195.009 229.737 194.894 229.664C194.815 229.614 194.746 229.55 194.692 229.474C194.639 229.398 194.601 229.312 194.581 229.222C194.561 229.131 194.56 229.038 194.577 228.947C194.594 228.856 194.629 228.769 194.68 228.692C197.288 224.745 199.302 220.451 200.66 215.941C200.682 215.847 200.723 215.759 200.78 215.681C200.838 215.604 200.912 215.539 200.996 215.49C201.081 215.441 201.174 215.41 201.272 215.399C201.369 215.387 201.468 215.395 201.561 215.422C201.655 215.45 201.743 215.495 201.818 215.557C201.893 215.619 201.954 215.695 201.998 215.78C202.042 215.866 202.068 215.96 202.074 216.056C202.079 216.152 202.065 216.248 202.031 216.338C200.631 220.977 198.557 225.395 195.873 229.455C195.809 229.552 195.721 229.632 195.617 229.688C195.514 229.744 195.398 229.774 195.28 229.776Z" fill="#FF62C4"/>
<path d="M198.313 180.928C198.178 180.929 198.046 180.893 197.931 180.823C197.816 180.753 197.724 180.653 197.665 180.534C193.559 172.178 187.122 165.133 179.1 160.218C171.078 155.303 161.8 152.718 152.341 152.763C144.432 152.777 136.637 154.607 129.581 158.108C122.524 161.609 116.403 166.683 111.706 172.922C111.651 172.996 111.581 173.059 111.501 173.107C111.42 173.154 111.331 173.186 111.239 173.2C111.146 173.213 111.051 173.209 110.96 173.187C110.869 173.165 110.784 173.126 110.708 173.072C110.633 173.017 110.569 172.949 110.52 172.87C110.472 172.791 110.439 172.704 110.425 172.613C110.411 172.522 110.415 172.429 110.438 172.34C110.46 172.251 110.5 172.167 110.556 172.093C115.384 165.676 121.679 160.458 128.936 156.858C136.192 153.257 144.208 151.375 152.341 151.361C162.07 151.313 171.614 153.971 179.865 159.026C188.117 164.081 194.738 171.326 198.961 179.921C199.015 180.028 199.04 180.147 199.033 180.266C199.027 180.385 198.99 180.501 198.924 180.602C198.859 180.703 198.769 180.786 198.662 180.843C198.555 180.9 198.435 180.93 198.313 180.928Z" fill="#FF62C4"/>
<path d="M120.626 240.243H118.406C118.065 239.957 117.732 239.664 117.401 239.366C108.994 231.856 103.352 221.832 101.354 210.854C101.27 210.39 101.192 209.922 101.124 209.452C99.6099 199.425 101.196 189.184 105.678 180.05C105.894 179.611 106.116 179.176 106.345 178.744C106.607 178.246 106.879 177.751 107.162 177.26C107.208 177.179 107.27 177.109 107.343 177.052C107.417 176.995 107.502 176.953 107.592 176.928C107.682 176.903 107.777 176.896 107.87 176.907C107.963 176.918 108.053 176.947 108.135 176.993C108.299 177.085 108.419 177.237 108.469 177.415C108.519 177.594 108.494 177.785 108.4 177.946C108.068 178.529 107.743 179.117 107.428 179.71C107.198 180.142 106.981 180.581 106.78 181.019C102.583 189.748 101.093 199.493 102.495 209.045C102.563 209.516 102.638 209.999 102.722 210.45C104.732 221.714 110.68 231.941 119.543 239.372C119.906 239.664 120.266 239.954 120.626 240.243Z" fill="#FF62C4"/>
<path d="M179.877 189.638L171.337 193.01L163.234 196.233C162.934 195.356 162.452 194.55 161.818 193.865C161.184 193.184 160.411 192.643 159.549 192.276C157.223 191.171 154.658 190.638 152.075 190.722C148.436 190.652 144.902 191.92 142.167 194.275C140.908 195.525 139.929 197.018 139.293 198.66C138.657 200.302 138.377 202.056 138.472 203.81C138.476 205.886 138.91 207.94 139.746 209.848C140.497 211.46 141.686 212.839 143.181 213.834C144.547 214.808 146.086 215.525 147.719 215.947C149.386 216.364 151.103 216.564 152.824 216.542C155.466 216.575 158.079 215.996 160.45 214.851C161.458 214.438 162.365 213.819 163.111 213.036C163.86 212.249 164.434 211.317 164.793 210.3L165.02 209.254L144.815 209.499L149.219 197.79L181.258 197.352L181.317 228.537L166.589 228.749L166.543 224.618C161.812 228.411 155.833 230.383 149.725 230.164C142.302 230.556 135.004 228.17 129.306 223.489C126.558 221.158 124.392 218.241 122.973 214.962C120.387 208.182 120.406 200.711 123.028 193.944C124.502 190.62 126.739 187.675 129.565 185.338C135.891 180.356 143.819 177.747 151.929 177.98C157.68 177.897 163.376 179.081 168.598 181.444C173.11 183.007 177.039 185.861 179.877 189.638Z" fill="#FF62C4"/>
<path d="M155.562 163.516L142.364 163.627L142.734 186.828L155.912 186.787L155.562 163.516Z" fill="#FF62C4"/>
<path d="M157.523 240.512L144.17 240.394L144.163 240.238L144.137 239.361L143.836 229.871L143.505 219.522L156.94 219.656L157.209 229.296L157.491 239.361L157.517 240.238L157.523 240.512Z" fill="#FF62C4"/>
<path d="M320.547 82.5909C316.728 82.5909 312.392 81.7201 307.439 79.7051C307.323 79.6611 307.221 79.5849 307.148 79.4858L298.293 68.2507C298.231 68.173 298.187 68.0835 298.163 67.988C298.14 67.8925 298.136 67.7932 298.154 67.6964C298.172 67.5996 298.21 67.5076 298.266 67.4262C298.323 67.3449 298.396 67.276 298.481 67.2241C318.048 55.258 327.039 39.9706 331.657 10.8198C331.682 10.664 331.759 10.5209 331.876 10.4136C331.994 10.3063 332.145 10.2411 332.305 10.2286C332.467 10.2199 332.627 10.2642 332.761 10.3545C332.894 10.4449 332.993 10.5761 333.041 10.7276C336.282 21.3239 337.151 28.9358 335.958 36.5254L344.939 31.6214C345.047 31.5627 345.168 31.5318 345.291 31.5318C345.414 31.5318 345.535 31.5627 345.643 31.6214C345.75 31.6809 345.839 31.7667 345.902 31.8703C345.966 31.9739 346 32.0919 346.003 32.2126C346.2 38.9123 345.215 47.8241 339.896 54.4603L349.535 50.0934C349.668 50.0338 349.816 50.0151 349.959 50.04C350.102 50.0648 350.235 50.132 350.338 50.2325C350.442 50.3329 350.512 50.462 350.538 50.6024C350.565 50.7428 350.548 50.8878 350.488 51.0182C349.84 52.4039 349.192 53.9073 348.514 55.4996C343.672 66.7219 336.824 82.5909 320.547 82.5909ZM308.162 78.4814C332.775 88.3721 341.108 69.0611 347.195 54.9624C347.615 53.9941 348.022 53.0587 348.417 52.156L337.213 57.2412C337.058 57.314 336.881 57.3294 336.715 57.2846C336.549 57.2398 336.406 57.1377 336.311 56.9973C336.216 56.8568 336.175 56.6874 336.198 56.5203C336.22 56.3531 336.303 56.1994 336.431 56.0875C343.183 50.0489 344.645 40.6571 344.596 33.4394L335.346 38.4864C335.227 38.5521 335.092 38.5831 334.955 38.5756C334.819 38.5681 334.688 38.5226 334.578 38.4443C334.467 38.366 334.382 38.2584 334.332 38.134C334.282 38.0097 334.269 37.8739 334.296 37.7427C335.67 30.6298 335.174 23.6313 332.555 14.1506C327.804 41.118 318.469 56.4467 299.904 68.025L308.162 78.4814Z" fill="#FF62C4"/>
<path d="M216.855 90.3172C200.578 90.3172 193.733 74.4482 188.891 63.2258C188.204 61.6367 187.555 60.1302 186.917 58.7445C186.856 58.6144 186.838 58.4692 186.864 58.3284C186.89 58.1876 186.959 58.0581 187.063 57.9572C187.166 57.8564 187.299 57.7891 187.443 57.7645C187.586 57.7399 187.734 57.7592 187.867 57.8196L197.509 62.1834C192.19 55.5536 191.205 46.6418 191.399 39.9357C191.404 39.8154 191.439 39.6983 191.503 39.5954C191.567 39.4925 191.656 39.4072 191.762 39.3477C191.869 39.2883 191.99 39.2572 192.113 39.2572C192.235 39.2572 192.356 39.2883 192.463 39.3477L201.447 44.2517C200.245 36.6621 201.123 29.0502 204.364 18.4539C204.411 18.3014 204.509 18.169 204.642 18.0783C204.776 17.9876 204.936 17.944 205.098 17.9547C205.26 17.9654 205.414 18.0298 205.534 18.1372C205.653 18.2447 205.732 18.3888 205.758 18.5461C210.376 47.6969 219.371 62.9843 238.934 74.9504C239.019 75.0026 239.092 75.0717 239.148 75.1533C239.204 75.2349 239.241 75.3271 239.258 75.4239C239.276 75.5203 239.273 75.6193 239.25 75.7145C239.226 75.8097 239.183 75.8991 239.122 75.977L230.267 87.2121C230.192 87.3093 230.091 87.385 229.976 87.4314C225.013 89.4432 220.677 90.3172 216.855 90.3172ZM188.982 59.8728C189.381 60.7733 189.789 61.7088 190.203 62.6792C196.29 76.7874 204.623 96.1016 229.237 86.1982L237.492 75.71C218.927 64.1316 209.595 48.803 204.844 21.8356C202.222 31.3163 201.726 38.3147 203.103 45.4277C203.128 45.5587 203.115 45.6941 203.064 45.8179C203.014 45.9417 202.928 46.0489 202.818 46.1269C202.708 46.2056 202.578 46.2517 202.442 46.2596C202.307 46.2675 202.171 46.2369 202.053 46.1714L192.803 41.1402C192.754 48.3612 194.216 57.7497 200.967 63.7916C201.096 63.903 201.179 64.056 201.201 64.2226C201.224 64.3892 201.185 64.5582 201.091 64.6987C200.997 64.8392 200.854 64.9418 200.689 64.9876C200.524 65.0335 200.348 65.0196 200.193 64.9484L188.982 59.8728Z" fill="#FF62C4"/>
<path d="M270.121 133.809C294.804 133.809 314.813 114.235 314.813 90.0891C314.813 65.9432 294.804 46.3691 270.121 46.3691C245.438 46.3691 225.428 65.9432 225.428 90.0891C225.428 114.235 245.438 133.809 270.121 133.809Z" fill="#FF62C4"/>
<path d="M271.871 131.013C295.822 131.013 315.238 112.02 315.238 88.5902C315.238 65.1605 295.822 46.167 271.871 46.167C247.92 46.167 228.504 65.1605 228.504 88.5902C228.504 112.02 247.92 131.013 271.871 131.013Z" fill="white"/>
<path d="M271.839 131.715C249.721 131.715 230.602 115.413 228.067 93.4168C227.425 87.7834 227.922 82.0813 229.528 76.6361C231.135 71.191 233.82 66.1097 237.43 61.6824C241.039 57.2551 245.503 53.5687 250.567 50.8338C255.63 48.0988 261.193 46.369 266.938 45.7431C291.091 43.0829 312.963 60.1405 315.679 83.7676C316.32 89.4011 315.823 95.1033 314.216 100.548C312.609 105.994 309.924 111.075 306.314 115.502C302.704 119.929 298.24 123.616 293.176 126.351C288.113 129.086 282.55 130.815 276.804 131.441C275.156 131.623 273.498 131.715 271.839 131.715ZM271.904 46.8555C270.298 46.8564 268.693 46.9455 267.097 47.1224C261.539 47.7285 256.157 49.4026 251.259 52.0491C246.361 54.6956 242.043 58.2625 238.552 62.5461C235.06 66.8297 232.463 71.746 230.91 77.014C229.357 82.2821 228.878 87.7986 229.5 93.2483C232.132 116.109 253.28 132.614 276.655 130.04C282.213 129.433 287.595 127.759 292.493 125.112C297.391 122.465 301.709 118.898 305.201 114.614C308.692 110.33 311.289 105.414 312.842 100.145C314.395 94.8772 314.874 89.3605 314.253 83.9106C311.806 62.6386 293.302 46.865 271.904 46.865V46.8555Z" fill="#FF62C4"/>
<path d="M271.871 124.191C291.971 124.191 308.266 108.253 308.266 88.5917C308.266 68.9306 291.971 52.9922 271.871 52.9922C251.771 52.9922 235.476 68.9306 235.476 88.5917C235.476 108.253 251.771 124.191 271.871 124.191Z" fill="white"/>
<path d="M304.483 105.105C304.371 105.106 304.26 105.081 304.159 105.032C304.073 104.991 303.997 104.933 303.934 104.863C303.871 104.793 303.823 104.711 303.793 104.622C303.762 104.533 303.751 104.439 303.758 104.346C303.765 104.252 303.791 104.161 303.835 104.078C305.351 101.097 306.421 97.9164 307.012 94.6355C307.05 94.4571 307.158 94.3004 307.312 94.1984C307.466 94.0964 307.654 94.0571 307.837 94.0889C308.02 94.1207 308.184 94.221 308.293 94.3686C308.402 94.5163 308.448 94.6998 308.421 94.8802C307.807 98.2937 306.694 101.602 305.115 104.704C305.059 104.823 304.97 104.923 304.858 104.994C304.747 105.065 304.617 105.103 304.483 105.105Z" fill="#FF62C4"/>
<path d="M240.28 71.6246C240.155 71.6242 240.033 71.5913 239.926 71.5293C239.762 71.4374 239.642 71.2853 239.592 71.1065C239.542 70.9277 239.567 70.7368 239.661 70.5758C242.85 65.1391 247.416 60.6016 252.918 57.4021C258.419 54.2026 264.669 52.4495 271.064 52.3124C277.459 52.1753 283.781 53.6588 289.42 56.6194C295.059 59.58 299.823 63.9176 303.252 69.2124C303.308 69.2901 303.348 69.3783 303.368 69.4716C303.388 69.5648 303.389 69.6611 303.37 69.7547C303.351 69.8482 303.313 69.937 303.258 70.0157C303.203 70.0943 303.133 70.1611 303.051 70.2121C302.968 70.2631 302.876 70.2972 302.78 70.3122C302.684 70.3272 302.586 70.3229 302.492 70.2995C302.398 70.2762 302.309 70.2342 302.232 70.1763C302.155 70.1183 302.091 70.0456 302.043 69.9624C298.746 64.8724 294.165 60.7028 288.743 57.8569C283.322 55.0109 277.243 53.585 271.095 53.717C264.947 53.849 258.938 55.5344 253.648 58.6103C248.359 61.6862 243.969 66.0484 240.902 71.275C240.839 71.3818 240.748 71.4703 240.639 71.5317C240.529 71.5931 240.405 71.6252 240.28 71.6246Z" fill="#FF62C4"/>
<path d="M271.845 124.896C253.224 124.896 237.129 111.172 234.996 92.6555C234.284 86.481 235.203 80.2307 237.664 74.5045C237.7 74.4198 237.754 74.343 237.82 74.2784C237.887 74.2139 237.967 74.1629 238.053 74.1284C238.14 74.0938 238.234 74.0764 238.327 74.0772C238.421 74.0779 238.514 74.0968 238.6 74.1327C238.687 74.1686 238.765 74.2208 238.831 74.2864C238.897 74.3519 238.949 74.4296 238.984 74.5149C239.019 74.6002 239.037 74.6914 239.036 74.7835C239.035 74.8755 239.016 74.9664 238.98 75.0512C236.616 80.5551 235.734 86.5624 236.419 92.4966C238.62 111.62 256.313 125.433 275.864 123.272C276.05 123.256 276.235 123.312 276.379 123.428C276.524 123.543 276.616 123.71 276.637 123.892C276.658 124.074 276.606 124.256 276.492 124.401C276.378 124.546 276.211 124.641 276.026 124.667C274.638 124.818 273.242 124.895 271.845 124.896Z" fill="#FF62C4"/>
<path d="M150.477 109.729C150.413 109.728 150.35 109.72 150.289 109.703C150.132 109.662 149.995 109.569 149.899 109.44C149.804 109.311 149.756 109.154 149.764 108.995C151.138 79.5259 145.417 62.802 128.664 47.2795C128.591 47.2127 128.532 47.1314 128.493 47.0411C128.454 46.9507 128.435 46.8532 128.437 46.755C128.44 46.657 128.464 46.5607 128.507 46.4722C128.55 46.3836 128.611 46.3046 128.687 46.2402L139.648 36.9406C139.741 36.862 139.852 36.8074 139.972 36.7817C167.665 31.4581 172.277 53.7281 175.33 68.4688C175.68 70.1596 176.014 71.7583 176.357 73.2362C176.391 73.3755 176.38 73.5215 176.325 73.6545C176.271 73.7874 176.177 73.9008 176.055 73.9795C175.933 74.0582 175.79 74.0982 175.644 74.0943C175.498 74.0904 175.357 74.0427 175.239 73.9576L166.673 67.8109C170.543 75.3402 169.703 84.271 168.157 90.7992C168.13 90.9168 168.071 91.0253 167.988 91.1145C167.905 91.2036 167.8 91.2702 167.683 91.3079C167.566 91.3455 167.441 91.3531 167.321 91.3296C167.2 91.3062 167.087 91.2527 166.994 91.1742L159.183 84.6238C158.826 92.2993 156.428 99.5902 151.109 109.351C151.048 109.464 150.958 109.559 150.846 109.626C150.735 109.692 150.607 109.728 150.477 109.729ZM130.216 46.7995C146.069 61.7373 152.114 78.582 151.313 105.915C155.802 97.1334 157.701 90.3701 157.795 83.1269C157.796 82.9928 157.835 82.8615 157.909 82.7488C157.983 82.6361 158.089 82.5467 158.214 82.4912C158.338 82.4366 158.475 82.4175 158.61 82.4361C158.745 82.4546 158.871 82.5101 158.975 82.5961L167.02 89.3404C168.53 82.2719 168.997 72.7849 163.604 65.5575C163.504 65.4224 163.457 65.2569 163.47 65.0906C163.483 64.9244 163.557 64.7682 163.677 64.6501C163.797 64.532 163.956 64.4596 164.125 64.446C164.295 64.4323 164.464 64.4782 164.602 64.5755L174.559 71.7233C174.348 70.7699 174.144 69.7624 173.93 68.7326C170.818 53.7218 166.556 33.1839 140.433 38.107L130.216 46.7995Z" fill="#FF62C4"/>
<path d="M23.3231 73.7158C23.2708 73.7167 23.2185 73.7114 23.1675 73.6999C23.0086 73.6658 22.8663 73.5795 22.7643 73.4552C22.6623 73.3309 22.6068 73.1761 22.6068 73.0166C22.5744 61.9595 23.9454 54.4175 27.3 47.473L17.2524 49.6819C17.1323 49.7092 17.007 49.7055 16.8887 49.6712C16.7705 49.6368 16.6633 49.573 16.5778 49.4859C16.4922 49.3988 16.4312 49.2914 16.4006 49.1742C16.37 49.0571 16.3709 48.9341 16.4032 48.8174C18.1599 42.3402 21.6896 34.0672 28.7196 29.1854L18.2118 30.6951C18.0671 30.7163 17.9193 30.6936 17.7882 30.63C17.6571 30.5664 17.5489 30.465 17.4784 30.3394C17.4078 30.2137 17.3781 30.0699 17.3933 29.9273C17.4086 29.7846 17.468 29.6499 17.5636 29.5414C18.5781 28.3908 19.6347 27.1291 20.7561 25.7942C30.5055 14.165 45.2398 -3.4075 67.1629 13.9807C67.2601 14.0566 67.335 14.1564 67.3801 14.2699L72.6113 27.5041C72.647 27.5957 72.6629 27.6935 72.658 27.7914C72.653 27.8893 72.6273 27.9851 72.5825 28.0727C72.5376 28.1603 72.4747 28.2378 72.3976 28.3003C72.3205 28.3627 72.2311 28.4087 72.1349 28.4353C49.9038 34.474 36.8452 46.6435 23.9616 73.3154C23.9043 73.4342 23.814 73.5348 23.7011 73.6057C23.5882 73.6765 23.4572 73.7147 23.3231 73.7158ZM28.6062 45.7663C28.7298 45.7638 28.8519 45.7928 28.9606 45.8506C29.0693 45.9083 29.1609 45.9927 29.2262 46.0956C29.2916 46.1985 29.3286 46.3163 29.3335 46.4374C29.3385 46.5585 29.3112 46.6789 29.2544 46.7865C25.8706 53.2288 24.3181 60.078 24.0686 69.8924C36.4465 45.3531 49.839 33.244 71.0005 27.3039L66.1193 14.9659C45.3759 -1.348 31.7955 14.8579 21.8678 26.6968C21.1872 27.5105 20.526 28.286 19.8842 29.0519L32.0969 27.2944C32.2656 27.2707 32.4374 27.3068 32.5815 27.3962C32.7255 27.4856 32.8322 27.6224 32.8826 27.7821C32.933 27.9418 32.9236 28.1138 32.8563 28.2673C32.7889 28.4209 32.6679 28.5458 32.515 28.6197C24.289 32.5321 20.163 41.1134 18.1048 48.0578L28.4376 45.7822C28.4929 45.7697 28.5495 45.7644 28.6062 45.7663Z" fill="#FF62C4"/>
<path d="M99.0169 94.1944C125.511 94.1944 146.989 73.1846 146.989 47.2676C146.989 21.3507 125.511 0.34082 99.0169 0.34082C72.5225 0.34082 51.0446 21.3507 51.0446 47.2676C51.0446 73.1846 72.5225 94.1944 99.0169 94.1944Z" fill="#FF62C4"/>
<path d="M101.283 91.7726C126.991 91.7726 147.832 71.386 147.832 46.2379C147.832 21.0897 126.991 0.703125 101.283 0.703125C75.5742 0.703125 54.7333 21.0897 54.7333 46.2379C54.7333 71.386 75.5742 91.7726 101.283 91.7726Z" fill="white"/>
<path d="M101.305 92.4829C98.5796 92.4815 95.8589 92.2508 93.1734 91.7932C87.0667 90.759 81.2278 88.5548 75.9903 85.3067C70.7528 82.0586 66.2194 77.8303 62.6492 72.8633C59.079 67.8963 56.542 62.2881 55.1832 56.3592C53.8244 50.4303 53.6704 44.297 54.73 38.3097C59.2028 13.2016 83.7254 -3.68127 109.402 0.688815C115.508 1.72305 121.347 3.92721 126.585 7.17531C131.822 10.4234 136.356 14.6518 139.926 19.6188C143.496 24.5857 146.033 30.1939 147.392 36.1228C148.751 42.0517 148.905 48.1851 147.845 54.1723C143.862 76.6171 123.838 92.4829 101.305 92.4829ZM101.26 1.40392C79.4049 1.40392 60.0002 16.7835 56.127 38.5513C55.0996 44.3579 55.2495 50.3062 56.5681 56.056C57.8867 61.8058 60.3481 67.2443 63.8116 72.0607C67.2751 76.877 71.6727 80.9767 76.7531 84.1254C81.8335 87.274 87.497 89.4098 93.4197 90.4107C96.0238 90.8547 98.6622 91.078 101.305 91.0781C123.157 91.0781 142.562 75.6986 146.435 53.9308C147.463 48.1241 147.313 42.1759 145.994 36.4261C144.676 30.6763 142.214 25.2377 138.751 20.4214C135.287 15.605 130.889 11.5053 125.809 8.35668C120.729 5.20805 115.065 3.07223 109.143 2.07135C106.539 1.6272 103.902 1.4039 101.26 1.40392Z" fill="#FF62C4"/>
<path d="M101.283 84.4514C122.856 84.4514 140.345 67.3433 140.345 46.2394C140.345 25.1355 122.856 8.02734 101.283 8.02734C79.7093 8.02734 62.2205 25.1355 62.2205 46.2394C62.2205 67.3433 79.7093 84.4514 101.283 84.4514Z" fill="white"/>
<path d="M130.006 72.8462C129.826 72.845 129.652 72.7781 129.52 72.6586C129.381 72.5321 129.298 72.3566 129.291 72.1707C129.284 71.9848 129.352 71.8037 129.481 71.667C131.964 69.0385 134.049 66.0736 135.671 62.8633C135.714 62.7809 135.773 62.7075 135.844 62.6473C135.916 62.5871 135.999 62.5413 136.088 62.5125C136.178 62.4838 136.272 62.4726 136.366 62.4796C136.46 62.4866 136.552 62.5117 136.636 62.5534C136.72 62.5951 136.795 62.6527 136.856 62.7228C136.917 62.7929 136.964 62.8742 136.993 62.962C137.023 63.0498 137.034 63.1424 137.027 63.2345C137.02 63.3267 136.994 63.4165 136.952 63.4989C135.27 66.8305 133.108 69.9069 130.531 72.6332C130.463 72.7024 130.382 72.7571 130.291 72.7937C130.201 72.8304 130.104 72.8482 130.006 72.8462Z" fill="#FF62C4"/>
<path d="M138.844 36.4211C138.689 36.4208 138.538 36.371 138.414 36.2793C138.29 36.1876 138.2 36.0589 138.157 35.9125C136.193 29.1182 132.304 23.0096 126.94 18.2963C121.577 13.5829 114.961 10.4583 107.859 9.28519C101.922 8.28628 95.8283 8.6643 90.0667 10.389C84.3051 12.1136 79.0354 15.1371 74.6792 19.2172C74.5404 19.3343 74.3612 19.3948 74.1783 19.3864C73.9955 19.378 73.8228 19.3012 73.6959 19.1718C73.5689 19.0425 73.4973 18.8703 73.4958 18.6908C73.4942 18.5113 73.5628 18.338 73.6874 18.2065C78.6326 13.5501 84.7199 10.2244 91.3602 8.55117C98.0004 6.87796 104.969 6.91393 111.591 8.65562C118.212 10.3973 124.264 13.7857 129.159 18.4929C134.054 23.2001 137.626 29.0666 139.531 35.5248C139.558 35.6133 139.566 35.706 139.555 35.7975C139.545 35.8891 139.516 35.9778 139.471 36.0584C139.425 36.139 139.364 36.2101 139.29 36.2674C139.217 36.3247 139.132 36.3672 139.042 36.3924C138.978 36.4112 138.911 36.4209 138.844 36.4211Z" fill="#FF62C4"/>
<path d="M94.5961 84.5872H94.4729C87.6431 83.4387 81.2394 80.5554 75.8997 76.2245C70.56 71.8937 66.4707 66.2665 64.0392 59.9036C61.6077 53.5406 60.9189 46.6639 62.0413 39.9586C63.1637 33.2533 66.0583 26.9535 70.4365 21.6866C70.4939 21.6095 70.5667 21.5448 70.6504 21.4962C70.7342 21.4476 70.8272 21.4163 70.9237 21.4042C71.0202 21.392 71.1182 21.3992 71.2117 21.4254C71.3053 21.4516 71.3924 21.4963 71.4678 21.5566C71.5432 21.6169 71.6052 21.6916 71.6502 21.7762C71.6952 21.8608 71.7221 21.9535 71.7293 22.0487C71.7365 22.1438 71.7239 22.2394 71.6922 22.3296C71.6605 22.4198 71.6105 22.5027 71.545 22.5733C67.33 27.6522 64.5446 33.7248 63.4659 40.187C62.3871 46.6492 63.0527 53.2757 65.3963 59.4073C67.7399 65.539 71.6799 70.9621 76.8243 75.1371C81.9688 79.3121 88.1383 82.0935 94.7192 83.2047C94.8933 83.2375 95.0487 83.3323 95.1555 83.471C95.2624 83.6096 95.313 83.7821 95.2977 83.9552C95.2824 84.1283 95.2022 84.2897 95.0726 84.4082C94.943 84.5267 94.7733 84.5939 94.5961 84.5968V84.5872Z" fill="#FF62C4"/>
<path d="M123.974 43.4719L117.284 43.9168L110.899 44.3554C110.894 43.6811 110.745 43.0154 110.462 42.4008C110.182 41.789 109.773 41.2421 109.262 40.7958C107.902 39.5145 106.245 38.5765 104.433 38.0625C101.925 37.2075 99.1812 37.3038 96.7419 38.3326C95.5822 38.9194 94.5601 39.7369 93.7408 40.7329C92.9216 41.7288 92.3232 42.8815 91.9839 44.1171C91.5113 45.5582 91.3394 47.078 91.4782 48.5857C91.6287 49.8698 92.1354 51.0889 92.9432 52.1103C93.6676 53.0892 94.571 53.9276 95.6075 54.583C96.6694 55.2406 97.8146 55.7588 99.0139 56.1245C100.839 56.7348 102.786 56.9134 104.696 56.6457C105.492 56.5821 106.265 56.3535 106.964 55.9751C107.667 55.5948 108.28 55.0739 108.763 54.4464L109.162 53.7726L95.0857 49.466L100.839 42.3182L123.17 49.1133L116.04 70.7635L105.768 67.6456L106.692 64.7661C102.536 66.3494 97.9334 66.3923 93.7471 64.8869C88.503 63.5203 83.9845 60.2506 81.1066 55.7399C79.7395 53.5166 78.9091 51.0162 78.6789 48.4299C78.4442 45.8296 78.8086 43.2108 79.7453 40.7672C80.4614 38.2092 81.7665 35.8465 83.5601 33.8609C85.3446 31.8891 87.5682 30.347 90.0586 29.3541C95.5949 27.2992 101.697 27.2462 107.269 29.2047C111.278 30.4205 114.958 32.5037 118.036 35.3006C120.806 37.3796 122.874 40.2263 123.974 43.4719Z" fill="#FF62C4"/>
<path d="M113.123 19.9607L103.944 17.1162L98.8488 33.303L108.002 36.1952L113.123 19.9607Z" fill="#FF62C4"/>
<path d="M91.8543 56.1455L87.5079 70.7654L96.7452 73.807L101.143 59.2284L91.8543 56.1455Z" fill="#FF62C4"/>
<path d="M286.472 77.6257L281.857 80.6673L277.472 83.5658C277.183 83.0843 276.794 82.6675 276.331 82.3422C275.873 82.0158 275.349 81.7894 274.795 81.678C273.279 81.3125 271.695 81.3125 270.179 81.678C268.02 82.0842 266.094 83.2678 264.779 84.996C264.195 85.8869 263.807 86.8875 263.639 87.9338C263.472 88.9802 263.529 90.0493 263.807 91.0728C264.075 92.2979 264.593 93.457 265.33 94.4799C265.978 95.342 266.857 96.0118 267.868 96.4155C268.8 96.8241 269.801 97.058 270.821 97.1051C271.86 97.1469 272.899 97.0539 273.913 96.8286C275.48 96.5266 276.952 95.8643 278.208 94.8963C278.75 94.5284 279.206 94.0518 279.546 93.4978C279.89 92.9408 280.111 92.3193 280.194 91.6735V91.0379L268.286 93.6631L269.395 86.2006L288.271 82.0117L292.287 100.445L283.611 102.378L283.056 99.937C280.743 102.751 277.464 104.642 273.832 105.257C269.495 106.405 264.875 105.895 260.906 103.83C258.991 102.794 257.342 101.345 256.083 99.5905C253.689 95.902 252.747 91.4839 253.435 87.1636C253.883 85.018 254.829 83.0026 256.2 81.2743C259.299 77.5473 263.653 75.0264 268.478 74.1646C271.866 73.4113 275.383 73.4113 278.771 74.1646C281.634 74.5368 284.316 75.7424 286.472 77.6257Z" fill="#FF62C4"/>
<path d="M268.776 65.1758L260.997 66.8603L264.176 80.5267L271.955 78.8867L268.776 65.1758Z" fill="#FF62C4"/>
<path d="M268.799 99.7517L271.855 112.004L279.763 110.434L276.749 98.1816L268.799 99.7517Z" fill="#FF62C4"/>
<path d="M0.418109 105.313C0.292535 105.367 0.186392 105.456 0.113444 105.57C0.0390806 105.683 -0.000330344 105.814 2.08579e-06 105.948C3.86579e-05 106.083 0.0394195 106.214 0.113444 106.327C0.187425 106.44 0.293265 106.529 0.418109 106.584L2.63506 107.487C4.26005 108.092 5.73576 109.028 6.96486 110.233C8.19396 111.438 9.14853 112.885 9.7656 114.479C10.0522 115.219 10.3768 115.945 10.7379 116.653C10.7929 116.776 10.8844 116.88 11.0005 116.952C11.1155 117.024 11.2494 117.063 11.3862 117.063C11.5229 117.063 11.6568 117.024 11.7719 116.952C11.8879 116.88 11.9794 116.776 12.0344 116.653C12.2872 116.077 12.6211 115.34 12.9549 114.479C13.5852 112.893 14.5444 111.453 15.7718 110.249C16.9992 109.045 18.4681 108.105 20.0854 107.487L22.3024 106.584C22.4272 106.529 22.5331 106.44 22.607 106.327C22.682 106.214 22.7225 106.083 22.7237 105.948C22.7229 105.814 22.6824 105.683 22.607 105.57C22.5341 105.456 22.4279 105.367 22.3024 105.313C21.5802 104.959 20.8403 104.64 20.0854 104.359C18.4604 103.754 16.9847 102.818 15.7556 101.613C14.5265 100.408 13.572 98.9606 12.9549 97.3672C12.6308 96.5059 12.2872 95.778 12.0344 95.1932C11.9803 95.0696 11.8886 94.9652 11.7719 94.8945C11.6576 94.82 11.5234 94.7803 11.3862 94.7803C11.2489 94.7803 11.1148 94.82 11.0005 94.8945C10.8837 94.9652 10.7921 95.0696 10.7379 95.1932C10.3768 95.9014 10.0522 96.6269 9.7656 97.3672C9.14853 98.9606 8.19396 100.408 6.96486 101.613C5.73576 102.818 4.26005 103.754 2.63506 104.359C1.8802 104.64 1.14028 104.959 0.418109 105.313Z" fill="#FF62C4"/>
<path d="M100.43 133.197C100.307 133.254 100.201 133.343 100.126 133.455C100.052 133.568 100.012 133.7 100.012 133.834C100.012 133.969 100.052 134.101 100.126 134.214C100.201 134.326 100.307 134.415 100.43 134.472L102.65 135.374C104.27 135.981 105.741 136.915 106.967 138.118C108.193 139.32 109.146 140.762 109.765 142.351C110.089 143.212 110.436 143.94 110.737 144.528C110.795 144.649 110.886 144.752 111 144.826C111.115 144.899 111.25 144.937 111.387 144.937C111.524 144.937 111.659 144.899 111.774 144.826C111.888 144.752 111.979 144.649 112.037 144.528C112.286 143.952 112.62 143.212 112.957 142.351C113.588 140.769 114.546 139.333 115.771 138.133C116.995 136.932 118.459 135.993 120.072 135.374L122.292 134.472C122.415 134.415 122.521 134.326 122.597 134.214C122.67 134.101 122.71 133.969 122.71 133.834C122.71 133.7 122.67 133.568 122.597 133.455C122.521 133.343 122.415 133.254 122.292 133.197C121.705 132.911 120.95 132.584 120.072 132.244C118.452 131.637 116.981 130.703 115.755 129.5C114.529 128.298 113.576 126.856 112.957 125.267C112.633 124.406 112.286 123.678 112.037 123.09C111.979 122.969 111.888 122.866 111.774 122.792C111.659 122.719 111.524 122.681 111.387 122.681C111.25 122.681 111.115 122.719 111 122.792C110.886 122.866 110.795 122.969 110.737 123.09C110.445 123.666 110.108 124.406 109.765 125.267C109.146 126.856 108.193 128.298 106.967 129.5C105.741 130.703 104.27 131.637 102.65 132.244C101.756 132.584 101.001 132.911 100.43 133.197Z" fill="#FF62C4"/>
<path d="M236.49 26.0366C236.364 26.0905 236.257 26.1801 236.183 26.2941C236.109 26.4069 236.069 26.5381 236.069 26.6723C236.069 26.8064 236.109 26.9377 236.183 27.0505C236.257 27.1644 236.364 27.254 236.49 27.3079L238.707 28.2105C240.332 28.8156 241.808 29.7517 243.037 30.9569C244.266 32.1622 245.221 33.6092 245.838 35.2027C246.125 35.9429 246.449 36.6684 246.81 37.3766C246.865 37.4997 246.957 37.6038 247.073 37.6754C247.187 37.7488 247.322 37.7875 247.459 37.7866C247.595 37.7865 247.729 37.7479 247.844 37.6754C247.959 37.6028 248.051 37.499 248.107 37.3766C248.356 36.8013 248.693 36.064 249.027 35.2027C249.658 33.6169 250.617 32.1767 251.845 30.9732C253.072 29.7697 254.541 28.8289 256.158 28.2105L258.378 27.3079C258.503 27.2531 258.61 27.1639 258.684 27.0511C258.759 26.9383 258.799 26.8067 258.799 26.6723C258.799 26.5378 258.759 26.4062 258.684 26.2934C258.61 26.1806 258.503 26.0914 258.378 26.0366C257.655 25.6819 256.914 25.3637 256.158 25.0831C254.533 24.477 253.058 23.5406 251.829 22.3355C250.6 21.1304 249.645 19.6838 249.027 18.091C248.703 17.2297 248.356 16.5019 248.107 15.9171C248.051 15.7947 247.959 15.6909 247.844 15.6183C247.729 15.5448 247.596 15.5051 247.459 15.5039C247.321 15.5042 247.187 15.5439 247.073 15.6183C246.957 15.6899 246.865 15.7939 246.81 15.9171C246.449 16.6252 246.125 17.3508 245.838 18.091C245.221 19.6845 244.266 21.1315 243.037 22.3368C241.808 23.542 240.332 24.4781 238.707 25.0831C237.952 25.3636 237.212 25.6819 236.49 26.0366Z" fill="#FF62C4"/>
<path d="M121.498 111.67C121.426 111.701 121.366 111.752 121.323 111.816C121.28 111.881 121.258 111.956 121.258 112.032C121.258 112.109 121.28 112.184 121.323 112.248C121.366 112.312 121.426 112.363 121.498 112.395L122.762 112.909C123.686 113.255 124.526 113.787 125.225 114.473C125.924 115.159 126.468 115.982 126.82 116.889C127.011 117.378 127.202 117.801 127.367 118.128C127.399 118.198 127.451 118.258 127.516 118.3C127.582 118.342 127.659 118.364 127.737 118.363C127.815 118.363 127.892 118.341 127.957 118.3C128.024 118.259 128.076 118.199 128.106 118.128C128.252 117.81 128.43 117.378 128.631 116.889C128.991 115.987 129.537 115.168 130.236 114.483C130.934 113.798 131.77 113.262 132.689 112.909L133.953 112.395C134.025 112.363 134.085 112.312 134.128 112.248C134.171 112.184 134.193 112.109 134.193 112.032C134.193 111.956 134.171 111.881 134.128 111.816C134.085 111.752 134.025 111.701 133.953 111.67C133.542 111.469 133.12 111.289 132.689 111.133C131.763 110.786 130.922 110.251 130.222 109.563C129.522 108.874 128.978 108.047 128.628 107.138C128.44 106.645 128.249 106.226 128.103 105.898C128.073 105.827 128.021 105.767 127.954 105.727C127.888 105.685 127.812 105.663 127.734 105.663C127.655 105.663 127.579 105.685 127.513 105.727C127.447 105.768 127.396 105.828 127.364 105.898C127.199 106.216 127.008 106.645 126.816 107.138C126.465 108.044 125.921 108.867 125.222 109.553C124.522 110.239 123.683 110.772 122.758 111.117C122.329 111.279 121.908 111.464 121.498 111.67Z" fill="#FF62C4"/>
<path d="M206.257 151.008C206.186 151.039 206.125 151.09 206.082 151.154C206.04 151.219 206.017 151.294 206.017 151.371C206.017 151.447 206.04 151.522 206.082 151.587C206.125 151.651 206.186 151.702 206.257 151.733L207.521 152.248C208.446 152.593 209.285 153.126 209.984 153.812C210.684 154.497 211.227 155.321 211.579 156.227C211.74 156.649 211.923 157.063 212.127 157.467C212.159 157.536 212.211 157.596 212.276 157.638C212.342 157.679 212.418 157.701 212.496 157.701C212.575 157.701 212.651 157.679 212.717 157.638C212.782 157.596 212.834 157.536 212.866 157.467C213.009 157.149 213.19 156.72 213.391 156.227C213.749 155.326 214.294 154.508 214.99 153.823C215.686 153.138 216.519 152.602 217.436 152.248L218.7 151.733C218.771 151.702 218.832 151.651 218.875 151.587C218.917 151.522 218.94 151.447 218.94 151.371C218.94 151.294 218.918 151.219 218.875 151.154C218.832 151.09 218.772 151.039 218.7 151.008C218.376 150.846 217.935 150.659 217.436 150.471C216.512 150.126 215.672 149.593 214.973 148.907C214.273 148.222 213.73 147.398 213.378 146.492C213.187 146.003 212.996 145.58 212.853 145.253C212.821 145.183 212.769 145.123 212.704 145.081C212.638 145.04 212.562 145.018 212.483 145.018C212.405 145.018 212.329 145.04 212.263 145.081C212.198 145.123 212.146 145.183 212.114 145.253C211.945 145.57 211.757 146.003 211.566 146.492C211.214 147.398 210.671 148.222 209.971 148.907C209.272 149.593 208.433 150.126 207.508 150.471C207.019 150.659 206.591 150.846 206.257 151.008Z" fill="#FF62C4"/>
<path d="M287.15 169.514C287.079 169.546 287.018 169.597 286.975 169.661C286.933 169.725 286.91 169.8 286.91 169.877C286.91 169.953 286.933 170.028 286.975 170.093C287.018 170.157 287.079 170.208 287.15 170.239L288.414 170.754C289.338 171.099 290.178 171.632 290.877 172.318C291.577 173.004 292.12 173.827 292.472 174.733C292.663 175.223 292.854 175.645 293.02 175.973C293.052 176.042 293.104 176.1 293.169 176.141C293.234 176.184 293.311 176.208 293.389 176.208C293.468 176.208 293.545 176.185 293.61 176.141C293.676 176.102 293.729 176.043 293.759 175.973C293.905 175.655 294.083 175.223 294.284 174.733C294.644 173.831 295.19 173.012 295.888 172.327C296.587 171.642 297.422 171.107 298.342 170.754L299.606 170.239C299.677 170.208 299.738 170.157 299.781 170.093C299.823 170.028 299.845 169.953 299.845 169.877C299.845 169.8 299.823 169.725 299.781 169.661C299.738 169.597 299.677 169.546 299.606 169.514C299.194 169.313 298.772 169.133 298.342 168.974C297.418 168.629 296.579 168.097 295.879 167.411C295.18 166.726 294.636 165.904 294.284 164.998C294.096 164.506 293.905 164.086 293.759 163.759C293.729 163.687 293.677 163.627 293.61 163.587C293.544 163.546 293.467 163.524 293.389 163.523C293.311 163.523 293.234 163.545 293.169 163.587C293.103 163.629 293.051 163.688 293.02 163.759C292.854 164.076 292.663 164.506 292.472 164.998C292.119 165.902 291.575 166.723 290.877 167.407C290.178 168.091 289.34 168.623 288.417 168.968C287.915 169.155 287.484 169.343 287.15 169.514Z" fill="#FF62C4"/>
<path d="M154.882 22.8072C154.833 22.8291 154.791 22.8645 154.762 22.909C154.732 22.9535 154.717 23.0053 154.717 23.0583C154.717 23.1114 154.732 23.1633 154.762 23.2077C154.79 23.2528 154.832 23.2882 154.882 23.3094L155.76 23.6685C156.401 23.907 156.982 24.2764 157.465 24.7523C157.95 25.2281 158.328 25.7988 158.574 26.4272C158.684 26.7198 158.81 27.0063 158.953 27.2854C158.975 27.3334 159.011 27.3742 159.056 27.403C159.102 27.432 159.155 27.4474 159.209 27.4474C159.263 27.4474 159.316 27.432 159.361 27.403C159.406 27.3742 159.442 27.3334 159.465 27.2854C159.565 27.0597 159.698 26.7673 159.831 26.4272C160.079 25.8012 160.458 25.2329 160.943 24.7587C161.427 24.2848 162.005 23.9138 162.641 23.6685L163.52 23.3094C163.569 23.2882 163.611 23.2528 163.639 23.2077C163.669 23.1633 163.685 23.1114 163.685 23.0583C163.685 23.0053 163.669 22.9535 163.64 22.909C163.61 22.8645 163.569 22.8291 163.52 22.8072C163.233 22.6685 162.94 22.5444 162.641 22.4354C162.002 22.1945 161.421 21.8254 160.936 21.3516C160.451 20.8764 160.074 20.3055 159.831 19.6766C159.698 19.3366 159.565 19.041 159.465 18.8153C159.442 18.7673 159.406 18.7265 159.361 18.6977C159.316 18.6688 159.263 18.6533 159.209 18.6533C159.155 18.6533 159.102 18.6688 159.056 18.6977C159.011 18.7265 158.975 18.7673 158.953 18.8153C158.811 19.0958 158.685 19.3833 158.574 19.6766C158.329 20.3045 157.951 20.8747 157.467 21.3501C156.982 21.8254 156.401 22.1952 155.76 22.4354C155.42 22.5657 155.125 22.6928 154.882 22.8072Z" fill="#FF62C4"/>
<path d="M369.17 252.484C369.135 252.489 369.099 252.489 369.063 252.484C368.974 252.46 368.895 252.406 368.84 252.332C368.785 252.258 368.758 252.169 368.762 252.077C369.55 235.204 366.273 225.628 356.679 216.738C356.638 216.7 356.605 216.654 356.583 216.602C356.56 216.551 356.549 216.496 356.549 216.44C356.551 216.383 356.564 216.328 356.589 216.277C356.613 216.226 356.648 216.181 356.692 216.144L362.964 210.805C363.017 210.759 363.082 210.728 363.152 210.716C379.007 207.665 381.649 220.419 383.399 228.86C383.6 229.814 383.788 230.745 383.989 231.594C384.006 231.674 383.999 231.757 383.968 231.833C383.937 231.909 383.883 231.974 383.814 232.019C383.745 232.066 383.664 232.091 383.581 232.091C383.497 232.091 383.416 232.066 383.347 232.019L378.44 228.498C380.657 232.811 380.177 237.925 379.289 241.662C379.274 241.729 379.241 241.792 379.194 241.843C379.146 241.894 379.087 241.932 379.02 241.955C378.953 241.975 378.882 241.979 378.813 241.965C378.744 241.952 378.679 241.922 378.625 241.878L374.152 238.128C373.948 242.52 372.577 246.709 369.53 252.287C369.493 252.348 369.44 252.398 369.377 252.432C369.314 252.467 369.243 252.485 369.17 252.484ZM357.57 216.449C366.646 225.005 370.107 234.645 369.65 250.307C372.22 245.279 373.309 241.408 373.361 237.257C373.361 237.181 373.384 237.107 373.427 237.043C373.469 236.979 373.53 236.929 373.601 236.898C373.672 236.867 373.75 236.855 373.827 236.866C373.904 236.877 373.976 236.909 374.035 236.958L378.644 240.82C379.506 236.774 379.775 231.339 376.7 227.201C376.641 227.124 376.613 227.029 376.62 226.934C376.628 226.838 376.669 226.748 376.738 226.68C376.808 226.612 376.899 226.571 376.997 226.564C377.094 226.556 377.191 226.583 377.27 226.639L382.971 230.732C382.855 230.181 382.735 229.61 382.611 229.019C380.832 220.438 378.398 208.662 363.434 211.482L357.57 216.449Z" fill="#FF62C4"/>
<path d="M296.358 231.864H296.271C296.179 231.845 296.097 231.796 296.038 231.725C295.979 231.654 295.947 231.565 295.946 231.473C295.927 225.142 296.711 220.823 298.633 216.854L292.887 218.125C292.818 218.14 292.747 218.137 292.679 218.118C292.612 218.098 292.551 218.062 292.501 218.014C292.453 217.963 292.418 217.901 292.401 217.834C292.383 217.767 292.383 217.696 292.401 217.629C293.405 213.92 295.428 209.181 299.447 206.388L293.431 207.252C293.349 207.263 293.265 207.249 293.19 207.213C293.116 207.176 293.055 207.118 293.015 207.046C292.975 206.974 292.958 206.893 292.966 206.811C292.975 206.73 293.008 206.653 293.062 206.591C293.642 205.933 294.248 205.212 294.89 204.446C300.474 197.771 308.911 187.725 321.467 197.679C321.523 197.724 321.565 197.782 321.59 197.848L324.585 205.425C324.607 205.475 324.618 205.529 324.618 205.583C324.618 205.638 324.607 205.692 324.585 205.742C324.559 205.792 324.522 205.836 324.477 205.872C324.433 205.907 324.381 205.934 324.326 205.949C311.595 209.41 304.121 216.377 296.744 231.648C296.707 231.716 296.651 231.773 296.583 231.811C296.515 231.849 296.437 231.868 296.358 231.864ZM299.385 215.859C299.456 215.858 299.525 215.876 299.587 215.91C299.649 215.944 299.7 215.993 299.737 216.052C299.773 216.111 299.794 216.179 299.796 216.248C299.798 216.317 299.781 216.386 299.748 216.447C297.804 220.133 296.922 224.055 296.786 229.675C303.874 215.624 311.543 208.698 323.661 205.282L320.868 198.216C308.995 188.872 301.213 198.153 295.525 204.935L294.391 206.283L301.385 205.275C301.482 205.26 301.581 205.281 301.664 205.332C301.747 205.384 301.808 205.463 301.836 205.555C301.863 205.647 301.857 205.745 301.818 205.833C301.779 205.921 301.709 205.992 301.622 206.035C296.912 208.279 294.549 213.202 293.379 217.159L299.295 215.856C299.325 215.853 299.355 215.855 299.385 215.859Z" fill="#FF62C4"/>
<path d="M339.702 243.592C354.872 243.592 367.171 231.561 367.171 216.72C367.171 201.879 354.872 189.848 339.702 189.848C324.531 189.848 312.233 201.879 312.233 216.72C312.233 231.561 324.531 243.592 339.702 243.592Z" fill="#FF62C4"/>
<path d="M341.002 242.207C355.723 242.207 367.657 230.533 367.657 216.133C367.657 201.732 355.723 190.059 341.002 190.059C326.28 190.059 314.346 201.732 314.346 216.133C314.346 230.533 326.28 242.207 341.002 242.207Z" fill="white"/>
<path d="M341.014 242.613C336.674 242.615 332.397 241.594 328.542 239.637C324.688 237.68 321.369 234.845 318.864 231.369C316.809 228.532 315.35 225.323 314.571 221.928C313.792 218.533 313.709 215.02 314.327 211.594C315.258 206.431 317.727 201.654 321.423 197.865C325.118 194.076 329.874 191.444 335.092 190.3C340.311 189.157 345.757 189.554 350.746 191.44C355.734 193.327 360.042 196.619 363.126 200.902C365.181 203.739 366.641 206.948 367.42 210.343C368.199 213.738 368.282 217.251 367.663 220.677C366.555 226.82 363.277 232.384 358.405 236.395C353.533 240.406 347.376 242.607 341.014 242.613ZM340.989 190.462C334.819 190.464 328.847 192.596 324.12 196.486C319.394 200.375 316.216 205.772 315.144 211.73C314.555 215.055 314.641 218.462 315.396 221.754C316.151 225.047 317.56 228.161 319.543 230.919C321.526 233.677 324.044 236.025 326.953 237.828C329.862 239.631 333.105 240.855 336.496 241.428C343.346 242.597 350.389 241.054 356.08 237.138C361.771 233.222 365.645 227.251 366.853 220.537C367.441 217.212 367.356 213.806 366.601 210.514C365.846 207.221 364.437 204.107 362.454 201.349C360.471 198.591 357.953 196.243 355.044 194.44C352.135 192.637 348.892 191.413 345.5 190.84C344.01 190.587 342.501 190.459 340.989 190.458V190.462Z" fill="#FF62C4"/>
<path d="M341.001 238.014C353.354 238.014 363.369 228.217 363.369 216.132C363.369 204.047 353.354 194.25 341.001 194.25C328.648 194.25 318.634 204.047 318.634 216.132C318.634 228.217 328.648 238.014 341.001 238.014Z" fill="white"/>
<path d="M357.454 231.367C357.351 231.366 357.253 231.327 357.178 231.259C357.138 231.224 357.106 231.181 357.083 231.132C357.06 231.084 357.048 231.032 357.046 230.98C357.043 230.927 357.052 230.874 357.071 230.824C357.09 230.775 357.118 230.729 357.155 230.69C358.575 229.185 359.767 227.488 360.695 225.65C360.748 225.563 360.832 225.499 360.932 225.47C361.031 225.442 361.137 225.451 361.23 225.496C361.322 225.541 361.394 225.618 361.431 225.712C361.469 225.807 361.468 225.912 361.43 226.006C360.465 227.913 359.227 229.675 357.752 231.237C357.714 231.278 357.668 231.31 357.616 231.333C357.565 231.355 357.51 231.367 357.454 231.367Z" fill="#FF62C4"/>
<path d="M362.51 210.513C362.421 210.513 362.334 210.485 362.263 210.433C362.192 210.381 362.14 210.308 362.114 210.224C360.992 206.332 358.766 202.832 355.695 200.132C352.625 197.431 348.835 195.641 344.768 194.968C341.368 194.395 337.878 194.612 334.579 195.6C331.279 196.587 328.262 198.32 325.768 200.657C325.691 200.733 325.587 200.775 325.478 200.775C325.369 200.775 325.265 200.733 325.188 200.657C325.15 200.62 325.119 200.576 325.098 200.527C325.078 200.478 325.067 200.426 325.067 200.373C325.067 200.32 325.078 200.268 325.098 200.219C325.119 200.17 325.15 200.126 325.188 200.089C328.02 197.423 331.505 195.518 335.308 194.561C339.11 193.603 343.1 193.624 346.892 194.621C350.683 195.619 354.148 197.559 356.95 200.255C359.753 202.951 361.799 206.31 362.889 210.008C362.904 210.058 362.909 210.111 362.904 210.164C362.898 210.216 362.881 210.267 362.856 210.313C362.83 210.359 362.795 210.4 362.752 210.432C362.71 210.465 362.662 210.489 362.61 210.504C362.577 210.51 362.544 210.513 362.51 210.513Z" fill="#FF62C4"/>
<path d="M337.164 238.092C337.14 238.095 337.116 238.095 337.093 238.092C333.182 237.434 329.515 235.783 326.457 233.303C323.399 230.823 321.058 227.601 319.665 223.957C318.273 220.314 317.878 216.376 318.521 212.536C319.163 208.696 320.821 205.089 323.328 202.073C323.396 201.988 323.496 201.934 323.606 201.922C323.715 201.91 323.825 201.942 323.911 202.009C323.997 202.077 324.052 202.175 324.064 202.282C324.076 202.389 324.045 202.497 323.976 202.581C321.562 205.489 319.967 208.967 319.349 212.667C318.732 216.367 319.113 220.162 320.455 223.673C321.796 227.184 324.053 230.29 326.998 232.68C329.944 235.071 333.477 236.664 337.245 237.3C337.35 237.312 337.447 237.364 337.514 237.444C337.581 237.525 337.614 237.628 337.605 237.732C337.596 237.835 337.547 237.931 337.467 238C337.387 238.068 337.283 238.104 337.177 238.098L337.164 238.092Z" fill="#FF62C4"/>
<path d="M353.995 214.548L350.158 214.803L346.508 215.054C346.504 214.668 346.419 214.287 346.259 213.935C346.098 213.585 345.864 213.272 345.572 213.016C344.792 212.282 343.842 211.745 342.804 211.45C341.368 210.961 339.798 211.017 338.402 211.605C337.738 211.94 337.152 212.407 336.684 212.978C336.214 213.55 335.871 214.211 335.676 214.92C335.407 215.74 335.309 216.605 335.388 217.463C335.473 218.199 335.764 218.899 336.227 219.484C336.642 220.044 337.158 220.523 337.751 220.898C338.357 221.275 339.011 221.572 339.695 221.782C340.737 222.13 341.848 222.232 342.937 222.078C343.391 222.042 343.833 221.912 344.233 221.696C344.634 221.478 344.983 221.18 345.26 220.822L345.487 220.434L337.43 217.968L340.723 213.875L353.509 217.768L349.419 230.163L343.539 228.38L344.068 226.727C341.688 227.636 339.052 227.661 336.655 226.797C333.653 226.015 331.067 224.144 329.418 221.563C328.635 220.291 328.159 218.86 328.027 217.38C327.892 214.358 328.885 211.392 330.821 209.037C331.847 207.905 333.124 207.018 334.555 206.447C337.726 205.271 341.22 205.24 344.411 206.361C346.704 207.061 348.808 208.256 350.569 209.857C352.166 211.048 353.36 212.683 353.995 214.548Z" fill="#FF62C4"/>
<path d="M347.782 201.083L342.525 199.452L339.608 208.72L344.849 210.379L347.782 201.083Z" fill="#FF62C4"/>
<path d="M335.602 221.804L333.113 230.178L338.402 231.92L340.92 223.561L335.602 221.804Z" fill="#FF62C4"/>
<path d="M371.306 193.121C371.235 193.153 371.175 193.204 371.133 193.268C371.091 193.333 371.068 193.408 371.068 193.485C371.068 193.561 371.091 193.636 371.133 193.701C371.175 193.765 371.235 193.816 371.306 193.848L372.57 194.363C373.494 194.708 374.333 195.241 375.033 195.926C375.732 196.611 376.276 197.434 376.628 198.339C376.79 198.761 376.972 199.175 377.176 199.579C377.208 199.649 377.26 199.708 377.325 199.75C377.391 199.792 377.468 199.814 377.546 199.814C377.624 199.814 377.7 199.792 377.766 199.75C377.831 199.708 377.883 199.649 377.915 199.579C378.058 199.261 378.239 198.832 378.44 198.339C378.801 197.438 379.347 196.62 380.046 195.936C380.744 195.251 381.579 194.716 382.498 194.363L383.762 193.848C383.833 193.816 383.893 193.765 383.936 193.701C383.978 193.636 384 193.561 384 193.485C384 193.408 383.978 193.333 383.936 193.268C383.893 193.204 383.833 193.153 383.762 193.121C383.438 192.959 382.997 192.771 382.498 192.583C381.574 192.238 380.734 191.706 380.035 191.02C379.336 190.334 378.792 189.511 378.44 188.604C378.249 188.115 378.058 187.692 377.915 187.365C377.883 187.296 377.831 187.237 377.766 187.196C377.701 187.153 377.624 187.13 377.546 187.13C377.467 187.13 377.39 187.153 377.325 187.196C377.26 187.237 377.208 187.296 377.176 187.365C377.008 187.683 376.82 188.115 376.628 188.604C376.277 189.511 375.733 190.334 375.034 191.02C374.334 191.706 373.495 192.238 372.57 192.583C372.068 192.771 371.64 192.959 371.306 193.121Z" fill="#FF62C4"/>
</svg>
