<svg width="420" height="328" viewBox="0 0 420 328" fill="none" xmlns="http://www.w3.org/2000/svg">
<path d="M419.422 218.482C409.951 217.026 408.589 212.809 406.825 199.824C405.587 212.141 404.008 216.844 394.444 218.239C402.863 221.758 405.804 223.033 407.32 237.291C409.332 222.85 411.158 221.576 419.422 218.482Z" fill="#FFC806"/>
<g clip-path="url(#clip0_10935_23441)">
<path fill-rule="evenodd" clip-rule="evenodd" d="M94.4427 85.4531H335.342C343.508 85.475 351.333 88.7326 357.107 94.514C362.88 100.295 366.134 108.13 366.156 116.307V260.264C366.134 268.44 362.88 276.275 357.107 282.057C351.333 287.838 343.508 291.096 335.342 291.117H94.4427C86.2772 291.096 78.4524 287.838 72.6785 282.057C66.9046 276.275 63.6512 268.44 63.6294 260.264V116.307C63.6512 108.13 66.9046 100.295 72.6785 94.514C78.4524 88.7326 86.2772 85.475 94.4427 85.4531Z" fill="#80A4FF"/>
<path d="M335.342 88.7795H94.4427C90.8349 88.7828 87.2632 89.4988 83.9321 90.8863C80.601 92.2738 77.576 94.3056 75.0303 96.8653C72.4734 99.4148 70.4439 102.444 69.0582 105.781C67.6725 109.117 66.9578 112.694 66.955 116.307V260.26C66.9583 263.873 67.6733 267.449 69.059 270.785C70.4447 274.12 72.4738 277.149 75.0303 279.698C77.576 282.258 80.601 284.29 83.9321 285.677C87.2632 287.065 90.8349 287.781 94.4427 287.784H335.342C342.626 287.762 349.605 284.855 354.755 279.698C359.905 274.541 362.808 267.553 362.83 260.26V116.307C362.807 109.014 359.904 102.026 354.754 96.8686C349.604 91.7113 342.626 88.8033 335.342 88.7795ZM94.4427 82.1348H335.342C344.386 82.1596 353.051 85.7679 359.445 92.1711C365.84 98.5744 369.442 107.252 369.466 116.307V260.26C369.441 269.315 365.838 277.991 359.444 284.394C353.05 290.796 344.385 294.404 335.342 294.429H94.4427C89.9634 294.426 85.5286 293.539 81.3927 291.817C77.2567 290.095 73.5009 287.572 70.3407 284.394C67.1663 281.229 64.647 277.469 62.9273 273.327C61.2075 269.186 60.3211 264.746 60.3188 260.26V116.307C60.3206 111.821 61.2067 107.38 62.9265 103.238C64.6463 99.0957 67.1659 95.3344 70.3407 92.1696C73.5009 88.9911 77.2567 86.4686 81.3927 84.7465C85.5286 83.0245 89.9634 82.137 94.4427 82.1348Z" fill="#343BAB"/>
<path fill-rule="evenodd" clip-rule="evenodd" d="M334.546 290.169L325.648 279.577L309.52 280.224C309.52 280.224 301.031 290.056 300.809 290.538C300.587 291.019 293.102 289.702 293.102 289.702L285.587 278.648L269.737 279.4L263.619 289.251L254.165 289.341L245.451 279.589L227.47 279.679L223.855 289.251L211.992 289.341L205.78 278.659L189.284 278.381L185.297 288.043L172.645 288.796L162.912 277.459C162.912 277.459 148.825 279.039 148.779 279.273C148.734 279.506 141.317 289.808 141.317 289.808C141.317 289.808 132.79 290.274 132.606 289.808C132.422 289.341 118.981 276.895 118.981 276.895L105.4 280.194C105.4 280.194 106.227 289.653 105.957 289.529C105.686 289.405 334.523 290.18 334.523 290.18" fill="#E2ED4C"/>
<path fill-rule="evenodd" clip-rule="evenodd" d="M356.028 292.395C350.55 291.586 343.282 291.09 335.361 291.09H94.4425C86.2544 291.09 78.7916 291.617 73.2602 292.471C68.4166 293.223 65.0534 294.22 63.9937 295.342C63.7813 295.536 63.6532 295.806 63.6367 296.094V298.073V319.486C63.6367 322.244 77.4989 324.498 94.45 324.498H335.342C352.286 324.498 366.155 322.24 366.155 319.486V296.102C366.148 294.653 362.244 293.329 356.028 292.395Z" fill="#80A4FF"/>
<path d="M335.342 327.836H94.4427C85.83 327.836 77.935 327.253 72.1557 326.312C64.8544 325.123 60.3188 322.757 60.3188 319.502V296.117C60.3188 292.863 64.8544 290.496 72.1557 289.307C77.935 288.366 85.83 287.783 94.4427 287.783H335.342C343.955 287.783 351.85 288.366 357.629 289.307C364.931 290.496 369.466 292.863 369.466 296.117V319.487C369.466 322.742 364.931 325.108 357.629 326.297C351.85 327.238 343.955 327.821 335.342 327.821M94.4427 321.176H335.342C343.669 321.176 351.181 320.635 356.566 319.758C360.433 319.13 362.83 319.987 362.83 319.487V296.102C362.83 295.602 360.433 296.479 356.566 295.831C351.181 294.955 343.669 294.413 335.342 294.413H94.4427C86.1156 294.413 78.6039 294.955 73.2191 295.831C69.3524 296.46 66.955 295.602 66.955 296.102V319.487C66.955 319.987 69.3524 319.13 73.2191 319.758C78.6039 320.65 86.1156 321.191 94.4427 321.191V321.176Z" fill="#343BAB"/>
<path fill-rule="evenodd" clip-rule="evenodd" d="M118.906 111.227H310.88C324.381 111.227 335.429 121.626 335.429 134.34V242.218C335.429 254.936 324.381 265.336 310.88 265.336H118.906C105.404 265.336 94.3564 254.936 94.3564 242.218V134.34C94.3564 121.626 105.404 111.227 118.906 111.227Z" fill="#B6CBFF"/>
<path d="M310.88 114.545H118.906C113.314 114.518 107.924 116.628 103.833 120.445C101.906 122.218 100.365 124.368 99.3045 126.764C98.2442 129.159 97.6881 131.747 97.6706 134.367V242.241C97.6881 244.861 98.2442 247.449 99.3045 249.844C100.365 252.239 101.906 254.39 103.833 256.163C107.926 259.974 113.316 262.078 118.906 262.047H310.88C316.469 262.078 321.859 259.974 325.952 256.163C327.879 254.39 329.42 252.239 330.481 249.844C331.541 247.449 332.097 244.861 332.115 242.241V134.367C332.097 131.747 331.541 129.159 330.481 126.764C329.42 124.368 327.879 122.218 325.952 120.445C321.859 116.634 316.469 114.529 310.88 114.56M118.906 107.919H310.88C318.156 107.895 325.167 110.648 330.488 115.618C335.583 120.419 338.755 127.049 338.755 134.359V242.233C338.755 249.544 335.59 256.174 330.488 260.975C325.167 265.945 318.156 268.698 310.88 268.673H118.906C111.63 268.698 104.618 265.945 99.2977 260.975C94.2023 256.174 91.0308 249.544 91.0308 242.233V134.359C91.0308 127.049 94.1948 120.438 99.2977 115.618C104.616 110.643 111.628 107.884 118.906 107.904V107.919Z" fill="#343BAB"/>
<path d="M217.384 289.314L223.595 275.942L224.749 273.451L227.488 273.466L246.859 273.56L249.606 273.572L250.737 276.07L256.761 289.348L248.975 292.862L244.082 282.083L230.194 282.015L225.14 292.896L217.384 289.314Z" fill="#343BAB"/>
<path d="M257.648 289.551L263.859 276.178L265.017 273.691L267.752 273.703L287.127 273.797L289.87 273.808L291.005 276.306L297.029 289.585L289.239 293.103L284.347 282.319L270.458 282.251L265.404 293.133L257.648 289.551Z" fill="#343BAB"/>
<path d="M297.916 289.793L304.127 276.421L305.281 273.93L308.02 273.941L327.391 274.035L330.134 274.05L331.269 276.545L337.293 289.827L329.507 293.341L324.614 282.557L310.726 282.49L305.671 293.375L297.916 289.793Z" fill="#343BAB"/>
<path d="M208.287 292.896L203.232 282.015L189.344 282.083L184.451 292.862L176.662 289.348L182.689 276.07L183.82 273.572L186.567 273.56L205.938 273.466L208.677 273.451L209.831 275.942L216.042 289.314L208.287 292.896Z" fill="#343BAB"/>
<path d="M168.019 293.133L162.968 282.251L149.08 282.319L144.187 293.103L136.397 289.585L142.421 276.306L143.556 273.808L146.299 273.797L165.67 273.703L168.409 273.691L169.567 276.178L175.775 289.551L168.019 293.133Z" fill="#343BAB"/>
<path d="M127.755 293.375L122.701 282.49L108.812 282.557L103.924 293.341L96.1338 289.827L102.157 276.545L103.288 274.05L106.035 274.035L125.406 273.941L128.146 273.93L129.303 276.421L135.511 289.793L127.755 293.375Z" fill="#343BAB"/>
<path d="M259.899 145.715H255.765C254.886 145.715 254.043 146.064 253.422 146.687C252.8 147.309 252.451 148.153 252.451 149.033V199.182C252.451 200.062 252.8 200.906 253.422 201.528C254.043 202.151 254.886 202.5 255.765 202.5H259.899C260.335 202.501 260.766 202.415 261.168 202.249C261.571 202.082 261.937 201.838 262.245 201.529C262.553 201.221 262.798 200.855 262.964 200.452C263.131 200.049 263.217 199.618 263.217 199.182V149.041C263.218 148.604 263.133 148.172 262.967 147.768C262.8 147.364 262.556 146.997 262.248 146.688C261.939 146.379 261.573 146.134 261.17 145.967C260.767 145.8 260.335 145.714 259.899 145.715Z" fill="#005734"/>
<path fill-rule="evenodd" clip-rule="evenodd" d="M197.863 93.0938C199.387 93.0947 200.848 93.7017 201.926 94.7812C203.003 95.8607 203.608 97.3244 203.608 98.8505C203.607 100.376 203.001 101.839 201.924 102.917C200.847 103.996 199.386 104.603 197.863 104.604C196.338 104.604 194.877 103.998 193.799 102.919C192.72 101.84 192.114 100.377 192.113 98.8505C192.113 98.0945 192.262 97.3459 192.551 96.6475C192.84 95.949 193.263 95.3144 193.797 94.7799C194.331 94.2453 194.965 93.8212 195.662 93.5319C196.36 93.2426 197.108 93.0938 197.863 93.0938Z" fill="#343BAB"/>
<path fill-rule="evenodd" clip-rule="evenodd" d="M210.293 96.9141H243.913C244.085 96.9141 244.249 96.9822 244.37 97.1036C244.492 97.225 244.56 97.3896 244.56 97.5613V100.571C244.56 100.743 244.492 100.908 244.37 101.029C244.249 101.15 244.085 101.219 243.913 101.219H210.293C210.121 101.219 209.957 101.15 209.835 101.029C209.713 100.908 209.644 100.743 209.643 100.571V97.5613C209.644 97.3893 209.713 97.2246 209.835 97.1034C209.957 96.9821 210.121 96.9141 210.293 96.9141Z" fill="#343BAB"/>
<path d="M12.2394 111.923C12.4308 112.275 12.6642 112.602 12.9345 112.897C12.8248 113.001 12.6976 113.085 12.5588 113.146L10.6235 112.826C9.94893 112.689 9.25026 112.733 8.59815 112.954C7.94334 113.173 7.35848 113.563 6.90342 114.082C6.44529 114.602 6.13166 115.232 5.99406 115.911C5.85506 116.59 5.89651 117.293 6.11428 117.95C6.42242 119 6.941 120.016 7.35435 121.051L31.4037 176.478C31.605 176.914 31.71 177.389 31.7119 177.87C31.716 178.353 31.6187 178.831 31.4263 179.273C28.2097 186.953 25.0381 194.572 21.8554 202.259C21.496 202.829 21.2675 203.472 21.1865 204.141C21.1102 204.816 21.1872 205.501 21.412 206.142C21.6356 206.783 22.0018 207.365 22.4829 207.843C22.9651 208.319 23.5482 208.681 24.1889 208.9C31.1606 212.681 38.5097 215.718 46.1152 217.961C59.3311 222.258 73.2848 223.804 87.1194 222.506C103.482 220.971 118.89 214.106 130.983 202.963C138.659 195.926 145.113 187.661 150.084 178.506C152.65 173.927 154.89 169.054 157.242 164.336C157.375 163.93 157.64 163.581 157.994 163.343C158.348 163.108 158.772 163 159.196 163.038C164.51 162.842 169.876 162.725 175.163 162.458C177.515 162.371 179.855 162.086 182.16 161.608C183.008 161.472 183.805 161.111 184.467 160.562C185.132 160.011 185.639 159.293 185.936 158.481C186.234 157.67 186.312 156.793 186.162 155.942C186.01 155.092 185.637 154.297 185.079 153.639C183.035 151.051 180.631 148.77 177.94 146.866C175.441 144.985 173.036 142.727 170.484 140.707C170.139 140.45 169.883 140.091 169.755 139.68C169.622 139.269 169.622 138.826 169.755 138.415C172.448 125.875 171.22 112.809 166.238 100.992C162.385 91.9701 156.029 84.2436 147.923 78.729C145.084 76.7505 142.073 75.0315 138.927 73.593C138.471 73.3298 137.99 73.1118 137.492 72.9421C128.372 68.8634 118.302 67.3956 108.399 68.7016C97.6493 70.0786 87.5546 74.6379 79.4086 81.7955C75.4458 85.095 71.9469 88.9161 69.0072 93.1548C68.3458 94.0466 67.7409 94.1896 66.6774 93.7719C53.7358 88.2597 40.6853 82.9732 27.6873 77.382C27.0034 77.1675 26.4097 76.8251 25.7409 76.716C25.0957 76.5356 24.4152 76.524 23.7643 76.6821C23.1128 76.8436 22.5137 77.1702 22.0245 77.6303C21.5356 78.0914 21.1733 78.6706 20.9723 79.3122C20.7692 79.9536 20.7355 80.6368 20.8746 81.2951C21.055 82.2922 21.427 83.1463 21.6863 84.087L25.7446 96.3117C25.8461 96.7406 26.0114 97.1808 26.2369 97.9108C25.7058 97.777 25.1837 97.6098 24.6737 97.4103C19.9765 95.529 15.3019 93.5198 10.5409 91.6347C9.49257 91.1686 8.3424 90.9795 7.20027 91.0854C6.58891 91.2182 6.01972 91.4999 5.54313 91.9056C5.06208 92.3102 4.68782 92.8271 4.45338 93.4107C4.21656 93.9933 4.1225 94.6242 4.17907 95.2506C4.23944 95.8759 4.44956 96.4774 4.79158 97.004C6.25709 100.176 7.83533 103.299 9.30084 106.441C10.2177 108.378 11.2699 110.312 12.2394 111.923ZM63.5961 101.429C63.584 101.622 63.5526 101.814 63.5021 102.001C62.1832 105.011 60.759 108.07 59.4363 111.095C59.0831 112.002 58.5758 111.539 57.9332 111.434L37.123 102.693C36.5478 102.409 36.1018 101.917 35.8754 101.316C35.0152 99.2826 34.2933 97.1933 33.7147 95.0625C33.0834 92.6469 32.2868 90.4119 31.4826 87.7969L63.5961 101.429ZM30.6371 201.514C33.7861 194.03 36.8862 186.434 40.0314 178.916C49.5134 156.26 58.9566 133.559 68.3609 110.813C70.5282 105.471 73.4283 100.457 76.9773 95.9166C81.7565 89.7373 87.8786 84.7293 94.8791 81.2725C102.717 77.3026 111.531 75.6788 120.266 76.5956C128.628 77.455 136.625 80.4718 143.474 85.3512C152.007 91.2745 158.221 99.9801 161.056 109.981C161.764 112.23 162.292 114.531 162.634 116.863C163.702 124.107 163.363 131.489 161.635 138.603C161.473 139.056 161.394 139.534 161.402 140.014C161.319 141.053 161.489 142.096 161.898 143.055C162.311 144.015 162.957 144.857 163.777 145.504C166.253 147.762 168.82 149.854 171.409 152.04L174.005 154.192C173.999 154.319 173.979 154.445 173.945 154.568C172.544 154.546 171.202 154.568 169.785 154.643C165.396 154.85 160.88 155.02 156.472 155.347C155.1 155.414 153.78 155.897 152.688 156.732C151.597 157.572 150.784 158.722 150.354 160.031C147.846 166.329 144.729 172.366 141.05 178.058L140.573 178.878C136.529 185.129 131.721 190.849 126.26 195.904C122.277 199.68 117.862 202.971 113.108 205.71C107.401 209.071 101.217 211.541 94.7663 213.035C81.2144 215.902 67.1766 215.506 53.8072 211.88C46.1319 209.989 38.6815 207.278 31.5841 203.794C30.1411 203.072 30.1411 203.072 30.6371 201.514ZM17.2184 104.375C16.9937 103.917 16.7427 103.472 16.4668 103.043C16.8859 103.155 17.2976 103.293 17.6993 103.457C30.0572 108.642 42.4314 113.795 54.8218 118.917C55.6823 119.294 55.8514 119.741 55.4681 120.611C49.1477 135.849 42.8247 151.112 36.4992 166.398C36.3081 166.781 36.0869 167.148 35.8378 167.496C29.694 153.138 23.5689 139.089 17.4513 125.009C17.5569 124.927 17.644 124.823 17.7069 124.704C18.0925 124.919 18.5009 125.091 18.9243 125.216C19.9317 125.434 20.969 125.476 21.9906 125.34C22.5905 125.171 23.1409 124.86 23.5952 124.433C24.0539 124.008 24.4043 123.479 24.6173 122.891C24.8302 122.302 24.901 121.672 24.824 121.051C24.7485 120.431 24.5269 119.838 24.1776 119.32C21.8178 114.274 19.4805 109.3 17.0718 104.352L17.2184 104.375Z" fill="#343BAB"/>
<path d="M63.5964 101.429C63.584 101.622 63.5526 101.814 63.5024 102.001C62.1835 105.011 60.7593 108.07 59.4366 111.095C59.0833 112.002 58.5761 111.539 57.9335 111.433L37.1232 102.693C36.548 102.409 36.1021 101.917 35.8757 101.316C35.0161 99.2822 34.2942 97.193 33.715 95.0623C33.0837 92.6467 32.2871 90.4117 31.4829 87.793L63.5964 101.429Z" fill="#80A4FF"/>
<path d="M16.3656 103.713C16.1815 103.336 15.9898 102.915 15.7568 102.275C16.1891 102.387 16.6134 102.528 17.0269 102.697C29.7205 108 42.4304 113.267 55.1565 118.5C56.0433 118.876 56.2162 119.343 55.8216 120.227C49.3508 135.779 42.8763 151.342 36.398 166.917C36.2046 167.312 35.977 167.69 35.7178 168.046C29.3973 153.372 23.0919 139.051 16.794 124.678C16.9029 124.595 16.9927 124.49 17.057 124.369C17.4531 124.59 17.8728 124.766 18.3083 124.892C19.3412 125.118 20.4054 125.163 21.4535 125.024C22.0683 124.851 22.6335 124.535 23.1032 124.102C23.571 123.668 23.9291 123.129 24.1478 122.53C24.367 121.928 24.4404 121.283 24.362 120.648C24.2823 120.014 24.053 119.408 23.6931 118.88C21.2506 113.845 18.8457 108.766 16.3656 103.713Z" fill="#80A4FF"/>
<path d="M30.6373 201.515C33.7862 194.032 36.8864 186.435 40.0316 178.917C49.5135 156.261 58.9567 133.56 68.361 110.814C70.5277 105.472 73.4277 100.458 76.9774 95.9178C81.7574 89.7384 87.8793 84.7293 94.8792 81.27C102.718 77.303 111.531 75.6806 120.266 76.5968C128.628 77.4569 136.624 80.4736 143.474 85.3524C152.006 91.2744 158.221 99.9786 161.056 109.979C161.764 112.228 162.292 114.531 162.635 116.864C163.702 124.107 163.363 131.487 161.635 138.601C161.474 139.054 161.395 139.531 161.402 140.012C161.318 141.052 161.489 142.096 161.898 143.056C162.312 144.015 162.958 144.857 163.777 145.505C166.253 147.763 168.82 149.855 171.409 152.041L174.005 154.193C173.999 154.32 173.979 154.447 173.945 154.569C172.544 154.547 171.202 154.569 169.786 154.645C165.397 154.852 160.88 155.021 156.472 155.348C155.1 155.416 153.78 155.898 152.688 156.733C151.596 157.572 150.783 158.723 150.354 160.033C147.846 166.33 144.73 172.368 141.05 178.059L140.573 178.88C136.528 185.129 131.72 190.849 126.26 195.905C122.276 199.673 117.861 202.957 113.108 205.688C107.403 209.052 101.217 211.524 94.7665 213.018C81.2144 215.882 67.177 215.486 53.8074 211.863C46.1328 209.977 38.6824 207.273 31.5842 203.796C30.1413 203.073 30.1413 203.073 30.6373 201.515Z" fill="#80A4FF"/>
<path d="M148.359 124.644C148.772 122.168 148.693 119.634 148.128 117.188C147.563 114.742 146.522 112.431 145.065 110.388C143.607 108.345 141.763 106.609 139.635 105.279C137.508 103.95 135.14 103.053 132.667 102.64C127.67 101.83 122.557 103.04 118.45 106.003C114.344 108.966 111.58 113.441 110.767 118.443C109.934 123.444 111.119 128.571 114.06 132.698C117.001 136.825 121.458 139.613 126.452 140.451C128.927 140.854 131.457 140.765 133.897 140.188C136.338 139.612 138.641 138.56 140.676 137.092C142.71 135.624 144.436 133.769 145.754 131.633C147.073 129.498 147.958 127.123 148.359 124.644Z" fill="#E2ED4C"/>
<path d="M118.421 139.826C116.067 138.358 114.024 136.441 112.409 134.182C109.133 129.594 107.802 123.894 108.708 118.327C109.155 115.574 110.139 112.936 111.605 110.564C113.068 108.198 114.983 106.144 117.242 104.522C119.482 102.876 122.028 101.694 124.731 101.045C127.433 100.402 130.236 100.307 132.975 100.767C135.711 101.22 138.331 102.211 140.685 103.68C143.039 105.15 145.08 107.07 146.691 109.33C149.948 113.907 151.27 119.586 150.37 125.133C149.929 127.885 148.951 130.523 147.491 132.895C146.03 135.265 144.114 137.321 141.855 138.946C139.603 140.587 137.049 141.763 134.339 142.407C131.64 143.052 128.84 143.151 126.102 142.701C123.378 142.258 120.768 141.281 118.421 139.826ZM132.167 104.698C129.968 104.341 127.72 104.424 125.554 104.943C123.386 105.464 121.343 106.409 119.541 107.724C117.721 109.017 116.179 110.664 115.006 112.566C113.834 114.473 113.056 116.595 112.717 118.808C112.338 121.049 112.413 123.344 112.939 125.555C113.468 127.762 114.435 129.84 115.784 131.665C117.079 133.474 118.719 135.008 120.608 136.18C122.496 137.354 124.597 138.143 126.79 138.502C128.986 138.875 131.236 138.802 133.403 138.287C135.573 137.773 137.617 136.829 139.416 135.51C141.227 134.208 142.764 132.561 143.94 130.664C145.117 128.762 145.91 126.648 146.274 124.441C147.004 119.992 145.948 115.433 143.335 111.761C142.045 109.948 140.41 108.409 138.524 107.231C136.637 106.053 134.537 105.26 132.344 104.898L132.167 104.698Z" fill="#343BAB"/>
<path d="M144.669 180.09C147.367 180.158 146.89 175.974 144.26 175.921C111.954 175.193 80.753 164.002 55.3333 144.025C53.2139 142.332 50.5534 145.587 52.6465 147.242C78.9199 167.955 111.211 179.544 144.643 180.259L144.669 180.09Z" fill="#343BAB"/>
<path d="M119.891 208.088C122.589 208.156 122.112 203.972 119.481 203.916C88.7537 203.341 59.1349 192.32 35.4888 172.663C35.06 172.374 34.5394 172.253 34.0271 172.325C33.513 172.398 33.0442 172.659 32.7119 173.058C32.3764 173.457 32.201 173.967 32.2196 174.488C32.2356 175.007 32.4431 175.502 32.802 175.877C57.3637 196.275 88.1526 207.652 120.06 208.119L119.891 208.088Z" fill="#343BAB"/>
<path d="M141.588 163.579C141.655 163.188 141.644 162.786 141.555 162.399C141.467 162.011 141.303 161.645 141.072 161.322C140.841 160.998 140.549 160.723 140.212 160.514C139.875 160.304 139.499 160.163 139.108 160.099C138.716 160.034 138.316 160.047 137.929 160.138C137.543 160.229 137.178 160.396 136.857 160.628C136.535 160.861 136.262 161.155 136.055 161.494C135.847 161.832 135.708 162.209 135.647 162.601C135.58 162.993 135.591 163.394 135.68 163.781C135.769 164.168 135.933 164.533 136.164 164.856C136.394 165.18 136.687 165.454 137.023 165.664C137.36 165.873 137.735 166.014 138.127 166.078C138.518 166.143 138.918 166.13 139.304 166.039C139.691 165.948 140.055 165.782 140.377 165.55C140.698 165.318 140.971 165.024 141.179 164.686C141.387 164.348 141.526 163.972 141.588 163.579Z" fill="#343BAB"/>
<path d="M115.506 160.424C115.573 160.032 115.562 159.631 115.474 159.244C115.385 158.857 115.222 158.491 114.991 158.167C114.761 157.844 114.469 157.569 114.133 157.359C113.796 157.149 113.421 157.008 113.029 156.943C112.638 156.878 112.237 156.891 111.85 156.981C111.463 157.072 111.098 157.238 110.776 157.471C110.454 157.704 110.181 157.998 109.973 158.337C109.765 158.676 109.626 159.053 109.565 159.446C109.498 159.837 109.509 160.238 109.598 160.625C109.687 161.012 109.851 161.378 110.082 161.701C110.312 162.024 110.605 162.298 110.941 162.508C111.278 162.718 111.653 162.858 112.045 162.922C112.436 162.987 112.836 162.974 113.222 162.883C113.608 162.793 113.973 162.627 114.295 162.394C114.616 162.162 114.889 161.868 115.097 161.53C115.305 161.192 115.444 160.816 115.506 160.424Z" fill="#343BAB"/>
<path d="M91.9373 150.952C92.0045 150.561 91.9935 150.159 91.905 149.772C91.8165 149.384 91.6522 149.018 91.4216 148.695C91.191 148.371 90.8987 148.097 90.5615 147.887C90.2244 147.677 89.8491 147.536 89.4572 147.472C89.0657 147.407 88.6652 147.421 88.2789 147.511C87.8925 147.602 87.528 147.769 87.2062 148.001C86.8845 148.234 86.612 148.528 86.4043 148.867C86.1966 149.205 86.058 149.582 85.9963 149.974C85.9297 150.366 85.9411 150.767 86.0299 151.154C86.1186 151.541 86.283 151.906 86.5136 152.23C86.7441 152.553 87.0362 152.827 87.3731 153.037C87.71 153.246 88.085 153.387 88.4764 153.451C88.8677 153.516 89.2679 153.503 89.654 153.412C90.0401 153.321 90.4045 153.155 90.7262 152.923C91.0479 152.691 91.3206 152.397 91.5284 152.059C91.7363 151.721 91.8752 151.345 91.9373 150.952Z" fill="#343BAB"/>
<path d="M73.4036 137.31C73.4702 136.919 73.4589 136.518 73.3701 136.131C73.2813 135.744 73.1169 135.378 72.8864 135.055C72.6559 134.732 72.3637 134.457 72.0268 134.248C71.69 134.038 71.315 133.897 70.9235 133.834C70.5323 133.769 70.1321 133.782 69.746 133.872C69.3598 133.963 68.9954 134.129 68.6737 134.361C68.352 134.594 68.0794 134.887 67.8715 135.225C67.6637 135.564 67.5247 135.94 67.4627 136.332C67.396 136.723 67.4074 137.124 67.4962 137.511C67.585 137.898 67.7493 138.264 67.9799 138.587C68.2104 138.91 68.5025 139.185 68.8394 139.394C69.1763 139.604 69.5513 139.745 69.9428 139.809C70.334 139.873 70.7342 139.86 71.1203 139.77C71.5064 139.679 71.8709 139.513 72.1925 139.281C72.5142 139.048 72.7869 138.755 72.9947 138.417C73.2026 138.078 73.3415 137.702 73.4036 137.31Z" fill="#343BAB"/>
<path d="M132.351 74.0829L142.17 79.3505L155.972 53.3321L146.153 48.0645L132.351 74.0829Z" fill="#343BAB"/>
<path d="M166.111 47.1269C166.394 45.4336 166.341 43.701 165.955 42.0281C165.569 40.3552 164.858 38.7748 163.862 37.3772C162.866 35.9795 161.605 34.7921 160.151 33.8826C158.696 32.9731 157.077 32.3594 155.386 32.0765C153.694 31.8019 151.964 31.8638 150.295 32.2587C148.627 32.6535 147.052 33.3736 145.662 34.3777C144.271 35.3819 143.092 36.6505 142.191 38.1111C141.29 39.5717 140.686 41.1956 140.411 42.8902C139.841 46.31 140.65 49.8167 142.661 52.6391C144.672 55.4615 147.721 57.3685 151.136 57.9407C152.828 58.2153 154.558 58.1533 156.227 57.7585C157.895 57.3636 159.47 56.6436 160.86 55.6394C162.251 54.6352 163.43 53.3667 164.331 51.9061C165.232 50.4455 165.836 48.8215 166.111 47.1269Z" fill="#80A4FF"/>
<path d="M144.906 58.5356C143.14 57.4378 141.607 56.0019 140.396 54.3102C139.187 52.614 138.323 50.6963 137.852 48.6663C137.381 46.6349 137.313 44.5309 137.65 42.473C137.983 40.4147 138.717 38.442 139.81 36.6673C140.901 34.8944 142.33 33.3538 144.015 32.1333C145.698 30.9145 147.604 30.0412 149.625 29.5635C151.643 29.0845 153.735 29.0116 155.781 29.349C157.827 29.6775 159.788 30.4104 161.549 31.505C163.317 32.6001 164.85 34.0364 166.058 35.7304C167.273 37.4244 168.142 39.3426 168.613 41.3743C169.085 43.4069 169.152 45.5129 168.809 47.5713C168.48 49.6298 167.748 51.603 166.655 53.3771C165.564 55.1443 164.135 56.6786 162.45 57.8922C160.769 59.1148 158.862 59.9908 156.84 60.4696C154.821 60.9473 152.728 61.0189 150.681 60.6803C148.634 60.3531 146.671 59.6243 144.906 58.5356ZM154.92 35.0419C153.604 34.8274 152.258 34.8748 150.96 35.1814C149.662 35.4881 148.437 36.048 147.356 36.8291C145.163 38.4171 143.687 40.8104 143.252 43.4851C142.814 46.1546 143.448 48.8892 145.015 51.0931C145.79 52.1799 146.772 53.1029 147.905 53.8093C149.037 54.5156 150.297 54.9914 151.613 55.2094C152.936 55.4274 154.289 55.3788 155.593 55.0665C156.898 54.7534 158.128 54.1843 159.211 53.3921C160.311 52.6067 161.243 51.6104 161.954 50.461C162.667 49.3119 163.146 48.0333 163.364 46.6984C163.585 45.3622 163.541 43.9956 163.236 42.6762C162.928 41.3588 162.362 40.1157 161.571 39.0189C160.791 37.923 159.801 36.9931 158.659 36.2835C157.512 35.5717 156.234 35.0971 154.901 34.8876L154.92 35.0419Z" fill="#343BAB"/>
<path d="M135.211 122.5C135.461 120.999 135.105 119.459 134.222 118.22C133.34 116.981 132.001 116.144 130.502 115.893C129.005 115.649 127.473 116.01 126.241 116.896C125.009 117.782 124.178 119.12 123.93 120.618C123.68 122.119 124.036 123.658 124.919 124.896C125.802 126.135 127.14 126.971 128.639 127.222C130.135 127.466 131.668 127.107 132.9 126.221C134.132 125.336 134.963 123.998 135.211 122.5Z" fill="#343BAB"/>
<path d="M292.651 125.615H282.614C280.576 125.615 278.924 127.269 278.924 129.31V191.593C278.924 193.633 280.576 195.287 282.614 195.287H292.651C294.689 195.287 296.341 193.633 296.341 191.593V129.31C296.341 127.269 294.689 125.615 292.651 125.615Z" fill="#343BAB"/>
<path d="M263.39 142.393H252.263C250.526 142.393 249.118 143.803 249.118 145.542V202.673C249.118 204.413 250.526 205.823 252.263 205.823H263.39C265.127 205.823 266.535 204.413 266.535 202.673V145.542C266.535 143.803 265.127 142.393 263.39 142.393Z" fill="#343BAB"/>
<path d="M234.302 163.914H221.74C220.399 163.914 219.312 165.002 219.312 166.345V213.93C219.312 215.273 220.399 216.361 221.74 216.361H234.302C235.642 216.361 236.729 215.273 236.729 213.93V166.345C236.729 165.002 235.642 163.914 234.302 163.914Z" fill="#343BAB"/>
<path d="M205.69 195.396H190.738C190.057 195.396 189.505 195.949 189.505 196.631V225.667C189.505 226.348 190.057 226.901 190.738 226.901H205.69C206.371 226.901 206.922 226.348 206.922 225.667V196.631C206.922 195.949 206.371 195.396 205.69 195.396Z" fill="#343BAB"/>
<path d="M174.016 187.863H162.792C161.082 187.863 159.696 189.251 159.696 190.964V234.335C159.696 236.048 161.082 237.436 162.792 237.436H174.016C175.727 237.436 177.113 236.048 177.113 234.335V190.964C177.113 189.251 175.727 187.863 174.016 187.863Z" fill="#343BAB"/>
<path d="M144.158 211.832H133.039C131.299 211.832 129.89 213.244 129.89 214.985V244.819C129.89 246.56 131.299 247.972 133.039 247.972H144.158C145.897 247.972 147.307 246.56 147.307 244.819V214.985C147.307 213.244 145.897 211.832 144.158 211.832Z" fill="#343BAB"/>
<path d="M43.7115 263.526C27.1532 260.905 24.792 253.317 21.7347 230.006C19.5854 252.281 16.8307 260.722 0 263.251C14.6815 269.62 19.8578 271.905 22.4612 297.655C26.2148 271.418 29.4235 269.132 43.7115 263.526Z" fill="#FFC806"/>
</g>
<path d="M275.35 41.0617C261.877 38.9406 259.949 32.792 257.456 13.7266C255.716 31.8149 253.483 38.6547 239.821 40.728C251.743 45.8757 255.952 47.8776 258.068 68.6351C261.007 47.4963 263.641 45.6612 275.35 41.0617Z" fill="#FFC806"/>
<defs>
<clipPath id="clip0_10935_23441">
<rect width="369.466" height="327.836" fill="white"/>
</clipPath>
</defs>
</svg>
