<svg width="20" height="13" viewBox="0 0 20 13" fill="none" xmlns="http://www.w3.org/2000/svg">
<path d="M6.13601 11.4195L6.1354 11.4188L1.85427 7.11606L1.00589 6.2634L2.20871 6.2634L19.3334 6.2634C19.4512 6.2634 19.5 6.17941 19.5 6.13187C19.5 6.08433 19.4512 6.00033 19.3334 6.00033L2.20871 6.00033L1.00589 6.00033L1.85427 5.14767L6.1354 0.844898L6.13602 0.844278C6.14656 0.833726 6.1619 0.80802 6.16046 0.764175C6.15901 0.719739 6.1409 0.687046 6.1232 0.670582L6.12302 0.670408C6.09967 0.648664 6.05882 0.63007 6.00272 0.631963C5.94529 0.633901 5.90062 0.656608 5.87653 0.680937L5.87588 0.681595L0.542584 6.05007L0.535531 6.05717L0.528197 6.06398C0.512915 6.07818 0.50643 6.08694 0.50447 6.08978L6.13601 11.4195ZM6.13601 11.4195C6.14842 11.4319 6.16538 11.4624 6.16427 11.5076C6.16318 11.5521 6.14599 11.5733 6.13929 11.579C6.05006 11.655 5.94009 11.6435 5.87271 11.5792L0.54383 6.21492M6.13601 11.4195L0.54383 6.21492M0.54383 6.21492C0.542809 6.21361 0.540482 6.21053 0.537123 6.20539C0.530114 6.19467 0.522114 6.18032 0.514868 6.16412C0.507573 6.14781 0.502995 6.134 0.500636 6.12471C0.500561 6.12442 0.500491 6.12414 0.500424 6.12387C0.501347 6.10353 0.503068 6.09403 0.503836 6.09073L0.54383 6.21492Z" fill="#2C2C2C" stroke="#2C2C2C"/>
</svg>
