<svg width="116" height="115" viewBox="0 0 116 115" fill="none" xmlns="http://www.w3.org/2000/svg">
<circle cx="57.843" cy="57.178" r="57.178" fill="#F1D1E5"/>
<circle cx="57.8433" cy="57.1783" r="40.1099" fill="#FF62C4"/>
<path d="M76.2769 75H40.7213C38.6678 74.9981 37.0036 73.2888 37 71.1819V43.8181C37.0036 41.7111 38.6678 40.0019 40.7213 40H76.2769C78.3322 40.0019 79.9964 41.7093 80 43.8181V71.1819C79.9964 73.2907 78.3322 74.9981 76.2769 75ZM40.8789 72.0273H76.1198L67.7648 56.0915L61.2822 63.5362C60.5741 64.3518 59.5601 64.8182 58.4971 64.8163C57.4323 64.8163 56.4201 64.3463 55.7138 63.5288L49.2363 56.0894L40.8789 72.0273ZM69.8198 53.7338L77.103 67.6257V45.3693L69.8198 53.7338ZM39.8975 45.3674V67.6238L47.1825 53.7338C44.6039 50.7704 41.9928 47.7698 39.8975 45.3674ZM41.6974 42.9724C45.7121 47.5802 53.5279 56.5614 57.8771 61.5537H57.8789C58.0292 61.745 58.2574 61.8546 58.4964 61.8565C58.7354 61.8565 58.9636 61.7487 59.1175 61.5592C63.1538 56.9255 71.2557 47.6207 75.3046 42.9723L41.6974 42.9724Z" fill="white"/>
</svg>
