<svg width="24" height="18" viewBox="0 0 24 18" fill="none" xmlns="http://www.w3.org/2000/svg">
<path d="M11.8871 13.9218L7.00688 17.2241C6.0018 17.904 4.80214 18.1251 3.68002 17.9342C2.55597 17.7433 1.50654 17.1374 0.802995 16.1662C0.0993256 15.195 -0.12951 14.0358 0.0680726 12.9515C0.26667 11.8663 0.892702 10.8512 1.89778 10.1714L8.06243 6.00109C9.06751 5.32114 10.2662 5.10002 11.3893 5.29095C12.5133 5.48187 13.5628 6.08778 14.2663 7.05898C14.4054 7.25088 14.5284 7.45446 14.6333 7.66489C14.7381 7.87531 14.8248 8.09449 14.8924 8.32047L15.0688 8.90594C15.1283 9.10368 15.0103 9.3102 14.8057 9.36768L13.5949 9.70766C13.3903 9.76513 13.1766 9.65116 13.1171 9.45342L12.9417 8.86796C12.9054 8.74619 12.858 8.62735 12.8005 8.51337C12.7491 8.40913 12.6886 8.30783 12.6201 8.2114L12.5828 8.15879C12.2027 7.64834 11.6402 7.32981 11.0384 7.22752C10.4355 7.12524 9.79435 7.23824 9.255 7.59183L3.06324 11.7816C2.51986 12.1489 2.18013 12.7012 2.07228 13.2925C1.96643 13.875 2.08337 14.4955 2.4493 15.0157L2.4866 15.0674C2.86667 15.5778 3.42917 15.8963 4.03204 15.9986C4.6349 16.1009 5.27604 15.9879 5.81539 15.6343L10.723 12.3136C10.8974 12.1957 11.1383 12.2376 11.2593 12.4062L11.9831 13.4046C12.1051 13.5732 12.0617 13.806 11.8873 13.9229L11.8871 13.9218ZM12.1129 4.07818L16.9931 0.775929C17.9982 0.0959778 19.1979 -0.125145 20.32 0.0657781C21.444 0.256706 22.4935 0.862612 23.197 1.83381C23.9007 2.80501 24.1295 3.96424 23.9319 5.04853C23.7343 6.13469 23.1073 7.14875 22.1032 7.82858L15.9306 12.0056C14.9275 12.6807 13.7309 12.9009 12.612 12.7099C11.4879 12.519 10.4385 11.9141 9.73288 10.939C9.59275 10.7451 9.47078 10.5435 9.36693 10.335C9.2631 10.1246 9.17539 9.90539 9.10785 9.68038L8.93244 9.09491C8.87296 8.89716 8.99091 8.69065 9.19554 8.63317L10.4063 8.29319C10.6109 8.23572 10.8246 8.34969 10.8841 8.54743L11.0595 9.13192C11.0958 9.25369 11.1432 9.37253 11.1997 9.48554C11.2561 9.59951 11.3237 9.71056 11.3993 9.81479L11.4184 9.84109C11.7985 10.3506 12.361 10.6701 12.9629 10.7724C13.5748 10.8766 14.228 10.7578 14.7724 10.3895C16.831 9.00528 18.8825 7.60847 20.9381 6.21819C21.4815 5.85094 21.8202 5.29862 21.9281 4.70732C22.0359 4.11505 21.9129 3.48283 21.5319 2.95779C21.1518 2.43273 20.5802 2.10445 19.9683 2.00121C19.3553 1.89698 18.7021 2.01582 18.1577 2.38405L13.2775 5.6863C13.1031 5.80417 12.8622 5.76228 12.7412 5.59376L12.0174 4.59528C11.8954 4.42675 11.9387 4.19393 12.1131 4.07705L12.1129 4.07818Z" fill="#2C2C2C"/>
</svg>
