<svg width="15" height="15" viewBox="0 0 15 15" fill="none" xmlns="http://www.w3.org/2000/svg">
<path d="M7.9143 0H2.58637C1.16382 0 0 1.16382 0 2.58637V7.9143C0 9.33685 1.16382 10.5007 2.58637 10.5007H7.9143C9.33685 10.5007 10.5007 9.33685 10.5007 7.9143V2.58637C10.5007 1.16382 9.33685 0 7.9143 0ZM9.46621 7.9143C9.46621 8.7678 8.76785 9.46621 7.9143 9.46621H2.58637C1.73287 9.46621 1.03446 8.76785 1.03446 7.9143V2.58637C1.03446 1.73287 1.73282 1.03446 2.58637 1.03446H7.9143C8.7678 1.03446 9.46621 1.73282 9.46621 2.58637V7.9143Z" fill="#2C2C2C"/>
<path d="M12.4158 13.9652H7.08784C6.23433 13.9652 5.53592 13.2669 5.53592 12.4133V11.3789H4.50146V12.4133C4.50146 13.8359 5.66529 14.9997 7.08784 14.9997H12.4158C13.8383 14.9997 15.0021 13.8359 15.0021 12.4133V7.0854C15.0021 5.66284 13.8383 4.49902 12.4158 4.49902H11.3813V5.53348H12.4158C13.2693 5.53348 13.9677 6.23185 13.9677 7.0854V12.4133C13.9677 13.2668 13.2693 13.9652 12.4158 13.9652Z" fill="#2C2C2C"/>
</svg>
