<svg width="24" height="24" viewBox="0 0 24 24" fill="none" xmlns="http://www.w3.org/2000/svg">
<rect x="0.5" y="0.5" width="23" height="23" rx="7.5" fill="#F5F5F5" stroke="#D8D3D3"/>
<path d="M14.0667 9.56667H6.36667C6.16408 9.56667 6 9.73075 6 9.93333V17.6333C6 17.8359 6.16408 18 6.36667 18H14.0667C14.2693 18 14.4333 17.8359 14.4333 17.6333V9.93333C14.4333 9.73075 14.2693 9.56667 14.0667 9.56667ZM13.7 17.2667H6.73333V10.3H13.7V17.2667ZM17 7.36667V15.0667C17 15.2693 16.8359 15.4333 16.6333 15.4333H15.1667C14.9641 15.4333 14.8 15.2693 14.8 15.0667C14.8 14.8641 14.9641 14.7 15.1667 14.7H16.2667V7.73333H9.3V8.83333C9.3 9.03592 9.13592 9.2 8.93333 9.2C8.73075 9.2 8.56667 9.03592 8.56667 8.83333V7.36667C8.56667 7.16408 8.73075 7 8.93333 7H16.6333C16.8359 7 17 7.16408 17 7.36667Z" fill="#B0ADAD"/>
</svg>
