<svg width="14" height="14" viewBox="0 0 14 14" fill="none" xmlns="http://www.w3.org/2000/svg">
<path d="M7 7L12 2" stroke="#2C2C2C" stroke-width="1.2" stroke-linecap="round" stroke-linejoin="round"/>
<path d="M1.28067 10.798L1.28067 4.20197C1.28067 3.14532 2.14526 2.28067 3.20197 2.28067L4.48264 2.28067L4.48265 1L3.20197 1C1.44083 0.999999 8.90694e-07 2.44083 8.13712e-07 4.20197L5.25389e-07 10.798C4.48407e-07 12.5592 1.44083 14 3.20197 14L9.79803 14C11.5592 14 13 12.5592 13 10.798L13 9.51736L11.7193 9.51736L11.7193 10.798C11.7193 11.8547 10.8547 12.7193 9.79803 12.7193L3.20197 12.7193C2.14532 12.7193 1.28067 11.8547 1.28067 10.798Z" fill="#2C2C2C"/>
<path d="M13 6.99609V0.99956H7.00344" stroke="#2C2C2C" stroke-linecap="round" stroke-linejoin="round"/>
</svg>
