<svg width="134" height="134" viewBox="0 0 134 134" fill="none" xmlns="http://www.w3.org/2000/svg">
<circle cx="67" cy="67" r="67" fill="#FCE0E0"/>
<circle cx="67" cy="67" r="47" fill="#F64B3C"/>
<path d="M81.3892 57.3334C82.6211 56.1014 82.6212 54.1039 81.3892 52.8719L80.7177 52.2005C79.4857 50.9685 77.4883 50.9685 76.2563 52.2005L66.7948 61.662L57.3332 52.2005C56.1012 50.9685 54.1038 50.9685 52.8718 52.2005L52.2004 52.8719C50.9684 54.1039 50.9684 56.1014 52.2004 57.3333L61.6619 66.7949L52.2004 76.2564C50.9684 77.4884 50.9684 79.4859 52.2004 80.7179L52.8718 81.3893C54.1038 82.6213 56.1012 82.6213 57.3332 81.3893L66.7948 71.9277L76.2563 81.3893C77.4883 82.6213 79.4857 82.6213 80.7177 81.3893L81.3892 80.7179C82.6212 79.4859 82.6212 77.4884 81.3892 76.2564L71.9276 66.7949L81.3892 57.3334Z" fill="white"/>
</svg>
