<svg width="116" height="115" viewBox="0 0 116 115" fill="none" xmlns="http://www.w3.org/2000/svg">
<circle cx="57.8428" cy="57.6228" r="57.178" fill="#F1D1E5"/>
<circle cx="57.8429" cy="57.6231" r="40.1099" fill="#FF62C4"/>
<path d="M71.3333 74.6667H70.7333L63.1667 58L70.7333 41.3333H71.3333C71.7754 41.3333 72.1993 41.1577 72.5118 40.8452C72.8244 40.5326 73 40.1087 73 39.6667C73 39.2246 72.8244 38.8007 72.5118 38.4882C72.1993 38.1756 71.7754 38 71.3333 38H44.6667C44.2246 38 43.8007 38.1756 43.4882 38.4882C43.1756 38.8007 43 39.2246 43 39.6667C43 40.1087 43.1756 40.5326 43.4882 40.8452C43.8007 41.1577 44.2246 41.3333 44.6667 41.3333H45.2667L52.8333 58L45.2667 74.6667H44.6667C44.2246 74.6667 43.8007 74.8423 43.4882 75.1548C43.1756 75.4674 43 75.8913 43 76.3333C43 76.7754 43.1756 77.1993 43.4882 77.5118C43.8007 77.8244 44.2246 78 44.6667 78H71.3333C71.7754 78 72.1993 77.8244 72.5118 77.5118C72.8244 77.1993 73 76.7754 73 76.3333C73 75.8913 72.8244 75.4674 72.5118 75.1548C72.1993 74.8423 71.7754 74.6667 71.3333 74.6667ZM67.0833 41.3333L60.2667 56.3333H55.7333L48.9167 41.3333H67.0833ZM55.7333 59.6667H60.2667L67.0833 74.6667H48.9167L55.7333 59.6667Z" fill="white"/>
</svg>
