<svg width="20" height="20" viewBox="0 0 20 20" fill="none" xmlns="http://www.w3.org/2000/svg">
<path fill-rule="evenodd" clip-rule="evenodd" d="M10 0.0187988C4.4772 0.0187988 0 4.47132 0 9.96412C0 15.4569 4.4772 19.9094 10 19.9094C15.5228 19.9094 20 15.4569 20 9.96412C20 4.47132 15.5228 0.0187988 10 0.0187988ZM2 9.96412C2 14.358 5.5817 17.9204 10 17.9204C14.4183 17.9204 18 14.358 18 9.96412C18 5.57028 14.4183 2.00786 10 2.00786C5.5817 2.00786 2 5.57028 2 9.96412Z" fill="#1D68BE"/>
<path d="M9 8.3081C9 7.72234 9.4477 7.24695 10 7.24695C10.5523 7.24695 11 7.72234 11 8.3081V14.675C11 15.2618 10.5523 15.7362 10 15.7362C9.4477 15.7362 9 15.2618 9 14.675V8.3081Z" fill="#1D68BE"/>
<path d="M10 3.00244C9.4477 3.00244 9 3.47784 9 4.06359C9 4.64935 9.4477 5.12474 10 5.12474C10.5523 5.12474 11 4.64935 11 4.06359C11 3.47784 10.5523 3.00244 10 3.00244Z" fill="#1D68BE"/>
</svg>
