<svg width="7" height="9" viewBox="0 0 7 9" fill="none" xmlns="http://www.w3.org/2000/svg">
<g clip-path="url(#clip0_3558_4168)">
<path d="M6.05221 3.54987C5.27654 3.01216 4.50064 2.47482 3.72452 1.93786L1.25289 0.225731C1.16591 0.165663 1.07654 0.112395 0.97148 0.103706C0.610593 0.0746164 0.345556 0.344356 0.345215 0.745943C0.345215 1.86066 0.345215 2.97564 0.345215 4.09086V7.42634C0.345215 7.5971 0.375232 7.7569 0.481656 7.88912C0.676085 8.12977 0.964316 8.17209 1.22867 7.99037C1.85425 7.56007 2.47813 7.126 3.10269 6.69381C4.08552 6.01379 5.06801 5.33378 6.05016 4.65376C6.44209 4.37873 6.44243 3.82037 6.05221 3.54987ZM0.914516 7.47356V0.726297L5.77933 4.09993L0.914516 7.47356Z" fill="#070808"/>
<path d="M5.77887 4.10019L0.914062 7.47382V0.726562L5.77887 4.10019Z" fill="#070808"/>
</g>
<defs>
<clipPath id="clip0_3558_4168">
<rect width="6" height="8" fill="white" transform="translate(0.344238 0.101562)"/>
</clipPath>
</defs>
</svg>
