<svg width="510" height="188" viewBox="0 0 510 188" fill="none" xmlns="http://www.w3.org/2000/svg">
<g clip-path="url(#clip0_2680_1036)">
<path d="M0 20C0 8.95431 8.95431 0 20 0H490C501.046 0 510 8.9543 510 20V222H0V20Z" fill="#FFE7F6"/>
<path d="M239.988 169.315C234.992 169.315 229.531 168.101 223.574 165.68C223.458 165.633 223.357 165.557 223.28 165.459L212.232 151.446C212.169 151.368 212.125 151.278 212.1 151.182C212.076 151.086 212.073 150.986 212.09 150.888C212.108 150.791 212.147 150.698 212.204 150.617C212.261 150.535 212.335 150.466 212.421 150.414C236.567 135.655 248.194 115.906 253.893 79.9623C253.917 79.8053 253.995 79.6611 254.114 79.553C254.233 79.4449 254.385 79.3792 254.546 79.3666C254.71 79.3567 254.872 79.4008 255.006 79.492C255.141 79.5832 255.24 79.7161 255.288 79.8694C259.366 93.2136 260.432 102.754 258.853 112.303L270.369 106.017C270.477 105.957 270.6 105.926 270.724 105.926C270.848 105.926 270.97 105.958 271.078 106.018C271.186 106.079 271.276 106.165 271.34 106.27C271.403 106.375 271.438 106.494 271.441 106.616C271.689 115.131 270.405 126.521 263.399 134.796L276.091 129.051C276.225 128.991 276.374 128.972 276.519 128.997C276.665 129.022 276.799 129.09 276.903 129.192C277.008 129.293 277.078 129.424 277.105 129.566C277.131 129.708 277.113 129.855 277.052 129.986C276.254 131.716 275.444 133.592 274.585 135.575C270.807 144.33 266.088 155.228 258.386 162.154C253.076 166.935 246.985 169.315 239.988 169.315ZM224.303 164.444C255.203 176.882 265.641 152.701 273.268 135.033C273.853 133.679 274.415 132.375 274.97 131.13L260.592 137.643C260.435 137.713 260.259 137.726 260.093 137.68C259.928 137.633 259.785 137.531 259.69 137.39C259.595 137.25 259.555 137.08 259.576 136.913C259.596 136.746 259.678 136.592 259.804 136.478C268.363 128.83 270.144 116.905 270.042 107.832L258.252 114.266C258.132 114.331 257.995 114.361 257.858 114.353C257.721 114.345 257.589 114.299 257.478 114.221C257.367 114.142 257.282 114.034 257.231 113.909C257.181 113.785 257.168 113.648 257.193 113.517C258.948 104.438 258.268 95.5129 254.814 83.2959C248.932 117.404 237.257 136.673 213.869 151.186L224.303 164.444Z" fill="#FF62C4"/>
<path d="M107.654 159.208C99.3274 159.208 92.0802 156.408 85.7575 150.788C76.558 142.634 70.9433 129.742 66.434 119.4C65.4093 117.051 64.4396 114.831 63.486 112.783C63.4263 112.654 63.4084 112.511 63.4346 112.373C63.4609 112.234 63.5301 112.106 63.633 112.007C63.7358 111.907 63.8676 111.841 64.0105 111.816C64.1535 111.791 64.3009 111.809 64.4331 111.867L80.2107 118.939C71.4831 109.142 69.8992 95.4187 70.1901 85.1954C70.1945 85.0769 70.23 84.9614 70.2933 84.8599C70.3566 84.7585 70.4456 84.6744 70.5518 84.6156C70.658 84.5569 70.7779 84.5254 70.9002 84.5243C71.0224 84.5231 71.143 84.5523 71.2503 84.609L85.2921 92.1793C83.3365 80.8081 84.5874 69.4841 89.4943 53.5814C89.5417 53.4319 89.6395 53.3021 89.7719 53.2129C89.9043 53.1236 90.0638 53.08 90.2248 53.0891C90.3845 53.1014 90.5353 53.1657 90.6526 53.2716C90.77 53.3775 90.847 53.5187 90.8713 53.6723C97.7047 96.2561 111.62 119.635 140.515 137.121C140.6 137.172 140.673 137.24 140.728 137.32C140.784 137.4 140.822 137.49 140.838 137.585C140.855 137.681 140.851 137.778 140.827 137.872C140.803 137.966 140.76 138.054 140.699 138.131L127.501 154.705C127.425 154.802 127.324 154.876 127.207 154.921C120.102 157.778 113.602 159.208 107.654 159.208ZM65.558 113.896C66.2691 115.464 66.9932 117.132 67.7464 118.86C76.8877 139.818 89.4037 168.509 126.486 153.714L139.093 137.886C110.942 120.638 96.9935 97.708 89.9824 56.9369C85.6929 71.7326 84.8266 82.4545 86.96 93.3741C86.9848 93.5032 86.9713 93.6365 86.921 93.7585C86.8707 93.8804 86.7857 93.986 86.676 94.0629C86.5662 94.1398 86.4362 94.1848 86.3011 94.1928C86.166 94.2008 86.0313 94.1713 85.9127 94.1079L71.6027 86.3777C71.4443 97.1718 73.5421 111.466 83.886 120.62C84.0142 120.73 84.097 120.882 84.1192 121.047C84.1413 121.212 84.1013 121.379 84.0065 121.517C83.9116 121.656 83.7684 121.757 83.6031 121.801C83.4378 121.845 83.2616 121.83 83.1069 121.758L65.558 113.896Z" fill="#FF62C4"/>
<path d="M231.02 137.089C230.887 136.548 230.747 136.007 230.597 135.472C227.897 125.812 222.777 116.944 215.69 109.652C208.603 102.359 199.767 96.8661 189.963 93.658C189.933 93.6457 189.903 93.6363 189.872 93.6297C183.825 91.669 177.505 90.6082 171.128 90.4834C170.676 90.4834 170.22 90.4834 169.764 90.4834C159.418 90.4705 149.227 92.9243 140.096 97.6274C130.964 102.331 123.173 109.138 117.413 117.447C117.133 117.854 116.857 118.263 116.583 118.674C110.17 128.388 106.768 139.675 106.78 151.2C106.781 153.628 106.929 156.054 107.226 158.465C107.285 158.943 107.35 159.408 107.425 159.899C108.842 169.445 112.609 178.522 118.409 186.369C118.626 186.662 118.843 186.952 119.06 187.237H164.228V187.391L177.637 187.508V187.237H220.446C220.663 186.95 220.88 186.66 221.097 186.369C221.674 185.588 222.23 184.795 222.766 183.99C225.435 179.987 227.605 175.693 229.23 171.197C229.731 169.813 230.18 168.408 230.577 166.981C230.704 166.531 230.825 166.075 230.939 165.622C231.944 161.635 232.528 157.56 232.683 153.459C232.712 152.71 232.725 151.955 232.725 151.2C232.73 146.448 232.157 141.712 231.02 137.089Z" fill="#FF62C4"/>
<path d="M231.156 136.081C231.026 135.531 230.887 134.983 230.738 134.435C227.297 121.828 219.651 110.679 208.992 102.729C198.333 94.7781 185.26 90.4724 171.813 90.4834C171.372 90.4834 170.931 90.4834 170.49 90.4834C160.046 90.6932 149.834 93.5049 140.835 98.6484C131.836 103.792 124.353 111.094 119.105 119.853C118.848 120.281 118.599 120.708 118.355 121.143C113.455 129.799 110.894 139.517 110.91 149.392C110.909 152.401 111.144 155.406 111.614 158.38C111.689 158.849 111.77 159.324 111.854 159.781C113.65 169.528 117.964 178.676 124.392 186.369C124.632 186.661 124.879 186.951 125.129 187.237H163.622V187.391L176.987 187.508V187.237H218.511C218.761 186.951 219.004 186.661 219.247 186.369C223.073 181.787 226.165 176.672 228.421 171.198C228.984 169.832 229.494 168.443 229.952 167.029C230.095 166.586 230.235 166.136 230.368 165.686C233.215 156.042 233.489 145.855 231.162 136.081H231.156Z" fill="white"/>
<path d="M232.057 135.954C231.92 135.403 231.775 134.856 231.62 134.313C224.479 109.088 200.377 90.4834 171.823 90.4834C161.01 90.4739 150.383 93.1848 141 98.3463C131.617 103.508 123.806 110.94 118.343 119.903C118.087 120.32 117.833 120.746 117.583 121.18C110.983 132.645 108.524 145.888 110.592 158.837C110.667 159.304 110.745 159.777 110.833 160.237C112.627 169.895 116.899 178.97 123.264 186.643C123.502 186.934 123.743 187.223 123.991 187.508H125.869C125.615 187.223 125.361 186.934 125.113 186.643C118.53 179.007 114.107 169.871 112.271 160.115C112.183 159.654 112.105 159.175 112.03 158.724C110.008 146.207 112.32 133.398 118.61 122.264C118.852 121.835 119.1 121.406 119.354 120.983C126.176 109.622 136.792 100.807 149.483 95.9669C162.174 91.1268 176.195 90.5454 189.273 94.317C189.304 94.3236 189.335 94.333 189.364 94.3452C199.321 97.2529 208.332 102.572 215.53 109.792C222.728 117.012 227.87 125.889 230.463 135.569C230.609 136.111 230.743 136.653 230.87 137.201C231.835 141.347 232.321 145.583 232.318 149.832C232.318 151.192 232.269 152.539 232.171 153.876C231.88 157.936 231.14 161.955 229.964 165.865C229.829 166.312 229.689 166.757 229.543 167.199C227.208 174.299 223.468 180.899 218.527 186.637C218.28 186.928 218.025 187.216 217.768 187.501H219.649C219.894 187.216 220.138 186.928 220.376 186.637C221.029 185.862 221.648 185.073 222.235 184.269C226.043 179.176 228.981 173.532 230.939 167.55C231.085 167.105 231.226 166.661 231.359 166.213C234.307 156.352 234.544 145.926 232.047 135.951L232.057 135.954Z" fill="#FF62C4"/>
<path d="M223.435 149.239C223.438 153.125 222.967 156.997 222.032 160.777C221.892 161.352 221.741 161.92 221.574 162.486C221.566 162.527 221.555 162.569 221.541 162.609C220.087 167.626 217.817 172.39 214.815 176.721C212.35 180.282 209.42 183.523 206.096 186.363C205.752 186.656 205.402 186.947 205.048 187.235H177.039V187.506L163.563 187.383V187.228H138.581C138.228 186.941 137.877 186.65 137.533 186.356C128.822 178.927 122.983 168.867 120.971 157.823C120.886 157.362 120.811 156.897 120.742 156.433C119.269 146.702 120.822 136.769 125.204 127.89C125.42 127.451 125.646 127.018 125.876 126.585C126.276 125.835 126.696 125.098 127.137 124.374C127.94 123.037 128.811 121.739 129.739 120.482C134.977 113.399 142.047 107.761 150.245 104.129C158.444 100.498 167.485 98.9981 176.471 99.7798C185.456 100.561 194.073 103.597 201.465 108.585C208.857 113.573 214.766 120.34 218.605 128.212C220.751 132.613 222.205 137.298 222.92 142.112C223.006 142.656 223.078 143.205 223.14 143.752C223.342 145.574 223.441 147.406 223.435 149.239Z" fill="white"/>
<path d="M214.832 176.39C214.7 176.39 214.572 176.355 214.461 176.288C214.385 176.242 214.319 176.183 214.267 176.114C214.216 176.044 214.179 175.966 214.16 175.884C214.141 175.801 214.139 175.716 214.156 175.633C214.172 175.55 214.206 175.47 214.255 175.4C216.764 171.794 218.702 167.871 220.009 163.751C220.03 163.665 220.07 163.585 220.125 163.514C220.181 163.443 220.252 163.383 220.333 163.339C220.414 163.295 220.505 163.266 220.598 163.256C220.692 163.245 220.787 163.252 220.877 163.277C220.967 163.302 221.051 163.344 221.124 163.4C221.196 163.457 221.255 163.526 221.297 163.604C221.34 163.683 221.364 163.768 221.37 163.856C221.375 163.944 221.361 164.031 221.329 164.114C219.982 168.352 217.986 172.388 215.403 176.096C215.341 176.185 215.257 176.259 215.157 176.31C215.058 176.361 214.946 176.388 214.832 176.39Z" fill="#FF62C4"/>
<path d="M217.559 128.887C217.425 128.888 217.294 128.852 217.181 128.783C217.067 128.714 216.976 128.615 216.917 128.497C212.852 120.213 206.478 113.231 198.535 108.358C190.591 103.486 181.404 100.923 172.037 100.968C164.206 100.982 156.488 102.797 149.501 106.267C142.513 109.737 136.451 114.767 131.801 120.951C131.746 121.025 131.677 121.087 131.597 121.134C131.518 121.181 131.43 121.213 131.338 121.226C131.246 121.24 131.153 121.236 131.063 121.214C130.972 121.193 130.887 121.154 130.813 121.1C130.738 121.046 130.675 120.978 130.627 120.9C130.578 120.822 130.547 120.735 130.533 120.645C130.518 120.555 130.523 120.463 130.545 120.374C130.567 120.286 130.607 120.203 130.662 120.129C135.443 113.768 141.676 108.596 148.862 105.027C156.047 101.458 163.984 99.5924 172.037 99.5788C181.671 99.5313 191.121 102.166 199.292 107.176C207.463 112.187 214.019 119.369 218.201 127.889C218.254 127.995 218.279 128.113 218.272 128.231C218.266 128.349 218.229 128.464 218.164 128.564C218.1 128.664 218.01 128.747 217.904 128.803C217.799 128.86 217.68 128.889 217.559 128.887Z" fill="#FF62C4"/>
<path d="M139.817 187.507H137.532C137.181 187.22 136.838 186.926 136.497 186.625C127.844 179.076 122.037 169 119.981 157.964C119.894 157.498 119.814 157.028 119.744 156.555C118.185 146.476 119.818 136.181 124.431 126.999C124.653 126.558 124.882 126.121 125.118 125.686C125.387 125.186 125.667 124.688 125.959 124.194C126.006 124.113 126.069 124.042 126.145 123.985C126.221 123.928 126.308 123.886 126.401 123.861C126.494 123.836 126.591 123.829 126.687 123.84C126.783 123.851 126.876 123.88 126.96 123.926C127.129 124.018 127.252 124.171 127.304 124.351C127.355 124.53 127.33 124.722 127.233 124.884C126.891 125.47 126.557 126.061 126.232 126.657C125.996 127.092 125.772 127.533 125.565 127.974C121.246 136.748 119.712 146.544 121.155 156.146C121.225 156.619 121.302 157.105 121.388 157.558C123.457 168.882 129.579 179.161 138.702 186.632C139.076 186.926 139.446 187.216 139.817 187.507Z" fill="#FF62C4"/>
<path d="M199.269 137.148L190.638 140.41L182.449 143.528C182.146 142.68 181.659 141.9 181.018 141.237C180.378 140.579 179.596 140.055 178.725 139.7C176.374 138.632 173.782 138.116 171.172 138.197C167.494 138.13 163.922 139.356 161.159 141.634C159.887 142.843 158.898 144.288 158.255 145.876C157.612 147.464 157.329 149.161 157.424 150.857C157.429 152.866 157.867 154.853 158.712 156.699C159.472 158.258 160.673 159.591 162.184 160.554C163.564 161.497 165.119 162.19 166.77 162.599C168.455 163.002 170.189 163.195 171.928 163.173C174.599 163.206 177.24 162.646 179.636 161.538C180.655 161.139 181.571 160.54 182.325 159.782C183.082 159.021 183.661 158.119 184.025 157.135L184.254 156.124L163.835 156.361L168.286 145.034L200.664 144.61L200.723 174.776L185.839 174.982L185.794 170.986C181.012 174.655 174.969 176.563 168.797 176.351C161.296 176.73 153.92 174.422 148.161 169.894C145.385 167.639 143.196 164.818 141.761 161.645C139.148 155.087 139.168 147.86 141.817 141.314C143.307 138.099 145.568 135.25 148.423 132.989C154.816 128.169 162.829 125.646 171.024 125.871C176.836 125.791 182.593 126.936 187.87 129.222C192.43 130.734 196.4 133.495 199.269 137.148Z" fill="#FF62C4"/>
<path d="M175.574 111.707L161.495 111.818L161.889 134.952L175.948 134.911L175.574 111.707Z" fill="#FF62C4"/>
<path d="M176.98 187.507L164.196 187.388L164.189 187.231L164.165 186.344L163.876 176.747L163.56 166.283L176.421 166.418L176.679 176.166L176.949 186.344L176.974 187.231L176.98 187.507Z" fill="#FF62C4"/>
<path d="M341.508 31.8639C337.748 31.8639 333.476 31.0003 328.599 29.0022C328.484 28.9586 328.384 28.8831 328.311 28.7848L319.59 17.6437C319.53 17.5667 319.486 17.4779 319.463 17.3832C319.439 17.2886 319.436 17.1901 319.453 17.0941C319.471 16.9981 319.509 16.9069 319.564 16.8262C319.619 16.7455 319.691 16.6772 319.775 16.6258C339.047 4.75986 347.902 -10.3995 352.451 -39.3063C352.475 -39.4607 352.551 -39.6026 352.667 -39.709C352.783 -39.8154 352.932 -39.8801 353.089 -39.8925C353.249 -39.9012 353.406 -39.8572 353.538 -39.7677C353.669 -39.6781 353.766 -39.5479 353.814 -39.3977C357.006 -28.8901 357.862 -21.342 356.687 -13.8159L365.533 -18.6788C365.639 -18.7371 365.758 -18.7676 365.879 -18.7676C366 -18.7676 366.12 -18.7371 366.226 -18.6788C366.331 -18.6198 366.419 -18.5348 366.481 -18.432C366.543 -18.3292 366.577 -18.2123 366.58 -18.0926C366.775 -11.449 365.804 -2.61181 360.566 3.9688L370.059 -0.361546C370.19 -0.420654 370.335 -0.439117 370.477 -0.414474C370.618 -0.389832 370.748 -0.32325 370.85 -0.223614C370.952 -0.123978 371.021 0.00397491 371.047 0.143188C371.074 0.282406 371.056 0.42627 370.998 0.555584C370.359 1.9297 369.721 3.42041 369.054 4.99938C364.285 16.1278 357.539 31.8639 341.508 31.8639ZM329.31 27.7888C353.552 37.5967 361.76 18.4474 367.755 4.46675C368.167 3.50655 368.569 2.57893 368.958 1.68386L357.923 6.72647C357.77 6.79866 357.596 6.81393 357.433 6.76948C357.269 6.72503 357.128 6.62386 357.034 6.48458C356.941 6.34531 356.901 6.17732 356.923 6.01155C356.945 5.84578 357.027 5.69338 357.153 5.58243C363.803 -0.40567 365.242 -9.71875 365.194 -16.8761L356.084 -11.8713C355.967 -11.8062 355.833 -11.7755 355.699 -11.7829C355.565 -11.7903 355.436 -11.8354 355.327 -11.9131C355.219 -11.9907 355.135 -12.0974 355.085 -12.2208C355.036 -12.3441 355.024 -12.4787 355.049 -12.6088C356.403 -19.6621 355.915 -26.602 353.335 -36.0034C348.655 -9.26176 339.462 5.93856 321.177 17.42L329.31 27.7888Z" fill="#FF62C4"/>
<path d="M236.613 38.9392C219.943 38.9392 212.933 23.4248 207.974 12.4533C207.27 10.8997 206.606 9.42685 205.952 8.07211C205.89 7.94492 205.871 7.80293 205.897 7.66529C205.924 7.52765 205.995 7.401 206.101 7.30242C206.207 7.20384 206.343 7.13808 206.49 7.11403C206.638 7.08998 206.789 7.10878 206.925 7.16791L216.8 11.4341C211.353 4.95246 210.344 -3.76016 210.543 -10.3164C210.547 -10.4339 210.584 -10.5484 210.649 -10.649C210.714 -10.7496 210.805 -10.833 210.914 -10.8912C211.024 -10.9492 211.147 -10.9797 211.273 -10.9797C211.399 -10.9797 211.522 -10.9492 211.631 -10.8912L220.833 -6.09678C219.601 -13.5168 220.501 -20.9586 223.82 -31.318C223.868 -31.4671 223.968 -31.5966 224.105 -31.6853C224.241 -31.7739 224.406 -31.8165 224.572 -31.8061C224.738 -31.7956 224.895 -31.7327 225.018 -31.6276C225.14 -31.5226 225.221 -31.3817 225.247 -31.2279C229.977 -2.72857 239.188 12.2171 259.224 23.9158C259.311 23.9668 259.385 24.0344 259.442 24.1142C259.5 24.1939 259.538 24.2841 259.556 24.3788C259.574 24.473 259.571 24.5697 259.547 24.6628C259.523 24.7559 259.478 24.8433 259.416 24.9194L250.348 35.9034C250.27 35.9985 250.167 36.0725 250.049 36.1178C244.967 38.0847 240.526 38.9392 236.613 38.9392ZM208.066 9.17516C208.476 10.0555 208.893 10.9701 209.318 11.9188C215.552 25.7118 224.085 44.5943 249.292 34.9122L257.747 24.6584C238.734 13.3388 229.177 -1.64725 224.311 -28.012C221.626 -18.7431 221.118 -11.9011 222.529 -4.94712C222.554 -4.81898 222.541 -4.68664 222.489 -4.56559C222.437 -4.44453 222.35 -4.33976 222.237 -4.26353C222.124 -4.18652 221.991 -4.14146 221.852 -4.13375C221.713 -4.12603 221.574 -4.15598 221.453 -4.22003L211.98 -9.13875C211.93 -2.07916 213.427 7.09954 220.341 13.0064C220.473 13.1153 220.558 13.2649 220.581 13.4278C220.604 13.5907 220.564 13.7559 220.468 13.8932C220.371 14.0306 220.225 14.1309 220.056 14.1757C219.887 14.2205 219.707 14.2069 219.548 14.1374L208.066 9.17516Z" fill="#FF62C4"/>
<path d="M290.021 82.3979C314.822 82.3979 334.928 62.9408 334.928 38.9392C334.928 14.9376 314.822 -4.51953 290.021 -4.51953C265.22 -4.51953 245.114 14.9376 245.114 38.9392C245.114 62.9408 265.22 82.3979 290.021 82.3979Z" fill="#FF62C4"/>
<path d="M292.602 79.3659C317.119 79.3659 336.993 60.5875 336.993 37.4232C336.993 14.2589 317.119 -4.51953 292.602 -4.51953C268.086 -4.51953 248.212 14.2589 248.212 37.4232C248.212 60.5875 268.086 79.3659 292.602 79.3659Z" fill="white"/>
<path d="M292.568 79.3659C270.294 79.3659 251.038 63.3196 248.486 41.6669C247.84 36.1217 248.34 30.5087 249.957 25.1487C251.575 19.7888 254.279 14.7869 257.915 10.4289C261.55 6.07083 266.046 2.44206 271.145 -0.250109C276.244 -2.94227 281.847 -4.64507 287.633 -5.2612C311.958 -7.87979 333.984 8.91109 336.72 32.1687C337.365 37.7141 336.865 43.3271 335.247 48.6871C333.628 54.0471 330.924 59.0489 327.288 63.4069C323.653 67.7649 319.157 71.3936 314.057 74.0858C308.958 76.7779 303.355 78.4807 297.569 79.0968C295.909 79.2762 294.239 79.366 292.568 79.3659ZM292.634 -4.16621C291.016 -4.1653 289.4 -4.07756 287.793 -3.90341C282.195 -3.30679 276.775 -1.65886 271.843 0.946228C266.91 3.55131 262.561 7.06248 259.045 11.2791C255.528 15.4957 252.913 20.3351 251.349 25.5207C249.785 30.7064 249.302 36.1366 249.929 41.5011C252.579 64.0047 273.878 80.2512 297.419 77.7171C303.017 77.1201 308.437 75.4718 313.369 72.8664C318.302 70.261 322.651 66.7495 326.167 62.5327C329.684 58.3158 332.299 53.4762 333.863 48.2904C335.427 43.1046 335.91 37.6742 335.283 32.3095C332.819 11.3701 314.184 -4.15682 292.634 -4.15682V-4.16621Z" fill="#FF62C4"/>
<path d="M292.602 73.3015C312.557 73.3015 328.733 57.4643 328.733 37.9281C328.733 18.3919 312.557 2.55469 292.602 2.55469C272.647 2.55469 256.47 18.3919 256.47 37.9281C256.47 57.4643 272.647 73.3015 292.602 73.3015Z" fill="white"/>
<path d="M325.247 53.0889C325.147 53.0907 325.049 53.0654 324.96 53.0152C324.884 52.974 324.816 52.9162 324.761 52.8453C324.705 52.7743 324.663 52.6916 324.636 52.6021C324.609 52.5125 324.599 52.4179 324.605 52.3237C324.612 52.2296 324.635 52.1379 324.674 52.0539C326.014 49.048 326.959 45.8415 327.481 42.5336C327.515 42.3538 327.61 42.1957 327.746 42.0929C327.882 41.9901 328.048 41.9505 328.21 41.9825C328.372 42.0146 328.516 42.1157 328.613 42.2646C328.709 42.4135 328.75 42.5984 328.726 42.7804C328.183 46.222 327.2 49.5579 325.805 52.6852C325.755 52.8045 325.677 52.9057 325.578 52.9772C325.479 53.0486 325.364 53.0873 325.247 53.0889Z" fill="#FF62C4"/>
<path d="M260.293 20.7475C260.166 20.7471 260.042 20.7126 259.933 20.6478C259.765 20.5516 259.643 20.3925 259.592 20.2055C259.541 20.0184 259.566 19.8187 259.662 19.6503C262.912 13.9625 267.566 9.2153 273.172 5.86805C278.779 2.52079 285.149 0.686735 291.666 0.543293C298.183 0.399851 304.626 1.95188 310.373 5.04924C316.12 8.14661 320.975 12.6845 324.469 18.2238C324.527 18.3052 324.567 18.3975 324.588 18.495C324.608 18.5926 324.609 18.6933 324.59 18.7912C324.571 18.8891 324.532 18.9819 324.476 19.0642C324.42 19.1465 324.348 19.2164 324.264 19.2698C324.18 19.3231 324.087 19.3587 323.989 19.3745C323.891 19.3902 323.791 19.3857 323.695 19.3612C323.599 19.3368 323.509 19.2929 323.43 19.2323C323.351 19.1716 323.286 19.0955 323.237 19.0085C319.877 13.6834 315.208 9.32118 309.683 6.34382C304.158 3.36645 297.963 1.87468 291.697 2.01277C285.432 2.15085 279.308 3.91412 273.917 7.13206C268.527 10.35 264.052 14.9137 260.927 20.3818C260.862 20.4935 260.77 20.5861 260.659 20.6503C260.547 20.7145 260.421 20.7481 260.293 20.7475Z" fill="#FF62C4"/>
<path d="M292.798 73.3009C273.52 73.3009 256.856 59.3813 254.649 40.6004C253.912 34.3378 254.863 27.9982 257.41 22.1903C257.448 22.1044 257.503 22.0264 257.572 21.961C257.642 21.8955 257.724 21.8438 257.814 21.8088C257.904 21.7737 258 21.7561 258.097 21.7569C258.194 21.7576 258.29 21.7767 258.38 21.8131C258.469 21.8495 258.551 21.9025 258.619 21.969C258.687 22.0356 258.741 22.1143 258.777 22.2008C258.814 22.2873 258.832 22.3799 258.831 22.4732C258.83 22.5666 258.81 22.6588 258.773 22.7448C256.325 28.3273 255.412 34.4203 256.122 40.4393C258.4 59.8358 276.718 73.8457 296.959 71.6537C297.151 71.6376 297.343 71.6944 297.492 71.8119C297.642 71.9294 297.738 72.0984 297.76 72.2828C297.782 72.4672 297.728 72.6525 297.609 72.7994C297.491 72.9462 297.318 73.0428 297.127 73.0688C295.689 73.2226 294.244 73.3001 292.798 73.3009Z" fill="#FF62C4"/>
<path d="M169.824 58.1421C169.758 58.1415 169.693 58.133 169.629 58.117C169.467 58.0758 169.325 57.984 169.226 57.8568C169.128 57.7296 169.078 57.5747 169.086 57.4177C170.507 28.3423 164.594 11.8415 147.277 -3.47391C147.201 -3.53979 147.141 -3.61995 147.1 -3.70913C147.06 -3.7983 147.04 -3.89447 147.042 -3.99132C147.046 -4.08803 147.07 -4.18303 147.115 -4.27042C147.159 -4.35782 147.222 -4.43573 147.3 -4.49932L158.63 -13.6748C158.726 -13.7524 158.842 -13.8063 158.966 -13.8316C187.59 -19.0841 192.357 2.88871 195.513 17.4327C195.875 19.101 196.22 20.6783 196.575 22.1365C196.609 22.274 196.598 22.418 196.542 22.5492C196.486 22.6803 196.388 22.7922 196.262 22.8699C196.136 22.9475 195.988 22.987 195.837 22.9832C195.686 22.9793 195.54 22.9322 195.419 22.8483L186.564 16.7836C190.565 24.2124 189.697 33.0241 188.099 39.4651C188.07 39.5811 188.01 39.6883 187.924 39.7762C187.838 39.8641 187.73 39.9298 187.609 39.967C187.488 40.0042 187.359 40.0116 187.234 39.9885C187.109 39.9654 186.993 39.9126 186.896 39.8351L178.822 33.3722C178.454 40.9452 175.974 48.1388 170.477 57.769C170.414 57.8807 170.32 57.9745 170.205 58.0402C170.09 58.106 169.958 58.1412 169.824 58.1421ZM148.881 -3.94741C165.267 10.791 171.515 27.4109 170.688 54.3791C175.328 45.7148 177.291 39.0418 177.388 31.8952C177.388 31.7629 177.429 31.6334 177.506 31.5222C177.583 31.411 177.692 31.3228 177.82 31.268C177.949 31.2142 178.091 31.1953 178.23 31.2136C178.369 31.2319 178.5 31.2866 178.608 31.3715L186.923 38.0257C188.484 31.0516 188.967 21.6912 183.392 14.5603C183.289 14.4269 183.24 14.2636 183.254 14.0996C183.268 13.9356 183.343 13.7815 183.467 13.665C183.592 13.5484 183.756 13.477 183.931 13.4635C184.106 13.45 184.281 13.4953 184.424 13.5913L194.716 20.6438C194.498 19.7031 194.287 18.709 194.066 17.693C190.849 2.88243 186.444 -17.3813 159.441 -12.5239L148.881 -3.94741Z" fill="#FF62C4"/>
<path d="M42.3013 21.7568C42.2504 21.7577 42.1996 21.7525 42.1501 21.7413C41.9955 21.7079 41.8572 21.6233 41.7581 21.5015C41.6589 21.3797 41.6049 21.2281 41.6049 21.0718C41.5734 10.2383 42.9063 2.84893 46.1675 -3.95504L36.3996 -1.79086C36.2828 -1.76409 36.161 -1.76772 36.046 -1.80138C35.9311 -1.83505 35.8269 -1.89761 35.7437 -1.98295C35.6606 -2.06829 35.6012 -2.17348 35.5715 -2.28827C35.5417 -2.40306 35.5426 -2.52351 35.5741 -2.63785C37.2819 -8.98408 40.7132 -17.0897 47.5476 -21.8727L37.3323 -20.3936C37.1916 -20.3728 37.0479 -20.395 36.9205 -20.4573C36.793 -20.5196 36.6879 -20.619 36.6192 -20.7421C36.5506 -20.8652 36.5218 -21.0061 36.5366 -21.1459C36.5514 -21.2856 36.6092 -21.4176 36.7021 -21.5239C37.6883 -22.6512 38.7155 -23.8874 39.8058 -25.1953C49.2838 -36.5892 63.6079 -53.8062 84.9208 -36.7698C85.0152 -36.6955 85.0881 -36.5977 85.1319 -36.4865L90.2175 -23.52C90.2522 -23.4303 90.2677 -23.3344 90.2629 -23.2385C90.258 -23.1426 90.233 -23.0487 90.1895 -22.9629C90.1459 -22.877 90.0847 -22.8011 90.0098 -22.7399C89.9348 -22.6788 89.8478 -22.6337 89.7543 -22.6076C68.1421 -16.6911 55.447 -4.76778 42.922 21.3645C42.8664 21.4809 42.7786 21.5795 42.6688 21.6489C42.559 21.7183 42.4316 21.7557 42.3013 21.7568ZM47.4373 -5.62723C47.5575 -5.6297 47.6762 -5.60126 47.7819 -5.5447C47.8876 -5.48813 47.9765 -5.40539 48.0401 -5.30458C48.1036 -5.20378 48.1396 -5.08838 48.1444 -4.96971C48.1492 -4.85103 48.1227 -4.73316 48.0675 -4.62766C44.7779 1.68431 43.2686 8.39487 43.026 18.0107C55.0594 -6.03205 68.0791 -17.8962 88.6515 -23.7162L83.9062 -35.8045C63.7402 -51.7884 50.5378 -35.9104 40.8865 -24.3109C40.2248 -23.5138 39.582 -22.754 38.9582 -22.0035L50.8309 -23.7255C50.9949 -23.7487 51.1619 -23.7133 51.3019 -23.6257C51.4419 -23.5381 51.5457 -23.4041 51.5947 -23.2476C51.6437 -23.0912 51.6346 -22.9226 51.5691 -22.7722C51.5036 -22.6218 51.386 -22.4994 51.2373 -22.427C43.2403 -18.5937 39.2291 -10.1861 37.2283 -3.38208L47.2735 -5.61167C47.3272 -5.62391 47.3822 -5.62914 47.4373 -5.62723Z" fill="#FF62C4"/>
<path d="M118.137 41.9708C144.934 41.9708 166.657 21.3824 166.657 -4.0146C166.657 -29.4116 144.934 -50 118.137 -50C91.3403 -50 69.6172 -29.4116 69.6172 -4.0146C69.6172 21.3824 91.3403 41.9708 118.137 41.9708Z" fill="#FF62C4"/>
<path d="M119.685 40.9602C145.627 40.9602 166.657 20.8244 166.657 -4.01451C166.657 -28.8534 145.627 -48.9893 119.685 -48.9893C93.7437 -48.9893 72.7139 -28.8534 72.7139 -4.01451C72.7139 20.8244 93.7437 40.9602 119.685 40.9602Z" fill="white"/>
<path d="M119.703 40.9601C116.934 40.9588 114.17 40.7319 111.442 40.2818C105.238 39.2646 99.3065 37.0968 93.9857 33.9021C88.6649 30.7075 84.0594 26.5488 80.4324 21.6636C76.8054 16.7784 74.2281 11.2625 72.8477 5.43126C71.4672 -0.400013 71.3108 -6.43238 72.3873 -12.3211C76.9313 -37.0158 101.844 -53.6207 127.929 -49.3225C134.132 -48.3053 140.064 -46.1375 145.385 -42.9428C150.706 -39.7482 155.311 -35.5895 158.938 -30.7043C162.565 -25.8191 165.143 -20.3032 166.523 -14.472C167.903 -8.64069 168.06 -2.60832 166.983 3.28037C162.937 25.3556 142.594 40.9601 119.703 40.9601ZM119.657 -48.6192C97.4547 -48.6192 77.7413 -33.4929 73.8065 -12.0835C72.7628 -6.37247 72.9151 -0.522137 74.2546 5.13298C75.5942 10.7881 78.0947 16.1371 81.6133 20.8742C85.1319 25.6112 89.5995 29.6434 94.7607 32.7402C99.9219 35.837 105.675 37.9376 111.692 38.922C114.338 39.3587 117.018 39.5784 119.703 39.5785C141.903 39.5785 161.616 24.4522 165.551 3.0428C166.595 -2.66824 166.442 -8.51856 165.103 -14.1737C163.763 -19.8288 161.263 -25.1778 157.744 -29.9149C154.226 -34.6519 149.758 -38.6841 144.597 -41.7809C139.436 -44.8777 133.682 -46.9784 127.665 -47.9628C125.021 -48.3996 122.342 -48.6192 119.657 -48.6192Z" fill="#FF62C4"/>
<path d="M120.718 32.8743C142.668 32.8743 160.463 15.9059 160.463 -5.02571C160.463 -25.9573 142.668 -42.9258 120.718 -42.9258C98.7671 -42.9258 80.9727 -25.9573 80.9727 -5.02571C80.9727 15.9059 98.7671 32.8743 120.718 32.8743Z" fill="white"/>
<path d="M149.87 21.7569C149.678 21.7558 149.493 21.6906 149.351 21.5741C149.203 21.4508 149.115 21.2798 149.107 21.0986C149.099 20.9173 149.172 20.7408 149.309 20.6076C151.96 18.0455 154.185 15.1556 155.916 12.0264C155.962 11.946 156.024 11.8745 156.101 11.8158C156.177 11.7572 156.265 11.7125 156.361 11.6845C156.456 11.6564 156.557 11.6455 156.658 11.6524C156.758 11.6592 156.856 11.6837 156.945 11.7243C157.035 11.765 157.115 11.8211 157.18 11.8895C157.246 11.9578 157.296 12.037 157.327 12.1226C157.358 12.2082 157.371 12.2985 157.363 12.3883C157.355 12.4781 157.328 12.5656 157.283 12.646C155.488 15.8933 153.18 18.8919 150.43 21.5494C150.358 21.6168 150.271 21.6701 150.174 21.7058C150.078 21.7415 149.974 21.7589 149.87 21.7569Z" fill="#FF62C4"/>
<path d="M113.297 32.8661H113.173C106.286 31.7457 99.8282 28.9329 94.4436 24.7082C89.059 20.4834 84.9353 14.994 82.4833 8.78683C80.0313 2.57967 79.3367 -4.1286 80.4686 -10.6697C81.6004 -17.2108 84.5193 -23.3564 88.9344 -28.4943C88.9923 -28.5695 89.0657 -28.6327 89.1502 -28.68C89.2346 -28.7274 89.3284 -28.7579 89.4257 -28.7698C89.523 -28.7817 89.6218 -28.7746 89.7162 -28.749C89.8105 -28.7235 89.8984 -28.68 89.9744 -28.6211C90.0504 -28.5623 90.113 -28.4894 90.1583 -28.4069C90.2037 -28.3243 90.2308 -28.2339 90.2381 -28.1411C90.2454 -28.0483 90.2327 -27.955 90.2007 -27.867C90.1688 -27.7791 90.1183 -27.6982 90.0523 -27.6293C85.8018 -22.6747 82.9929 -16.7509 81.9051 -10.4469C80.8173 -4.14301 81.4884 2.32124 83.8518 8.30275C86.2151 14.2843 90.1883 19.5745 95.376 23.6473C100.564 27.7201 106.785 30.4334 113.422 31.5174C113.597 31.5494 113.754 31.6419 113.861 31.7771C113.969 31.9123 114.02 32.0806 114.005 32.2495C113.989 32.4184 113.909 32.5758 113.778 32.6914C113.647 32.807 113.476 32.8725 113.297 32.8754V32.8661Z" fill="#FF62C4"/>
<path d="M142.913 -7.58142L136.063 -7.15254L129.524 -6.72978C129.518 -7.37971 129.366 -8.02138 129.076 -8.61381C128.789 -9.20347 128.371 -9.73064 127.848 -10.1609C126.455 -11.3958 124.758 -12.2999 122.902 -12.7954C120.334 -13.6196 117.524 -13.5267 115.026 -12.535C113.839 -11.9695 112.792 -11.1815 111.953 -10.2215C111.114 -9.2615 110.501 -8.15051 110.154 -6.95954C109.67 -5.5704 109.494 -4.10558 109.636 -2.65231C109.79 -1.41455 110.309 -0.239485 111.136 0.745066C111.878 1.68853 112.803 2.49668 113.865 3.12844C114.952 3.76222 116.125 4.26174 117.353 4.61422C119.222 5.20251 121.216 5.37465 123.171 5.11662C123.987 5.05527 124.778 4.83496 125.495 4.47023C126.214 4.10363 126.841 3.6016 127.337 2.99671L127.745 2.34725L113.33 -1.80374L119.222 -8.69346L142.09 -2.14378L134.788 18.7245L124.27 15.7193L125.216 12.9438C120.959 14.4698 116.246 14.5112 111.959 13.0602C106.589 11.7429 101.962 8.59132 99.0149 4.24353C97.6149 2.10058 96.7646 -0.309532 96.5289 -2.80243C96.2884 -5.30885 96.6616 -7.83309 97.6208 -10.1884C98.3541 -12.654 99.6906 -14.9314 101.527 -16.8453C103.355 -18.7458 105.632 -20.2323 108.182 -21.1893C113.852 -23.17 120.1 -23.221 125.807 -21.3333C129.912 -20.1614 133.68 -18.1535 136.833 -15.4576C139.669 -13.4537 141.787 -10.7097 142.913 -7.58142Z" fill="#FF62C4"/>
<path d="M111.058 5.58691L106.78 18.9728L115.872 21.7576L120.201 8.40959L111.058 5.58691Z" fill="#FF62C4"/>
<path d="M307.41 25.9195L302.776 29.0642L298.373 32.0611C298.083 31.5633 297.693 31.1323 297.228 30.796C296.768 30.4586 296.242 30.2244 295.685 30.1092C294.163 29.7313 292.573 29.7313 291.051 30.1092C288.883 30.5293 286.95 31.753 285.63 33.5399C285.043 34.4609 284.653 35.4954 284.485 36.5773C284.317 37.6592 284.375 38.7646 284.654 39.8228C284.922 41.0894 285.442 42.2878 286.183 43.3455C286.834 44.2368 287.715 44.9294 288.731 45.3467C289.667 45.7692 290.672 46.011 291.696 46.0597C292.739 46.1029 293.782 46.0068 294.8 45.7739C296.374 45.4615 297.851 44.7768 299.112 43.7759C299.657 43.3956 300.115 42.9028 300.456 42.3301C300.801 41.7541 301.023 41.1116 301.107 40.4439V39.7867L289.151 42.5009L290.264 34.7853L309.216 30.4542L313.248 49.5134L304.537 51.5113L303.98 48.9876C301.658 51.8968 298.365 53.8522 294.719 54.4885C290.364 55.6748 285.726 55.1474 281.741 53.013C279.818 51.942 278.162 50.4429 276.899 48.6294C274.494 44.8158 273.549 40.2478 274.24 35.7809C274.689 33.5626 275.639 31.4788 277.016 29.6919C280.128 25.8385 284.499 23.232 289.343 22.341C292.745 21.5621 296.276 21.5621 299.678 22.341C302.552 22.7258 305.246 23.9724 307.41 25.9195Z" fill="#FF62C4"/>
<path d="M289.308 14.6836L281.247 16.3471L284.542 29.8436L292.603 28.224L289.308 14.6836Z" fill="#FF62C4"/>
<path d="M289.505 48.6307L292.67 61.1728L300.861 59.5656L297.739 47.0234L289.505 48.6307Z" fill="#FF62C4"/>
<path d="M18.3989 54.0244C18.2791 54.0758 18.1778 54.1612 18.1082 54.2696C18.0373 54.3769 17.9997 54.5021 18 54.6299C18 54.7577 18.0376 54.8827 18.1082 54.9901C18.1788 55.0977 18.2798 55.1829 18.3989 55.2354L20.5139 56.0951C22.0642 56.6715 23.4721 57.563 24.6447 58.711C25.8173 59.859 26.728 61.2374 27.3167 62.7551C27.5901 63.4602 27.8997 64.1513 28.2443 64.8258C28.2968 64.9431 28.384 65.0422 28.4948 65.1104C28.6045 65.1795 28.7323 65.2162 28.8627 65.2162C28.9932 65.2162 29.121 65.1795 29.2307 65.1104C29.3414 65.0422 29.4287 64.9431 29.4812 64.8258C29.7224 64.2779 30.0409 63.5755 30.3593 62.7551C30.9607 61.2445 31.8758 59.8726 33.0468 58.7262C34.2178 57.5798 35.6191 56.6838 37.1621 56.0951L39.2771 55.2354C39.3962 55.1829 39.4972 55.0977 39.5678 54.9901C39.6393 54.883 39.678 54.7579 39.6791 54.6299C39.6783 54.5018 39.6397 54.3767 39.5678 54.2696C39.4982 54.1612 39.3969 54.0758 39.2771 54.0244C38.5882 53.6871 37.8822 53.384 37.1621 53.1162C35.6118 52.5399 34.2039 51.6483 33.0313 50.5003C31.8587 49.3523 30.948 47.974 30.3593 46.4562C30.0501 45.6358 29.7224 44.9426 29.4812 44.3855C29.4295 44.2677 29.3421 44.1684 29.2307 44.101C29.1217 44.03 28.9937 43.9922 28.8627 43.9922C28.7318 43.9922 28.6038 44.03 28.4948 44.101C28.3834 44.1684 28.2959 44.2677 28.2443 44.3855C27.8997 45.0601 27.5901 45.7512 27.3167 46.4562C26.728 47.974 25.8173 49.3523 24.6447 50.5003C23.4721 51.6483 22.0642 52.5399 20.5139 53.1162C19.7938 53.384 19.0879 53.6871 18.3989 54.0244Z" fill="#FF62C4"/>
<path d="M119.607 81.2522C119.478 81.3117 119.367 81.4047 119.288 81.5211C119.211 81.6396 119.17 81.7772 119.17 81.9178C119.17 82.0584 119.211 82.196 119.288 82.3145C119.367 82.4309 119.478 82.5238 119.607 82.5833L121.93 83.5261C123.624 84.1593 125.163 85.1356 126.445 86.3912C127.728 87.6468 128.725 89.1533 129.372 90.8122C129.711 91.7118 130.074 92.4719 130.389 93.086C130.45 93.2126 130.545 93.3205 130.664 93.3981C130.785 93.4737 130.925 93.5139 131.069 93.5139C131.213 93.5139 131.353 93.4737 131.474 93.3981C131.593 93.3205 131.688 93.2126 131.749 93.086C132.01 92.4852 132.359 91.7118 132.712 90.8122C133.372 89.1609 134.374 87.6611 135.655 86.4072C136.935 85.1533 138.467 84.1724 140.154 83.5261L142.477 82.5833C142.606 82.5238 142.716 82.4309 142.795 82.3145C142.873 82.196 142.914 82.0584 142.914 81.9178C142.914 81.7772 142.873 81.6396 142.795 81.5211C142.716 81.4047 142.606 81.3117 142.477 81.2522C141.863 80.9535 141.073 80.6116 140.154 80.2564C138.46 79.6232 136.921 78.6469 135.638 77.3913C134.356 76.1357 133.358 74.6292 132.712 72.9703C132.373 72.0707 132.01 71.3105 131.749 70.6965C131.688 70.5699 131.593 70.462 131.474 70.3844C131.353 70.3088 131.213 70.2686 131.069 70.2686C130.925 70.2686 130.785 70.3088 130.664 70.3844C130.545 70.462 130.45 70.5699 130.389 70.6965C130.084 71.2973 129.731 72.0707 129.372 72.9703C128.725 74.6292 127.728 76.1357 126.445 77.3913C125.163 78.6469 123.624 79.6232 121.93 80.2564C120.994 80.6116 120.204 80.9535 119.607 81.2522Z" fill="#FF62C4"/>
<path d="M140.064 60.8466C139.99 60.8766 139.927 60.925 139.882 60.9862C139.839 61.0478 139.815 61.1194 139.815 61.1926C139.815 61.2657 139.839 61.3374 139.882 61.399C139.927 61.4601 139.99 61.5085 140.064 61.5386L141.376 62.0302C142.335 62.3597 143.206 62.8687 143.931 63.5236C144.657 64.1785 145.221 64.9645 145.586 65.8301C145.784 66.2975 145.983 66.7012 146.154 67.0138C146.187 67.0808 146.24 67.1378 146.309 67.1777C146.377 67.2176 146.456 67.2387 146.537 67.2384C146.618 67.2383 146.698 67.2172 146.766 67.1777C146.835 67.1391 146.89 67.0818 146.921 67.0138C147.072 66.7103 147.257 66.2975 147.466 65.8301C147.839 64.9688 148.406 64.1866 149.13 63.5326C149.855 62.8786 150.721 62.3671 151.676 62.0302L152.987 61.5386C153.061 61.5085 153.124 61.4601 153.169 61.399C153.213 61.3374 153.236 61.2657 153.236 61.1926C153.236 61.1194 153.213 61.0478 153.169 60.9862C153.124 60.925 153.061 60.8766 152.987 60.8466C152.561 60.6544 152.123 60.4832 151.676 60.3337C150.714 60.0029 149.842 59.4918 149.115 58.8341C148.389 58.1765 147.826 57.3873 147.462 56.5186C147.267 56.0482 147.069 55.6476 146.917 55.3349C146.886 55.267 146.832 55.2096 146.763 55.1711C146.694 55.1315 146.615 55.1104 146.534 55.1104C146.453 55.11 146.373 55.1311 146.305 55.171C146.237 55.2109 146.183 55.2679 146.151 55.3349C145.979 55.6384 145.781 56.0482 145.582 56.5186C145.217 57.3842 144.653 58.1703 143.928 58.8252C143.202 59.4801 142.331 59.989 141.372 60.3185C140.926 60.4737 140.489 60.6499 140.064 60.8466Z" fill="#FF62C4"/>
<path d="M226.762 99.2429C226.694 99.2724 226.635 99.321 226.594 99.3825C226.553 99.4441 226.532 99.5159 226.532 99.5893C226.532 99.6626 226.554 99.7343 226.594 99.796C226.636 99.8572 226.694 99.9057 226.762 99.9357L227.974 100.428C228.86 100.758 229.665 101.268 230.335 101.923C231.006 102.579 231.527 103.366 231.864 104.233C232.018 104.636 232.194 105.032 232.389 105.418C232.42 105.485 232.469 105.542 232.532 105.582C232.595 105.622 232.668 105.643 232.743 105.643C232.818 105.643 232.892 105.622 232.955 105.582C233.017 105.542 233.067 105.485 233.098 105.418C233.234 105.114 233.408 104.704 233.601 104.233C233.944 103.372 234.466 102.589 235.133 101.934C235.801 101.28 236.599 100.767 237.479 100.428L238.69 99.9357C238.759 99.9057 238.817 99.8572 238.858 99.796C238.899 99.7343 238.92 99.6626 238.92 99.5893C238.921 99.5159 238.899 99.4441 238.858 99.3825C238.817 99.321 238.759 99.2724 238.69 99.2429C238.38 99.0879 237.957 98.9086 237.479 98.7293C236.592 98.3994 235.788 97.8898 235.117 97.234C234.447 96.5783 233.926 95.7912 233.588 94.9245C233.405 94.4565 233.222 94.0523 233.085 93.7393C233.054 93.6724 233.005 93.6155 232.942 93.5752C232.879 93.5357 232.806 93.5146 232.731 93.5146C232.656 93.5146 232.583 93.5357 232.52 93.5752C232.457 93.6155 232.407 93.6724 232.377 93.7393C232.215 94.0432 232.035 94.4565 231.852 94.9245C231.514 95.7912 230.993 96.5783 230.323 97.234C229.652 97.8898 228.848 98.3994 227.961 98.7293C227.492 98.9086 227.082 99.0879 226.762 99.2429Z" fill="#FF62C4"/>
<path d="M308.316 117.435C308.248 117.465 308.19 117.514 308.149 117.575C308.108 117.637 308.087 117.708 308.087 117.782C308.087 117.855 308.108 117.927 308.149 117.988C308.19 118.05 308.248 118.098 308.316 118.128L309.527 118.62C310.412 118.95 311.216 119.46 311.886 120.116C312.556 120.771 313.076 121.558 313.413 122.425C313.596 122.893 313.78 123.297 313.938 123.61C313.969 123.676 314.018 123.732 314.081 123.771C314.143 123.813 314.216 123.835 314.292 123.835C314.367 123.835 314.441 123.813 314.503 123.771C314.567 123.734 314.617 123.677 314.646 123.61C314.785 123.306 314.956 122.893 315.149 122.425C315.493 121.563 316.016 120.779 316.685 120.125C317.354 119.47 318.154 118.958 319.035 118.62L320.245 118.128C320.314 118.098 320.372 118.05 320.413 117.988C320.454 117.927 320.475 117.855 320.475 117.782C320.475 117.708 320.454 117.637 320.413 117.575C320.372 117.514 320.314 117.465 320.245 117.435C319.851 117.243 319.447 117.071 319.035 116.919C318.15 116.589 317.347 116.08 316.677 115.424C316.007 114.769 315.486 113.983 315.149 113.117C314.968 112.646 314.785 112.245 314.646 111.932C314.617 111.864 314.567 111.806 314.503 111.768C314.44 111.728 314.367 111.707 314.292 111.707C314.217 111.707 314.143 111.728 314.081 111.768C314.018 111.808 313.968 111.865 313.938 111.932C313.78 112.236 313.596 112.646 313.413 113.117C313.075 113.982 312.555 114.766 311.885 115.42C311.216 116.075 310.414 116.583 309.53 116.913C309.049 117.092 308.636 117.271 308.316 117.435Z" fill="#FF62C4"/>
<path d="M418.501 164.258C418.466 164.263 418.431 164.263 418.396 164.258C418.308 164.235 418.231 164.184 418.178 164.113C418.124 164.042 418.097 163.956 418.101 163.869C418.871 147.718 415.667 138.551 406.286 130.042C406.246 130.005 406.214 129.961 406.192 129.912C406.17 129.862 406.159 129.81 406.159 129.756C406.161 129.702 406.174 129.649 406.198 129.6C406.222 129.552 406.256 129.508 406.299 129.473L412.431 124.362C412.483 124.318 412.547 124.289 412.615 124.277C428.12 121.356 430.703 133.565 432.414 141.645C432.611 142.558 432.794 143.449 432.991 144.262C433.008 144.338 433.001 144.418 432.97 144.491C432.94 144.563 432.887 144.625 432.82 144.669C432.753 144.714 432.673 144.738 432.592 144.738C432.51 144.738 432.43 144.714 432.363 144.669L427.565 141.298C429.733 145.427 429.264 150.322 428.395 153.899C428.38 153.964 428.348 154.023 428.302 154.072C428.256 154.121 428.197 154.158 428.132 154.179C428.067 154.199 427.997 154.202 427.929 154.19C427.862 154.177 427.799 154.148 427.746 154.106L423.372 150.516C423.172 154.721 421.832 158.731 418.852 164.07C418.816 164.128 418.764 164.175 418.702 164.209C418.641 164.242 418.571 164.259 418.501 164.258ZM407.158 129.765C416.032 137.955 419.417 147.182 418.97 162.174C421.483 157.362 422.548 153.656 422.599 149.683C422.599 149.61 422.621 149.539 422.663 149.478C422.704 149.417 422.764 149.369 422.833 149.339C422.902 149.309 422.979 149.298 423.054 149.309C423.129 149.319 423.2 149.349 423.258 149.397L427.765 153.093C428.608 149.22 428.871 144.018 425.863 140.057C425.806 139.983 425.779 139.892 425.786 139.801C425.793 139.709 425.834 139.623 425.901 139.558C425.969 139.493 426.058 139.454 426.153 139.447C426.249 139.439 426.343 139.465 426.421 139.519L431.996 143.437C431.882 142.91 431.764 142.363 431.644 141.797C429.904 133.583 427.524 122.312 412.891 125.01L407.158 129.765Z" fill="#FF62C4"/>
<path d="M348.162 146.068H348.075C347.984 146.05 347.903 146.002 347.844 145.932C347.786 145.863 347.754 145.777 347.753 145.687C347.734 139.518 348.513 135.309 350.421 131.441L344.715 132.68C344.647 132.694 344.577 132.692 344.51 132.673C344.443 132.654 344.382 132.619 344.333 132.571C344.285 132.522 344.25 132.462 344.233 132.396C344.215 132.331 344.215 132.262 344.233 132.197C345.23 128.582 347.239 123.965 351.229 121.242L345.256 122.085C345.174 122.096 345.091 122.082 345.017 122.046C344.943 122.011 344.882 121.954 344.843 121.884C344.803 121.814 344.786 121.735 344.794 121.655C344.803 121.576 344.836 121.501 344.889 121.441C345.465 120.8 346.067 120.097 346.704 119.35C352.249 112.846 360.626 103.057 373.093 112.757C373.148 112.8 373.19 112.857 373.216 112.921L376.189 120.304C376.211 120.353 376.222 120.406 376.222 120.459C376.222 120.512 376.211 120.565 376.189 120.614C376.163 120.662 376.126 120.705 376.082 120.74C376.038 120.775 375.987 120.8 375.932 120.815C363.291 124.188 355.87 130.976 348.545 145.858C348.509 145.924 348.453 145.979 348.385 146.016C348.318 146.054 348.24 146.072 348.162 146.068ZM351.168 130.472C351.238 130.471 351.307 130.488 351.368 130.521C351.429 130.554 351.481 130.602 351.517 130.66C351.553 130.717 351.573 130.783 351.575 130.851C351.577 130.918 351.561 130.985 351.528 131.045C349.597 134.637 348.722 138.459 348.587 143.934C355.625 130.242 363.239 123.494 375.272 120.165L372.498 113.28C360.71 104.175 352.983 113.218 347.335 119.827L346.209 121.14L353.154 120.159C353.25 120.144 353.348 120.164 353.43 120.214C353.513 120.264 353.573 120.341 353.601 120.431C353.628 120.521 353.622 120.617 353.583 120.702C353.544 120.788 353.475 120.857 353.388 120.899C348.712 123.085 346.366 127.882 345.205 131.738L351.078 130.468C351.108 130.466 351.138 130.467 351.168 130.472Z" fill="#FF62C4"/>
<path d="M390.673 156.176C405.497 156.176 417.514 144.864 417.514 130.909C417.514 116.955 405.497 105.643 390.673 105.643C375.849 105.643 363.832 116.955 363.832 130.909C363.832 144.864 375.849 156.176 390.673 156.176Z" fill="#FF62C4"/>
<path d="M392.223 155.165C406.191 155.165 417.515 144.079 417.515 130.404C417.515 116.729 406.191 105.643 392.223 105.643C378.254 105.643 366.931 116.729 366.931 130.404C366.931 144.079 378.254 155.165 392.223 155.165Z" fill="white"/>
<path d="M391.208 155.165C386.989 155.166 382.83 154.212 379.083 152.382C375.336 150.552 372.109 147.9 369.674 144.649C367.676 141.996 366.257 138.995 365.5 135.82C364.743 132.645 364.662 129.359 365.263 126.155C366.168 121.326 368.569 116.859 372.161 113.315C375.754 109.771 380.378 107.31 385.451 106.24C390.524 105.171 395.819 105.542 400.669 107.307C405.519 109.071 409.707 112.15 412.705 116.156C414.703 118.808 416.123 121.81 416.88 124.985C417.637 128.16 417.718 131.445 417.116 134.65C416.039 140.395 412.852 145.599 408.115 149.35C403.378 153.101 397.393 155.16 391.208 155.165ZM391.183 106.391C385.185 106.393 379.379 108.388 374.784 112.025C370.189 115.663 367.099 120.71 366.057 126.283C365.485 129.392 365.568 132.578 366.302 135.657C367.036 138.736 368.406 141.649 370.334 144.228C372.262 146.808 374.71 149.003 377.538 150.69C380.366 152.376 383.519 153.52 386.816 154.057C393.475 155.15 400.322 153.707 405.855 150.044C411.388 146.382 415.154 140.798 416.328 134.519C416.9 131.409 416.817 128.224 416.083 125.145C415.349 122.065 413.979 119.153 412.051 116.573C410.123 113.994 407.675 111.798 404.847 110.112C402.019 108.425 398.866 107.281 395.569 106.745C394.121 106.508 392.653 106.389 391.183 106.388V106.391Z" fill="#FF62C4"/>
<path d="M392.223 150.111C404.481 150.111 414.418 140.835 414.418 129.393C414.418 117.95 404.481 108.674 392.223 108.674C379.965 108.674 370.027 117.95 370.027 129.393C370.027 140.835 379.965 150.111 392.223 150.111Z" fill="white"/>
<path d="M420.993 144.049C420.898 144.048 420.806 144.021 420.736 143.975C420.698 143.95 420.668 143.921 420.647 143.888C420.626 143.855 420.614 143.82 420.612 143.783C420.61 143.747 420.618 143.711 420.635 143.677C420.653 143.643 420.68 143.612 420.714 143.586C422.043 142.557 423.158 141.396 424.026 140.14C424.075 140.08 424.154 140.037 424.247 140.017C424.34 139.998 424.439 140.004 424.526 140.034C424.613 140.065 424.68 140.118 424.715 140.182C424.75 140.247 424.749 140.319 424.714 140.383C423.811 141.687 422.652 142.891 421.272 143.959C421.237 143.987 421.194 144.009 421.146 144.025C421.098 144.04 421.046 144.048 420.993 144.049Z" fill="#FF62C4"/>
<path d="M411.975 125.855C411.89 125.855 411.808 125.826 411.74 125.773C411.672 125.719 411.622 125.643 411.598 125.557C410.526 121.542 408.4 117.932 405.468 115.146C402.536 112.36 398.918 110.513 395.034 109.82C391.787 109.229 388.455 109.452 385.304 110.471C382.154 111.49 379.272 113.277 376.891 115.688C376.818 115.766 376.718 115.809 376.614 115.809C376.51 115.809 376.411 115.766 376.337 115.688C376.301 115.65 376.272 115.604 376.252 115.554C376.232 115.504 376.222 115.45 376.222 115.395C376.222 115.34 376.232 115.286 376.252 115.236C376.272 115.186 376.301 115.14 376.337 115.102C379.041 112.351 382.37 110.387 386 109.399C389.631 108.411 393.441 108.433 397.062 109.462C400.682 110.491 403.991 112.493 406.667 115.273C409.343 118.054 411.296 121.519 412.337 125.334C412.352 125.386 412.357 125.441 412.351 125.495C412.346 125.549 412.33 125.601 412.305 125.649C412.281 125.696 412.247 125.738 412.207 125.772C412.167 125.806 412.121 125.831 412.071 125.845C412.04 125.852 412.008 125.855 411.975 125.855Z" fill="#FF62C4"/>
<path d="M388.185 150.106C388.162 150.109 388.139 150.109 388.117 150.106C384.368 149.5 380.853 147.978 377.922 145.692C374.991 143.406 372.746 140.435 371.412 137.076C370.077 133.717 369.699 130.087 370.315 126.547C370.931 123.008 372.519 119.682 374.922 116.902C374.988 116.824 375.084 116.774 375.189 116.763C375.294 116.752 375.399 116.781 375.481 116.843C375.564 116.905 375.617 116.996 375.628 117.095C375.64 117.193 375.609 117.293 375.544 117.37C373.23 120.051 371.701 123.257 371.109 126.668C370.517 130.079 370.882 133.577 372.168 136.814C373.455 140.051 375.617 142.914 378.441 145.118C381.264 147.322 384.651 148.79 388.263 149.377C388.364 149.388 388.456 149.435 388.521 149.51C388.585 149.584 388.617 149.679 388.608 149.774C388.6 149.87 388.552 149.959 388.475 150.022C388.399 150.085 388.299 150.117 388.198 150.112L388.185 150.106Z" fill="#FF62C4"/>
<path d="M404.094 129.306L400.435 129.546L396.954 129.783C396.951 129.419 396.87 129.059 396.716 128.727C396.564 128.396 396.34 128.1 396.061 127.86C395.317 127.166 394.412 126.659 393.422 126.38C392.052 125.919 390.555 125.972 389.224 126.527C388.59 126.843 388.032 127.285 387.586 127.824C387.138 128.363 386.81 128.988 386.625 129.657C386.367 130.431 386.274 131.247 386.35 132.057C386.431 132.753 386.708 133.413 387.15 133.966C387.545 134.494 388.038 134.947 388.603 135.301C389.181 135.657 389.804 135.937 390.457 136.135C391.45 136.464 392.51 136.56 393.548 136.414C393.982 136.381 394.403 136.258 394.785 136.054C395.167 135.848 395.5 135.567 395.764 135.229L395.981 134.863L388.297 132.535L391.437 128.67L403.631 132.346L399.73 144.048L394.123 142.365L394.627 140.804C392.358 141.663 389.844 141.686 387.558 140.87C384.695 140.132 382.228 138.365 380.656 135.928C379.909 134.727 379.456 133.377 379.33 131.979C379.201 129.127 380.148 126.326 381.994 124.103C382.973 123.033 384.191 122.197 385.555 121.657C388.579 120.546 391.911 120.518 394.955 121.576C397.141 122.237 399.148 123.365 400.827 124.877C402.35 126.001 403.489 127.544 404.094 129.306Z" fill="#FF62C4"/>
<path d="M397.9 116.097L393.253 114.739L390.674 122.454L395.307 123.835L397.9 116.097Z" fill="#FF62C4"/>
<path d="M386.784 134.952L384.48 144.155L389.376 146.069L391.707 136.884L386.784 134.952Z" fill="#FF62C4"/>
<path d="M420.839 108.873C420.771 108.901 420.714 108.946 420.673 109.002C420.633 109.059 420.611 109.125 420.611 109.192C420.611 109.259 420.633 109.325 420.673 109.381C420.714 109.438 420.771 109.483 420.839 109.511L422.05 109.962C422.935 110.265 423.739 110.731 424.409 111.332C425.079 111.932 425.6 112.653 425.938 113.447C426.092 113.817 426.267 114.18 426.462 114.534C426.493 114.595 426.543 114.647 426.605 114.684C426.668 114.72 426.741 114.739 426.816 114.739C426.891 114.739 426.964 114.72 427.027 114.684C427.09 114.647 427.139 114.595 427.17 114.534C427.307 114.255 427.481 113.879 427.673 113.447C428.019 112.657 428.542 111.94 429.211 111.34C429.88 110.741 430.68 110.271 431.561 109.962L432.771 109.511C432.84 109.483 432.897 109.438 432.938 109.381C432.978 109.325 432.999 109.259 432.999 109.192C432.999 109.125 432.978 109.059 432.938 109.002C432.897 108.946 432.84 108.901 432.771 108.873C432.461 108.731 432.039 108.566 431.561 108.402C430.675 108.1 429.871 107.633 429.201 107.031C428.531 106.43 428.01 105.709 427.673 104.914C427.49 104.485 427.307 104.115 427.17 103.828C427.139 103.768 427.09 103.716 427.027 103.68C426.965 103.642 426.892 103.622 426.816 103.622C426.741 103.622 426.667 103.642 426.605 103.68C426.543 103.716 426.493 103.768 426.462 103.828C426.301 104.107 426.121 104.485 425.938 104.914C425.6 105.709 425.08 106.43 424.41 107.031C423.74 107.633 422.936 108.1 422.05 108.402C421.569 108.566 421.159 108.731 420.839 108.873Z" fill="#FF62C4"/>
<path d="M479.067 65.2639C479.036 65.2888 479.002 65.3098 478.966 65.3266C478.874 65.3693 478.772 65.3806 478.678 65.3588C478.583 65.337 478.5 65.2834 478.444 65.2067C467.995 51.0417 458.914 45.5748 444.936 45.0282C444.875 45.0264 444.816 45.0119 444.763 44.9856C444.71 44.9593 444.664 44.9218 444.628 44.8756C444.593 44.829 444.568 44.775 444.555 44.7171C444.543 44.6592 444.543 44.5985 444.555 44.5389L446.362 35.9035C446.377 35.8304 446.411 35.7611 446.459 35.7018C457.878 22.2848 468.514 30.7538 475.554 36.3594C476.362 37.0025 477.127 37.6093 477.851 38.1565C477.919 38.2078 477.969 38.2797 477.993 38.3625C478.017 38.4454 478.014 38.5351 477.984 38.6197C477.955 38.7043 477.9 38.7797 477.828 38.8356C477.756 38.8915 477.67 38.9253 477.581 38.9324L471.109 39.4804C475.825 41.4296 478.786 45.8898 480.499 49.5189C480.53 49.5843 480.543 49.6575 480.536 49.7316C480.529 49.8056 480.504 49.878 480.461 49.9417C480.419 50.0054 480.361 50.0582 480.294 50.0952C480.226 50.1321 480.151 50.1519 480.076 50.1527L473.819 50.2153C476.541 53.9042 478.128 58.2232 479.23 64.8391C479.244 64.9154 479.236 64.9952 479.207 65.07C479.178 65.1449 479.13 65.2119 479.067 65.2639ZM445.508 44.1922C458.828 44.8249 468.112 50.2194 478.034 63.1702C476.898 57.3351 475.268 53.4575 472.581 50.0723C472.531 50.0102 472.5 49.9339 472.494 49.8525C472.487 49.771 472.505 49.6879 472.544 49.613C472.584 49.5387 472.643 49.4755 472.716 49.4307C472.788 49.386 472.87 49.3615 472.953 49.3601L479.397 49.2947C477.464 45.43 474.112 40.8601 468.771 39.6533C468.671 39.6302 468.586 39.5725 468.53 39.4903C468.473 39.4082 468.45 39.307 468.464 39.2049C468.477 39.1028 468.527 39.0064 468.604 38.933C468.681 38.8597 468.78 38.814 468.884 38.8043L476.408 38.1689C475.946 37.8116 475.467 37.4267 474.975 37.0353C467.804 31.3279 457.991 23.521 447.182 36.1323L445.508 44.1922Z" fill="#FF62C4"/>
<path d="M405.716 96.724C405.693 96.7438 405.667 96.7607 405.64 96.7745C405.555 96.818 405.459 96.8319 405.367 96.8137C405.274 96.7955 405.192 96.7463 405.134 96.6744C401.053 91.7035 398.902 87.7964 397.872 83.4232L394.12 88.1434C394.076 88.2002 394.017 88.245 393.951 88.2734C393.885 88.3017 393.812 88.3126 393.742 88.3051C393.671 88.2976 393.603 88.2718 393.546 88.2304C393.489 88.1889 393.445 88.1332 393.416 88.0686C391.833 84.4983 390.394 79.4616 391.792 74.6555L387.574 79.2312C387.516 79.2944 387.44 79.339 387.357 79.3589C387.274 79.3789 387.188 79.3732 387.11 79.3428C387.031 79.3123 386.965 79.2585 386.92 79.1886C386.874 79.1186 386.851 79.0359 386.855 78.9516C386.893 78.057 386.909 77.0967 386.927 76.0794C387.08 67.2245 387.311 53.8432 403.665 53.5522C403.737 53.5504 403.808 53.5676 403.87 53.6021L411.113 57.6269C411.163 57.6549 411.207 57.6931 411.24 57.7391C411.274 57.785 411.298 57.8377 411.309 57.8938C411.321 57.9499 411.321 58.0082 411.309 58.0649C411.297 58.1216 411.273 58.1755 411.239 58.2232C403.361 69.1858 401.904 79.5109 405.859 96.3068C405.877 96.3816 405.873 96.4604 405.847 96.5342C405.822 96.608 405.777 96.6738 405.716 96.724ZM397.838 82.1699C397.893 82.1229 397.959 82.0907 398.03 82.0764C398.101 82.0622 398.173 82.0663 398.241 82.0884C398.308 82.1106 398.369 82.1499 398.415 82.2027C398.462 82.2554 398.494 82.3198 398.508 82.3893C399.34 86.547 401.153 90.2091 404.649 94.7246C401.248 79.0772 402.879 68.6555 410.308 58.1338L403.553 54.3831C388.131 54.7209 387.921 67.0585 387.764 76.074C387.754 76.693 387.739 77.2876 387.729 77.8707L392.631 72.5513C392.699 72.4781 392.79 72.4307 392.889 72.4176C392.987 72.4045 393.086 72.4266 393.167 72.4799C393.249 72.5331 393.308 72.6141 393.334 72.7083C393.36 72.8025 393.351 72.9036 393.308 72.9936C391.01 77.8062 392.291 83.2029 393.91 87.0955L397.767 82.2395C397.788 82.2134 397.812 82.19 397.838 82.1699Z" fill="#FF62C4"/>
<path d="M448.888 76.9844C461.297 66.8584 463.572 49.1105 453.97 37.3432C444.368 25.576 426.524 24.2454 414.115 34.3714C401.706 44.4973 399.431 62.2453 409.033 74.0125C418.635 85.7798 436.479 87.1103 448.888 76.9844Z" fill="#FF62C4"/>
<path d="M449.274 76.6683C461.47 66.7169 463.713 49.2839 454.285 37.7306C444.858 26.1773 427.329 24.8787 415.134 34.8301C402.939 44.7815 400.695 62.2144 410.123 73.7677C419.551 85.321 437.079 86.6196 449.274 76.6683Z" fill="white"/>
<path d="M449.671 76.3446C448.374 77.4017 446.994 78.351 445.545 79.1822C442.252 81.0752 438.647 82.3252 434.935 82.8608C431.223 83.3964 427.478 83.2072 423.913 82.3039C420.347 81.4005 417.032 79.8009 414.157 77.5963C411.282 75.3917 408.903 72.6254 407.155 69.4555C399.842 56.151 405.155 38.8568 419.007 30.9075C422.299 29.0146 425.905 27.7646 429.616 27.2289C433.328 26.6933 437.074 26.8826 440.639 27.7859C444.204 28.6892 447.519 30.2888 450.394 32.4934C453.27 34.698 455.649 37.4643 457.396 40.6342C463.941 52.5216 460.385 67.6016 449.671 76.3446ZM415.404 34.3961C405.012 42.8763 401.568 57.4921 407.91 69.0248C409.605 72.0989 411.913 74.7815 414.702 76.9192C417.491 79.0569 420.706 80.6077 424.164 81.483C427.621 82.3583 431.254 82.541 434.854 82.0205C438.453 81.5 441.949 80.2866 445.142 78.4496C446.547 77.6437 447.886 76.7229 449.142 75.6973C459.533 67.2184 462.978 52.6027 456.635 41.07C454.94 37.9958 452.632 35.3133 449.844 33.1756C447.055 31.0379 443.839 29.4871 440.382 28.6117C436.924 27.7364 433.291 27.5538 429.692 28.0743C426.092 28.5948 422.596 29.8082 419.403 31.6451C417.999 32.4505 416.661 33.3709 415.404 34.3961Z" fill="#FF62C4"/>
<path d="M446.501 72.4781C456.77 64.098 458.585 49.3264 450.554 39.4847C442.523 29.643 427.688 28.4581 417.418 36.8382C407.148 45.2183 405.334 59.99 413.365 69.8317C421.395 79.6734 436.231 80.8582 446.501 72.4781Z" fill="white"/>
<path d="M455.605 56.0146C455.514 56.0877 455.403 56.1285 455.293 56.1292C455.177 56.1292 455.071 56.0841 455 56.0038C454.928 55.9234 454.896 55.8143 454.91 55.7005C455.192 53.5077 455.151 51.3267 454.789 49.2246C454.78 49.1703 454.782 49.1134 454.796 49.0572C454.81 49.001 454.834 48.9466 454.869 48.8971C454.903 48.8476 454.946 48.804 454.996 48.7688C455.045 48.7336 455.101 48.7074 455.158 48.6918C455.215 48.6761 455.274 48.6714 455.33 48.6777C455.386 48.6841 455.44 48.7015 455.486 48.7288C455.533 48.7562 455.573 48.7931 455.603 48.8373C455.633 48.8815 455.653 48.9323 455.662 48.9866C456.039 51.1671 456.082 53.4297 455.789 55.7047C455.781 55.7634 455.76 55.8212 455.728 55.8746C455.696 55.9279 455.654 55.9756 455.605 56.0146Z" fill="#FF62C4"/>
<path d="M445.651 35.7419C445.578 35.8012 445.488 35.8365 445.396 35.8424C445.304 35.8483 445.215 35.8246 445.14 35.7748C441.709 33.4512 437.629 32.1751 433.372 32.0947C429.115 32.0142 424.857 33.1327 421.092 35.3203C417.938 37.1409 415.219 39.6445 413.153 42.6307C411.088 45.6169 409.732 49.0027 409.196 52.517C409.174 52.6232 409.112 52.7192 409.023 52.7853C408.934 52.8515 408.825 52.8829 408.718 52.8729C408.61 52.8629 408.513 52.8124 408.446 52.7318C408.379 52.6511 408.347 52.5464 408.357 52.4392C408.957 48.4385 410.584 44.6029 413.081 41.3037C415.578 38.0045 418.86 35.3533 422.61 33.6069C426.36 31.8604 430.45 31.0777 434.485 31.3346C438.52 31.5915 442.363 32.8792 445.642 35.0732C445.687 35.1032 445.725 35.142 445.754 35.1875C445.783 35.2329 445.802 35.2841 445.81 35.338C445.819 35.3919 445.816 35.4475 445.803 35.5016C445.79 35.5557 445.766 35.6073 445.733 35.6533C445.71 35.6863 445.682 35.7162 445.651 35.7419Z" fill="#FF62C4"/>
<path d="M443.075 75.266L443.019 75.3121C439.461 77.3474 435.456 78.4364 431.404 78.4705C427.352 78.5046 423.393 77.4827 419.923 75.5065C416.452 73.5304 413.591 70.6689 411.624 67.2073C409.657 63.7456 408.653 59.8046 408.711 55.7768C408.709 55.7204 408.719 55.6637 408.739 55.6104C408.759 55.557 408.79 55.508 408.83 55.4664C408.87 55.4247 408.918 55.3913 408.97 55.3682C409.023 55.3451 409.079 55.3327 409.136 55.3318C409.193 55.331 409.249 55.3416 409.301 55.3632C409.353 55.3847 409.4 55.4167 409.438 55.4572C409.477 55.4976 409.506 55.5457 409.525 55.5985C409.544 55.6512 409.552 55.7076 409.548 55.7641C409.495 59.6456 410.465 63.4427 412.362 66.7777C414.259 70.1127 417.017 72.8694 420.362 74.7735C423.706 76.6777 427.521 77.6629 431.426 77.6312C435.331 77.5995 439.19 76.5519 442.62 74.5928C442.712 74.5425 442.818 74.5273 442.919 74.5502C443.019 74.5731 443.106 74.6324 443.163 74.7167C443.22 74.8009 443.243 74.9041 443.227 75.0064C443.212 75.1086 443.159 75.2027 443.079 75.2703L443.075 75.266Z" fill="#FF62C4"/>
<path d="M441.624 44.357L438.588 47.168L435.696 49.8572C435.445 49.5556 435.129 49.3138 434.768 49.1473C434.409 48.981 434.013 48.894 433.605 48.8921C432.483 48.8456 431.346 49.0697 430.29 49.5451C428.776 50.1387 427.5 51.2527 426.711 52.6682C426.373 53.3851 426.184 54.1523 426.159 54.9207C426.133 55.6892 426.271 56.442 426.563 57.1311C426.867 57.9649 427.343 58.7167 427.964 59.3418C428.508 59.8617 429.199 60.2132 429.96 60.3582C430.667 60.5165 431.407 60.5418 432.144 60.4326C432.893 60.3145 433.631 60.1011 434.339 59.7978C435.437 59.3604 436.433 58.6812 437.248 57.8155C437.605 57.4762 437.891 57.0714 438.086 56.628C438.282 56.1826 438.384 55.7088 438.385 55.2373L438.328 54.7781L430.013 58.3308L430.136 52.8652L443.313 47.2124L447.863 59.7496L441.805 62.353L441.188 60.6951C439.783 63.0304 437.598 64.8458 435.042 65.8011C432.032 67.2317 428.669 67.5218 425.634 66.6125C424.163 66.1443 422.847 65.3417 421.786 64.2663C420.718 63.1863 419.929 61.8642 419.479 60.3977C418.88 58.9657 418.636 57.3919 418.764 55.7973C418.892 54.2126 419.388 52.65 420.214 51.2308C422.106 48.1446 425.005 45.7396 428.39 44.4475C430.754 43.4308 433.28 42.9335 435.78 42.9924C437.869 42.8485 439.905 43.3238 441.624 44.357Z" fill="#FF62C4"/>
<path d="M427.672 38.3316L422.151 40.7199L425.562 49.9816L431.088 47.6249L427.672 38.3316Z" fill="#FF62C4"/>
<path d="M431.53 62.752L434.788 70.7778L440.076 68.6857L436.857 60.6588L431.53 62.752Z" fill="#FF62C4"/>
</g>
<defs>
<clipPath id="clip0_2680_1036">
<rect width="510" height="188" fill="white"/>
</clipPath>
</defs>
</svg>
