<svg width="204" height="137" viewBox="0 0 204 137" fill="none" xmlns="http://www.w3.org/2000/svg">
<path d="M127.844 126.304C124.967 126.304 121.822 125.605 118.391 124.211C118.324 124.184 118.266 124.14 118.222 124.084L111.859 116.013C111.823 115.968 111.797 115.917 111.783 115.861C111.769 115.806 111.767 115.748 111.778 115.692C111.788 115.636 111.81 115.583 111.843 115.536C111.876 115.489 111.918 115.449 111.968 115.419C125.874 106.919 132.57 95.5457 135.852 74.8458C135.866 74.7554 135.911 74.6724 135.979 74.6101C136.047 74.5478 136.135 74.51 136.228 74.5027C136.322 74.497 136.415 74.5224 136.493 74.575C136.57 74.6275 136.628 74.704 136.655 74.7923C139.004 82.4773 139.617 87.9713 138.708 93.4709L145.34 89.8506C145.403 89.8162 145.473 89.7982 145.545 89.7983C145.616 89.7985 145.687 89.8169 145.749 89.8516C145.811 89.8863 145.863 89.9363 145.9 89.9966C145.936 90.0568 145.956 90.1254 145.958 90.1955C146.101 95.0994 145.361 101.659 141.326 106.425L148.636 103.116C148.713 103.081 148.799 103.07 148.882 103.085C148.966 103.099 149.043 103.138 149.103 103.197C149.164 103.256 149.204 103.331 149.219 103.413C149.235 103.495 149.224 103.579 149.189 103.655C148.73 104.651 148.263 105.732 147.768 106.873C145.593 111.915 142.875 118.191 138.439 122.18C135.381 124.934 131.873 126.304 127.844 126.304ZM118.811 123.499C136.606 130.662 142.617 116.736 147.01 106.561C147.347 105.781 147.67 105.031 147.99 104.313L139.71 108.065C139.62 108.105 139.518 108.112 139.423 108.085C139.327 108.059 139.245 108 139.19 107.919C139.136 107.838 139.112 107.74 139.124 107.644C139.136 107.548 139.183 107.459 139.256 107.393C144.185 102.989 145.211 96.1211 145.152 90.8963L138.362 94.6014C138.293 94.6387 138.214 94.6561 138.135 94.6515C138.056 94.647 137.98 94.6207 137.916 94.5756C137.852 94.5301 137.803 94.4679 137.774 94.396C137.745 94.3242 137.738 94.2458 137.752 94.1699C138.763 88.9414 138.372 83.8015 136.382 76.7656C132.995 96.4088 126.271 107.506 112.802 115.864L118.811 123.499Z" fill="#FF62C4"/>
<path d="M51.6321 120.484C46.8367 120.484 42.6631 118.871 39.0218 115.635C33.7238 110.939 30.4902 103.515 27.8933 97.5584C27.3032 96.2056 26.7447 94.927 26.1955 93.7476C26.1612 93.6737 26.1508 93.5913 26.166 93.5114C26.1811 93.4316 26.2209 93.3581 26.2802 93.3008C26.3394 93.2436 26.4153 93.2052 26.4976 93.1908C26.5799 93.1764 26.6648 93.1867 26.741 93.2203L35.8274 97.2929C30.8011 91.6508 29.8889 83.7476 30.0565 77.86C30.059 77.7917 30.0795 77.7252 30.1159 77.6668C30.1524 77.6083 30.2036 77.5599 30.2648 77.5261C30.3259 77.4922 30.395 77.4741 30.4654 77.4735C30.5358 77.4728 30.6052 77.4896 30.6671 77.5222L38.7537 81.882C37.6275 75.3333 38.3479 68.8118 41.1738 59.6534C41.2011 59.5673 41.2574 59.4925 41.3337 59.4411C41.41 59.3897 41.5018 59.3646 41.5945 59.3698C41.6865 59.3769 41.7733 59.414 41.8409 59.4749C41.9085 59.5359 41.9529 59.6172 41.9668 59.7057C45.9022 84.2298 53.9163 97.6938 70.5569 107.764C70.6057 107.793 70.6476 107.832 70.6797 107.878C70.7118 107.925 70.7334 107.977 70.7431 108.032C70.7524 108.086 70.7501 108.143 70.7364 108.197C70.7226 108.251 70.6977 108.301 70.663 108.346L63.0622 117.891C63.0185 117.946 62.9599 117.989 62.8928 118.015C58.8011 119.661 55.0574 120.484 51.6321 120.484ZM27.3888 94.3888C27.7984 95.2918 28.2154 96.2526 28.6491 97.2477C33.9137 109.317 41.1217 125.841 62.4777 117.32L69.7378 108.205C53.5254 98.2717 45.4927 85.066 41.4549 61.5858C38.9846 70.1067 38.4857 76.2815 39.7143 82.5701C39.7286 82.6445 39.7208 82.7212 39.6919 82.7915C39.6629 82.8617 39.614 82.9225 39.5507 82.9668C39.4875 83.0111 39.4127 83.037 39.3348 83.0416C39.257 83.0462 39.1794 83.0293 39.1112 82.9927L30.87 78.5408C30.7788 84.7572 31.9869 92.9891 37.944 98.2609C38.0178 98.3245 38.0655 98.4118 38.0783 98.5068C38.091 98.6018 38.068 98.6981 38.0134 98.7779C37.9587 98.8577 37.8762 98.9157 37.781 98.9412C37.6859 98.9666 37.5844 98.9579 37.4953 98.9165L27.3888 94.3888Z" fill="#FF62C4"/>
<path d="M122.679 107.745C122.602 107.433 122.522 107.121 122.435 106.813C120.88 101.25 117.932 96.1433 113.85 91.9434C109.769 87.7436 104.68 84.5801 99.0339 82.7326C99.017 82.7255 98.9995 82.72 98.9814 82.7163C95.499 81.5871 91.8593 80.9762 88.187 80.9043C87.9265 80.9043 87.664 80.9043 87.4016 80.9043C81.4429 80.8969 75.5743 82.31 70.3154 85.0186C65.0565 87.7272 60.5698 91.6476 57.2525 96.4326C57.0913 96.667 56.932 96.9025 56.7745 97.1393C53.0809 102.734 51.1218 109.234 51.1289 115.871C51.1291 117.269 51.2148 118.666 51.3857 120.055C51.4195 120.33 51.4569 120.598 51.5 120.881C52.3163 126.379 54.4857 131.606 57.826 136.125C57.951 136.294 58.0759 136.461 58.2009 136.625H84.2133V136.714L91.9357 136.781V136.625H116.589C116.714 136.46 116.839 136.293 116.964 136.125C117.296 135.676 117.617 135.219 117.926 134.755C119.463 132.45 120.712 129.977 121.648 127.388C121.937 126.591 122.195 125.781 122.424 124.96C122.497 124.701 122.567 124.438 122.632 124.177C123.211 121.881 123.548 119.534 123.637 117.172C123.654 116.741 123.661 116.306 123.661 115.871C123.664 113.134 123.334 110.407 122.679 107.745Z" fill="#FF62C4"/>
<path d="M122.758 107.164C122.683 106.847 122.603 106.532 122.517 106.216C120.535 98.9557 116.132 92.5352 109.994 87.9564C103.855 83.3776 96.3263 80.898 88.5821 80.9043C88.3281 80.9043 88.074 80.9043 87.8199 80.9043C81.8056 81.0251 75.9244 82.6444 70.7419 85.6065C65.5593 88.5686 61.2496 92.774 58.227 97.8182C58.0794 98.0646 57.9356 98.311 57.7955 98.5611C54.9733 103.546 53.4983 109.143 53.5079 114.83C53.5072 116.563 53.6427 118.293 53.9133 120.006C53.9562 120.276 54.0029 120.55 54.0515 120.813C55.086 126.426 57.5702 131.694 61.2723 136.125C61.4105 136.293 61.5525 136.46 61.6963 136.625H83.8648V136.714L91.562 136.781V136.625H115.475C115.619 136.46 115.759 136.293 115.9 136.125C118.103 133.486 119.884 130.541 121.183 127.388C121.507 126.602 121.801 125.801 122.065 124.987C122.147 124.732 122.227 124.473 122.304 124.214C123.944 118.66 124.101 112.793 122.762 107.164H122.758Z" fill="white"/>
<path d="M123.276 107.091C123.197 106.774 123.113 106.459 123.024 106.146C118.912 91.6186 105.031 80.9043 88.5871 80.9043C82.3599 80.8988 76.2398 82.46 70.8361 85.4326C65.4323 88.4051 60.9336 92.6853 57.7876 97.8469C57.6399 98.0874 57.494 98.3327 57.3501 98.5829C53.549 105.186 52.1331 112.812 53.3236 120.269C53.3668 120.538 53.4119 120.81 53.4626 121.076C54.4955 126.638 56.9561 131.864 60.6216 136.283C60.7587 136.451 60.8976 136.617 61.0404 136.781H62.1221C61.9756 136.617 61.8291 136.451 61.6864 136.283C57.895 131.886 55.3478 126.624 54.2908 121.005C54.2401 120.74 54.195 120.464 54.1518 120.204C52.9873 112.996 54.3187 105.619 57.9416 99.207C58.0806 98.9598 58.2233 98.7127 58.3698 98.4692C62.2984 91.9264 68.4126 86.8497 75.7213 84.0623C83.0301 81.2748 91.1048 80.94 98.6364 83.1121C98.6545 83.1159 98.6721 83.1213 98.689 83.1283C104.423 84.8029 109.613 87.8664 113.758 92.0242C117.903 96.182 120.865 101.294 122.358 106.869C122.442 107.181 122.519 107.493 122.592 107.809C123.148 110.197 123.428 112.637 123.426 115.084C123.426 115.866 123.398 116.643 123.342 117.412C123.174 119.751 122.748 122.065 122.07 124.317C121.993 124.574 121.912 124.83 121.828 125.085C120.483 129.174 118.329 132.975 115.484 136.279C115.341 136.447 115.195 136.613 115.047 136.777H116.13C116.271 136.613 116.412 136.447 116.549 136.279C116.925 135.833 117.281 135.379 117.619 134.916C119.812 131.982 121.504 128.732 122.632 125.287C122.716 125.031 122.797 124.775 122.874 124.517C124.571 118.838 124.708 112.834 123.27 107.089L123.276 107.091Z" fill="#FF62C4"/>
<path d="M118.311 114.743C118.313 116.98 118.042 119.21 117.503 121.387C117.422 121.718 117.335 122.046 117.239 122.371C117.235 122.395 117.228 122.419 117.22 122.442C116.383 125.332 115.076 128.075 113.347 130.569C111.927 132.62 110.24 134.487 108.326 136.122C108.128 136.291 107.926 136.459 107.722 136.624H91.5914V136.781L83.8308 136.71V136.621H69.4436C69.2399 136.455 69.038 136.288 68.8398 136.118C63.8232 131.84 60.4606 126.047 59.3018 119.686C59.2528 119.42 59.2094 119.153 59.1698 118.885C58.3214 113.282 59.2158 107.561 61.7397 102.447C61.8642 102.194 61.9944 101.945 62.1264 101.696C62.3566 101.264 62.5988 100.84 62.8529 100.422C63.3152 99.6528 63.8171 98.905 64.351 98.1809C67.3679 94.1019 71.4395 90.8553 76.1609 88.7637C80.8823 86.6722 86.0893 85.8085 91.2641 86.2587C96.439 86.7089 101.402 88.4571 105.659 91.3297C109.916 94.2023 113.319 98.0991 115.53 102.633C116.765 105.168 117.603 107.866 118.015 110.638C118.064 110.951 118.105 111.268 118.141 111.582C118.258 112.632 118.315 113.687 118.311 114.743Z" fill="white"/>
<path d="M113.356 130.379C113.28 130.379 113.206 130.359 113.142 130.321C113.098 130.294 113.06 130.26 113.031 130.22C113.001 130.18 112.98 130.135 112.969 130.088C112.958 130.04 112.957 129.991 112.966 129.943C112.976 129.895 112.995 129.85 113.024 129.809C114.469 127.733 115.585 125.473 116.338 123.1C116.35 123.051 116.372 123.005 116.404 122.964C116.436 122.923 116.477 122.889 116.524 122.863C116.571 122.838 116.623 122.821 116.677 122.815C116.73 122.809 116.785 122.813 116.837 122.828C116.889 122.842 116.938 122.866 116.979 122.898C117.021 122.931 117.055 122.971 117.079 123.016C117.104 123.061 117.118 123.111 117.121 123.161C117.124 123.211 117.116 123.262 117.097 123.309C116.322 125.75 115.172 128.074 113.685 130.21C113.649 130.261 113.6 130.304 113.543 130.333C113.486 130.363 113.421 130.378 113.356 130.379Z" fill="#FF62C4"/>
<path d="M114.926 103.022C114.849 103.022 114.774 103.002 114.708 102.962C114.643 102.922 114.59 102.865 114.557 102.797C112.215 98.0265 108.545 94.0051 103.97 91.1991C99.3954 88.3931 94.1042 86.9174 88.71 86.9431C84.2003 86.9511 79.7552 87.9962 75.7311 89.9948C71.7071 91.9934 68.2161 94.8897 65.538 98.4516C65.5063 98.4938 65.4665 98.5296 65.4207 98.5568C65.375 98.584 65.3242 98.602 65.2714 98.6099C65.2185 98.6179 65.1646 98.6155 65.1126 98.6029C65.0607 98.5904 65.0118 98.5679 64.9687 98.5368C64.9257 98.5057 64.8892 98.4666 64.8615 98.4217C64.8339 98.3768 64.8155 98.327 64.8074 98.2751C64.7993 98.2232 64.8018 98.1703 64.8145 98.1193C64.8273 98.0683 64.8502 98.0203 64.8819 97.978C67.6354 94.3148 71.2251 91.3361 75.3632 89.2808C79.5013 87.2255 84.0724 86.1508 88.71 86.1429C94.2583 86.1156 99.7007 87.6328 104.406 90.5185C109.112 93.4041 112.888 97.5401 115.296 102.447C115.327 102.508 115.341 102.576 115.337 102.644C115.333 102.712 115.312 102.778 115.275 102.836C115.238 102.893 115.186 102.941 115.125 102.973C115.064 103.006 114.996 103.023 114.926 103.022Z" fill="#FF62C4"/>
<path d="M70.1542 136.782H68.8382C68.6364 136.617 68.4386 136.447 68.2426 136.274C63.2591 131.927 59.9151 126.124 58.7306 119.768C58.6806 119.5 58.6345 119.229 58.5942 118.957C57.6967 113.152 58.637 107.223 61.2935 101.936C61.4216 101.682 61.5535 101.43 61.6893 101.179C61.8442 100.891 62.0056 100.605 62.1734 100.32C62.2006 100.274 62.2371 100.233 62.2808 100.2C62.3245 100.167 62.3746 100.143 62.4281 100.128C62.4817 100.114 62.5376 100.11 62.5928 100.116C62.648 100.123 62.7014 100.139 62.7498 100.166C62.8471 100.219 62.9183 100.307 62.9479 100.41C62.9774 100.514 62.9628 100.624 62.9073 100.718C62.7101 101.055 62.518 101.395 62.331 101.739C62.1946 101.989 62.0658 102.243 61.9467 102.497C59.459 107.55 58.5758 113.192 59.4068 118.721C59.4472 118.994 59.4914 119.273 59.5413 119.535C60.7328 126.056 64.2584 131.976 69.5125 136.278C69.7277 136.447 69.941 136.615 70.1542 136.782Z" fill="#FF62C4"/>
<path d="M104.394 107.78L99.4233 109.658L94.7073 111.454C94.5326 110.965 94.2519 110.516 93.883 110.135C93.5143 109.755 93.0643 109.454 92.5625 109.249C91.2088 108.634 89.7159 108.337 88.2125 108.384C86.0945 108.345 84.0376 109.051 82.4459 110.363C81.7134 111.059 81.1438 111.891 80.7735 112.806C80.4032 113.721 80.2404 114.698 80.2954 115.675C80.2982 116.832 80.5504 117.976 81.0368 119.039C81.4743 119.937 82.166 120.705 83.0363 121.259C83.8312 121.802 84.7267 122.201 85.6772 122.437C86.6478 122.669 87.6468 122.78 88.6483 122.768C90.1863 122.787 91.7071 122.464 93.0869 121.826C93.6738 121.596 94.2017 121.251 94.6356 120.815C95.0719 120.376 95.4054 119.857 95.6147 119.29L95.7467 118.708L83.9871 118.844L86.5506 112.321L105.197 112.077L105.231 129.45L96.6597 129.569L96.6333 127.267C93.8797 129.38 90.3995 130.479 86.8449 130.357C82.5248 130.575 78.2773 129.246 74.9608 126.638C73.3618 125.34 72.1009 123.715 71.2748 121.888C69.7698 118.111 69.7812 113.949 71.3068 110.179C72.165 108.327 73.4671 106.686 75.1117 105.384C78.7931 102.609 83.4078 101.156 88.1276 101.285C91.4747 101.239 94.7901 101.898 97.8293 103.215C100.455 104.086 102.742 105.676 104.394 107.78Z" fill="#FF62C4"/>
<path d="M90.748 93.127L82.6396 93.1908L82.8667 106.514L90.963 106.49L90.748 93.127Z" fill="#FF62C4"/>
<path d="M91.557 136.782L84.1945 136.713L84.1909 136.622L84.1766 136.112L84.0104 130.585L83.8281 124.559L91.2353 124.636L91.3836 130.25L91.5391 136.112L91.5534 136.622L91.557 136.782Z" fill="#FF62C4"/>
<path d="M186.31 47.1457C184.144 47.1457 181.684 46.6484 178.875 45.4976C178.809 45.4725 178.751 45.429 178.71 45.3724L173.687 38.9562C173.652 38.9119 173.627 38.8608 173.614 38.8062C173.6 38.7517 173.598 38.695 173.608 38.6397C173.618 38.5845 173.64 38.5319 173.672 38.4854C173.704 38.439 173.745 38.3996 173.794 38.37C184.892 31.5364 189.992 22.806 192.612 6.15853C192.626 6.06959 192.669 5.98786 192.736 5.92658C192.803 5.8653 192.889 5.82808 192.98 5.82093C193.071 5.81593 193.162 5.84122 193.238 5.89282C193.313 5.94442 193.369 6.01938 193.397 6.10589C195.235 12.1572 195.728 16.5042 195.051 20.8385L200.146 18.0379C200.207 18.0044 200.275 17.9868 200.345 17.9868C200.415 17.9868 200.484 18.0044 200.545 18.0379C200.605 18.0719 200.656 18.1209 200.692 18.1801C200.728 18.2393 200.747 18.3066 200.749 18.3755C200.861 22.2016 200.302 27.291 197.285 31.0808L202.753 28.5869C202.828 28.5529 202.911 28.5423 202.993 28.5565C203.074 28.5707 203.149 28.609 203.208 28.6664C203.267 28.7238 203.306 28.7974 203.321 28.8776C203.337 28.9578 203.327 29.0406 203.293 29.1151C202.925 29.9065 202.558 30.765 202.173 31.6743C199.427 38.0832 195.542 47.1457 186.31 47.1457ZM179.285 44.7988C193.246 50.4472 197.973 39.4191 201.425 31.3676C201.663 30.8146 201.894 30.2804 202.118 29.7649L195.763 32.669C195.675 32.7105 195.575 32.7193 195.481 32.6937C195.387 32.6681 195.305 32.6099 195.251 32.5297C195.197 32.4494 195.175 32.3527 195.187 32.2572C195.2 32.1618 195.247 32.074 195.32 32.0101C199.149 28.5615 199.978 23.1981 199.951 19.0761L194.704 21.9584C194.637 21.9959 194.56 22.0136 194.483 22.0094C194.405 22.0051 194.331 21.9791 194.268 21.9344C194.206 21.8897 194.157 21.8282 194.129 21.7572C194.101 21.6862 194.093 21.6086 194.108 21.5337C194.888 17.4717 194.607 13.4749 193.121 8.06069C190.426 23.4613 185.131 32.2152 174.601 38.8274L179.285 44.7988Z" fill="#FF62C4"/>
<path d="M125.9 51.2199C116.3 51.2199 112.262 42.2851 109.406 35.9666C109.001 35.0718 108.619 34.2236 108.242 33.4434C108.206 33.3702 108.195 33.2884 108.211 33.2092C108.226 33.1299 108.267 33.0569 108.328 33.0002C108.389 32.9434 108.468 32.9055 108.552 32.8917C108.637 32.8778 108.724 32.8887 108.802 32.9227L114.489 35.3796C111.352 31.6468 110.771 26.6292 110.886 22.8534C110.889 22.7858 110.91 22.7198 110.947 22.6619C110.985 22.6039 111.037 22.5559 111.1 22.5224C111.163 22.489 111.234 22.4714 111.307 22.4714C111.379 22.4714 111.45 22.489 111.513 22.5224L116.812 25.2835C116.103 21.0103 116.621 16.7246 118.532 10.7585C118.56 10.6727 118.618 10.5981 118.696 10.547C118.775 10.496 118.87 10.4714 118.966 10.4775C119.061 10.4835 119.152 10.5197 119.222 10.5802C119.293 10.6407 119.34 10.7219 119.354 10.8104C122.078 27.2233 127.383 35.8306 138.922 42.5679C138.972 42.5972 139.015 42.6362 139.048 42.6821C139.081 42.7281 139.103 42.78 139.113 42.8345C139.123 42.8888 139.122 42.9445 139.108 42.9981C139.094 43.0517 139.068 43.102 139.033 43.1459L133.81 49.4716C133.765 49.5264 133.706 49.569 133.638 49.5951C130.711 50.7278 128.154 51.2199 125.9 51.2199ZM109.46 34.0787C109.696 34.5857 109.936 35.1124 110.181 35.6588C113.771 43.6022 118.685 54.4767 133.202 48.9008L138.071 42.9955C127.121 36.4766 121.618 27.846 118.815 12.6625C117.269 18.0004 116.976 21.9408 117.789 25.9456C117.804 26.0194 117.796 26.0956 117.766 26.1653C117.736 26.2351 117.686 26.2954 117.621 26.3393C117.556 26.3837 117.479 26.4096 117.399 26.414C117.319 26.4185 117.239 26.4012 117.169 26.3644L111.714 23.5316C111.685 27.5973 112.547 32.8833 116.529 36.2851C116.605 36.3478 116.654 36.434 116.667 36.5278C116.68 36.6216 116.657 36.7168 116.602 36.7959C116.546 36.875 116.462 36.9327 116.365 36.9585C116.268 36.9843 116.164 36.9765 116.072 36.9365L109.46 34.0787Z" fill="#FF62C4"/>
<path d="M156.658 76.2495C170.941 76.2495 182.52 65.044 182.52 51.2214C182.52 37.3988 170.941 26.1934 156.658 26.1934C142.375 26.1934 130.796 37.3988 130.796 51.2214C130.796 65.044 142.375 76.2495 156.658 76.2495Z" fill="#FF62C4"/>
<path d="M158.145 74.5033C172.264 74.5033 183.709 63.6888 183.709 50.3483C183.709 37.0079 172.264 26.1934 158.145 26.1934C144.026 26.1934 132.58 37.0079 132.58 50.3483C132.58 63.6888 144.026 74.5033 158.145 74.5033Z" fill="white"/>
<path d="M158.125 74.5033C145.297 74.5033 134.208 65.2622 132.738 52.7924C132.366 49.5988 132.654 46.3663 133.585 43.2795C134.517 40.1927 136.074 37.3121 138.168 34.8023C140.262 32.2924 142.851 30.2026 145.787 28.6522C148.724 27.1018 151.951 26.1211 155.283 25.7663C169.291 24.2582 181.977 33.9282 183.552 47.3223C183.924 50.5159 183.636 53.7485 182.704 56.8353C181.772 59.9221 180.214 62.8027 178.121 65.3125C176.027 67.8223 173.437 69.9121 170.501 71.4625C167.564 73.0129 164.337 73.9935 161.005 74.3484C160.049 74.4517 159.087 74.5034 158.125 74.5033ZM158.163 26.3969C157.231 26.3974 156.301 26.448 155.375 26.5482C152.151 26.8918 149.03 27.8409 146.189 29.3412C143.348 30.8414 140.844 32.8635 138.819 35.2919C136.794 37.7203 135.288 40.5073 134.387 43.4937C133.486 46.4801 133.208 49.6074 133.569 52.6969C135.095 65.6568 147.361 75.0132 160.919 73.5538C164.142 73.21 167.264 72.2607 170.105 70.7603C172.945 69.2598 175.45 67.2375 177.475 64.809C179.5 62.3805 181.006 59.5934 181.907 56.6068C182.807 53.6203 183.085 50.4929 182.725 47.4034C181.306 35.3443 170.573 26.4023 158.163 26.4023V26.3969Z" fill="#FF62C4"/>
<path d="M158.144 71.009C169.636 71.009 178.952 61.8882 178.952 50.6373C178.952 39.3863 169.636 30.2656 158.144 30.2656C146.652 30.2656 137.335 39.3863 137.335 50.6373C137.335 61.8882 146.652 71.009 158.144 71.009Z" fill="white"/>
<path d="M176.945 59.3693C176.887 59.3703 176.831 59.3557 176.78 59.3268C176.736 59.3031 176.697 59.2698 176.665 59.2289C176.633 59.1881 176.608 59.1405 176.593 59.0889C176.578 59.0373 176.572 58.9828 176.575 58.9286C176.579 58.8744 176.592 58.8215 176.615 58.7732C177.386 57.0421 177.931 55.1955 178.231 53.2904C178.251 53.1869 178.305 53.0958 178.384 53.0366C178.462 52.9774 178.558 52.9546 178.651 52.973C178.745 52.9915 178.828 53.0497 178.883 53.1355C178.939 53.2212 178.962 53.3277 178.949 53.4325C178.636 55.4146 178.069 57.3358 177.266 59.1367C177.238 59.2055 177.192 59.2638 177.135 59.3049C177.078 59.346 177.012 59.3684 176.945 59.3693Z" fill="#FF62C4"/>
<path d="M139.537 40.7425C139.464 40.7422 139.393 40.7224 139.33 40.6851C139.234 40.6297 139.163 40.538 139.134 40.4303C139.105 40.3226 139.119 40.2076 139.174 40.1106C141.046 36.835 143.726 34.101 146.955 32.1734C150.184 30.2457 153.852 29.1894 157.605 29.1068C161.359 29.0242 165.069 29.918 168.379 31.7018C171.688 33.4856 174.485 36.099 176.497 39.2891C176.53 39.336 176.553 39.3891 176.565 39.4453C176.577 39.5014 176.577 39.5595 176.566 39.6158C176.555 39.6722 176.533 39.7257 176.501 39.7731C176.468 39.8205 176.427 39.8607 176.379 39.8915C176.331 39.9222 176.277 39.9427 176.22 39.9517C176.164 39.9608 176.106 39.9582 176.051 39.9441C175.996 39.9301 175.944 39.9048 175.898 39.8699C175.853 39.8349 175.815 39.7911 175.787 39.741C173.852 36.6742 171.164 34.162 167.982 32.4474C164.8 30.7327 161.232 29.8736 157.624 29.9531C154.015 30.0326 150.488 31.0481 147.384 32.9013C144.279 34.7545 141.703 37.3828 139.903 40.5319C139.866 40.5962 139.812 40.6495 139.748 40.6865C139.684 40.7235 139.611 40.7428 139.537 40.7425Z" fill="#FF62C4"/>
<path d="M158.257 71.0106C147.155 71.0106 137.558 62.9942 136.287 52.1783C135.862 48.5716 136.41 44.9206 137.877 41.5758C137.899 41.5263 137.931 41.4814 137.97 41.4437C138.01 41.406 138.057 41.3763 138.109 41.3561C138.161 41.3359 138.217 41.3258 138.273 41.3262C138.329 41.3266 138.384 41.3376 138.435 41.3586C138.487 41.3796 138.534 41.4101 138.573 41.4484C138.612 41.4867 138.643 41.5321 138.664 41.5819C138.685 41.6317 138.696 41.685 138.695 41.7387C138.695 41.7925 138.683 41.8456 138.662 41.8951C137.252 45.1101 136.726 48.6191 137.135 52.0855C138.447 63.256 148.996 71.3243 160.653 70.0619C160.764 70.0527 160.874 70.0854 160.96 70.1531C161.047 70.2208 161.102 70.318 161.114 70.4243C161.127 70.5305 161.096 70.6372 161.028 70.7217C160.96 70.8063 160.86 70.862 160.75 70.8769C159.922 70.9655 159.09 71.0101 158.257 71.0106Z" fill="#FF62C4"/>
<path d="M87.4354 62.2785C87.3976 62.2781 87.36 62.2733 87.3235 62.2641C87.2302 62.2403 87.1483 62.1874 87.0915 62.1142C87.0346 62.041 87.0062 61.9518 87.0109 61.8613C87.829 45.1167 84.4236 35.6138 74.4506 26.7936C74.4069 26.7557 74.3723 26.7095 74.349 26.6581C74.3257 26.6068 74.3143 26.5514 74.3155 26.4956C74.3175 26.4399 74.3318 26.3852 74.3573 26.3349C74.3829 26.2846 74.4192 26.2397 74.4641 26.2031L80.9893 20.9189C81.0446 20.8742 81.1109 20.8432 81.1822 20.8286C97.667 17.8036 100.412 30.4579 102.23 38.8338C102.438 39.7946 102.637 40.703 102.842 41.5427C102.861 41.6219 102.855 41.7049 102.823 41.7804C102.79 41.8559 102.734 41.9204 102.662 41.9651C102.589 42.0098 102.504 42.0326 102.417 42.0303C102.33 42.0281 102.246 42.001 102.176 41.9527L97.0766 38.46C99.3803 42.7383 98.8806 47.8129 97.9602 51.5223C97.9437 51.5892 97.909 51.6509 97.8596 51.7015C97.8101 51.7521 97.7476 51.79 97.678 51.8114C97.6084 51.8328 97.534 51.8371 97.4622 51.8238C97.3903 51.8105 97.3232 51.78 97.2676 51.7354L92.6177 48.0134C92.4055 52.3747 90.9778 56.5176 87.8116 62.0636C87.7756 62.128 87.7216 62.182 87.6553 62.2198C87.589 62.2577 87.513 62.278 87.4354 62.2785ZM75.3748 26.5209C84.8114 35.0088 88.4097 44.5803 87.9332 60.1114C90.6054 55.1216 91.736 51.2785 91.792 47.1628C91.7921 47.0866 91.8156 47.012 91.8597 46.948C91.9038 46.8839 91.9667 46.8331 92.0409 46.8016C92.1148 46.7706 92.1965 46.7597 92.2767 46.7703C92.3569 46.7808 92.4323 46.8123 92.4943 46.8612L97.283 50.6934C98.1821 46.677 98.4599 41.2863 95.2494 37.1796C95.1901 37.1028 95.1619 37.0087 95.1699 36.9143C95.1779 36.8198 95.2215 36.7311 95.293 36.664C95.3644 36.5968 95.4591 36.5557 95.56 36.5479C95.6609 36.5402 95.7614 36.5663 95.8437 36.6215L101.771 40.6831C101.645 40.1413 101.524 39.5688 101.396 38.9837C99.5443 30.4542 97.0071 18.7843 81.4562 21.5817L75.3748 26.5209Z" fill="#FF62C4"/>
<path d="M13.9947 41.3252C13.9654 41.3257 13.9361 41.3227 13.9076 41.3163C13.8186 41.297 13.7389 41.2483 13.6818 41.1782C13.6247 41.108 13.5936 41.0207 13.5936 40.9307C13.5755 34.6917 14.3431 30.4361 16.2212 26.5177L10.5958 27.764C10.5286 27.7794 10.4584 27.7774 10.3922 27.758C10.326 27.7386 10.266 27.7025 10.2181 27.6534C10.1702 27.6043 10.1361 27.5437 10.1189 27.4776C10.1018 27.4115 10.1023 27.3421 10.1204 27.2762C11.1039 23.6214 13.0801 18.9534 17.016 16.1988L11.133 17.0507C11.052 17.0626 10.9692 17.0498 10.8958 17.014C10.8224 16.9781 10.7619 16.9208 10.7223 16.85C10.6828 16.7791 10.6662 16.6979 10.6747 16.6174C10.6833 16.5369 10.7165 16.4609 10.7701 16.3997C11.338 15.7505 11.9296 15.0385 12.5575 14.2853C18.0159 7.72352 26.2652 -2.19182 38.5394 7.61951C38.5938 7.66234 38.6357 7.71865 38.661 7.7827L41.5898 15.2501C41.6098 15.3018 41.6187 15.357 41.6159 15.4123C41.6131 15.4675 41.5987 15.5216 41.5736 15.571C41.5485 15.6204 41.5133 15.6641 41.4701 15.6994C41.427 15.7346 41.3769 15.7606 41.323 15.7756C28.8765 19.1829 21.5653 26.0496 14.3521 41.0993C14.3201 41.1663 14.2695 41.2231 14.2063 41.2631C14.1431 41.303 14.0697 41.3246 13.9947 41.3252ZM16.9525 25.5546C17.0217 25.5532 17.0901 25.5696 17.1509 25.6022C17.2118 25.6348 17.263 25.6824 17.2996 25.7405C17.3362 25.7985 17.357 25.865 17.3597 25.9333C17.3625 26.0017 17.3472 26.0695 17.3154 26.1303C15.421 29.7654 14.5517 33.63 14.412 39.1678C21.3421 25.3215 28.8402 18.4889 40.6879 15.1372L37.9551 8.17544C26.3414 -1.02974 18.7381 8.11447 13.1799 14.7946C12.7988 15.2537 12.4286 15.6913 12.0693 16.1235L18.9069 15.1318C19.0013 15.1184 19.0975 15.1388 19.1781 15.1893C19.2588 15.2397 19.3186 15.3169 19.3468 15.407C19.375 15.4971 19.3697 15.5942 19.332 15.6808C19.2943 15.7674 19.2265 15.8379 19.141 15.8796C14.5354 18.0872 12.2254 22.9292 11.0731 26.8476L16.8581 25.5636C16.8891 25.5566 16.9208 25.5535 16.9525 25.5546Z" fill="#FF62C4"/>
<path d="M57.6693 52.9663C73.1017 52.9663 85.6121 41.1094 85.6121 26.4832C85.6121 11.8569 73.1017 0 57.6693 0C42.237 0 29.7266 11.8569 29.7266 26.4832C29.7266 41.1094 42.237 52.9663 57.6693 52.9663Z" fill="#FF62C4"/>
<path d="M58.5608 52.3843C73.5006 52.3843 85.6118 40.7879 85.6118 26.4832C85.6118 12.1784 73.5006 0.582031 58.5608 0.582031C43.6209 0.582031 31.5098 12.1784 31.5098 26.4832C31.5098 40.7879 43.6209 52.3843 58.5608 52.3843Z" fill="white"/>
<path d="M58.572 52.3843C56.9772 52.3835 55.3854 52.2528 53.8142 51.9936C50.2414 51.4078 46.8253 50.1593 43.761 48.3195C40.6967 46.4797 38.0444 44.0847 35.9556 41.2713C33.8668 38.4579 32.3825 35.2813 31.5875 31.9231C30.7925 28.5648 30.7025 25.0907 31.3224 21.6994C33.9393 7.47765 48.2865 -2.08515 63.3089 0.390159C66.8816 0.975973 70.2978 2.22446 73.3621 4.06425C76.4263 5.90405 79.0787 8.29908 81.1675 11.1125C83.2562 13.9259 84.7406 17.1025 85.5355 20.4607C86.3305 23.819 86.4206 27.293 85.8006 30.6844C83.4701 43.3976 71.7549 52.3843 58.572 52.3843ZM58.5454 0.79521C45.7588 0.79521 34.4058 9.50651 32.1397 21.8363C31.5387 25.1253 31.6264 28.4945 32.3978 31.7513C33.1693 35.0081 34.6093 38.0886 36.6357 40.8167C38.6621 43.5448 41.235 45.8669 44.2073 47.6504C47.1797 49.4338 50.4931 50.6436 53.9583 51.2105C55.4819 51.462 57.0255 51.5885 58.572 51.5886C71.3567 51.5886 82.7097 42.8773 84.9758 30.5475C85.5768 27.2585 85.4891 23.8893 84.7177 20.6325C83.9462 17.3757 82.5062 14.2952 80.4798 11.5671C78.4534 8.83901 75.8805 6.51686 72.9082 4.7334C69.9358 2.94995 66.6223 1.74018 63.1572 1.17326C61.6342 0.921682 60.0913 0.795197 58.5454 0.79521Z" fill="#FF62C4"/>
<path d="M59.1549 47.7278C71.7963 47.7278 82.0442 37.9556 82.0442 25.901C82.0442 13.8464 71.7963 4.07422 59.1549 4.07422C46.5135 4.07422 36.2656 13.8464 36.2656 25.901C36.2656 37.9556 46.5135 47.7278 59.1549 47.7278Z" fill="white"/>
<path d="M75.9445 41.3243C75.8338 41.3236 75.7273 41.2861 75.6457 41.219C75.5602 41.148 75.5097 41.0495 75.5052 40.9451C75.5007 40.8408 75.5427 40.7391 75.6218 40.6624C77.148 39.1869 78.4294 37.5226 79.4267 35.7204C79.4528 35.6742 79.4889 35.633 79.5328 35.5992C79.5768 35.5654 79.6277 35.5397 79.6828 35.5235C79.7378 35.5074 79.7958 35.5011 79.8536 35.505C79.9113 35.509 79.9677 35.5231 80.0193 35.5465C80.071 35.5699 80.117 35.6022 80.1547 35.6416C80.1924 35.6809 80.2211 35.7266 80.2392 35.7759C80.2572 35.8251 80.2642 35.8771 80.2598 35.9288C80.2554 35.9806 80.2397 36.031 80.2135 36.0773C79.1801 37.9474 77.851 39.6743 76.2672 41.2048C76.2256 41.2436 76.1754 41.2743 76.1199 41.2949C76.0643 41.3154 76.0046 41.3255 75.9445 41.3243Z" fill="#FF62C4"/>
<path d="M80.4433 20.3715C80.3539 20.3714 80.267 20.3435 80.1956 20.2922C80.1242 20.2408 80.0723 20.1687 80.0476 20.0867C78.9164 16.2814 76.6762 12.8602 73.5873 10.2204C70.4984 7.58063 66.6875 5.83061 62.5972 5.17359C59.1776 4.61414 55.6682 4.82585 52.3498 5.79178C49.0314 6.75772 45.9962 8.45105 43.4873 10.7362C43.4074 10.8018 43.3041 10.8357 43.1988 10.831C43.0935 10.8262 42.9941 10.7832 42.9209 10.7108C42.8478 10.6383 42.8066 10.5419 42.8057 10.4414C42.8048 10.3409 42.8443 10.2438 42.9161 10.1702C45.7643 7.56226 49.2703 5.69961 53.0947 4.76249C56.9192 3.82537 60.9326 3.84552 64.7464 4.82099C68.5603 5.79645 72.0456 7.69419 74.8648 10.3305C77.6841 12.9669 79.7419 16.2526 80.8391 19.8696C80.8542 19.9191 80.8589 19.971 80.8529 20.0223C80.8469 20.0736 80.8303 20.1233 80.8041 20.1684C80.7779 20.2136 80.7426 20.2534 80.7002 20.2855C80.6579 20.3176 80.6093 20.3414 80.5572 20.3555C80.5203 20.3661 80.4819 20.3715 80.4433 20.3715Z" fill="#FF62C4"/>
<path d="M54.8822 47.7222H54.8107C50.8443 47.0769 47.1253 45.4571 44.0243 43.024C40.9233 40.591 38.5484 37.4296 37.1363 33.8549C35.7242 30.2802 35.3242 26.4168 35.976 22.6498C36.6279 18.8827 38.3089 15.3435 40.8516 12.3845C40.8849 12.3413 40.9272 12.3049 40.9758 12.2776C41.0244 12.2503 41.0784 12.2327 41.1345 12.2259C41.1905 12.219 41.2474 12.2231 41.3018 12.2378C41.3561 12.2526 41.4067 12.2776 41.4505 12.3115C41.4942 12.3454 41.5303 12.3874 41.5564 12.4349C41.5825 12.4824 41.5981 12.5345 41.6023 12.588C41.6065 12.6414 41.5992 12.6951 41.5808 12.7458C41.5624 12.7965 41.5333 12.843 41.4953 12.8827C39.0474 15.736 37.4298 19.1476 36.8033 22.7781C36.1769 26.4085 36.5634 30.1313 37.9244 33.5761C39.2855 37.0209 41.5736 40.0676 44.5613 42.4131C47.5489 44.7586 51.1319 46.3212 54.9538 46.9455C55.0548 46.9639 55.1451 47.0172 55.2071 47.0951C55.2692 47.1729 55.2986 47.2699 55.2897 47.3671C55.2808 47.4644 55.2342 47.555 55.159 47.6216C55.0837 47.6882 54.9851 47.7259 54.8822 47.7276V47.7222Z" fill="#FF62C4"/>
<path d="M71.9383 24.4291L67.993 24.6761L64.2274 24.9196C64.224 24.5453 64.1361 24.1757 63.9693 23.8346C63.8041 23.495 63.5631 23.1914 63.2621 22.9436C62.4599 22.2324 61.4825 21.7117 60.414 21.4263C58.9348 20.9517 57.3167 21.0052 55.878 21.5763C55.1941 21.902 54.5913 22.3558 54.1082 22.9087C53.625 23.4616 53.2721 24.1014 53.072 24.7873C52.7933 25.5873 52.6919 26.4309 52.7738 27.2678C52.8626 27.9806 53.1614 28.6574 53.6378 29.2244C54.065 29.7677 54.5978 30.2331 55.209 30.597C55.8353 30.962 56.5107 31.2496 57.218 31.4526C58.2946 31.7914 59.4428 31.8906 60.5688 31.742C61.0383 31.7066 61.4944 31.5798 61.9068 31.3697C62.321 31.1586 62.6824 30.8695 62.9677 30.5211L63.2028 30.1471L54.9013 27.7565L58.2942 23.7887L71.4642 27.5607L67.259 39.5788L61.2015 37.8481L61.7463 36.2496C59.2951 37.1285 56.5807 37.1523 54.1118 36.3167C51.0191 35.5581 48.3544 33.7431 46.6571 31.2391C45.8508 30.005 45.3611 28.617 45.2254 27.1814C45.0869 25.7379 45.3018 24.2842 45.8543 22.9277C46.2766 21.5078 47.0463 20.1962 48.1041 19.094C49.1565 17.9995 50.4679 17.1434 51.9366 16.5923C55.2016 15.4516 58.8002 15.4222 62.0865 16.5094C64.451 17.1842 66.621 18.3406 68.4365 19.8932C70.0697 21.0473 71.2897 22.6275 71.9383 24.4291Z" fill="#FF62C4"/>
<path d="M65.3976 10.9613L60.0452 9.3125L57.0742 18.695L62.4115 20.3714L65.3976 10.9613Z" fill="#FF62C4"/>
<path d="M53.5925 32.0137L51.1289 39.7226L56.3648 41.3264L58.8578 33.6393L53.5925 32.0137Z" fill="#FF62C4"/>
<path d="M166.673 43.7235L164.004 45.5345L161.468 47.2605C161.301 46.9737 161.077 46.7256 160.809 46.5319C160.544 46.3375 160.241 46.2027 159.92 46.1363C159.044 45.9187 158.128 45.9187 157.252 46.1363C156.003 46.3782 154.889 47.083 154.129 48.1121C153.791 48.6425 153.567 49.2383 153.47 49.8613C153.373 50.4844 153.406 51.121 153.567 51.7304C153.722 52.4599 154.021 53.1501 154.448 53.7591C154.823 54.2725 155.33 54.6713 155.915 54.9116C156.454 55.155 157.033 55.2942 157.623 55.3223C158.223 55.3472 158.824 55.2918 159.411 55.1577C160.317 54.9778 161.168 54.5835 161.894 54.0071C162.207 53.788 162.471 53.5042 162.668 53.1744C162.866 52.8427 162.994 52.4726 163.043 52.0881V51.7096L156.157 53.2728L156.798 48.8293L167.713 46.335L170.035 57.3113L165.018 58.4619L164.697 57.0085C163.36 58.6839 161.464 59.81 159.364 60.1764C156.856 60.8596 154.184 60.5559 151.89 59.3267C150.782 58.7099 149.829 57.8466 149.101 56.8022C147.716 54.6059 147.172 51.9752 147.57 49.4027C147.828 48.1252 148.376 46.9251 149.169 45.896C150.961 43.6768 153.478 42.1757 156.268 41.6626C158.227 41.214 160.261 41.214 162.22 41.6626C163.875 41.8842 165.426 42.6021 166.673 43.7235Z" fill="#FF62C4"/>
<path d="M156.247 37.252L151.605 38.21L153.503 45.9827L158.145 45.0499L156.247 37.252Z" fill="#FF62C4"/>
<path d="M156.361 56.8026L158.184 64.0256L162.901 63.1L161.103 55.877L156.361 56.8026Z" fill="#FF62C4"/>
<path d="M0.229721 59.9085C0.160727 59.938 0.102409 59.9872 0.0623296 60.0497C0.021472 60.1115 -0.000181501 60.1835 1.14599e-06 60.2572C2.12398e-05 60.3307 0.0216582 60.4027 0.0623296 60.4646C0.102977 60.5266 0.161128 60.5756 0.229721 60.6058L1.44778 61.101C2.3406 61.4329 3.1514 61.9464 3.8267 62.6075C4.502 63.2686 5.02647 64.0624 5.3655 64.9365C5.52299 65.3426 5.7013 65.7406 5.89974 66.129C5.92995 66.1966 5.98021 66.2537 6.04398 66.2929C6.10718 66.3327 6.18075 66.3539 6.25589 66.3539C6.33104 66.3539 6.4046 66.3327 6.46781 66.2929C6.53158 66.2537 6.58183 66.1966 6.61205 66.129C6.75095 65.8135 6.93437 65.409 7.11779 64.9365C7.4641 64.0665 7.99112 63.2764 8.6655 62.6162C9.33987 61.956 10.1469 61.44 11.0355 61.101L12.2536 60.6058C12.3222 60.5756 12.3803 60.5266 12.421 60.4646C12.4622 60.4029 12.4844 60.3309 12.4851 60.2572C12.4846 60.1834 12.4624 60.1113 12.421 60.0497C12.3809 59.9872 12.3226 59.938 12.2536 59.9085C11.8568 59.7142 11.4503 59.5396 11.0355 59.3854C10.1427 59.0535 9.3319 58.54 8.6566 57.8789C7.98129 57.2178 7.45683 56.424 7.11779 55.5499C6.93971 55.0774 6.75095 54.6782 6.61205 54.3574C6.58232 54.2895 6.53195 54.2323 6.46781 54.1935C6.40501 54.1527 6.33129 54.1309 6.25589 54.1309C6.1805 54.1309 6.10678 54.1527 6.04398 54.1935C5.97984 54.2323 5.92947 54.2895 5.89974 54.3574C5.7013 54.7458 5.52299 55.1439 5.3655 55.5499C5.02647 56.424 4.502 57.2178 3.8267 57.8789C3.1514 58.54 2.3406 59.0535 1.44778 59.3854C1.03304 59.5396 0.626501 59.7142 0.229721 59.9085Z" fill="#FF62C4"/>
<path d="M58.5154 75.5892C58.4409 75.6235 58.3774 75.677 58.3318 75.7441C58.2873 75.8123 58.2637 75.8916 58.2637 75.9725C58.2637 76.0535 58.2873 76.1327 58.3318 76.201C58.3774 76.268 58.4409 76.3215 58.5154 76.3558L59.853 76.8987C60.8288 77.2634 61.715 77.8257 62.4536 78.5488C63.1922 79.2719 63.7665 80.1395 64.139 81.0948C64.3343 81.6129 64.5432 82.0507 64.7248 82.4043C64.7598 82.4772 64.8145 82.5394 64.883 82.584C64.9527 82.6276 65.0337 82.6508 65.1164 82.6508C65.199 82.6508 65.28 82.6276 65.3497 82.584C65.4182 82.5394 65.4729 82.4772 65.5079 82.4043C65.6582 82.0583 65.8593 81.6129 66.0624 81.0948C66.4426 80.1438 67.0197 79.2801 67.7573 78.558C68.4949 77.8359 69.3771 77.2709 70.3485 76.8987L71.6861 76.3558C71.7606 76.3215 71.824 76.268 71.8696 76.201C71.9142 76.1327 71.9378 76.0535 71.9378 75.9725C71.9378 75.8916 71.9142 75.8123 71.8696 75.7441C71.824 75.677 71.7606 75.6235 71.6861 75.5892C71.3327 75.4172 70.8777 75.2203 70.3485 75.0157C69.3727 74.651 68.4864 74.0888 67.7478 73.3657C67.0093 72.6426 66.4349 71.775 66.0624 70.8196C65.8672 70.3015 65.6582 69.8638 65.5079 69.5101C65.4729 69.4372 65.4182 69.3751 65.3497 69.3304C65.28 69.2868 65.199 69.2637 65.1164 69.2637C65.0337 69.2637 64.9527 69.2868 64.883 69.3304C64.8145 69.3751 64.7598 69.4372 64.7248 69.5101C64.5491 69.8561 64.346 70.3015 64.139 70.8196C63.7665 71.775 63.1922 72.6426 62.4536 73.3657C61.715 74.0888 60.8288 74.651 59.853 75.0157C59.314 75.2203 58.8591 75.4172 58.5154 75.5892Z" fill="#FF62C4"/>
<path d="M137.589 14.5081C137.513 14.5377 137.448 14.5868 137.404 14.6493C137.359 14.7112 137.335 14.7832 137.335 14.8568C137.335 14.9304 137.359 15.0024 137.404 15.0642C137.448 15.1267 137.513 15.1759 137.589 15.2055L138.923 15.7006C139.9 16.0325 140.788 16.546 141.527 17.2071C142.267 17.8682 142.841 18.662 143.212 19.5361C143.385 19.9421 143.58 20.3401 143.797 20.7286C143.83 20.7961 143.885 20.8532 143.955 20.8924C144.024 20.9327 144.105 20.9539 144.187 20.9535C144.27 20.9534 144.35 20.9323 144.419 20.8924C144.489 20.8526 144.544 20.7957 144.577 20.7286C144.727 20.413 144.93 20.0085 145.131 19.5361C145.51 18.6662 146.088 17.8762 146.826 17.216C147.564 16.5558 148.448 16.0398 149.421 15.7006L150.757 15.2055C150.832 15.1754 150.896 15.1265 150.941 15.0646C150.986 15.0027 151.01 14.9305 151.01 14.8568C151.01 14.783 150.986 14.7108 150.941 14.649C150.896 14.5871 150.832 14.5382 150.757 14.5081C150.322 14.3135 149.876 14.139 149.421 13.9851C148.444 13.6526 147.556 13.1389 146.817 12.4779C146.077 11.8168 145.503 11.0233 145.131 10.1496C144.936 9.67714 144.727 9.2779 144.577 8.95711C144.544 8.88996 144.489 8.83303 144.419 8.79323C144.35 8.75289 144.27 8.73111 144.187 8.73047C144.105 8.73061 144.024 8.75243 143.955 8.79323C143.885 8.83247 143.83 8.88957 143.797 8.95711C143.58 9.34556 143.385 9.74357 143.212 10.1496C142.841 11.0237 142.267 11.8175 141.527 12.4786C140.788 13.1397 139.9 13.6532 138.923 13.9851C138.468 14.1389 138.023 14.3135 137.589 14.5081Z" fill="#FF62C4"/>
<path d="M70.2975 63.8367C70.2549 63.854 70.2186 63.8819 70.1929 63.9171C70.1677 63.9526 70.1543 63.9938 70.1543 64.036C70.1543 64.0781 70.1677 64.1194 70.1929 64.1548C70.2186 64.1901 70.2549 64.2179 70.2975 64.2352L71.0528 64.5184C71.6051 64.7081 72.1067 65.0012 72.5246 65.3784C72.9424 65.7556 73.2672 66.2083 73.4774 66.7068C73.5917 66.9759 73.706 67.2084 73.8047 67.3884C73.8236 67.427 73.8545 67.4599 73.8937 67.4828C73.9329 67.5058 73.9787 67.518 74.0255 67.5178C74.0722 67.5177 74.1179 67.5056 74.1572 67.4828C74.1972 67.4606 74.2284 67.4276 74.2463 67.3884C74.3334 67.2136 74.4399 66.9759 74.56 66.7068C74.775 66.2107 75.1014 65.7602 75.5187 65.3836C75.936 65.007 76.4351 64.7124 76.9847 64.5184L77.74 64.2352C77.7826 64.2179 77.8189 64.1901 77.8446 64.1548C77.8698 64.1194 77.8832 64.0781 77.8832 64.036C77.8832 63.9938 77.8698 63.9526 77.8446 63.9171C77.8189 63.8819 77.7826 63.854 77.74 63.8367C77.4943 63.7261 77.2422 63.6275 76.9847 63.5413C76.4311 63.3508 75.9285 63.0565 75.5102 62.6778C75.0919 62.299 74.7674 61.8445 74.5581 61.3442C74.4458 61.0733 74.3315 60.8426 74.2443 60.6625C74.2264 60.6234 74.1952 60.5904 74.1553 60.5682C74.116 60.5454 74.0703 60.5332 74.0236 60.5332C73.9768 60.533 73.931 60.5452 73.8918 60.5681C73.8526 60.5911 73.8216 60.6239 73.8028 60.6625C73.704 60.8373 73.5898 61.0733 73.4755 61.3442C73.2652 61.8427 72.9405 62.2954 72.5226 62.6726C72.1047 63.0497 71.6031 63.3428 71.0508 63.5326C70.794 63.622 70.5425 63.7235 70.2975 63.8367Z" fill="#FF62C4"/>
<path d="M120.227 85.9493C120.188 85.9663 120.154 85.9943 120.13 86.0297C120.107 86.0652 120.095 86.1065 120.095 86.1488C120.095 86.191 120.107 86.2323 120.131 86.2678C120.154 86.3031 120.188 86.331 120.227 86.3483L120.925 86.6318C121.435 86.8218 121.899 87.1153 122.285 87.493C122.671 87.8706 122.971 88.3239 123.165 88.823C123.254 89.0554 123.355 89.2832 123.468 89.5056C123.485 89.5441 123.514 89.5769 123.55 89.6001C123.586 89.6229 123.629 89.635 123.672 89.635C123.715 89.635 123.757 89.6229 123.793 89.6001C123.829 89.5769 123.858 89.5441 123.876 89.5056C123.954 89.3306 124.055 89.0943 124.166 88.823C124.363 88.327 124.664 87.8764 125.048 87.4993C125.432 87.1222 125.892 86.8269 126.399 86.6318L127.097 86.3483C127.136 86.331 127.17 86.3031 127.193 86.2678C127.217 86.2323 127.229 86.191 127.229 86.1488C127.229 86.1065 127.217 86.0652 127.193 86.0297C127.17 85.9943 127.136 85.9663 127.097 85.9493C126.918 85.86 126.674 85.7568 126.399 85.6535C125.888 85.4635 125.425 85.17 125.039 84.7924C124.653 84.4148 124.353 83.9615 124.158 83.4623C124.053 83.1928 123.947 82.96 123.869 82.7798C123.851 82.7413 123.822 82.7085 123.786 82.6853C123.75 82.6625 123.708 82.6504 123.665 82.6504C123.621 82.6504 123.579 82.6625 123.543 82.6853C123.507 82.7085 123.478 82.7413 123.461 82.7798C123.368 82.9548 123.264 83.1928 123.158 83.4623C122.964 83.9615 122.664 84.4148 122.278 84.7924C121.892 85.17 121.428 85.4635 120.918 85.6535C120.648 85.7568 120.411 85.86 120.227 85.9493Z" fill="#FF62C4"/>
<path d="M167.194 96.4259C167.155 96.4432 167.121 96.4711 167.098 96.5064C167.074 96.5419 167.062 96.5832 167.062 96.6254C167.062 96.6676 167.074 96.7089 167.098 96.7444C167.121 96.7796 167.155 96.8076 167.194 96.8249L167.891 97.1084C168.401 97.2984 168.864 97.5918 169.25 97.9695C169.636 98.3471 169.935 98.8004 170.13 99.2995C170.235 99.569 170.34 99.8018 170.432 99.982C170.449 100.02 170.478 100.052 170.514 100.075C170.55 100.099 170.592 100.111 170.635 100.112C170.679 100.112 170.721 100.099 170.757 100.075C170.794 100.053 170.823 100.021 170.839 99.982C170.92 99.807 171.018 99.569 171.129 99.2995C171.327 98.8028 171.629 98.3518 172.014 97.9747C172.399 97.5976 172.86 97.3026 173.367 97.1084L174.064 96.8249C174.104 96.8076 174.137 96.7796 174.161 96.7444C174.184 96.7089 174.196 96.6676 174.196 96.6254C174.196 96.5832 174.184 96.5419 174.161 96.5064C174.137 96.4711 174.104 96.4432 174.064 96.4259C173.837 96.3151 173.604 96.2158 173.367 96.1283C172.857 95.9383 172.395 95.6451 172.009 95.2678C171.623 94.8905 171.323 94.4377 171.129 93.939C171.025 93.6677 170.92 93.4367 170.839 93.2565C170.823 93.2173 170.794 93.1842 170.757 93.1619C170.721 93.1391 170.679 93.127 170.635 93.127C170.592 93.1268 170.55 93.1389 170.514 93.1619C170.478 93.1849 170.449 93.2178 170.432 93.2565C170.34 93.4315 170.235 93.6677 170.13 93.939C169.935 94.4368 169.635 94.8889 169.25 95.2655C168.864 95.6422 168.402 95.935 167.893 96.1248C167.616 96.2281 167.378 96.3313 167.194 96.4259Z" fill="#FF62C4"/>
<path d="M106.519 12.9509C106.489 12.964 106.464 12.985 106.447 13.0116C106.429 13.0381 106.42 13.0689 106.42 13.1005C106.42 13.1321 106.429 13.163 106.447 13.1895C106.464 13.2163 106.489 13.2375 106.519 13.2501L107.043 13.464C107.425 13.606 107.771 13.8261 108.06 14.1096C108.349 14.393 108.575 14.733 108.721 15.1073C108.787 15.2816 108.862 15.4523 108.947 15.6185C108.961 15.6471 108.982 15.6714 109.009 15.6885C109.036 15.7058 109.068 15.715 109.1 15.715C109.132 15.715 109.164 15.7058 109.191 15.6885C109.218 15.6714 109.239 15.6471 109.253 15.6185C109.313 15.4841 109.392 15.3099 109.471 15.1073C109.619 14.7344 109.845 14.3958 110.135 14.1134C110.423 13.8311 110.768 13.6101 111.148 13.464L111.672 13.2501C111.702 13.2375 111.727 13.2163 111.744 13.1895C111.761 13.163 111.771 13.1321 111.771 13.1005C111.771 13.0689 111.761 13.0381 111.744 13.0116C111.726 12.985 111.701 12.964 111.672 12.9509C111.501 12.8683 111.326 12.7944 111.148 12.7294C110.767 12.586 110.42 12.3661 110.131 12.0839C109.841 11.8008 109.616 11.4607 109.471 11.0861C109.392 10.8836 109.313 10.7075 109.253 10.5731C109.239 10.5445 109.218 10.5202 109.191 10.503C109.164 10.4858 109.132 10.4766 109.1 10.4766C109.068 10.4766 109.036 10.4858 109.009 10.503C108.982 10.5202 108.961 10.5445 108.947 10.5731C108.863 10.7401 108.787 10.9114 108.721 11.0861C108.575 11.4601 108.35 11.7998 108.061 12.0829C107.772 12.3661 107.425 12.5864 107.043 12.7294C106.84 12.8071 106.664 12.8828 106.519 12.9509Z" fill="#FF62C4"/>
</svg>
