<svg width="12" height="12" viewBox="0 0 12 12" fill="none" xmlns="http://www.w3.org/2000/svg">
<path d="M11.8814 11.187L8.72886 8.03441C9.52502 7.0557 9.91524 5.80885 9.81925 4.5508C9.72315 3.29282 9.14809 2.11972 8.21251 1.27322C7.27704 0.426806 6.05238 -0.0284065 4.79112 0.00137423C3.52984 0.0312817 2.32806 0.543874 1.43363 1.43364C0.5439 2.3281 0.0312971 3.52992 0.00137577 4.79115C-0.0284217 6.05244 0.426776 7.27709 1.27321 8.21256C2.11974 9.14815 3.29283 9.72322 4.55077 9.81932C5.80873 9.91531 7.0556 9.52508 8.03436 8.72891L11.1869 11.8815C11.3138 11.9901 11.487 12.0271 11.6471 11.9798C11.8072 11.9324 11.9324 11.8072 11.9798 11.6471C12.0271 11.487 11.9901 11.3139 11.8814 11.187ZM2.12815 7.70452C1.38882 6.96563 0.973325 5.96319 0.9731 4.91796C0.97288 3.87262 1.38795 2.87007 2.12694 2.13084C2.86605 1.39161 3.86849 0.976314 4.91382 0.976314C5.95904 0.976314 6.96158 1.39161 7.70058 2.13084C8.43969 2.87007 8.85476 3.87262 8.85454 4.91796C8.85432 5.96319 8.43871 6.96563 7.69937 7.70452C6.96367 8.44901 5.96047 8.86805 4.91382 8.86805C3.86705 8.86805 2.86386 8.44901 2.12815 7.70452Z" fill="#2C2C2C"/>
</svg>
