<svg width="16" height="18" viewBox="0 0 16 18" fill="none" xmlns="http://www.w3.org/2000/svg">
<path fill-rule="evenodd" clip-rule="evenodd" d="M13.5584 4.34881C12.0497 2.90166 9.96507 2.00649 7.66296 2.00649C6.92157 2.00649 6.18134 2.10373 5.46143 2.29271C5.01726 2.40953 4.58399 2.56075 4.16686 2.74551L5.02241 0.802989C5.15244 0.509584 5.00963 0.170672 4.70358 0.0459547C4.39753 -0.0784812 4.04433 0.0584971 3.9143 0.351763L2.47971 3.6091C2.3676 3.84937 2.43886 4.14011 2.66718 4.30527L5.60409 6.4352C5.86929 6.62714 6.24674 6.57627 6.44654 6.32162C6.64666 6.06711 6.59362 5.70507 6.32812 5.51328L4.24722 4.00398C4.73634 3.74735 5.24927 3.54472 5.77747 3.40604C6.38338 3.2468 7.01753 3.16506 7.66267 3.16506C9.63149 3.16506 11.4138 3.93057 12.7039 5.16775C13.9941 6.40522 14.7919 8.11479 14.7919 10.0031C14.7919 11.8914 13.9941 13.6012 12.7039 14.8385C11.4138 16.076 9.63142 16.8412 7.66267 16.8412C6.16048 16.8412 4.73987 16.3909 3.56811 15.6022C2.53142 14.9043 1.68806 13.9429 1.15324 12.7954C1.03232 12.5362 0.724793 12.4109 0.446381 12.5077L0.373505 12.5329C0.220849 12.5861 0.110214 12.6866 0.0467419 12.8299C-0.0168768 12.9731 -0.0155529 13.1193 0.0507089 13.2617C0.675424 14.6063 1.6619 15.7322 2.87447 16.5481C4.24735 17.4721 5.90909 18 7.66261 18C9.9648 18 12.049 17.1049 13.5581 15.6578C15.0666 14.2107 16 12.2112 16 10.0032C16.0001 7.79529 15.0667 5.79589 13.5582 4.34885L13.5584 4.34881Z" fill="#F2F2F2"/>
</svg>
