<svg width="65" height="65" viewBox="0 0 65 65" fill="none" xmlns="http://www.w3.org/2000/svg">
<g clip-path="url(#clip0_889_847)">
<path d="M32.2711 64.4474C50.0677 64.4474 64.4948 50.0204 64.4948 32.2237C64.4948 14.427 50.0677 0 32.2711 0C14.4744 0 0.0473633 14.427 0.0473633 32.2237C0.0473633 50.0204 14.4744 64.4474 32.2711 64.4474Z" fill="#243145"/>
<path d="M47.9664 32.678C47.9664 34.8877 47.9664 37.11 47.9664 39.3323C47.9943 40.0045 47.8311 40.6708 47.4959 41.254C47.1607 41.8373 46.6672 42.3137 46.0724 42.628L34.582 49.2697C33.9743 49.6562 33.2692 49.8614 32.5491 49.8614C31.8289 49.8614 31.1237 49.6562 30.5161 49.2697C27.8392 47.6914 25.1497 46.1509 22.4476 44.5978C21.0581 43.9013 19.7242 43.0992 18.4575 42.1987C18.0374 41.8558 17.7041 41.4187 17.4847 40.9229C17.2653 40.427 17.166 39.8864 17.1948 39.345C17.1948 34.8751 17.1948 30.4052 17.1948 25.9353C17.1725 25.2789 17.336 24.6297 17.6667 24.0622C17.9973 23.4948 18.4815 23.0323 19.0636 22.7281C22.8516 20.4931 26.7281 18.2961 30.554 16.0864C31.1616 15.6999 31.8668 15.4946 32.5869 15.4946C33.307 15.4946 34.0122 15.6999 34.6198 16.0864L45.984 22.6775C46.5949 22.999 47.1012 23.4883 47.4435 24.0878C47.7857 24.6873 47.9496 25.3721 47.9159 26.0616C47.9538 28.2334 47.9664 30.4557 47.9664 32.678ZM19.5686 36.1378C19.9853 36.1378 20.0232 35.8221 20.1368 35.6453C21.7152 33.221 23.3819 30.8472 24.8214 28.3344C26.3745 25.6323 28.6095 24.8999 31.5768 25.405C31.4126 25.708 31.2611 25.9858 31.0969 26.251C28.1423 31.0407 25.196 35.8263 22.2581 40.6077C22.0056 41.0244 21.6394 41.3653 22.3718 41.7441C23.1041 42.1229 23.2304 42.0724 23.6345 41.4158C26.7407 36.2514 29.9479 31.125 33.0288 25.9858C33.193 25.708 33.2688 25.3039 33.7612 25.3039C35.2386 25.3039 36.7159 25.3039 38.3321 25.3039C38.0922 25.7459 37.9407 26.0363 37.7765 26.3015C34.3168 32.0846 30.8486 37.8635 27.372 43.6381C27.0311 44.2063 27.0311 44.4715 27.6498 44.8124C29.0893 45.5827 30.4908 46.416 31.8798 47.2494C32.1079 47.4074 32.3789 47.4921 32.6564 47.4921C32.9339 47.4921 33.2048 47.4074 33.4329 47.2494C34.4557 46.6307 35.5163 45.9867 36.5517 45.4438C37.0568 45.1534 37.2336 44.9008 36.8422 44.3073C35.5795 42.3123 34.3168 40.2542 33.0541 38.2213C32.8521 37.9056 32.5995 37.6404 32.89 37.1732C33.8117 35.7211 34.6703 34.2185 35.5921 32.6654C35.8446 33.0442 36.0719 33.3599 36.2739 33.6882C37.9154 36.3019 39.5695 38.9157 41.1984 41.542C41.5267 42.0724 41.7666 42.5018 42.5243 42.0093C43.2819 41.5169 42.9662 41.1002 42.6252 40.5825C40.706 37.6194 38.7951 34.6731 36.8927 31.7437C36.7285 31.4911 36.4381 31.2764 36.678 30.885C37.4735 29.6223 38.2437 28.2712 39.0645 26.8823L45.3779 36.7818L45.6431 36.6681V35.658C45.6431 32.8169 45.6431 29.9759 45.6431 27.1348C45.6431 25.8722 45.6431 24.761 44.1026 24.2559C43.4286 23.9507 42.7894 23.574 42.1959 23.1322C41.0848 22.4629 39.961 21.8695 38.8372 21.175C37.0316 20.127 35.2386 19.0663 33.4077 18.0688C33.1743 17.9063 32.8993 17.814 32.6151 17.8028C32.3309 17.7916 32.0495 17.8621 31.804 18.0057C28.016 20.2659 24.1017 22.4756 20.2379 24.6979C20.0302 24.792 19.8548 24.9451 19.7335 25.1382C19.6123 25.3313 19.5506 25.5558 19.556 25.7838C19.5813 29.2435 19.5686 32.6654 19.5686 36.1378Z" fill="#F6F2F2"/>
</g>
<defs>
<clipPath id="clip0_889_847">
<rect width="64.4348" height="64.4348" fill="white" transform="translate(0.0473633)"/>
</clipPath>
</defs>
</svg>
