<svg width="65" height="65" viewBox="0 0 65 65" fill="none" xmlns="http://www.w3.org/2000/svg">
<g clip-path="url(#clip0_889_861)">
<path d="M32.2471 64.6852C50.0438 64.6852 64.4708 50.2582 64.4708 32.4615C64.4708 14.6648 50.0438 0.237793 32.2471 0.237793C14.4505 0.237793 0.0234375 14.6648 0.0234375 32.4615C0.0234375 50.2582 14.4505 64.6852 32.2471 64.6852Z" fill="#2C2C2C"/>
<path d="M41.7302 30.3782C42.0964 29.2544 42.3994 28.118 42.8414 27.0321C43.1949 26.1609 43.0181 25.9588 42.0964 25.9588C33.8005 25.9588 25.5047 25.9588 17.2089 25.9588H16.022C17.8907 24.5573 19.5196 23.3072 21.1863 22.1708C21.401 22.0066 21.8177 22.0824 22.146 22.0824C29.3306 22.0824 36.5153 22.0824 43.7 22.0824C44.9627 22.0824 45.5814 23.1178 46.541 23.5724C47.8037 24.1911 47.8037 24.9992 47.4754 26.2998C47.3006 27.5422 46.7701 28.7076 45.9478 29.6553C45.1256 30.603 44.0467 31.2926 42.8414 31.6409C42.2219 31.7836 41.6618 32.1144 41.2377 32.5879C42.1216 33.2319 42.955 33.8506 43.8389 34.482C43.9651 34.5428 44.0773 34.6293 44.1683 34.7358C44.2594 34.8424 44.3273 34.9667 44.3676 35.1009C44.408 35.2351 44.42 35.3762 44.4029 35.5153C44.3857 35.6544 44.3399 35.7884 44.2682 35.9088C43.7758 37.2472 43.3843 38.6109 43.0055 39.9873C42.9375 40.2186 42.8198 40.4322 42.6606 40.6133C42.5014 40.7943 42.3045 40.9383 42.0837 41.0353L38.2199 42.9167C37.9064 43.1082 37.5511 43.2209 37.1845 43.245H18.0675L23.295 26.8301C26.9441 29.0272 26.9442 29.0272 25.7067 32.8784C25.0628 34.886 24.444 36.8937 23.7874 38.9014C23.8021 38.9746 23.8232 39.0465 23.8506 39.116H36.9825C38.9397 39.116 38.927 39.116 39.5079 37.1967C39.7857 36.3381 40.0635 35.4921 40.3791 34.6714C40.6948 33.8506 40.3791 33.7622 39.672 33.7622C36.7173 33.7622 33.75 33.7622 30.8332 33.7622C29.9999 33.7622 29.6842 33.636 30.1135 32.7521C30.3982 32.0868 30.6387 31.4035 30.8332 30.7065H40.5938C40.9852 30.6434 41.4019 30.7318 41.7302 30.3782Z" fill="#FDFE54"/>
</g>
<defs>
<clipPath id="clip0_889_861">
<rect width="64.4348" height="64.4348" fill="white" transform="translate(0.0234375 0.237793)"/>
</clipPath>
</defs>
</svg>
