<svg width="45" height="16" viewBox="0 0 45 16" fill="none" xmlns="http://www.w3.org/2000/svg">
<g clip-path="url(#clip0_2602_885)">
<mask id="mask0_2602_885" style="mask-type:luminance" maskUnits="userSpaceOnUse" x="0" y="0" width="17" height="16">
<path d="M17 0H0V16H17V0Z" fill="white"/>
</mask>
<g mask="url(#mask0_2602_885)">
<path fill-rule="evenodd" clip-rule="evenodd" d="M0.400391 14.9994C0.400391 14.668 0.66902 14.3994 1.00039 14.3994H16.0004C16.3318 14.3994 16.6004 14.668 16.6004 14.9994C16.6004 15.3308 16.3318 15.5994 16.0004 15.5994H1.00039C0.66902 15.5994 0.400391 15.3308 0.400391 14.9994Z" fill="#616161"/>
<path fill-rule="evenodd" clip-rule="evenodd" d="M0.400391 12.9994C0.400391 12.668 0.66902 12.3994 1.00039 12.3994H16.0004C16.3318 12.3994 16.6004 12.668 16.6004 12.9994C16.6004 13.3308 16.3318 13.5994 16.0004 13.5994H1.00039C0.66902 13.5994 0.400391 13.3308 0.400391 12.9994Z" fill="#616161"/>
<path d="M16 5H1L8.5 1L16 5Z" fill="#616161"/>
<path fill-rule="evenodd" clip-rule="evenodd" d="M8.26475 0.558824C8.41181 0.480392 8.58828 0.480392 8.73534 0.558824L16.2353 4.55882C16.4378 4.66679 16.5408 4.89868 16.4851 5.12127C16.4295 5.34385 16.2295 5.5 16 5.5H1.00005C0.770614 5.5 0.570622 5.34385 0.514976 5.12127C0.45933 4.89868 0.562312 4.66679 0.764753 4.55882L8.26475 0.558824ZM3.00005 4.5H14L8.50005 1.56667L3.00005 4.5Z" fill="#616161"/>
<path d="M1 11V7H2.6346C2.92595 7 3.16149 7.05741 3.34122 7.17222C3.52095 7.28519 3.65244 7.42778 3.73568 7.6C3.81892 7.77222 3.86055 7.9463 3.86055 8.12222C3.86055 8.3463 3.80852 8.53241 3.70447 8.68056C3.6023 8.8287 3.46136 8.92778 3.28163 8.97778V8.83889C3.53703 8.89074 3.72811 9.0065 3.85487 9.1861C3.98352 9.3657 4.04784 9.5667 4.04784 9.7889C4.04784 10.0278 4.00244 10.238 3.91163 10.4194C3.82271 10.6009 3.68649 10.7435 3.50298 10.8472C3.31946 10.9491 3.08865 11 2.81054 11H1ZM1.78324 10.2889H2.73108C2.83514 10.2889 2.92784 10.2676 3.00919 10.225C3.09054 10.1806 3.15392 10.1194 3.19933 10.0417C3.24663 9.962 3.27028 9.8685 3.27028 9.7611C3.27028 9.6667 3.25041 9.5824 3.21068 9.5083C3.17095 9.4343 3.11041 9.3759 3.02906 9.3333C2.9496 9.2889 2.85027 9.2667 2.73108 9.2667H1.78324V10.2889ZM1.78324 8.56111H2.62325C2.71027 8.56111 2.78784 8.5463 2.85595 8.51667C2.92406 8.48704 2.97798 8.44167 3.01771 8.38056C3.05744 8.31759 3.0773 8.23704 3.0773 8.13889C3.0773 8.01667 3.03852 7.91389 2.96095 7.83056C2.88338 7.74722 2.77081 7.70556 2.62325 7.70556H1.78324V8.56111Z" fill="#616161"/>
<path d="M4.33008 11L5.57873 7H6.7309L7.97955 11H7.18495L6.07252 7.47222H6.22009L5.12468 11H4.33008ZM5.07927 10.1667V9.4611H7.23603V10.1667H5.07927Z" fill="#616161"/>
<path d="M8.48828 11V7H9.27154L11.048 9.6667V7H11.8312V11H11.048L9.27154 8.33333V11H8.48828Z" fill="#616161"/>
<path d="M12.623 11V7H13.3949V8.84444L14.95 7H15.8922L14.1838 8.97222L16 11H15.0238L13.3949 9.1778V11H12.623Z" fill="#616161"/>
</g>
<path d="M28.5967 11.8584H27.1907L25.5777 6.52868L23.9646 11.8584H22.5586L21 4.13086H22.3406L23.4196 9.50416L25.0109 4.25075H26.188L27.7466 9.50416L28.8474 4.13086H30.1335L28.5967 11.8584Z" fill="#616161"/>
<path d="M31.584 5.40599V4H33.0445V5.40599H31.584ZM31.6276 11.8583V6.19074H33.0118V11.8583H31.6276Z" fill="#616161"/>
<path d="M38.4626 7.45486C38.2955 7.41853 38.1393 7.40036 37.9939 7.40036C37.5144 7.40036 37.1511 7.55295 36.904 7.85813C36.657 8.16331 36.5334 8.54478 36.5334 9.00254V11.8581H35.1602V6.19056H36.3155L36.4354 7.04069C36.5661 6.71372 36.7805 6.47757 37.0784 6.33224C37.3836 6.18692 37.7033 6.11426 38.0375 6.11426C38.1756 6.11426 38.3173 6.12516 38.4626 6.14696V7.45486Z" fill="#616161"/>
<path d="M44.5855 9.0679C44.5782 9.11876 44.5746 9.16599 44.5746 9.20959V9.44937H40.7817C40.7817 9.66735 40.8144 9.87444 40.8798 10.0706C40.9524 10.2668 41.0578 10.4303 41.1958 10.5611C41.2976 10.6556 41.4138 10.7391 41.5446 10.8118C41.6827 10.8772 41.8462 10.9099 42.0351 10.9099C42.2313 10.9099 42.3911 10.8917 42.5146 10.8554C42.6454 10.8118 42.7617 10.7391 42.8634 10.6374C42.9942 10.5066 43.085 10.3468 43.1359 10.1578H44.4438C44.4293 10.325 44.3711 10.5102 44.2694 10.7137C44.175 10.9099 44.0732 11.0734 43.9642 11.2042C43.7245 11.4875 43.4374 11.691 43.1032 11.8145C42.769 11.938 42.4202 11.9998 42.0569 11.9998C41.6645 11.9998 41.323 11.938 41.0324 11.8145C40.749 11.6837 40.4947 11.513 40.2694 11.3023C39.986 11.0261 39.7681 10.6955 39.6155 10.3104C39.4701 9.9253 39.3975 9.50023 39.3975 9.0352C39.3975 8.57744 39.4629 8.156 39.5937 7.7709C39.7317 7.37853 39.9388 7.04428 40.2149 6.76817C40.4256 6.55019 40.6799 6.3758 40.9779 6.24501C41.283 6.11422 41.6318 6.04883 42.0242 6.04883C42.4456 6.04883 42.838 6.13602 43.2013 6.31041C43.5646 6.47753 43.8625 6.73911 44.095 7.09515C44.3057 7.40759 44.4402 7.7273 44.4983 8.05428C44.5564 8.37398 44.5855 8.71186 44.5855 9.0679ZM43.2231 8.45755C43.2158 8.04338 43.0996 7.71277 42.8743 7.46572C42.7799 7.36399 42.66 7.28407 42.5146 7.22594C42.3766 7.16781 42.2095 7.13874 42.0133 7.13874C41.8026 7.13874 41.6173 7.17871 41.4574 7.25864C41.2976 7.33856 41.1668 7.44392 41.0651 7.57471C40.9633 7.69824 40.8907 7.82903 40.8471 7.96708C40.8035 8.10514 40.778 8.26863 40.7708 8.45755H43.2231Z" fill="#616161"/>
</g>
<defs>
<clipPath id="clip0_2602_885">
<rect width="45" height="16" fill="white"/>
</clipPath>
</defs>
</svg>
