<svg width="65" height="65" viewBox="0 0 65 65" fill="none" xmlns="http://www.w3.org/2000/svg">
<g clip-path="url(#clip0_889_844)">
<path d="M32.295 64.4474C50.0917 64.4474 64.5187 50.0204 64.5187 32.2237C64.5187 14.427 50.0917 0 32.295 0C14.4983 0 0.0712891 14.427 0.0712891 32.2237C0.0712891 50.0204 14.4983 64.4474 32.295 64.4474Z" fill="#2151F4"/>
<path d="M25.2116 31.163H12.913C12.1807 31.163 12.1807 31.1629 12.2817 30.4306C12.8782 25.5039 15.31 20.9831 19.0922 17.7701C22.8743 14.557 27.7286 12.8878 32.6869 13.0954C37.6453 13.303 42.3431 15.3722 45.8434 18.8902C49.3436 22.4082 51.389 27.1165 51.5716 32.0758C51.7541 37.0351 50.0604 41.8809 46.8283 45.6468C43.5961 49.4126 39.0632 51.8215 34.1335 52.3931C29.2039 52.9647 24.2399 51.6569 20.2318 48.7306C16.2237 45.8043 13.4661 41.4746 12.509 36.6051C12.3953 36.0243 12.3448 35.4182 12.2438 34.8373C12.2438 34.5469 12.2438 34.4207 12.5973 34.4585H13.014C21.2215 34.4585 29.4289 34.4585 37.6237 34.4585C38.2298 34.4585 38.3687 34.2944 38.3309 33.7388C38.2806 33.0579 38.2806 32.3742 38.3309 31.6933C38.3309 31.2261 38.2046 31.1377 37.7626 31.1377C33.621 31.1629 29.4289 31.163 25.2116 31.163Z" fill="#F6F2F2"/>
</g>
<defs>
<clipPath id="clip0_889_844">
<rect width="64.4348" height="64.4348" fill="white" transform="translate(0.0712891)"/>
</clipPath>
</defs>
</svg>
