<svg width="65" height="65" viewBox="0 0 65 65" fill="none" xmlns="http://www.w3.org/2000/svg">
<g clip-path="url(#clip0_889_840)">
<path d="M32.2471 64.4474C50.0438 64.4474 64.4708 50.0204 64.4708 32.2237C64.4708 14.427 50.0438 0 32.2471 0C14.4505 0 0.0234375 14.427 0.0234375 32.2237C0.0234375 50.0204 14.4505 64.4474 32.2471 64.4474Z" fill="#2C2C2C"/>
<path fill-rule="evenodd" clip-rule="evenodd" d="M32.879 23.1952L26.6287 29.5086L22.9795 25.8721L32.879 15.9727L42.791 25.8721L39.104 29.5086L32.879 23.1952ZM20.4162 28.3848L16.7671 32.034L20.4162 35.6832L24.0528 32.034L20.4162 28.3848ZM26.6287 34.5972L32.879 40.9107L39.1924 34.5972L42.8415 38.2338L32.9295 48.1332L23.03 38.2338L26.6287 34.5972ZM45.4174 28.3975L41.7177 32.034L45.3543 35.6832L49.0034 32.034L45.4174 28.3975Z" fill="#E7BB41"/>
<path d="M36.5786 32.0341L32.8789 28.3345L30.1515 31.0745L29.8359 31.3775L29.1919 32.0341L32.8789 35.7212L36.5786 32.0341Z" fill="#E7BB41"/>
</g>
<defs>
<clipPath id="clip0_889_840">
<rect width="64.4348" height="64.4348" fill="white" transform="translate(0.0234375)"/>
</clipPath>
</defs>
</svg>
