<svg width="65" height="65" viewBox="0 0 65 65" fill="none" xmlns="http://www.w3.org/2000/svg">
<g clip-path="url(#clip0_889_850)">
<path d="M32.2237 64.4474C50.0204 64.4474 64.4474 50.0204 64.4474 32.2237C64.4474 14.427 50.0204 0 32.2237 0C14.427 0 0 14.427 0 32.2237C0 50.0204 14.427 64.4474 32.2237 64.4474Z" fill="#687DE3"/>
<path d="M31.8194 13.0059L31.5669 13.8518V38.4237L31.8194 38.6636L43.1836 31.9335L31.8194 13.0059Z" fill="#F4F1F1"/>
<path d="M31.8197 13.0059L20.4556 31.9461L31.8197 38.6763V13.0059Z" fill="#F4F1F1"/>
<path d="M31.82 40.7843L31.6812 40.9611V49.7115L31.82 50.1282L43.1842 34.0542L31.82 40.7843Z" fill="#F4F1F1"/>
<path d="M31.8197 50.1661V40.7843L20.4556 34.0542L31.8197 50.1661Z" fill="#F4F1F1"/>
<path d="M31.8193 38.6634L43.1835 31.9333L31.8193 26.7437V38.6634Z" fill="#F4F1F1"/>
<path d="M20.3799 31.9455L31.744 38.6756V26.7559L20.3799 31.9455Z" fill="#F4F1F1"/>
</g>
<defs>
<clipPath id="clip0_889_850">
<rect width="64.4348" height="64.4348" fill="white"/>
</clipPath>
</defs>
</svg>
