<svg width="66" height="65" viewBox="0 0 66 65" fill="none" xmlns="http://www.w3.org/2000/svg">
<g clip-path="url(#clip0_889_889)">
<path d="M33.1519 64.6852C50.9486 64.6852 65.3756 50.2582 65.3756 32.4615C65.3756 14.6648 50.9486 0.237793 33.1519 0.237793C15.3553 0.237793 0.928223 14.6648 0.928223 32.4615C0.928223 50.2582 15.3553 64.6852 33.1519 64.6852Z" fill="#041426"/>
<g clip-path="url(#clip1_889_889)">
<path d="M24.5568 35.492C25.6791 35.492 26.7741 35.1179 27.6591 34.4335L20.542 27.3164C18.8266 29.5337 19.2372 32.7272 21.4545 34.4427C22.3487 35.1179 23.4345 35.492 24.5568 35.492Z" fill="#F6F2F2"/>
<path d="M45.7259 30.4095C45.7259 29.2872 45.3518 28.1922 44.6674 27.3071L37.5503 34.4243C39.7676 36.1397 42.952 35.7291 44.6674 33.5118C45.3518 32.6267 45.7259 31.5318 45.7259 30.4095Z" fill="#F6F2F2"/>
<path d="M49.3116 22.6631L46.1637 25.811C48.7003 28.8495 48.2988 33.3753 45.2603 35.9119C42.596 38.1383 38.7272 38.1383 36.0628 35.9119L32.6046 39.3701L29.1555 35.921C26.1171 38.4576 21.5913 38.0562 19.0547 35.0177C16.8283 32.3533 16.8283 28.4845 19.0547 25.8202L17.4396 24.2051L15.9067 22.6631C14.0544 25.7107 13.0781 29.2145 13.0781 32.7822C13.0781 43.5674 21.8194 52.3087 32.6046 52.3087C43.3898 52.3087 52.1311 43.5674 52.1311 32.7822C52.1402 29.2145 51.1548 25.7107 49.3116 22.6631Z" fill="#F6F2F2"/>
<path d="M46.729 19.3051C39.2926 11.5036 26.938 11.2116 19.1365 18.6481C18.9084 18.8671 18.6894 19.0861 18.4795 19.3051C17.9959 19.8161 17.5397 20.3453 17.1108 20.9019L32.6043 36.4044L48.0977 20.9019C47.678 20.3453 47.2126 19.8161 46.729 19.3051ZM32.6043 15.8104C37.1665 15.8104 41.4186 17.5714 44.6122 20.7833L32.6043 32.7911L20.5964 20.7833C23.79 17.5714 28.042 15.8104 32.6043 15.8104Z" fill="#F6F2F2"/>
</g>
</g>
<defs>
<clipPath id="clip0_889_889">
<rect width="64.4348" height="64.4348" fill="white" transform="translate(0.928223 0.237793)"/>
</clipPath>
<clipPath id="clip1_889_889">
<rect width="39.053" height="39.053" fill="white" transform="translate(13.0781 13.2559)"/>
</clipPath>
</defs>
</svg>
