<svg width="65" height="65" viewBox="0 0 65 65" fill="none" xmlns="http://www.w3.org/2000/svg">
<g clip-path="url(#clip0_889_867)">
<path d="M32.2237 64.6852C50.0204 64.6852 64.4474 50.2582 64.4474 32.4615C64.4474 14.6648 50.0204 0.237793 32.2237 0.237793C14.427 0.237793 0 14.6648 0 32.4615C0 50.2582 14.427 64.6852 32.2237 64.6852Z" fill="#E93432"/>
<path d="M29.5909 25.9445C28.7118 25.5756 27.7633 25.3921 26.8072 25.406C25.9948 25.4045 25.1859 25.5107 24.4024 25.7217C23.2256 26.017 22.1726 26.6664 21.3915 27.5786C20.7319 28.4083 20.2548 29.3631 19.9902 30.3826C19.7062 31.4225 19.4979 32.4624 19.2707 33.5023C19.1069 34.2083 19.0557 34.9349 19.1191 35.6563C19.1885 36.5501 19.6095 37.3825 20.2932 37.9775C21.1364 38.6838 22.1811 39.1182 23.2851 39.2216C24.3787 39.3532 25.4873 39.2967 26.561 39.0545C27.9426 38.7806 29.1709 38.0128 30.0075 36.9004C30.5615 36.1293 30.9718 35.268 31.2194 34.3564C31.4845 33.428 31.6927 32.4995 31.8632 31.5339C32.0031 30.9237 32.0856 30.3021 32.1093 29.677C32.1284 28.8771 31.8973 28.0907 31.4471 27.4234C30.9968 26.7562 30.3491 26.2401 29.5909 25.9445ZM28.3033 31.1625C28.1139 32.1653 27.8866 33.168 27.6215 34.1522C27.4839 34.6906 27.2252 35.1918 26.8641 35.6192C26.5901 35.9179 26.2539 36.1554 25.8782 36.3156C25.5025 36.4757 25.096 36.5549 24.6864 36.5476C24.4312 36.5441 24.1772 36.513 23.929 36.4548C23.6282 36.3787 23.359 36.2127 23.1588 35.9797C22.9586 35.7468 22.8373 35.4585 22.8117 35.1549C22.7787 34.6314 22.8234 34.106 22.9443 33.5951C23.1526 32.5738 23.3798 31.5525 23.6639 30.5312C23.7871 30.045 24.0128 29.5895 24.3266 29.1942C24.5969 28.862 24.944 28.5978 25.3392 28.4234C25.7343 28.249 26.1662 28.1695 26.599 28.1914C26.8316 28.1631 27.0669 28.1631 27.2996 28.1914C27.6096 28.2598 27.8884 28.4255 28.0935 28.6635C28.2986 28.9015 28.4187 29.1987 28.4357 29.5099C28.4758 30.0642 28.4313 30.6212 28.3033 31.1625Z" fill="white"/>
<path d="M44.8491 27.3519C44.4905 26.7268 43.9447 26.2383 43.2937 25.9597C42.4617 25.576 41.5574 25.3871 40.646 25.4066H35.3135C35.1885 25.4147 35.0693 25.4633 34.9728 25.5456C34.8763 25.6278 34.8077 25.7394 34.7766 25.8643C34.5544 26.8942 34.3507 27.9432 34.1285 28.973C33.7026 31.0709 33.2769 33.1688 32.8325 35.2476L32.1104 38.7568C32.1104 39.1001 32.1104 39.2908 32.4992 39.2908H35.1099C35.2438 39.2898 35.3734 39.2422 35.4776 39.1556C35.5818 39.069 35.6546 38.9486 35.6838 38.814C35.6926 38.6425 35.6926 38.4706 35.6838 38.2991C35.9431 37.0594 36.2022 35.8197 36.4429 34.5801C36.4429 34.4847 36.443 34.4466 36.5911 34.4466H39.0537C39.8524 34.4569 40.6489 34.3608 41.4236 34.1605C42.4068 33.9072 43.28 33.3233 43.9048 32.5013C44.6284 31.5362 45.0426 30.3631 45.0898 29.1447C45.1851 28.5357 45.1012 27.9114 44.8491 27.3519ZM40.2757 31.5286C39.9514 31.6596 39.6056 31.7244 39.2573 31.7193H37.2207C37.2207 31.7193 37.1096 31.7193 37.2207 31.6049C37.4429 30.4988 37.6835 29.3926 37.9057 28.2674C37.9057 28.172 37.9058 28.153 38.0539 28.153H40.2202C40.4173 28.1341 40.6156 28.1341 40.8127 28.153C41.0471 28.1882 41.2622 28.3065 41.421 28.4875C41.5799 28.6685 41.6724 28.9009 41.6829 29.1447C41.7363 29.6462 41.6273 30.1519 41.3728 30.5831C41.1183 31.0142 40.7326 31.3466 40.2757 31.5286Z" fill="white"/>
</g>
<defs>
<clipPath id="clip0_889_867">
<rect width="64.4348" height="64.4348" fill="white" transform="translate(0 0.237793)"/>
</clipPath>
</defs>
</svg>
