<svg width="65" height="65" viewBox="0 0 65 65" fill="none" xmlns="http://www.w3.org/2000/svg">
<g clip-path="url(#clip0_889_864)">
<path d="M32.6998 64.6852C50.4964 64.6852 64.9235 50.2582 64.9235 32.4615C64.9235 14.6648 50.4964 0.237793 32.6998 0.237793C14.9031 0.237793 0.476074 14.6648 0.476074 32.4615C0.476074 50.2582 14.9031 64.6852 32.6998 64.6852Z" fill="#7A4ADD"/>
<path d="M31.6643 28.6733C31.6643 27.6127 31.6643 26.59 31.6643 25.5672C31.6733 25.4683 31.6515 25.369 31.6017 25.2831C31.552 25.1972 31.4768 25.1288 31.3865 25.0874C29.703 24.1025 27.9941 23.1092 26.26 22.1074C26.1918 22.0591 26.1101 22.0331 26.0264 22.0331C25.9427 22.0331 25.8611 22.0591 25.7928 22.1074L20.6663 25.0874C20.5737 25.1268 20.4958 25.1943 20.4437 25.2804C20.3916 25.3665 20.3679 25.4668 20.3759 25.5672C20.3759 27.537 20.3759 29.5194 20.3759 31.5018C20.3666 31.583 20.3822 31.665 20.4205 31.7371C20.4588 31.8092 20.5181 31.8681 20.5905 31.9059C22.333 32.9076 24.0671 33.9135 25.7928 34.9236C25.8585 34.9666 25.9353 34.9895 26.0138 34.9895C26.0923 34.9895 26.1691 34.9666 26.2348 34.9236L39.0384 27.499C39.4398 27.2482 39.9035 27.1152 40.3768 27.1152C40.8501 27.1152 41.3139 27.2482 41.7153 27.499L47.7004 30.9589C48.1591 31.1952 48.5393 31.5596 48.7948 32.0079C49.0504 32.4562 49.1703 32.9691 49.1399 33.4842C49.1399 35.7066 49.1399 37.9288 49.1399 40.1512C49.1702 40.6987 49.0408 41.2432 48.7673 41.7184C48.4938 42.1937 48.088 42.5792 47.5994 42.8281C45.6422 43.9266 43.7103 45.0504 41.7658 46.1868C41.3508 46.4637 40.8631 46.6114 40.3642 46.6114C39.8653 46.6114 39.3776 46.4637 38.9626 46.1868L32.9523 42.7145C32.5349 42.5013 32.1878 42.1723 31.9527 41.767C31.7175 41.3616 31.6043 40.8971 31.6264 40.429C31.6264 39.8482 31.6264 39.2799 31.6264 38.7117C31.6314 38.6526 31.6485 38.5951 31.6768 38.543C31.705 38.4908 31.7437 38.4451 31.7905 38.4087L34.6064 36.7545H34.7452V39.7597C34.7358 39.8522 34.755 39.9454 34.8001 40.0267C34.8453 40.108 34.9143 40.1734 34.9978 40.2143L40.2 43.2195C40.2558 43.2635 40.3247 43.2875 40.3957 43.2875C40.4668 43.2875 40.5357 43.2635 40.5915 43.2195L45.819 40.1638C45.8795 40.1253 45.9304 40.0734 45.9676 40.0121C46.0048 39.9507 46.0274 39.8817 46.0336 39.8102C46.0336 37.8025 46.0336 35.7823 46.0336 33.7746C46.0385 33.6991 46.0207 33.6239 45.9824 33.5586C45.9441 33.4933 45.8873 33.441 45.819 33.4084L40.6041 30.378C40.5397 30.3318 40.4624 30.3069 40.3832 30.3069C40.3039 30.3069 40.2265 30.3318 40.1621 30.378C35.9574 32.815 31.74 35.2519 27.5353 37.7016C27.0819 37.9946 26.5536 38.1505 26.0138 38.1505C25.474 38.1505 24.9456 37.9946 24.4923 37.7016C22.5351 36.5399 20.5653 35.4161 18.6081 34.2797C18.185 34.0579 17.8336 33.7208 17.5944 33.3073C17.3553 32.8938 17.2383 32.421 17.2571 31.9437C17.2571 29.6583 17.2571 27.3728 17.2571 25.0874C17.2361 24.5677 17.3654 24.053 17.6297 23.605C17.894 23.1571 18.282 22.7949 18.7471 22.562C20.6916 21.4634 22.6361 20.3396 24.5554 19.2158C24.9819 18.9324 25.4827 18.7812 25.9948 18.7812C26.507 18.7812 27.0078 18.9324 27.4343 19.2158L33.4573 22.6882C33.8541 22.917 34.1812 23.2493 34.4036 23.6496C34.626 24.05 34.7354 24.5034 34.72 24.9611C34.72 25.5293 34.72 26.1101 34.72 26.6783C34.72 26.7372 34.7063 26.7951 34.68 26.8477C34.6537 26.9003 34.6155 26.9461 34.5684 26.9814C33.6341 27.537 32.6871 28.0799 31.74 28.6229L31.6643 28.6733Z" fill="#F6F2F2"/>
</g>
<defs>
<clipPath id="clip0_889_864">
<rect width="64.4348" height="64.4348" fill="white" transform="translate(0.476074 0.237793)"/>
</clipPath>
</defs>
</svg>
