<svg width="208" height="89" viewBox="0 0 208 89" fill="none" xmlns="http://www.w3.org/2000/svg">
<path d="M182.786 85.2601C193.592 83.7535 201.163 74.0124 199.698 63.5028C198.233 52.9931 188.285 45.6946 177.48 47.2012C166.674 48.7078 159.102 58.4488 160.567 68.9585C162.032 79.4682 171.98 86.7666 182.786 85.2601Z" fill="#FF62C4"/>
<path d="M183.173 84.1132C193.682 82.6479 201.048 73.1803 199.624 62.9667C198.2 52.753 188.525 45.6611 178.016 47.1264C167.506 48.5917 160.141 58.0593 161.565 68.2729C162.989 78.4866 172.663 85.5785 183.173 84.1132Z" fill="white"/>
<path d="M183.158 84.1153C173.609 85.4466 164.366 79.5052 161.937 70.0876C161.319 67.6753 161.187 65.1646 161.55 62.6989C161.914 60.2332 162.765 57.8608 164.054 55.7173C165.344 53.5738 167.048 51.7013 169.068 50.2066C171.088 48.7119 173.385 47.6245 175.827 47.0063C186.093 44.3951 196.571 50.5 199.176 60.616C199.795 63.0284 199.926 65.5392 199.563 68.0049C199.199 70.4707 198.348 72.843 197.058 74.9865C195.768 77.13 194.065 79.0025 192.045 80.4972C190.024 81.9918 187.728 83.0793 185.285 83.6975C184.584 83.876 183.874 84.0154 183.158 84.1153ZM178.038 47.1914C177.345 47.2885 176.658 47.4239 175.98 47.5969C173.617 48.1952 171.395 49.2475 169.441 50.6937C167.487 52.1399 165.839 53.9517 164.591 56.0256C163.344 58.0994 162.521 60.3946 162.17 62.7801C161.819 65.1656 161.947 67.5945 162.546 69.9281C165.069 79.7159 175.2 85.6237 185.136 83.0966C187.499 82.4982 189.72 81.4457 191.674 79.9994C193.629 78.553 195.276 76.741 196.524 74.6671C197.771 72.5931 198.594 70.2978 198.945 67.9123C199.296 65.5267 199.168 63.0977 198.569 60.764C196.223 51.6565 187.277 45.9076 178.039 47.1956L178.038 47.1914Z" fill="#FF62C4"/>
<path d="M182.531 81.4704C191.412 80.2321 197.642 72.2685 196.445 63.6831C195.248 55.0978 187.077 49.1418 178.196 50.38C169.315 51.6183 163.085 59.5819 164.282 68.1673C165.479 76.7527 173.649 82.7087 182.531 81.4704Z" fill="white"/>
<path d="M196.058 70.8409C196.02 70.847 195.98 70.8414 195.942 70.8244C195.91 70.8107 195.88 70.7893 195.854 70.7615C195.828 70.7337 195.807 70.7002 195.791 70.6627C195.775 70.6253 195.765 70.5848 195.762 70.5436C195.759 70.5024 195.763 70.4613 195.773 70.4228C196.113 69.0456 196.287 67.6029 196.29 66.1391C196.292 66.0592 196.319 65.9855 196.366 65.9334C196.413 65.8814 196.476 65.8552 196.541 65.8603C196.605 65.8654 196.668 65.9015 196.714 65.9609C196.761 66.0203 196.788 66.0983 196.79 66.1785C196.787 67.7015 196.605 69.2025 196.251 70.6353C196.239 70.6898 196.215 70.738 196.181 70.7744C196.146 70.8107 196.104 70.8338 196.058 70.8409Z" fill="#FF62C4"/>
<path d="M165.622 59.7835C165.567 59.791 165.511 59.784 165.459 59.7631C165.38 59.7325 165.318 59.6724 165.284 59.5962C165.251 59.5199 165.25 59.4336 165.282 59.3564C166.365 56.745 168.117 54.4474 170.368 52.6856C172.62 50.9239 175.294 49.7578 178.132 49.3C180.97 48.8422 183.877 49.1083 186.57 50.0725C189.264 51.0368 191.653 52.6665 193.507 54.8041C193.537 54.8351 193.56 54.8718 193.575 54.9119C193.59 54.9521 193.596 54.9948 193.594 55.0375C193.591 55.0802 193.579 55.1219 193.56 55.1603C193.54 55.1986 193.513 55.2327 193.479 55.2604C193.446 55.2881 193.407 55.3089 193.365 55.3216C193.324 55.3342 193.28 55.3384 193.236 55.3339C193.193 55.3293 193.151 55.3162 193.113 55.2953C193.075 55.2743 193.042 55.246 193.015 55.2121C191.233 53.1572 188.935 51.5907 186.345 50.6639C183.756 49.7371 180.961 49.4814 178.233 49.9216C175.504 50.3618 172.933 51.4829 170.769 53.1766C168.604 54.8703 166.92 57.0792 165.878 59.5897C165.856 59.641 165.821 59.6859 165.776 59.72C165.732 59.754 165.679 59.7759 165.622 59.7835Z" fill="#FF62C4"/>
<path d="M182.587 81.4625C174.484 82.5923 166.632 77.489 164.56 69.4152C163.869 66.723 163.882 63.8982 164.6 61.2121C164.61 61.1723 164.629 61.135 164.654 61.1024C164.679 61.0697 164.71 61.0424 164.746 61.0218C164.782 61.0012 164.821 60.9879 164.862 60.9825C164.903 60.9771 164.944 60.9798 164.984 60.9905C165.024 61.0012 165.061 61.0195 165.094 61.0446C165.127 61.0697 165.154 61.1009 165.175 61.1366C165.195 61.1722 165.209 61.2116 165.214 61.2524C165.219 61.2932 165.217 61.3347 165.206 61.3744C164.517 63.9562 164.505 66.671 165.169 69.2585C167.308 77.5971 175.861 82.6428 184.236 80.4992C184.316 80.4809 184.4 80.4945 184.47 80.537C184.54 80.5796 184.59 80.6478 184.611 80.727C184.631 80.8063 184.62 80.8904 184.579 80.9615C184.538 81.0325 184.471 81.0849 184.393 81.1075C183.798 81.2589 183.195 81.3774 182.587 81.4625Z" fill="#FF62C4"/>
<path d="M185.738 59.8451L183.958 61.4329L182.268 62.9453C182.116 62.7544 181.925 62.5974 181.709 62.4843C181.494 62.3704 181.258 62.3036 181.015 62.2884C180.349 62.2204 179.675 62.3143 179.052 62.5621C178.159 62.8656 177.411 63.4912 176.956 64.3159C176.761 64.7354 176.656 65.1907 176.648 65.6527C176.64 66.1148 176.728 66.5733 176.908 66.999C177.096 67.5124 177.386 67.9825 177.761 68.3807C178.089 68.7148 178.503 68.9521 178.957 69.0665C179.378 69.1878 179.818 69.2295 180.255 69.1894C180.699 69.1458 181.135 69.044 181.553 68.8866C182.201 68.6631 182.787 68.2897 183.263 67.797C183.472 67.6059 183.637 67.3729 183.748 67.1135C183.861 66.8524 183.917 66.5708 183.914 66.2868L183.876 66.0122L178.969 67.8525L178.991 64.5626L186.767 61.6334L189.585 69.3597L186.012 70.7091L185.629 69.6874C184.815 71.0402 183.534 72.0518 182.026 72.533C180.251 73.2859 178.255 73.3395 176.443 72.6829C175.566 72.3489 174.777 71.8203 174.136 71.1371C172.896 69.6855 172.229 67.8324 172.262 65.925C172.323 64.9715 172.603 64.0446 173.083 63.2166C174.176 61.4226 175.876 60.0753 177.876 59.4168C179.272 58.8904 180.768 58.6819 182.254 58.8064C183.494 58.7975 184.707 59.1593 185.738 59.8451Z" fill="#FF62C4"/>
<path d="M177.549 54.8419L174.612 56.031L176.721 62.0613L179.661 60.8925L177.549 54.8419Z" fill="#FF62C4"/>
<path d="M180.51 70.8972L182.368 75.482L185.376 74.4419L183.535 69.8547L180.51 70.8972Z" fill="#FF62C4"/>
<path d="M194.226 42.3442C194.194 42.3554 194.167 42.3752 194.148 42.4011C194.129 42.4267 194.118 42.4569 194.117 42.4883C194.115 42.5197 194.123 42.5508 194.14 42.578C194.157 42.6055 194.182 42.6276 194.212 42.6416L194.741 42.8769C195.129 43.0361 195.478 43.2711 195.764 43.5664C196.049 43.8617 196.266 44.2106 196.399 44.5901C196.461 44.7663 196.532 44.9396 196.612 45.1092C196.624 45.1386 196.646 45.1639 196.673 45.1819C196.7 45.2003 196.732 45.2108 196.765 45.2121C196.799 45.2136 196.832 45.206 196.86 45.1903C196.889 45.1746 196.912 45.1513 196.927 45.1233C196.994 44.9914 197.083 44.8226 197.173 44.6248C197.343 44.2608 197.591 43.9343 197.902 43.6662C198.213 43.398 198.579 43.194 198.978 43.0669L199.527 42.88C199.558 42.8685 199.584 42.8488 199.604 42.8233C199.623 42.7977 199.634 42.7673 199.635 42.7359C199.637 42.7044 199.629 42.6732 199.612 42.646C199.595 42.6188 199.57 42.5968 199.54 42.5826C199.368 42.4918 199.192 42.4093 199.011 42.3354C198.623 42.1759 198.275 41.9408 197.989 41.6456C197.703 41.3503 197.486 41.0015 197.353 40.6222C197.283 40.4172 197.207 40.2432 197.152 40.1037C197.14 40.0744 197.119 40.0492 197.092 40.0309C197.065 40.0125 197.033 40.0017 196.999 40C196.966 39.9985 196.933 40.0064 196.904 40.0225C196.875 40.038 196.852 40.0614 196.838 40.0896C196.742 40.2513 196.656 40.4174 196.579 40.5875C196.412 40.9535 196.165 41.2816 195.854 41.5501C195.543 41.8186 195.175 42.0215 194.774 42.1453C194.588 42.2027 194.405 42.2691 194.226 42.3442Z" fill="#FF62C4"/>
<path d="M202.226 52.4683C202.194 52.4795 202.167 52.4993 202.148 52.5252C202.129 52.5507 202.118 52.581 202.117 52.6124C202.115 52.6438 202.123 52.6749 202.14 52.7021C202.157 52.7296 202.182 52.7517 202.212 52.7657L202.741 53.001C203.129 53.1602 203.478 53.3952 203.764 53.6905C204.049 53.9858 204.266 54.3347 204.399 54.7142C204.461 54.8904 204.532 55.0637 204.612 55.2332C204.624 55.2627 204.646 55.288 204.673 55.306C204.7 55.3244 204.732 55.3349 204.765 55.3362C204.799 55.3377 204.832 55.3301 204.86 55.3144C204.889 55.2987 204.912 55.2754 204.927 55.2474C204.994 55.1155 205.083 54.9467 205.173 54.7489C205.343 54.3848 205.591 54.0584 205.902 53.7903C206.213 53.5221 206.579 53.3181 206.978 53.191L207.527 53.0041C207.558 52.9926 207.584 52.9729 207.604 52.9473C207.623 52.9218 207.634 52.8914 207.635 52.86C207.637 52.8285 207.629 52.7973 207.612 52.7701C207.595 52.7429 207.57 52.7209 207.54 52.7067C207.368 52.6159 207.192 52.5334 207.011 52.4595C206.623 52.3 206.275 52.0649 205.989 51.7696C205.703 51.4744 205.486 51.1256 205.353 50.7463C205.283 50.5413 205.207 50.3673 205.152 50.2278C205.14 50.1985 205.119 50.1732 205.092 50.155C205.065 50.1366 205.033 50.1258 204.999 50.1241C204.966 50.1226 204.933 50.1305 204.904 50.1466C204.875 50.1621 204.852 50.1854 204.838 50.2136C204.742 50.3754 204.656 50.5415 204.579 50.7116C204.412 51.0776 204.165 51.4056 203.854 51.6742C203.543 51.9427 203.175 52.1456 202.774 52.2694C202.588 52.3268 202.405 52.3932 202.226 52.4683Z" fill="#FF62C4"/>
<path d="M148.295 72.3089C148.256 72.3246 148.222 72.3513 148.197 72.3856C148.173 72.42 148.159 72.4607 148.157 72.5028C148.155 72.545 148.165 72.5868 148.187 72.6232C148.207 72.66 148.239 72.6897 148.277 72.7082L148.949 73.0246C149.44 73.2366 149.88 73.5507 150.24 73.946C150.601 74.3413 150.875 74.8084 151.044 75.3167C151.12 75.5532 151.208 75.7854 151.309 76.0123C151.325 76.0513 151.352 76.085 151.386 76.1094C151.42 76.1341 151.461 76.1482 151.503 76.1501C151.545 76.152 151.587 76.1416 151.623 76.1201C151.66 76.0988 151.689 76.0676 151.709 76.0302C151.795 75.8543 151.909 75.6264 152.025 75.3607C152.24 74.8715 152.556 74.4328 152.951 74.0727C153.345 73.7128 153.809 73.438 154.314 73.2652L155.012 73.0104C155.051 72.9953 155.085 72.9686 155.109 72.9337C155.134 72.8994 155.148 72.8587 155.15 72.8165C155.152 72.7744 155.141 72.7326 155.12 72.6962C155.099 72.6598 155.067 72.6302 155.03 72.6111C154.812 72.4908 154.588 72.3818 154.358 72.2847C153.869 72.0708 153.429 71.7569 153.068 71.3632C152.706 70.9684 152.433 70.5012 152.266 69.9926C152.174 69.7176 152.081 69.4779 152.011 69.2949C151.995 69.256 151.968 69.2223 151.934 69.1978C151.9 69.1732 151.859 69.159 151.817 69.1571C151.775 69.1552 151.733 69.1657 151.696 69.1871C151.66 69.2085 151.631 69.2396 151.611 69.277C151.491 69.4951 151.382 69.7192 151.285 69.9487C151.072 70.4394 150.757 70.8796 150.362 71.2406C149.967 71.6016 149.501 71.8754 148.993 72.044C148.723 72.1357 148.488 72.2264 148.295 72.3089Z" fill="#FF62C4"/>
<g clip-path="url(#clip0_457_1737)">
<path d="M141.311 58.7092C140.228 58.3915 139.239 57.8168 138.429 57.0357C137.62 56.2545 137.015 55.2907 136.669 54.2287C136.458 53.6287 136.618 53.4315 136.817 53.2534C142.204 48.577 146.614 42.97 150.876 37.5477C151.785 36.3928 152.722 35.2041 153.658 34.0307C156.05 31.0468 158.944 27.5619 162.352 24.3667C162.76 23.9847 163.802 22.9955 163.089 21.5948C163.289 18.542 160.918 17.3231 159.179 16.4283C155.986 14.8105 152.71 13.3601 149.364 12.083C147.632 11.409 147.231 10.6424 147.651 8.80793C147.94 7.69315 148.318 6.60318 148.781 5.54804C148.97 5.08012 149.162 4.61289 149.345 4.11976C149.498 3.7121 149.734 3.33058 150.767 3.53132C151.57 3.68715 152.383 3.88234 153.186 4.1113C155.734 4.8561 158.19 5.88367 160.507 7.17426C163.468 8.78799 166.418 10.892 169.785 13.7929C170.348 14.2858 170.996 14.6762 171.696 14.9457C173.384 15.6016 174.731 16.8547 175.692 18.694C176.683 20.5783 177.981 22.2008 179.234 23.7685C179.529 24.1345 179.82 24.4991 180.105 24.8648C182.569 28.0146 185.238 31.8697 186.342 36.5964C186.836 38.7175 186.887 40.6001 186.495 42.354C186.457 42.6606 186.305 42.9416 186.069 43.143C186.015 43.1716 185.955 43.1882 185.894 43.1914C185.833 43.1947 185.771 43.1846 185.714 43.1619C185.472 43.0786 185.251 42.9435 185.067 42.7661C183.511 41.3805 182.474 39.5012 181.471 37.6811L181.003 36.8408C179.507 34.1815 177.736 31.6818 175.716 29.3823C175.388 28.952 174.937 28.6287 174.421 28.4548C173.904 28.317 173.355 28.3765 172.883 28.6215C172.835 28.6404 172.784 28.6496 172.732 28.6487C172.68 28.6477 172.628 28.6367 172.58 28.6161C172.394 28.556 172.217 28.4712 172.054 28.3642C171.811 28.2099 171.547 28.09 171.271 28.008C169.927 27.6247 168.997 28.5571 168.617 28.9602C166.375 31.251 164.609 33.8968 162.906 36.4637L162.468 37.1006C160.625 39.8184 158.569 42.3883 156.318 44.7869C154.22 47.0586 152.119 49.3948 150.087 51.6439C148.885 52.9777 147.678 54.3114 146.469 55.645C146.194 55.9043 145.986 56.2241 145.861 56.5785C145.735 56.9329 145.696 57.3121 145.747 57.6855C145.815 58.1043 145.785 58.4792 144.855 58.7515C143.704 59.0826 142.478 59.0732 141.328 58.7244L141.311 58.7092ZM165.836 24.6372C164.636 24.2952 163.688 25.1781 163.287 25.5542C159.857 28.751 156.928 32.3225 153.727 36.3149C152.865 37.3869 152.002 38.4843 151.167 39.5457L151.146 39.5711C147.554 44.1406 143.835 48.8622 139.453 52.8387C138.879 53.3585 138.613 53.9273 138.628 54.5159C138.643 55.1046 138.975 55.6401 139.584 56.1138C139.905 56.3619 140.243 56.5886 140.552 56.8046L140.956 57.0843L141.069 57.1634L141.206 57.2025C141.262 57.2185 141.314 57.2332 141.365 57.2478C142.638 57.6108 143.393 56.7825 143.802 56.3353L143.841 56.2916C144.575 55.4906 145.311 54.6914 146.046 53.894C147.489 52.3251 148.984 50.7032 150.434 49.0815C151.361 48.0412 152.31 47.0071 153.227 46.0189C155.533 43.5012 157.939 40.9048 160.053 38.1132C161.013 36.845 161.897 35.5081 162.752 34.2178C164.156 32.0794 165.623 29.8781 167.41 28.0212C168.037 27.3729 168.046 26.5248 167.439 25.8118C166.864 25.1547 166.369 24.7894 165.836 24.6372ZM177.616 24.4371C177.348 24.3661 177.066 24.3694 176.801 24.4467C176.536 24.524 176.299 24.6723 176.114 24.8752C174.817 26.1123 175.704 27.2445 175.996 27.5573C178.959 30.685 181.202 33.8397 182.853 37.2063L183.146 37.8118L184.898 37.2389L184.764 36.5874C183.827 32.0624 181.221 28.4991 178.632 25.2381L178.617 25.218C178.377 24.8577 178.026 24.5835 177.616 24.4371ZM171.238 16.3205C170.227 16.0322 169.481 16.764 169.235 17.0019C168.317 17.9333 167.308 18.7719 166.221 19.5055C165.604 19.9062 165.265 20.3967 165.211 20.9603C165.156 21.5239 165.396 22.0567 165.911 22.5715C167.414 24.0844 169.173 25.326 171.108 26.2395L171.178 26.2725C171.324 26.3468 171.475 26.4076 171.632 26.4541C171.898 26.5386 172.182 26.5429 172.45 26.4666C172.717 26.3903 172.954 26.2367 173.131 26.0257C173.312 25.8165 173.538 25.5833 173.749 25.3698C174.31 24.8044 174.946 24.1637 175.213 23.2927L175.251 23.1575C175.423 22.5543 175.561 21.9779 175.362 21.3186C174.835 19.6028 173.775 18.1657 171.918 16.684C171.719 16.5183 171.487 16.3945 171.238 16.3205ZM152.925 5.56576C150.67 4.92284 150.228 5.96061 149.697 7.71125L149.655 7.85844C149.644 7.89705 149.634 7.93323 149.625 7.9646C149.31 8.68881 149.273 9.33837 149.516 9.89017C149.859 10.6717 150.651 11.0356 151.214 11.2406C155.387 12.7744 159.395 14.717 163.18 17.0394C163.641 17.3458 164.14 17.5907 164.665 17.7677C166.075 18.1698 166.94 17.2162 167.655 16.4547C167.845 16.275 167.996 16.0582 168.097 15.8177C168.199 15.5773 168.248 15.3184 168.244 15.0572C168.213 14.8071 168.13 14.5657 168 14.3487C167.869 14.1317 167.694 13.9438 167.486 13.7975C162.829 9.99659 158.274 7.37258 153.557 5.77209C153.298 5.67739 153.096 5.61463 152.925 5.56576Z" fill="#FF62C4"/>
</g>
<path d="M103.057 45.3308C102.967 45.3476 102.886 45.3967 102.829 45.4689C102.772 45.5411 102.744 45.6314 102.749 45.723C102.858 46.984 104.175 47.9323 104.95 48.816C105.757 49.6359 106.626 50.3927 107.549 51.0798C107.085 50.9469 106.605 50.8784 106.123 50.8763C105.258 50.7869 104.389 50.7423 103.514 50.7174C101.74 50.6579 99.9667 50.6827 98.1929 50.6479C96.3247 50.6082 94.4615 50.4593 92.5884 50.4891C91.7785 50.4891 90.9736 50.5685 90.1687 50.6281C89.3387 50.618 88.5089 50.6611 87.6844 50.7571C87.6402 50.7683 87.5988 50.7886 87.5629 50.8167C87.527 50.8448 87.4973 50.88 87.4758 50.9202C87.4543 50.9604 87.4414 51.0046 87.438 51.0501C87.4345 51.0955 87.4406 51.1411 87.4558 51.1841C86.8099 51.3579 86.8497 52.4302 87.58 52.3706C89.6669 52.2167 91.7586 52.2465 93.8454 52.2167C96.6626 52.177 99.4897 52.1919 102.292 52.1373C104.355 52.1608 106.418 52.0347 108.463 51.76C108.652 51.7302 108.667 51.4869 108.567 51.3678C107.693 50.3749 106.674 49.5061 105.76 48.5429C105.378 48.1358 105.015 47.7089 104.637 47.3018C104.453 47.1032 104.215 46.8699 104.006 46.6167C108.016 48.6025 112.12 50.3302 116.244 52.0479C115.691 52.3336 115.118 52.5791 114.53 52.7827C113.392 53.1699 112.304 53.7756 111.206 54.2721C108.86 55.3196 106.53 56.4118 104.175 57.4444C104.056 57.4991 103.932 57.5537 103.807 57.6132C105.253 56.1983 106.789 54.8926 108.2 53.4231C108.265 53.3519 108.306 53.2616 108.316 53.1656C108.326 53.0696 108.305 52.9729 108.256 52.8896C108.207 52.8063 108.133 52.7409 108.044 52.7029C107.955 52.6649 107.856 52.6563 107.762 52.6784C104.406 53.2301 101.008 53.4974 97.6066 53.4777C95.9471 53.4777 94.2926 53.4777 92.6381 53.5323C90.974 53.4985 89.3104 53.6215 87.6695 53.8997C87.4012 53.9543 87.4856 54.3267 87.7291 54.3416C89.4433 54.4707 91.1624 54.3664 92.8865 54.3664C94.6106 54.3664 96.28 54.3664 97.9743 54.3664C100.902 54.3882 103.827 54.1857 106.724 53.7607C105.233 55.3593 103.514 56.7395 102.014 58.3132C101.953 58.3771 101.915 58.4587 101.905 58.546C101.895 58.6332 101.913 58.7214 101.958 58.7974C102.002 58.8733 102.069 58.933 102.15 58.9674C102.231 59.0019 102.321 59.0092 102.406 58.9884C102.983 58.857 103.542 58.657 104.071 58.3927C105.149 57.9558 106.212 57.4891 107.271 57.0076C109.69 55.9054 112.199 54.8579 114.51 53.5323C115.305 53.0855 116.075 52.6238 116.895 52.2167C116.924 52.1992 116.948 52.1751 116.966 52.1465C116.984 52.1178 116.996 52.0854 116.999 52.0516C117.002 52.0179 116.998 51.9839 116.986 51.9522C116.974 51.9206 116.954 51.8922 116.929 51.8692C116.938 51.8377 116.938 51.8044 116.93 51.7729C116.921 51.7414 116.904 51.7129 116.88 51.6905C116.326 51.3177 115.733 51.008 115.111 50.7671C114.485 50.4742 113.864 50.1713 113.253 49.8536C112.1 49.2678 111.012 48.5628 109.859 47.9819C108.865 47.4855 107.787 46.989 106.749 46.5323C105.71 46.0755 104.816 45.5394 103.837 45.0429C103.694 44.9872 103.536 44.9857 103.392 45.0388C103.249 45.0918 103.129 45.1958 103.057 45.3308Z" fill="#FF62C4"/>
<path d="M37.942 80.6589C47.8512 85.2242 59.4836 81.1123 63.9239 71.4746C68.3642 61.837 63.9308 50.3232 54.0217 45.7579C44.1125 41.1925 32.48 45.3044 28.0398 54.9421C23.5995 64.5797 28.0329 76.0935 37.942 80.6589Z" fill="#FF62C4"/>
<path d="M38.8868 79.9022C48.5245 84.3425 59.8355 80.3492 64.1506 70.9831C68.4658 61.6169 64.1511 50.4246 54.5135 45.9843C44.8758 41.5441 33.5648 45.5373 29.2497 54.9035C24.9345 64.2696 29.2492 75.4619 38.8868 79.9022Z" fill="white"/>
<path d="M38.8735 79.8961C30.117 75.8618 25.5439 65.8706 28.5838 56.6322C29.3653 54.2676 30.61 52.0832 32.2469 50.2037C33.8838 48.3243 35.8808 46.7867 38.1237 45.6788C40.3666 44.5708 42.8116 43.9143 45.3189 43.7467C47.8262 43.579 50.3466 43.9036 52.7362 44.7018C62.7875 48.046 68.311 58.8409 65.0433 68.7629C64.2616 71.1275 63.0167 73.3119 61.3797 75.1913C59.7426 77.0706 57.7455 78.6082 55.5025 79.7161C53.2595 80.8239 50.8144 81.4804 48.3071 81.648C45.7998 81.8155 43.2793 81.491 40.8896 80.6927C40.2034 80.4647 39.5303 80.1987 38.8735 79.8961ZM54.4976 46.0513C53.8616 45.7588 53.2099 45.5016 52.5456 45.2811C50.2337 44.5091 47.7953 44.1954 45.3697 44.3579C42.9441 44.5204 40.5789 45.1559 38.4092 46.228C36.2394 47.3002 34.3078 48.7881 32.7245 50.6066C31.1413 52.4251 29.9375 54.5386 29.1819 56.8263C26.0217 66.4273 31.3606 76.8698 41.0882 80.1063C43.4002 80.8782 45.8387 81.1917 48.2643 81.0291C50.69 80.8665 53.0553 80.2309 55.225 79.1587C57.3948 78.0864 59.3265 76.5984 60.9098 74.7798C62.493 72.9613 63.6968 70.8477 64.4524 68.5599C67.3937 59.6265 62.9674 49.9582 54.4958 46.0551L54.4976 46.0513Z" fill="#FF62C4"/>
<path d="M39.7731 77.3311C47.9176 81.0835 57.4604 77.743 61.0877 69.87C64.7149 61.997 61.053 52.5728 52.9085 48.8205C44.764 45.0681 35.2211 48.4086 31.5939 56.2816C27.9666 64.1546 31.6286 73.5788 39.7731 77.3311Z" fill="white"/>
<path d="M56.8989 75.6867C56.8631 75.6711 56.8326 75.6448 56.8101 75.6102C56.7906 75.5813 56.777 75.5472 56.7701 75.5098C56.7632 75.4724 56.7633 75.4325 56.7701 75.3925C56.777 75.3525 56.7907 75.3131 56.8102 75.2767C56.8298 75.2403 56.8549 75.2076 56.8841 75.1806C57.9137 74.2048 58.8392 73.0844 59.632 71.8539C59.677 71.7879 59.74 71.7406 59.8075 71.7221C59.8749 71.7036 59.9417 71.7152 59.9936 71.7546C60.0455 71.794 60.0785 71.858 60.0856 71.9331C60.0927 72.0082 60.0733 72.0885 60.0317 72.157C59.2068 73.4373 58.2438 74.6029 57.1724 75.6179C57.1328 75.6572 57.0861 75.6846 57.0377 75.6967C56.9893 75.7089 56.9412 75.7054 56.8989 75.6867Z" fill="#FF62C4"/>
<path d="M37.2484 49.948C37.1978 49.9245 37.1542 49.8881 37.1221 49.8428C37.0723 49.7745 37.0518 49.69 37.065 49.6078C37.0781 49.5257 37.124 49.4526 37.1924 49.4047C39.5141 47.7914 42.2293 46.8031 45.0752 46.5355C47.9212 46.2678 50.8017 46.7298 53.438 47.8767C56.0743 49.0237 58.3772 50.8168 60.124 53.0825C61.8707 55.3483 63.0022 58.01 63.4089 60.8103C63.4173 60.8525 63.4168 60.8959 63.4077 60.9376C63.3985 60.9794 63.3807 61.0188 63.3555 61.0533C63.3303 61.0878 63.2981 61.1168 63.2609 61.1385C63.2237 61.1602 63.1823 61.1741 63.1392 61.1794C63.0961 61.1847 63.0522 61.1813 63.0102 61.1693C62.9681 61.1574 62.9289 61.1372 62.8948 61.1099C62.8607 61.0827 62.8324 61.049 62.8118 61.0109C62.7911 60.9728 62.7785 60.931 62.7747 60.8882C62.3832 58.1961 61.2951 55.6371 59.6155 53.4589C57.936 51.2807 55.7218 49.5569 53.1872 48.4543C50.6525 47.3517 47.8832 46.9075 45.147 47.1648C42.4108 47.422 39.8003 48.372 37.568 49.9228C37.5222 49.9543 37.4685 49.9733 37.4124 49.9777C37.3563 49.9822 37.2997 49.9719 37.2484 49.948Z" fill="#FF62C4"/>
<path d="M39.825 77.355C32.394 73.9314 28.5394 65.3966 31.1541 57.482C32.0257 54.8426 33.5622 52.4722 35.616 50.5983C35.6465 50.5706 35.6821 50.5492 35.7209 50.5353C35.7597 50.5214 35.8008 50.5152 35.842 50.5172C35.8831 50.5191 35.9235 50.5292 35.9609 50.5467C35.9982 50.5643 36.0317 50.589 36.0594 50.6195C36.0872 50.65 36.1087 50.6856 36.1227 50.7243C36.1367 50.7631 36.1429 50.8042 36.141 50.8453C36.139 50.8864 36.129 50.9268 36.1115 50.964C36.094 51.0012 36.0693 51.0347 36.0388 51.0624C34.0653 52.8638 32.589 55.1422 31.7517 57.679C29.0505 65.8528 33.5262 74.7175 41.7328 77.4341C41.81 77.4619 41.8733 77.5186 41.9092 77.5923C41.9452 77.6659 41.951 77.7506 41.9254 77.8283C41.8998 77.9061 41.8448 77.9708 41.7721 78.0086C41.6995 78.0464 41.6149 78.0543 41.5364 78.0308C40.9539 77.8371 40.3826 77.6115 39.825 77.355Z" fill="#FF62C4"/>
<path d="M54.1474 60.8594L51.7921 61.2351L49.5527 61.5956C49.5278 61.3529 49.4523 61.1179 49.3311 60.9058C49.212 60.6942 49.0491 60.5103 48.8531 60.3665C48.3286 59.9493 47.711 59.6648 47.053 59.5372C46.1368 59.3102 45.1695 59.433 44.3414 59.8816C43.9509 60.1295 43.6168 60.4562 43.3605 60.8407C43.1042 61.2252 42.9313 61.659 42.8529 62.1145C42.7336 62.6479 42.7241 63.2003 42.8251 63.7381C42.9204 64.1961 43.1407 64.6193 43.4616 64.961C43.7503 65.2903 44.0982 65.563 44.4873 65.7648C44.8847 65.968 45.3072 66.118 45.7437 66.2109C46.4101 66.3728 47.105 66.3749 47.7714 66.2169C48.05 66.1686 48.315 66.0618 48.5487 65.9034C48.7844 65.7444 48.984 65.5379 49.1345 65.2971L49.2506 65.0453L44.1271 63.9456L45.9216 61.1882L54.0483 62.9204L52.2497 70.9455L48.5129 70.152L48.7423 69.0854C47.3265 69.7845 45.7024 69.9446 44.1735 69.5358C42.2725 69.211 40.5638 68.1788 39.3928 66.6478C38.835 65.8933 38.4564 65.0225 38.2857 64.1014C38.025 62.2096 38.4643 60.29 39.5214 58.702C40.0874 57.9322 40.8243 57.3037 41.6747 56.8654C43.5638 55.9457 45.7218 55.7291 47.7609 56.2546C49.2199 56.565 50.5917 57.197 51.7757 58.1043C52.8241 58.7661 53.6503 59.7258 54.1474 60.8594Z" fill="#FF62C4"/>
<path d="M49.9555 52.2273L46.841 51.6424L45.3609 57.8572L48.4669 58.4606L49.9555 52.2273Z" fill="#FF62C4"/>
<path d="M43.7803 67.3402L42.869 72.2025L45.9626 72.9509L46.889 68.0955L43.7803 67.3402Z" fill="#FF62C4"/>
<path d="M68.3933 41.3038C68.3388 41.3234 68.2918 41.3579 68.2583 41.4029C68.2249 41.4476 68.2058 41.5004 68.2034 41.5551C68.2009 41.6098 68.2152 41.664 68.2444 41.7115C68.2738 41.7593 68.3175 41.7979 68.3701 41.8223L69.2921 42.2325C69.969 42.5102 70.5766 42.92 71.0749 43.4349C71.5732 43.9498 71.9509 44.5581 72.183 45.2197C72.2908 45.5271 72.4149 45.8292 72.5548 46.1248C72.5759 46.1761 72.6127 46.2203 72.6605 46.2517C72.7077 46.2838 72.7638 46.3021 72.8218 46.3044C72.8797 46.307 72.9371 46.2937 72.9871 46.2663C73.0372 46.2389 73.0777 46.1983 73.1037 46.1495C73.2199 45.9196 73.3761 45.6253 73.5332 45.2803C73.8292 44.6455 74.2617 44.0764 74.8033 43.6088C75.345 43.1413 75.9839 42.7855 76.6799 42.564L77.6363 42.238C77.6904 42.218 77.737 42.1837 77.7707 42.1391C77.8044 42.0945 77.8236 42.0416 77.826 41.9867C77.8285 41.9319 77.8141 41.8775 77.7845 41.83C77.755 41.7826 77.7116 41.7442 77.6596 41.7195C77.36 41.5611 77.0521 41.4172 76.7371 41.2884C76.0605 41.0104 75.4531 40.6004 74.9549 40.0856C74.4566 39.5707 74.0788 38.9626 73.8463 38.3013C73.7248 37.9438 73.5913 37.6404 73.4963 37.3971C73.4748 37.3461 73.4381 37.3021 73.3907 37.2703C73.3434 37.2381 73.2875 37.2194 73.2295 37.2163C73.1714 37.2138 73.1139 37.2275 73.0641 37.2556C73.0136 37.2826 72.973 37.3233 72.9475 37.3725C72.7816 37.6545 72.6309 37.9442 72.496 38.2407C72.2057 38.8789 71.7751 39.4509 71.2327 39.9191C70.6902 40.3874 70.0484 40.7411 69.3493 40.957C69.0245 41.0571 68.7054 41.1728 68.3933 41.3038Z" fill="#FF62C4"/>
<path d="M14.2947 69.3089C14.2555 69.3246 14.2217 69.3513 14.1973 69.3856C14.1729 69.42 14.1588 69.4607 14.1568 69.5028C14.155 69.545 14.1654 69.5868 14.1869 69.6232C14.2075 69.66 14.2388 69.6897 14.2768 69.7082L14.9489 70.0246C15.4396 70.2366 15.8796 70.5507 16.2395 70.946C16.601 71.3413 16.8751 71.8084 17.0441 72.3167C17.1197 72.5532 17.2082 72.7854 17.3092 73.0123C17.3251 73.0513 17.3516 73.085 17.3859 73.1094C17.4202 73.1341 17.4609 73.1482 17.5031 73.1501C17.5452 73.152 17.5871 73.1416 17.6234 73.1201C17.6597 73.0988 17.6892 73.0676 17.7085 73.0302C17.7949 72.8543 17.9089 72.6264 18.0247 72.3607C18.2404 71.8715 18.5559 71.4328 18.9511 71.0727C19.3452 70.7128 19.8093 70.438 20.3143 70.2652L21.012 70.0104C21.0514 69.9953 21.0853 69.9686 21.1091 69.9337C21.1338 69.8994 21.1479 69.8587 21.1498 69.8165C21.1516 69.7744 21.1412 69.7326 21.12 69.6962C21.0987 69.6598 21.0674 69.6302 21.0299 69.6111C20.8118 69.4908 20.5876 69.3818 20.3582 69.2847C19.8685 69.0708 19.4289 68.7569 19.0676 68.3632C18.706 67.9684 18.4326 67.5012 18.2655 66.9926C18.174 66.7176 18.0809 66.4779 18.0106 66.2949C17.9948 66.256 17.9682 66.2223 17.934 66.1978C17.8997 66.1732 17.8589 66.159 17.8168 66.1571C17.7746 66.1552 17.7328 66.1657 17.6964 66.1871C17.6601 66.2085 17.6306 66.2396 17.6113 66.277C17.4909 66.4951 17.382 66.7192 17.2849 66.9487C17.0716 67.4394 16.7571 67.8796 16.3622 68.2406C15.9673 68.6016 15.5007 68.8754 14.9928 69.044C14.7228 69.1357 14.4883 69.2264 14.2947 69.3089Z" fill="#FF62C4"/>
<g clip-path="url(#clip1_457_1737)">
<path d="M7.31123 55.7092C6.2283 55.3915 5.23876 54.8168 4.42934 54.0357C3.61993 53.2545 3.01535 52.2907 2.6686 51.2287C2.4584 50.6287 2.61787 50.4315 2.8169 50.2534C8.20357 45.577 12.6138 39.97 16.8761 34.5477C17.7852 33.3928 18.7224 32.2041 19.658 31.0307C22.0496 28.0468 24.944 24.5619 28.3516 21.3667C28.7597 20.9847 29.8016 19.9955 29.089 18.5948C29.2895 15.542 26.9179 14.3231 25.1793 13.4283C21.9863 11.8105 18.7101 10.3601 15.3645 9.083C13.6318 8.40902 13.2309 7.64244 13.6506 5.80793C13.9404 4.69315 14.3185 3.60318 14.7812 2.54804C14.9702 2.08012 15.1616 1.61289 15.3446 1.11976C15.4979 0.712099 15.7337 0.330584 16.7673 0.531324C17.5701 0.687145 18.3829 0.882337 19.186 1.1113C21.7338 1.8561 24.1899 2.88367 26.507 4.17426C29.4677 5.78799 32.4182 7.89195 35.785 10.7929C36.3485 11.2858 36.9957 11.6762 37.6962 11.9457C39.3837 12.6016 40.7315 13.8547 41.6924 15.694C42.6828 17.5783 43.9809 19.2008 45.2337 20.7685C45.5292 21.1345 45.8197 21.4991 46.1047 21.8648C48.5691 25.0146 51.2376 28.8697 52.3417 33.5964C52.8357 35.7175 52.8868 37.6001 52.4953 39.354C52.4569 39.6606 52.3051 39.9416 52.0691 40.143C52.0152 40.1716 51.9554 40.1882 51.8941 40.1914C51.8328 40.1947 51.7714 40.1846 51.7143 40.1619C51.472 40.0786 51.251 39.9435 51.0673 39.7661C49.511 38.3805 48.4741 36.5012 47.4707 34.6811L47.0033 33.8408C45.5075 31.1815 43.7356 28.6818 41.7164 26.3823C41.3883 25.952 40.9369 25.6287 40.4215 25.4548C39.9043 25.317 39.355 25.3765 38.8833 25.6215C38.8351 25.6404 38.7835 25.6496 38.7315 25.6487C38.6795 25.6477 38.6282 25.6367 38.5804 25.6161C38.3943 25.556 38.2172 25.4712 38.0538 25.3642C37.8109 25.2099 37.5474 25.09 37.2711 25.008C35.9268 24.6247 34.9965 25.5571 34.6168 25.9602C32.3752 28.251 30.6095 30.8968 28.906 33.4637L28.4676 34.1006C26.6247 36.8184 24.5686 39.3883 22.3182 41.7869C20.2197 44.0586 18.1186 46.3948 16.0874 48.6439C14.8847 49.9777 13.6784 51.3114 12.4686 52.645C12.1945 52.9043 11.9863 53.2241 11.8609 53.5785C11.7355 53.9329 11.6963 54.3121 11.7465 54.6855C11.8151 55.1043 11.785 55.4792 10.8549 55.7515C9.70445 56.0826 8.47847 56.0732 7.32807 55.7244L7.31123 55.7092ZM31.8355 21.6372C30.6357 21.2952 29.6877 22.1781 29.2866 22.5542C25.8573 25.751 22.9276 29.3225 19.7269 33.3149C18.8653 34.3869 18.0017 35.4843 17.167 36.5457L17.1465 36.5711C13.5536 41.1406 9.83526 45.8622 5.45299 49.8387C4.87853 50.3585 4.61313 50.9273 4.62799 51.5159C4.64285 52.1046 4.97468 52.6401 5.58362 53.1138C5.90473 53.3619 6.24252 53.5886 6.55161 53.8046L6.95636 54.0843L7.06885 54.1634L7.20597 54.2025C7.26229 54.2185 7.31371 54.2332 7.36513 54.2478C8.63838 54.6108 9.39347 53.7825 9.80161 53.3353L9.84054 53.2916C10.5755 52.4906 11.3108 51.6914 12.0464 50.894C13.4892 49.3251 14.9842 47.7032 16.4341 46.0815C17.3608 45.0412 18.3095 44.0071 19.2267 43.0189C21.533 40.5012 23.9386 37.9048 26.0529 35.1132C27.0128 33.845 27.897 32.5081 28.752 31.2178C30.1559 29.0794 31.6228 26.8781 33.4098 25.0212C34.0368 24.3729 34.0456 23.5248 33.4387 22.8118C32.8635 22.1547 32.3693 21.7894 31.8355 21.6372ZM43.6161 21.4371C43.3482 21.3661 43.0661 21.3694 42.8012 21.4467C42.5362 21.524 42.2985 21.6723 42.1145 21.8752C40.8166 23.1123 41.7037 24.2445 41.9958 24.5573C44.959 27.685 47.2023 30.8397 48.853 34.2063L49.1464 34.8118L50.8983 34.2389L50.7636 33.5874C49.827 29.0624 47.221 25.4991 44.6321 22.2381L44.6166 22.218C44.3773 21.8577 44.026 21.5835 43.6161 21.4371ZM37.2381 13.3205C36.2268 13.0322 35.4807 13.764 35.2355 14.0019C34.3175 14.9333 33.3077 15.7719 32.221 16.5055C31.6037 16.9062 31.2653 17.3967 31.2105 17.9603C31.1557 18.5239 31.3957 19.0567 31.9108 19.5715C33.4141 21.0844 35.1734 22.326 37.1081 23.2395L37.1781 23.2725C37.3235 23.3468 37.4755 23.4076 37.632 23.4541C37.8978 23.5386 38.1825 23.5429 38.4495 23.4666C38.7166 23.3903 38.9538 23.2367 39.1309 23.0257C39.3123 22.8165 39.5377 22.5833 39.7495 22.3698C40.3104 21.8044 40.9458 21.1637 41.2127 20.2927L41.2512 20.1575C41.4232 19.5543 41.5611 18.9779 41.3625 18.3186C40.835 16.6028 39.7753 15.1657 37.9181 13.684C37.7187 13.5183 37.4872 13.3945 37.2381 13.3205ZM18.9249 2.56576C16.6698 1.92284 16.2283 2.96061 15.6974 4.71125L15.6555 4.85844C15.6445 4.89705 15.6341 4.93323 15.6252 4.9646C15.3102 5.68881 15.2733 6.33837 15.5157 6.89017C15.8595 7.67175 16.6506 8.03558 17.2144 8.24065C21.3865 9.77438 25.3953 11.717 29.1804 14.0394C29.6407 14.3458 30.1398 14.5907 30.6645 14.7677C32.0749 15.1698 32.9398 14.2162 33.6547 13.4547C33.8452 13.275 33.9959 13.0582 34.0972 12.8177C34.1986 12.5773 34.2484 12.3184 34.2437 12.0572C34.2135 11.8071 34.1304 11.5657 33.9998 11.3487C33.8691 11.1317 33.6939 10.9438 33.4856 10.7975C28.8292 6.99659 24.2742 4.37258 19.5571 2.77209C19.2982 2.67739 19.0963 2.61463 18.9249 2.56576Z" fill="#FF62C4"/>
</g>
<defs>
<clipPath id="clip0_457_1737">
<rect width="46.5637" height="55.7615" fill="white" transform="translate(149.288 3) rotate(15.9125)"/>
</clipPath>
<clipPath id="clip1_457_1737">
<rect width="46.5637" height="55.7615" fill="white" transform="translate(15.2881) rotate(15.9125)"/>
</clipPath>
</defs>
</svg>
