<svg width="12" height="13" viewBox="0 0 12 13" fill="none" xmlns="http://www.w3.org/2000/svg">
<rect width="12" height="13" fill="#E5E5E5"/>
<g id="Landing Page" clip-path="url(#clip0_133_2)">
<rect width="1280" height="6596" transform="translate(-254 -626)" fill="#EAE5E5"/>
<g id="Rectangle 75">
<path d="M-254 -478H1027V180H-254V-478Z" fill="#E1E9FF" fill-opacity="0.77" style="mix-blend-mode:multiply"/>
</g>
<g id="Capa_1" clip-path="url(#clip1_133_2)">
<path id="Vector" opacity="0.87" d="M1022 180H-276V38.1161C-257.688 11.834 -232.113 -8.89522 -202.214 -21.6886C-172.316 -34.4821 -139.309 -38.8205 -106.986 -34.2051C-74.6626 -29.5898 -44.3363 -16.2081 -19.4926 4.40182C5.35107 25.0117 23.7038 52.0133 33.4558 82.3027C33.6711 82.9547 33.8737 83.6312 34.089 84.3078C37.373 95.0568 39.5491 106.096 40.5854 117.263C47.9577 112.801 56.7466 111.09 65.3197 112.447C73.8928 113.805 81.6674 118.139 87.1994 124.644C97.8138 108.639 111.686 94.9126 127.963 84.3078C151.426 69.0544 179.022 60.9115 207.255 60.9115C235.487 60.9115 263.084 69.0544 286.547 84.3078C304.525 96.0406 319.538 111.571 330.464 129.737C332.106 129.535 333.76 129.432 335.415 129.429C344.675 129.438 353.672 132.423 361.002 137.919C368.332 143.416 373.584 151.114 375.938 159.814C377.204 159.814 378.471 159.814 379.8 159.74C400.512 159.708 420.981 164.075 439.774 172.533C447.401 162.546 457.122 154.244 468.296 148.175C479.469 142.106 491.841 138.409 504.593 137.326C517.346 136.244 530.19 137.801 542.278 141.896C554.365 145.991 565.421 152.53 574.716 161.081C576.797 157.036 579.869 153.549 583.661 150.927C587.454 148.304 591.851 146.626 596.466 146.039C601.082 145.452 605.776 145.975 610.135 147.562C614.495 149.149 618.386 151.751 621.469 155.139C627.671 132.053 641.628 111.639 661.127 97.1317C680.627 82.6245 704.553 74.8547 729.113 75.0539C753.674 75.2531 777.463 83.4098 796.71 98.2311C815.958 113.053 829.562 133.69 835.367 156.874C838.604 154.596 842.299 153.006 846.211 152.209C850.123 151.413 854.165 151.426 858.071 152.249C861.978 153.072 865.661 154.686 868.882 156.986C872.103 159.286 874.789 162.219 876.763 165.595C886.303 155.365 898.185 147.456 911.451 142.509C924.718 137.562 938.995 135.715 953.132 137.117C967.268 138.52 980.867 143.131 992.83 150.581C1004.79 158.03 1014.79 168.108 1022 180Z" fill="#EAE5E5"/>
</g>
<g id="Get Started --&#62;">
<g id="Learn more">
<path id="Rectangle 6" d="M-158 -14C-158 -19.5228 -153.523 -24 -148 -24H40C45.5228 -24 50 -19.5228 50 -14V26C50 31.5228 45.5228 36 40 36H-148C-153.523 36 -158 31.5228 -158 26V-14Z" fill="#2C2C2C"/>
<path id="Vector_2" d="M10.1921 12.8521L8.64244 12.9824L9.71507 3.24199L2.80488 10.6459L1.84411 9.51104L8.75429 2.10709L0.0541623 2.83773L0.246012 1.10362L10.3863 0.250208L10.2376 1.59995L11.4432 1.49859L10.1921 12.8521Z" fill="#EAE5E5"/>
</g>
</g>
</g>
<defs>
<clipPath id="clip0_133_2">
<rect width="1280" height="6596" fill="white" transform="translate(-254 -626)"/>
</clipPath>
<clipPath id="clip1_133_2">
<rect width="1298" height="216" fill="white" transform="translate(-276 -36)"/>
</clipPath>
</defs>
</svg>
