<svg width="154" height="157" viewBox="0 0 154 157" fill="none" xmlns="http://www.w3.org/2000/svg">
<path d="M6.37606 84.0133L9.85364 82.2484L19.6864 101.818L26.54 80.9754L30.238 82.1925L23.3844 103.035L42.9099 93.128L44.6584 96.613L21.903 108.164L20.5407 105.452L17.8351 106.825L6.37606 84.0133Z" fill="#FF62C4"/>
<path d="M39.0047 127.219L42.4823 125.454L52.315 145.024L59.1687 124.181L62.8667 125.399L56.0131 146.241L75.5386 136.334L77.287 139.819L54.5316 151.37L53.1693 148.658L50.4638 150.031L39.0047 127.219Z" fill="#FF62C4"/>
<path d="M44.6257 46.1281L48.1033 44.3632L57.936 63.9329L64.7896 43.0901L68.4877 44.3072L61.634 65.1501L81.1596 55.2428L82.908 58.7277L60.1526 70.2785L58.7903 67.5666L56.0848 68.9397L44.6257 46.1281Z" fill="#FF62C4"/>
<path d="M77.2544 89.3346L80.7319 87.5697L90.5647 107.139L97.4183 86.2967L101.116 87.5138L94.2627 108.357L113.788 98.4493L115.537 101.934L92.7813 113.485L91.419 110.773L88.7134 112.146L77.2544 89.3346Z" fill="#FF62C4"/>
<path d="M79.945 8.72964L83.4226 6.96473L93.2553 26.5345L100.109 5.69169L103.807 6.9088L96.9534 27.7516L116.479 17.8444L118.227 21.3293L95.4719 32.8801L94.1096 30.1681L91.4041 31.5412L79.945 8.72964Z" fill="#FF62C4"/>
<path d="M112.574 51.9362L116.051 50.1713L125.884 69.7411L132.738 48.8982L136.436 50.1153L129.582 70.9582L149.108 61.0509L150.856 64.5358L128.101 76.0866L126.738 73.3747L124.033 74.7478L112.574 51.9362Z" fill="#FF62C4"/>
</svg>
